<?xml version="1.0" encoding="UTF-8"?>
<svg id="Layer_2" xmlns="http://www.w3.org/2000/svg" version="1.1" viewBox="0 0 897 188.2">
  <!-- Generator: Adobe Illustrator 29.3.1, SVG Export Plug-In . SVG Version: 2.1.0 Build 151)  -->
  <defs>
    <style>
      .st0 {
        fill: #2a2042;
      }
    </style>
  </defs>
  <g id="ShadowTable">
    <g>
      <path class="st0" d="M805,182.1c-.2,0-.3,0-.5,0,0,0-.2,0-.3,0,.3,0,.5,0,.8,0h0Z"/>
      <path class="st0" d="M897,150.3c0-.7-.1-1.5-.3-2.2-.8-4.7-3.8-8.7-7-12.2-5.7-6.2-12.6-11.2-19.4-16.1-7.5-5.3-15.2-10.4-22.7-15.7-7.5-5.3-14.7-10.9-21.8-16.7-7-5.7-13.9-11.4-20.7-17.3-3.5-3.1-6.9-6.2-10.2-9.4-3.1-3-6.2-6-9.2-9-6.5-6.4-13-12.8-20.1-18.5-7.3-5.9-14.8-11.5-22.3-17.1-3.6-2.7-7.2-5.3-10.8-7.9-1.8-1.3-3.7-2.6-5.6-3.7-3.1-1.9-6.5-3.8-10.2-4.2-2.4-.3-4.7-.2-7.1-.2-2,0-4.1.2-6.1.3-3.9.2-7.8.3-11.7.5-8.6.4-17.2.8-25.8,1.4-.3,0-.5,0-.8,0,0,0-.2,0-.3,0-.6,0-1.2,0-1.7.1.2,0,.4,0,.6,0-3.4.2-6.9.5-10.3.7-14.8,1-29.6,1.7-44.4,2-14.8.3-29.6.4-44.5.6-19.1.3-38.1.7-57.2.9-19.1.2-38.2.7-57.3,1.4-19,.7-37.9,1.6-56.9,2.7-19.1,1.1-38.2,2.3-57.3,2.7-9.5.2-19,.4-28.4.5-10.1,0-20.3,0-30.4,0-19,0-37.9-.4-56.8-.1-19.5.2-38.9,1-58.4,2.3-4.2.3-8.5.6-12.7,1-4.7.5-9.4.9-14,1.5-4.8.6-9.6,1.2-14.4,2.1-2.5.5-4.9,1-7.4,1.6-2.7.6-5.3,1.6-7.8,2.8-2.2,1.1-4.1,2.7-5.8,4.5-1.3,1.4-2.6,2.8-3.8,4.3-2.6,3.1-5,6.2-7.5,9.4-5.5,7-10.9,14.1-16,21.5-5.4,7.8-9.8,16.3-14.5,24.5-2.2,3.9-4.3,7.7-6.6,11.5-2.4,3.9-4.9,7.8-7.4,11.7-4.3,6.2-8.7,12.3-13.1,18.4-3.8,5.3-7.7,10.6-11.2,16.2-.3.3-.6.8-.6,1.3s0,.3,0,.4c-2.1,2.3-4.3,4.5-6.4,6.8-2.5,2.7-5.2,5.5-7.4,8.4-1.1,1.5-2.3,3.1-3.2,4.8-.5.9-.9,1.8-1.2,2.8-.5,1.4-.7,2.7-.8,4.2,0,1.5.5,3.2,1.2,4.6.7,1.2,1.7,2.2,2.9,3,2,1.4,4.3,2,6.7,2.4,4.4.7,8.9,1,13.3,1.1,7.9.3,15.7.2,23.6.1,8.9,0,17.7-.1,26.6-.2,18.1-.2,36.3-.7,54.4-1.8,19-1.1,37.9-2.9,56.9-4.2-.2,0-.5,0-.7,0,8.1-.5,16.2-1,24.3-1.4,8.1-.3,16.1-.6,24.2-.9,9.4-.4,18.8-.7,28.2-1.1,9.5-.4,19-.7,28.5-.9,5-.1,9.9-.2,14.9-.3,5.1,0,10.3,0,15.4,0,9.4,0,18.7.4,28.1.8,19.1.8,38.3,2,57.4,3.1,19.2,1.1,38.4,2.2,57.6,3.2,37.8,2.1,75.6,2.8,113.4,3.6,18.9.4,37.8,1,56.7,1.3,5.6,0,11.2.1,16.7.1,13.2,0,26.4-.2,39.7-.6,19.7-.5,39.3-1.3,59-2.3,9.6-.5,19.3-1,28.9-1.6,8.9-.5,17.8-1,26.7-1.6,1.7-.1,3.3-.2,5-.3-.3,0-.5,0-.8,0,1,0,2-.1,3.1-.2.3,0,.5,0,.8,0,8-.5,16-1.1,23.9-1.9,8.2-.8,16.3-1.6,24.4-3.1,4-.7,7.9-1.6,11.7-2.8,1.2-.4,2.4-.7,3.5-1.2.9-.4,1.9-.7,2.8-1.1,2.5-1.1,5.1-2.3,7.4-3.8,1.9-1.3,3.8-2.5,5.3-4.2,1.1-1.2,2.2-2.4,3-3.9.9-1.8,1.8-3.6,2.1-5.6.1-.8.2-1.6.2-2.4,0-.4,0-.9,0-1.3h0ZM265.7,139.1c-2.2,2.8-4.6,5.5-6.4,8.6-.8,1.4-1.8,2.8-2.5,4.2-.4-.5-.7-.9-1.1-1.4-1.5-2.3-2.8-4.7-4.1-7.1-1-2.1-1.9-4.2-2.8-6.3.2-.2.5-.3.7-.5,6.4-4.5,12.7-9,19.1-13.5-.2,1.5-.5,3.1-.7,4.6-.5,3.2-1,6.4-1.6,9.6-.1.4-.2.9-.3,1.4-.1.1-.2.2-.3.4ZM42.8,123.1c-.3.4-.6.7-.8,1.1-.3.4-.6.8-1,1.2.6-.8,1.2-1.6,1.9-2.4,0,0,0,0,0,0h0ZM37.6,129.8c.5-.7,1.1-1.4,1.6-2.1-.5.7-1.1,1.4-1.6,2.1ZM20,163.5h0c.3-.4.7-.7,1-1.1-.3.4-.7.7-1,1.1ZM45.1,120.2c-.2.2-.3.4-.5.7,1-1.3,2-2.6,2.9-3.9-.8,1.1-1.6,2.1-2.4,3.2ZM144,26.2c-.3,0-.6,0-.9,0,.4,0,.9,0,1.3-.1-.1,0-.3,0-.4,0ZM144.4,26.2c.4,0,.9,0,1.4-.1-.4,0-.9,0-1.4.1h0ZM207.4,33.4c.4,1.8.8,3.5,1.2,5.3-5.1,4-10.1,8.1-15.2,12.2v-.6c.1-2.1.2-4.2.4-6.3,1.1-1.2,2.2-2.4,3.4-3.5,3.2-3.4,6.4-6.7,9.6-10.1.2,1,.5,2.1.7,3.1h0ZM315.4,32.2c0,.1,0,.2,0,.4,0,.8.2,1.7.3,2.6-1,.9-2,1.8-2.9,2.7-.7.6-1.3,1.2-2,1.8-.1-1.2-.3-2.5-.5-3.7.8-.6,1.6-1.2,2.4-1.7.9-.7,1.8-1.3,2.7-2h0ZM340.6,23.8c5.8-.2,11.6-.4,17.5-.6-.7,0-1.5,0-2.2,0-.2.6-.4,1.2-.5,1.8-.1,1.2-.3,2.4-.2,3.6.1,2.8.4,5.6.7,8.4.3,3,.6,5.9,1,8.9-1.7,1.2-3.4,2.3-5,3.5-5.4,3.8-10.9,7.5-16.3,11.2-.8-3.3-1.6-6.7-2.4-10-1-4.1-1.9-8.2-2.8-12.3-.2-1-.5-2.1-.7-3.2.5-.5,1-.9,1.5-1.4,3.5-3.4,7-6.7,10.5-10.1-.3,0-.6,0-.9,0h0ZM425,23.5c.3,1.6.8,3.1,1.2,4.7l4,15.5c.3,2,.6,4,.9,6-.3.2-.6.4-1,.6-4.5,2.9-9,5.8-13.5,8.7-.5-1.1-1.4-2.1-2.6-2.6,0,0-.2,0-.2,0,1-6,2-12,3-18,0,.2-.1.5-.1.7,1.3-6.3,2.5-12.6,3.9-19,3.2-.1,6.3-.3,9.5-.4-1.9,0-3.9.2-5.8.2.2,1.2.5,2.3.7,3.5ZM459.7,29.4c-.6-3.5-1.1-7.1-1.7-10.6,6.2-.2,12.5-.4,18.7-.5,0,.2,0,.4,0,.5-5.1,3.4-10.3,6.9-15.3,10.5-.5.4-1.1.8-1.6,1.1,0-.3-.1-.7-.1-1ZM523.7,57.4c0,1.1,0,2.3.1,3.4,0,.5,0,1.1,0,1.6-2.5,1.5-5,3-7.6,4.5,1.3-1.6,2.5-3.1,3.7-4.7,1.2-1.6,2.5-3.2,3.7-4.9h0ZM819.6,119.1c-7.1,5.2-14.1,10.4-21.2,15.6-.3-1.6-.6-3.1-1-4.7-.2-1.1-.5-2.1-.7-3.2,6.2-3.6,12.3-7.3,18.5-10.9,1.6-.9,3.1-1.8,4.7-2.8-.1,1.9-.3,3.9-.4,5.9h0ZM697.5,103l2.2,10c.4,1.9,1,3.8,1.5,5.6.9,3,1.8,5.9,2.8,8.8.2.6.5,1.3.7,1.9,0,0,0,0-.1,0-3.6,2.1-7.2,4.2-10.8,6.4-.6-9.4-1.2-18.8-1.8-28.2,1.8-1.5,3.6-3,5.4-4.5h0ZM695.5,157.8c-.2-3.3-.5-6.5-.7-9.8,1.5-.9,2.9-1.8,4.4-2.7,2.9-1.8,5.8-3.6,8.6-5.4.3,2.1.6,4.1.9,6.1-4.4,3.9-8.8,7.8-13.2,11.7h0ZM776,107.1c-3.9,3.1-7.8,6.1-11.7,9.2-.3-1.8-.5-3.6-.8-5.4,0,0,0,0,0,0,3.7-3.6,7.2-7.3,10.8-10.9.7-.7,1.3-1.3,2-2-.1,3.1-.3,6.1-.4,9.2ZM753.2,138.8s0,0,0,0c0,.6.2,1.2.3,1.8-.1,0-.3.1-.4.2v-1.9h0ZM734.8,122.9c-3.7,3.3-7.3,6.6-11,9.8-.2-.8-.5-1.6-.7-2.5.3-.2.7-.4,1-.6,3.8-2.4,7.6-4.8,11.3-7.3-.2.2-.4.4-.6.6h0ZM753.1,168.4v-15.5c.8-.5,1.5-.9,2.3-1.4.5,2.8,1,5.6,1.5,8.3.3,1.7.6,3.3,1,5-.3.2-.6.4-.9.7-1.3.9-2.5,1.9-3.8,2.9h0ZM770.1,150c0,.3.1.6.2,1-.5-2.5-.9-5-1.4-7.5,2-1.2,4-2.4,6.1-3.6,0,2.4,0,4.9-.1,7.3,0,1.7,0,3.5,0,5.2-1.2.9-2.4,1.8-3.6,2.7-.3-1.7-.7-3.3-1-5h0ZM767,132.9c-.2-1.1-.4-2.2-.6-3.3,0-.4-.1-.9-.2-1.3,3.1-2.5,6.1-5,9.2-7.5,0,2.5-.2,5.1-.2,7.6-2.7,1.5-5.5,3-8.2,4.6h0ZM791.3,94.8c-.1-1.2-.2-2.5-.4-3.8,0-1.6.1-3.1.2-4.7,2.3-1.4,4.5-2.8,6.8-4.3-.3-.2-.5-.5-.8-.7,2,1.8,4,3.6,6,5.3-.3-.3-.7-.6-1-.9-.9.8-1.8,1.6-2.8,2.3-2.7,2.2-5.3,4.4-8,6.7ZM789.2,74c-1.1-1-2.2-2.1-3.3-3.1,1.1,1.1,2.2,2.1,3.3,3.2,0,0,0,0,0,0h0ZM782.5,67.6c.8.8,1.5,1.5,2.3,2.3-.8-.8-1.5-1.5-2.3-2.3ZM776.5,61.4c0,2.4,0,4.8,0,7.2,0,1.3,0,2.6,0,3.8.2,3.6.4,7.1.7,10.7-1.2,1.2-2.3,2.3-3.5,3.4-.8.7-1.5,1.5-2.2,2.2-3.3,2-6.6,4.1-9.9,6.1,0-.5-.1-1.1-.2-1.6.5-2.9.9-5.8,1.4-8.7.7-4.3,1.3-8.6,1.9-12.9.3-2.4.6-4.9.9-7.3,2.3-1,4.6-1.9,7-2.7,1-.4,2.1-.7,3.2-1,.7.7,1.3,1.4,2,2.1-.4-.4-.8-.8-1.1-1.2h0ZM779.2,64.1c.7.7,1.4,1.4,2,2.1-.7-.7-1.4-1.4-2-2.1ZM764,49c.3.3.5.5.8.8-.3-.3-.5-.5-.8-.8ZM755.4,41.6c.2.2.4.3.6.5-.2-.2-.4-.3-.6-.5ZM739.6,103.3c0,1.7-.1,3.4-.2,5.1-2.7,1.6-5.3,3.3-8,4.9-3.7,2.3-7.4,4.5-11.1,6.7-.1-.5-.3-1-.4-1.5-.3-1.2-.6-2.4-.8-3.6-.4-1.6-.8-3.3-1.1-4.9,0-1-.2-2-.2-3-.4-5.7-.8-11.4-1.2-17.2,2.9-1.6,5.7-3.3,8.6-4.9,3.3-1.9,6.7-3.8,10-5.6,1.9-1,3.9-2.1,5.8-3.1-.5,9-.9,18-1.2,27.1h0ZM715.5,74.2c0-.2,0-.4,0-.6,1.4-.9,2.8-1.9,4.2-2.8-1.4,1.1-2.8,2.2-4.2,3.4h0ZM691.4,77.6c-.3.2-.7.4-1,.7-.4-6.9-.8-13.9-1.2-20.8,1.1,6.5,2.2,13,3.3,19.4-.4.2-.7.5-1.1.7h0ZM654.8,101.8c-.3-1-.6-2.1-.9-3.1-.9-3.1-1.8-6.1-2.7-9.2,0-.2-.1-.5-.2-.7.2-.2.4-.3.6-.5,7.9-6.6,15.7-13.1,23.6-19.7.1-.1.3-.2.4-.3.2,5.5.3,10.9.5,16.4,0,1,0,1.9.1,2.9-3.5,2.3-7,4.6-10.4,6.9-3.7,2.5-7.4,4.9-11.1,7.4h0ZM608.1,163.9c0-.2-.2-.4-.3-.6-1.3-3.1-2.6-6.2-3.9-9.3,1.7-.9,3.3-1.8,5-2.7.2,1.7.4,3.3.5,5,.2,1.9.4,3.9.7,5.8-.7.6-1.3,1.2-2,1.8h0ZM453.8,168.6c-1.3-2.3-2.6-4.7-3.9-7,.7-.5,1.4-.9,2-1.4.6,2.8,1.2,5.6,1.8,8.4h0ZM401.4,147.7c1.4-.7,2.8-1.5,4.2-2.2.7-.4,1.4-.8,2.1-1.2.8,5.6,1.5,11.1,2.4,16.7,0,.4.1.7.2,1.1-.5.5-1.1,1.1-1.6,1.6-2.5-5.3-4.9-10.6-7.3-16h0ZM478.3,50.1c.7-.7,1.3-1.5,1.9-2.3.1,3.1.3,6.1.4,9.2-5.3,3.9-10.5,7.8-15.7,11.7-.1-1.2-.3-2.3-.4-3.5,1.4-1.4,2.8-2.8,4.1-4.2,1.3-1.3,2.5-2.8,3.8-4.2,0,0,0,0,0,0,.1-.1.2-.2.3-.3.5-.5,1-1.1,1.4-1.6.1-.1.3-.3.4-.4,1.2-1.4,2.5-2.8,3.7-4.2h0ZM628,140.8c0,.5,0,1,0,1.5-.1-.4-.3-.9-.4-1.3.1,0,.2-.1.4-.2h0ZM627.3,120c-.6.4-1.1.8-1.7,1.1-1.2.8-2.4,1.6-3.6,2.3-.2-.6-.4-1.2-.6-1.8,1.8-3.9,3.2-7.9,4.5-12,.4-.3.7-.6,1.1-.9,0,3.7.2,7.5.3,11.2h0ZM552.3,122.1c-.4-1.2-.8-2.3-1.2-3.5.4-.2.8-.4,1.2-.7,5.1-3,10.2-6,15.2-9,.3.9.7,1.7,1.1,2.6-3.6,2.3-7.2,4.7-10.7,7.1-1.8,1.2-3.7,2.4-5.5,3.6h0ZM594.1,122.4c0,0-.2.2-.3.2-.3-.3-.7-.7-1-1,3.4-2.9,6.8-5.8,10.2-8.7.2-.2.4-.3.6-.5,0,.2.1.5.2.8.1.4.2.7.3,1.1-3.3,2.7-6.7,5.4-10,8.1h0ZM618.9,77.9c-1.2.8-2.5,1.7-3.7,2.5,0,0,0-.2,0-.3,1.2-.8,2.5-1.5,3.7-2.2h0s0,0,0,0ZM598,91.6c0,0,0,.1,0,.2-4.2,2.8-8.4,5.6-12.5,8.4,0,0,0,0,0-.2-.2-.6-.3-1.1-.5-1.7,4.2-2.6,8.5-5.1,12.8-7.7,0,.3.2.7.3,1h0ZM594,74c.3,1.4.6,2.8.9,4.2-4.4,2.6-8.7,5.2-13.1,7.9,0-.1,0-.2,0-.3,0-.1,0-.2,0-.3,1.9-1.7,3.7-3.4,5.6-5.2,2.2-2.1,4.5-4.2,6.8-6.3h0ZM558.2,79.4c.2,1,.5,2,.7,3,.6,2.4,1.3,4.9,2,7.3-1.2,1.1-2.4,2.1-3.6,3.2-3.7,3.3-7.5,6.6-11.2,9.9-.6-2-1.2-4-1.8-6.1-.2-.8-.5-1.7-.8-2.5-.2-.7-.3-1.3-.5-2,.6-.6,1.3-1.2,1.9-1.8,1-1,2.1-1.9,3.1-2.9.2-.2.4-.3.7-.5,3.1-2.5,6.3-5,9.4-7.5h0ZM525.9,118.8c-2.2,1.3-4.5,2.5-6.7,3.8-.4.2-.8.5-1.2.7-.5-1.5-1-3-1.5-4.5,2-2.2,4.1-4.3,6.1-6.4,1-1,2-2,2.9-3,.1,3.2.2,6.3.4,9.4h0ZM484.8,136.6c.2,3.9.5,7.8.8,11.7-.4.8-.8,1.5-1.3,2.2l-4.4-10.3c1.6-1.2,3.3-2.4,4.9-3.7h0c0,.1,0,.1,0,.1ZM483.2,123c-2.7,2-5.4,4-8.1,6-.9-2.2-1.9-4.4-2.8-6.6-.3-1.7-.6-3.5-.9-5.2,1.8-1.8,3.5-3.7,5.3-5.5,2.1-2.2,4.1-4.4,6.2-6.6,0,1.5.1,2.9.2,4.4.2,4.3.5,8.6.8,12.9-.2.2-.5.3-.7.5h0ZM500.2,69.3c0-.2-.1-.4-.2-.7-.5-1.7-1.1-3.4-1.6-5.2-.5-1.7-.9-3.4-1.3-5.1,1.6-1.2,3.2-2.3,4.8-3.5-.5,4.8-1.1,9.6-1.7,14.4ZM482,87.1c-4.6,2.7-9.2,5.4-13.9,8.1-.2-1.4-.4-2.9-.6-4.3-.4-3.3-.8-6.7-1.2-10,.7-.5,1.4-1.1,2.1-1.6,4.2-3.2,8.5-6.4,12.7-9.5.3,5.8.5,11.5.8,17.3ZM436.5,136.8c-1.1-2.1-2.2-4.1-3.2-6.1,0-.1-.1-.2-.1-.3,3.8-2.1,7.5-4.3,11.3-6.4.3,1.4.6,2.8.9,4.3-.6.6-1.3,1.3-1.9,1.9-2.3,2.2-4.6,4.5-6.9,6.7h0ZM471.4,44c-1,1.1-1.9,2.2-2.8,3.2-.4.4-.7.8-1,1.2-.5.5-1,1.1-1.5,1.7,0,0,0,0-.1.2-.8.7-1.4,1.6-2,2.3-.3.3-.6.6-.8,1-.2-1.8-.5-3.6-.7-5.4.4-.3.7-.6,1-.8,4.4-3.5,8.9-7.1,13.5-10.4-1.7,2.4-3.5,4.8-5.4,7.1h0ZM440,101.2c.6,3.1,1.1,6.1,1.7,9.2-2.5,1.4-5,2.8-7.5,4.2-2.3,1.3-4.5,2.5-6.8,3.8-.8-1.7-1.6-3.4-2.5-5.2,0-.1-.1-.2-.2-.3,5.1-3.9,10.2-7.8,15.2-11.7h0ZM400.2,130.8c1.8-1.2,3.5-2.4,5.3-3.7.1,1,.3,2,.4,3.1-2.1,1.1-4.3,2.3-6.4,3.4.3-1,.5-1.9.8-2.9h0ZM391.6,107.3c-.5,2.4-1,4.8-1.6,7.2-.4,1.3-.7,2.7-1,4-.7-1.8-1.5-3.5-2.2-5.3-.3-.6-.5-1.3-.8-1.9,1.9-1.6,3.9-3.2,5.8-4.8,0,.3-.1.5-.2.8ZM371.3,123.7c.4-.4.7-.8,1.1-1.2.9-.8,1.9-1.5,2.8-2.3.7,3.2,1.3,6.4,2,9.6-.3.3-.6.5-1,.8-2,1.6-3.8,3.3-5.6,5.2-2.1,2.2-2,5.8.5,7.7,1.2.9,2.3,1.6,3.8,1.6s1.7-.2,2.5-.4c.6-.2,1.2-.5,1.8-.8.3-.1.6-.3.8-.4,0,0,0,0,0,0-2.9,1.4-5.8,2.8-8.7,4.2-.7-1.3-1.4-2.6-2.1-3.9-1.9-3.7-3.7-7.4-5.6-11.1.1-.1.2-.3.3-.4,2.4-2.9,4.8-5.7,7.2-8.5h0ZM349.5,155.7c0-.3.2-.7.3-1,.4-1.1.9-2.1,1.4-3.2,0-.1.1-.2.2-.4.1.2.3.5.4.8.6,1,1.2,2,1.9,3-.8.2-1.5.4-2.3.6.3,0,.6-.1.9-.2-.8.2-1.6.3-2.4.4h-.5s0,0,0-.1h0ZM422.2,150.7c-.6-4.4-1.2-8.8-1.9-13.2.5-.2.9-.5,1.4-.8,1.5,3.3,3.2,6.5,4.9,9.7-1.5,1.4-2.9,2.8-4.4,4.3h0ZM428.6,160.4c1.2-1.1,2.3-2.3,3.5-3.5.3.5.5,1,.8,1.5-2.2,1.4-4.5,2.9-6.8,4.4.8-.8,1.6-1.6,2.5-2.4h0ZM442,147.1c.4-.4.7-.7,1.1-1.1,1.6-1.6,3.3-3.3,4.9-4.9.4,2.1.9,4.1,1.3,6.2-1.7,1.2-3.5,2.4-5.2,3.6-.7-1.3-1.4-2.5-2.1-3.8h0ZM458.5,130.6c.3-.3.7-.7,1-1,.1.4.3.8.5,1.2.9,2.4,1.9,4.7,2.9,7.1-.8.6-1.6,1.1-2.4,1.7-.6-3-1.3-5.9-1.9-8.9h0ZM523,137.8c1.2-1.1,2.4-2.2,3.7-3.2,0,1.3.1,2.5.2,3.8-1,.6-2,1.3-3,1.9-.3-.8-.5-1.6-.8-2.4h0ZM541.7,148.9c0-2-.2-4-.3-6,.8-.5,1.6-1,2.4-1.6.5,1.4,1,2.7,1.5,4-.3.2-.5.5-.8.8-.9.9-1.8,1.9-2.8,2.8h0ZM556.2,133.3c0,0,0-.1,0-.2,3.1-2.1,6.1-4.1,9.2-6.2-2.6,2.2-5.2,4.5-7.7,6.8-.3.3-.6.6-.9.9-.2-.4-.3-.9-.5-1.3h0ZM568.5,143c.6-.6,1.2-1.2,1.8-1.8.3-.3.7-.6,1.1-1,0,.1,0,.2,0,.4,0,0-.1.1-.2.2-.9.7-1.8,1.5-2.7,2.2h0ZM642.8,132.6s0,0,0,0c1.6-.9,3.1-1.8,4.7-2.7,0,.1,0,.2,0,.3-1.6,1.3-3.2,2.7-4.8,4,0-.5,0-1.1,0-1.6h0ZM642,110.3v-.2h0c0,.1,0,.1,0,.2ZM675.3,55.2c0,.3,0,.7,0,1-1,.8-2,1.7-3,2.6-5.4,4.6-11,9-16.5,13.6-2.4,2-4.8,3.9-7.2,5.9-.1-.6-.3-1.2-.4-1.8,9-7.1,18-14.2,27-21.3h0ZM613.9,66.8c-.3-3.6-.7-7.3-1-10.9,1.9-1.8,3.8-3.7,5.6-5.6,2.6-2.6,5.1-5.2,7.7-7.9-.2.8-.3,1.6-.5,2.3-1.1,5.7-2.3,11.3-3.4,17-2.8,1.7-5.6,3.4-8.4,5h0ZM621,30.1c1.8-1.4,3.7-2.8,5.5-4.2v.3h0c-1.4,1.6-2.7,3.1-4.1,4.6-1,1.1-2.1,2.2-3.2,3.3-2.4,2.5-4.8,4.9-7.2,7.4-.2.2-.4.4-.5.5-.1-1.5-.3-2.9-.4-4.4,3.3-2.5,6.6-5.1,9.9-7.6h0ZM618,16.2c.9,0,1.8,0,2.7,0-.9,0-1.8,0-2.7,0ZM591,59.7c.2.7.3,1.4.4,2-.6.6-1.2,1.2-1.9,1.8-2.8,2.7-5.7,5.3-8.5,7.9-.2.2-.4.4-.6.6,0-.9-.2-1.9-.2-2.8-.2-2.2-.4-4.4-.6-6.7,3.5-2.8,7-5.5,10.5-8.3.2,1.8.5,3.7.9,5.5h0ZM587.7,37.6s0,0,0,0c-1.1.9-2.2,1.8-3.3,2.7-2.1,1.7-4.2,3.5-6.4,5.2,0-.6-.1-1.3-.2-1.9,3.3-2,6.6-4.1,9.9-6.1h0ZM553.8,59.9c.3,1.8.8,3.5,1.2,5.3-.7.6-1.4,1.2-2.1,1.8-1.5,1.3-2.9,2.6-4.4,3.9-2.6,2.4-5.3,4.7-7.9,7.1-.2.2-.5.5-.8.7-.5-2.2-1.1-4.5-1.6-6.7-.2-1.2-.4-2.3-.6-3.4,1.4-.8,2.8-1.7,4.2-2.5,3.9-2.4,7.8-4.8,11.7-7.2,0,.4.1.7.2,1.1h0ZM524.8,91.6c-4.6,3.6-9.3,7.2-14,10.7-.2-.7-.5-1.4-.7-2-.2-.6-.4-1.1-.6-1.7.6-4.8,1.2-9.5,1.8-14.3,4.3-2.6,8.6-5.2,12.9-7.8.2,5,.3,10.1.5,15.1h0ZM519.5,44.6c-1.5,2.2-3,4.3-4.6,6.5.2-2,.4-3.9.6-5.9,0,0,0,0,.2-.1,1.9-1.3,3.8-2.5,5.8-3.6-.6,1.1-1.3,2.1-2,3.1h0ZM503.5,40.3c-1.1.8-2.3,1.7-3.5,2.5-2,1.4-4,2.9-6,4.3-.5-1.8-1-3.6-1.4-5.4-.2-.8-.3-1.7-.5-2.5-.4-4.8-.8-9.6-1.2-14.5,3.4-2.3,6.8-4.7,10.1-7,1.7,0,3.5,0,5.2,0-.5,3.2-.9,6.3-1.3,9.5-.5,4.4-1,8.7-1.5,13.1h0ZM478.7,18.2c2.5,0,5-.1,7.5-.1-2,0-4,0-6.1.1-.5,0-.9,0-1.4,0h0ZM451.5,56.8c.3,2.6.6,5.2.8,7.8-.3.3-.6.6-.9.9-.3.3-.7.7-1,1-.8-2.3-1.6-4.5-2.4-6.8,1.1-1,2.3-1.9,3.5-2.8h0ZM436.1,79.4c0,.2,0,.4.1.7-.8.8-1.6,1.5-2.5,2.3-3.6,3.2-7.2,6.4-10.8,9.6-1.7,1.4-3.4,2.8-5.1,4.3-1-2.5-2.1-5-3.1-7.5-.1-.4-.2-.8-.4-1.1,5-4.1,9.9-8.2,14.9-12.3,1.8-1.5,3.6-3,5.4-4.5.5,2.9,1,5.8,1.5,8.6h0ZM409.6,20.7c-.2.9-.4,1.7-.6,2.6-1.1,4.6-2.4,9.3-3.3,13.9-.1.6-.2,1.2-.4,1.8-.6-3.5-1.3-7-1.9-10.5,0-.5-.2-1-.3-1.4.8-1.8.6-3.9-.6-5.5-.1-.2-.3-.4-.5-.5,4.1-.2,8.1-.4,12.2-.6l-4.6.2h0ZM389.9,39c.2,1.2.4,2.3.7,3.5,1.4,6.3,2.8,12.6,4.2,19,.4,1.7.7,3.5,1.1,5.1.2.8.5,1.6.7,2.4-2.1,2.2-4.3,4.5-6.4,6.7l-.8.9c-3.5,2.2-7,4.5-10.5,6.7-1.6-7.7-3.2-15.3-4.8-23-.5-2.2-.9-4.5-1.4-6.8.6-.5,1.2-1,1.8-1.5,4.4-3.7,8.7-7.4,13.1-11.1.8-.7,1.5-1.3,2.3-2h0ZM361.1,68.8c.8,3.9,1.9,7.6,2.9,11.4.9,3.2,1.7,6.5,2.6,9.8.1.4.2.7.3,1.1-5.3,3.4-10.6,6.8-15.9,10.2-.4.3-.8.5-1.2.8-1-2.5-2-5-3-7.4-1.2-3-2.5-6-3.7-9.1-.6-1.5-1.1-3.1-1.7-4.6.3-.2.5-.5.8-.7,3-2.7,6-5.4,9-8.1,3-2.6,6-5.2,9-7.8.3,1.5.6,3,.9,4.5h0ZM322.8,99.6c0-.2-.1-.4-.2-.6,0,0,0-.2-.1-.3,0,0,.1,0,.2-.2,0,.3,0,.7.1,1h0ZM287.9,114.9c-.7-1.3-1.4-2.5-2-3.8,4.1-2.9,8.2-5.8,12.3-8.7,2.3-1.6,4.5-3.2,6.8-4.8,0,.1,0,.3,0,.4-1.5,1.4-3,2.9-4.5,4.3-3.3,3.2-6.5,6.5-9.8,9.7s-1.9,1.9-2.8,2.8h0ZM286.5,92.7c.4-6,.8-12,1.2-17.9,4.4-4.1,8.8-8.2,13.2-12.4.1.6.2,1.3.4,1.9.6,2.4,1.1,4.9,1.7,7.3.3,3.7.6,7.4.9,11.1-5.8,4.1-11.6,8.1-17.5,12.2,0-.8.1-1.5.2-2.3,0,0,0,.1,0,.2h0ZM318.8,64c.3,2.6.6,5.2.8,7.8-1.4.9-2.8,1.9-4.1,2.8-.3-1.2-.6-2.4-.9-3.5-.2-.7-.3-1.3-.5-2-.4-3.6-.8-7.2-1.1-10.8-.2-2.2-.5-4.3-.7-6.5,1.6-1.5,3.2-3,4.8-4.5.6,5.6,1.2,11.2,1.8,16.8h0ZM297.8,45.1c.2,1.4.5,2.7.8,4.1,0,.4.1.8.2,1.2-3.3,2.9-6.6,5.9-9.9,8.8.1-1.4.2-2.8.4-4.1.1-1.2.2-2.5.3-3.8,2.8-2,5.5-4.1,8.3-6.1h0ZM274,72.3c-1.7,1.5-3.5,3.1-5.2,4.6-.7-1.5-1.4-3-2.1-4.6-.5-1.1-1-2.2-1.5-3.2,3.3-2.4,6.6-4.9,10-7.3-.4,3.5-.8,7-1.1,10.5h0ZM256.1,78.7c1,2.3,2,4.5,3.1,6.8-.9.8-1.7,1.6-2.6,2.3-6.2,5.6-12.4,11.2-18.5,16.9-.8-2.8-1.6-5.6-2.4-8.4,1.2,0,2.4,0,3.6-.5,3.4-1.4,5.4-4.8,6.4-8.2.5-1.7.9-3.3,1.1-5,2.8-2,5.6-4.1,8.3-6.1.3.8.7,1.5,1,2.2h0ZM247.7,66.6v-.8c0-2.7-.1-5.4-.2-8.1.7,1.9,1.5,3.7,2.2,5.6.2.5.4.9.5,1.4-.9.6-1.7,1.2-2.6,1.8h0ZM237.3,23.5c-.6,0-1.2,0-1.8,0,.8,0,1.6,0,2.5,0h-.7,0ZM236.4,37.3c0,.9.1,1.9.2,2.8.7,11.2,1.6,22.4,1.3,33.6-2.3,1.7-4.6,3.3-6.9,5-1.4-5.3-2.8-10.6-4.2-15.9-1.1-4.3-2.2-8.6-3.3-12.9,1.9-1.9,3.7-3.7,5.6-5.6,2.4-2.4,4.9-4.7,7.3-7.1h0ZM194.9,105c-.3-4.8-.7-9.7-.9-14.6-.1-3.3-.2-6.5-.4-9.8,1.2-1.2,2.4-2.5,3.5-3.8,2.3-2.5,4.7-4.9,7.1-7.3-.1.5-.1.9-.1,1.4,0,0,0,0,0,0,0,0,0-.1.1.6.3,1,.9,2,1.6,2.7.7.8,1.4,1.6,2.1,2.4,1.6,1.6,3.2,3.2,4.9,4.7,2.1,1.9,4.3,3.8,6.6,5.6,0,0,0,0,0,.1-8.2,6-16.4,12-24.7,17.9h0ZM213.4,60.2c.9,4,1.8,7.9,2.7,11.8-1.1-1.1-2.3-2.2-3.3-3.4-.1-.1-.2-.3-.3-.4-.7-1.3-2.1-2.2-3.8-2.2s-.6,0-.9,0c1.9-2,3.8-3.9,5.7-5.9h0ZM213,69.8v.3c0-.6-.2-1.1-.4-1.6,0,0,0,.1.1.2,0,.3.2.7.3,1.1h0ZM200.6,23.6c1.5,0,3.1,0,4.6,0h0c-1.5,0-3.1,0-4.6,0ZM190.6,23.9c-.2,0-.4,0-.6,0,1.1,0,2.2,0,3.2-.1-.9,0-1.8,0-2.6,0h0ZM181.7,60.3c-2.8,2.3-5.6,4.5-8.5,6.8-2.2,1.8-4.5,3.6-6.7,5.4,5.1-5.3,10.2-10.7,15.3-16,0,1.3,0,2.5-.1,3.8h0ZM173.1,84.9c-.2.2-.4.4-.5.6-2.2,2.4-4.4,4.7-6.5,7.1-.1-.4-.2-.9-.4-1.3,0,0,0,0,0-.1,2.5-2.1,5-4.2,7.5-6.2h0ZM92.1,75.5c-.2.2-.3.4-.5.6v-.2c.3-.4.8-.8,1.1-1.1-.2.2-.4.5-.6.7ZM84.9,102.8c.2,1,.5,1.9.8,2.9,0,0,0,0,0,0-3.1,2.8-6.2,5.5-9.3,8.3,0-.4,0-.7,0-1.1,2.9-3.4,5.8-6.8,8.7-10.2h0ZM79.4,140.5c-.4-2.6-.7-5.3-1.1-8,3.9-3.6,7.9-7.3,11.9-10.9.2.8.4,1.5.7,2.3.4,1.3.7,2.6,1.1,3.9-1.1,1.1-2.2,2.2-3.3,3.3-2.2,2.2-4.4,4.5-6.6,6.7-.9.9-1.8,1.8-2.6,2.7h0ZM103.6,116.1c-.5-1.7-1.1-3.5-1.6-5.2,3.8-3.5,7.7-6.9,11.5-10.3,3.4-3,6.7-6,10.1-9,0,1,0,2,.1,3,0,.5,0,1,0,1.5-.6.6-1.2,1.1-1.7,1.7-6.2,6.1-12.3,12.2-18.5,18.3ZM139.3,120.2c-.3-2.1-.5-4.3-.8-6.4,5.5-4.6,10.9-9.2,16.4-13.8.3,1.2.7,2.4,1,3.6-.9,1.1-1.9,2.1-2.8,3.2-2.5,2.8-4.9,5.7-7.4,8.5-1,1.2-2,2.3-3,3.4-1.1,1.3-2.1,2.6-3.1,3.9-.1-.8-.2-1.7-.3-2.5h0ZM162.6,57.6c-1.7,1.7-3.3,3.3-5,5,0-.2-.1-.5-.2-.7,2.4-2.1,4.8-4.2,7.2-6.2-.6.7-1.3,1.3-2,2ZM147.7,72.4c-3.8,3.8-7.7,7.6-11.5,11.4,0-1.1,0-2.3-.1-3.4.7-.7,1.5-1.3,2.2-1.9,3-2.6,6-5.2,9-7.8.1.6.3,1.2.4,1.7h0ZM140.9,26.5c-.3,0-.6,0-.8,0,.5,0,1.1-.1,1.6-.1-.3,0-.5,0-.8,0h0ZM139.7,26.6c-.1,0-.3,0-.4,0,.2,0,.5,0,.7,0,0,0-.2,0-.3,0h0ZM138.8,38.9c1.3,4.1,2.3,8.3,3.4,12.4.3,1.2.7,2.5,1,3.7-2.4,2.1-4.9,4.2-7.4,6.3,0-2.2.1-4.5.2-6.7.3-4.2.8-8.4,1.5-12.5.2-.9.4-1.8.6-2.7.2-.2.3-.4.5-.6h0ZM124.4,56.9c-.3,5-.6,10-.7,15-7.8,6.9-15.7,13.7-23.5,20.6-1,.9-2,1.8-3,2.7-.5-1.8-1-3.5-1.6-5.2,6.1-7.2,12.1-14.4,18.2-21.6,3.5-4.2,7.1-8.4,10.6-12.6,0,.4,0,.8,0,1.2ZM56.2,111.1c.2,1.3.4,2.7.6,4.1-.5.5-1,1.1-1.5,1.6-.8-.8-1.7-1.4-2.8-1.8,1.2-1.3,2.4-2.6,3.7-3.9ZM75.1,91.5c1.2-1.2,2.5-2.4,3.7-3.5.6-.6,1.2-1.1,1.8-1.7.2.6.3,1.2.5,1.8-1.9,2.2-3.9,4.3-5.8,6.5v-3.1c-.1,0-.1,0-.1,0ZM84.1,176c-2.6,0-5.2,0-7.8,0,2.6,0,5.2,0,7.8,0ZM82.3,160.5c2.2-1.4,4.4-2.9,6.4-4.6,1.7-1.4,3.3-2.9,5-4.3,1.6-1.3,3.1-2.6,4.7-4,.1.3.2.7.3,1,1.3,4.1,3,8,4.6,12,1.9,4.9,3.8,9.8,6,14.6-8.2.3-16.4.5-24.5.6-.8-5.1-1.6-10.3-2.4-15.4h0ZM118.7,153.9c-.3.9-.3,2-.3,2.9s0,.9,0,1.3c-1.8-4.6-3.6-9.2-5.4-13.8-.8-2.3-1.6-4.6-2.4-6.9h.1c5-4.3,10.1-8.6,15.1-12.8.4,4.7.9,9.5,1.4,14.2-.2.2-.4.5-.5.8-1.7,2.5-3.3,5-4.9,7.6-.6,1.1-1.3,2.2-1.8,3.3-.5,1.2-.9,2.3-1.2,3.5h0ZM111.3,175.3c-.3,0-.7,0-1,0,.3,0,.7,0,1,0ZM136.1,174.1c-1.6.1-3.1.2-4.7.3,1.6,0,3.1-.2,4.7-.3ZM142.2,142.8c0-.7-.2-1.4-.3-2.1,1.4-1.8,2.8-3.7,4.2-5.5,2.3-2.9,4.5-5.9,6.9-8.8,2.3-2.8,4.6-5.5,6.9-8.3.9,3.3,2,6.5,2.9,9.8,0,0,0,0,0,0-6.9,4.9-13.7,9.9-20.7,14.7h0ZM173.4,117.8c-1.2-3.8-2.3-7.6-3.4-11.4,3.9-4.4,7.7-8.7,11.7-13,0,1.8.1,3.6.2,5.4.2,5,.4,10,.7,15.1-2.8,2-5.6,4.1-8.4,6.1-.2-.8-.4-1.5-.7-2.2ZM183.3,129.1c.3,5.3.6,10.5.9,15.8.1,2.3.3,4.7.4,7-.6-1.6-1.2-3.3-1.8-4.9-1.6-4.7-3.1-9.4-4.7-14.1,1.8-1.3,3.5-2.6,5.3-3.8h0ZM197.6,144.2c-.1-2.3-.3-4.6-.4-6.9-.4-5.8-.8-11.6-1.2-17.4,8.9-6.5,17.9-13.1,26.8-19.6.5,2,1,4,1.5,6,.8,3,1.6,6.1,2.4,9.1-.9.9-1.9,1.8-2.9,2.7-2.6,2.5-5.3,5.1-7.9,7.6-.9.9-1.9,1.8-2.8,2.7-4.2,4.3-8.4,8.5-12.6,12.8-1,1-2,2.1-3,3.1h0ZM223,137.5c2-2.2,4.2-4.3,6.3-6.4.5-.5,1-1.1,1.6-1.6.3.9.6,1.9.9,2.8-3.6,2.5-7.3,5-10.9,7.5.7-.8,1.4-1.5,2.1-2.3h0ZM242.1,118.2c3.4-3.4,6.9-6.7,10.3-10,4-3.9,8-7.7,12-11.6,1.5,3.1,3,6.2,4.6,9.3.1.2.2.5.3.7-4.8,3.3-9.6,6.7-14.4,10-3.6,2.5-7.3,5-10.9,7.5-.6-1.9-1.3-3.9-1.9-5.8h0ZM280.7,143.5c1.2-1.5,2.3-2.9,3.5-4.4.6-.6,1.1-1.3,1.7-1.9.5.9,1.1,1.8,1.6,2.7-1,.6-1.9,1.1-2.9,1.7-1.4.8-2.7,1.6-4.1,2.4,0-.2,0-.4.1-.6h0ZM298.3,133.6c-.9-1.5-1.8-3.1-2.7-4.6-.3-.5-.6-1.1-.9-1.6,1.4-1.5,2.8-3,4.2-4.6,2.4-2.5,4.7-5,7.1-7.5,0,.2,0,.4,0,.6.1,4.2.3,8.5.4,12.7-2.7,1.6-5.5,3.3-8.2,4.9h0ZM339.9,125.2c.4,1.2.9,2.5,1.3,3.7-.5.6-1,1.1-1.5,1.7-.2-1.6-.5-3.2-.7-4.8.3-.2.5-.3.8-.5h0ZM350,167.1c-.2,0-.4,0-.6,0,.2,0,.4,0,.6,0ZM359.7,167.5c1.5-.5,3-1.1,4.5-1.6,1.3.8,2.6,1.5,4,2,0,0,0,0,0,0-3.1-.2-6.1-.3-9.2-.5.2,0,.4,0,.6,0h0ZM381.7,166.4c.3-.1.5-.3.8-.5.9-.5,1.7-1.2,2.5-1.9.4,1.7.8,3.3,1.2,5-1,0-2-.1-3.1-.2-.5-.8-.9-1.6-1.4-2.4ZM402.3,170h0c-4.5-.3-8.9-.5-13.4-.8,4.5.3,8.9.5,13.4.8h0ZM438.7,169.4c.5,1,1.1,2,1.6,3-1.9-.1-3.8-.2-5.6-.4,1.3-.9,2.7-1.7,4-2.6h0ZM467.1,170.2c-1.3-5.9-2.5-11.8-3.8-17.6,0,0,0-.2,0-.3,1.2-.9,2.5-1.8,3.7-2.7.8,1.9,1.7,3.9,2.8,5.7.6,1,1.2,2,1.9,3,1,2.2,1.9,4.4,2.9,6.6-1.1,1-2.2,2-3.2,3.2-.7.9-1.3,1.7-1.8,2.8-.3.6-.6,1.2-.8,1.8-.2.4-.3.8-.4,1.2-.1,0-.3,0-.4,0-.3-1.3-.5-2.5-.8-3.8h0ZM455.3,173.2c-.1,0-.2,0-.3,0,.1,0,.2,0,.3,0ZM485.7,174.8c-1.1,0-2.1,0-3.2-.1,1.1,0,2.1,0,3.2.1ZM498.7,175.3c-.9,0-1.8,0-2.7-.1.9,0,1.8,0,2.7.1ZM500.5,174.8c.1-1.3.2-2.7.3-4v-2c2.9-1.7,5.7-3.4,8.5-5.2,1.7-1.1,3.4-2.1,5.1-3.1.3.9.6,1.8.9,2.7,1.4,4.3,2.9,8.5,4.3,12.8-6.4-.2-12.7-.4-19.1-.6,0-.2,0-.4,0-.6h0ZM542.7,176.5c4.9.1,9.9.2,14.8.3h0c-4.9-.1-9.9-.2-14.8-.3h0ZM571.6,171.8c0-.1-.1-.3-.2-.4.7-.4,1.4-.7,2-1.1.1,2.3.2,4.5.4,6.8h-.1c-.7-1.8-1.4-3.5-2.1-5.3h0ZM587.6,162.8c1.2-.6,2.4-1.3,3.6-1.9,1.8,4.4,3.6,8.8,5.4,13.1-1.2,1.1-2.5,2.3-3.7,3.5,1.4,0,2.8,0,4.1,0-4.1,0-8.2-.2-12.4-.2,1.2,0,2.5,0,3.7,0-.3-4.9-.5-9.7-.9-14.6h0ZM611.4,177.8c.5,0,1,0,1.5,0-.5,0-1,0-1.5,0h0ZM626,178h.6c-1,0-2,0-3.1,0,.8,0,1.7,0,2.5,0h0ZM644.1,164.2c-.2-4.9-.5-9.7-.7-14.6v-.2c2.7-2.3,5.3-4.7,8-7,.3.9.5,1.7.8,2.6,1.4,4.1,2.8,8.3,4.2,12.4-2,1.1-4,2.3-6,3.4-2.1,1.2-4.2,2.3-6.3,3.5ZM665.7,135.9c-.5-1.5-1-3.1-1.5-4.6,3.4-2.9,6.8-5.8,10.2-8.8,1.1-.9,2.2-1.9,3.4-2.8.2,3,.3,5.9.5,8.9.2,4.4.4,8.7.7,13.1,0,.9.1,1.8.2,2.7-.4.2-.8.5-1.2.7-2.4,1.4-4.8,2.8-7.3,4.2-1.7-4.4-3.3-8.9-4.9-13.3h0ZM679.9,157.2c.3,4.8.6,9.5.9,14.3,0,0,0,0-.1.1-.4.4-.8.7-1.2,1.1-.5-1.4-1.1-2.8-1.6-4.3-1-2.7-2.1-5.4-3.1-8.1,1.7-1,3.5-2.1,5.2-3.1h0ZM674.5,177.6c-2.6,0-5.1.1-7.7.2,2.6,0,5.1-.1,7.7-.2h0ZM683.1,177.4c.6,0,1.2,0,1.7,0-.8,0-1.5,0-2.2,0,.2,0,.3,0,.5,0ZM713.5,176.3c-4.1.2-8.2.3-12.3.5,4.1-.1,8.2-.3,12.3-.5ZM726.9,175.7c0,0-.2,0-.3,0,0,0,.2,0,.3,0ZM735,168.2c-.4-1.2-.8-2.4-1.2-3.6,1.6-.9,3.1-1.9,4.7-2.8v3.5c0,3.2,0,6.5,0,9.8-.4,0-.8,0-1.2,0-.8-2.3-1.5-4.6-2.3-6.9h0ZM744.7,174.7h0c-1.6,0-3.2.2-4.8.3,1.6,0,3.2-.2,4.8-.3ZM805,151.9l-2.3,1c-.7-2.6-1.3-5.2-1.9-7.9,6-4.7,12-9.4,18-14.2-.3,5.2-.7,10.4-1,15.5-4.3,1.8-8.5,3.7-12.8,5.5ZM850.8,164.4c-.6.4-1.2.7-1.8,1.1-.8-2.9-1.7-5.8-2.5-8.7-.4-1.5-.8-2.9-1.1-4.4,2.1-1.1,4.2-2.2,6.3-3.4-.3,5.1-.7,10.2-1,15.3h0ZM877.5,143.8c-.8-.8-1.6-1.5-2.4-2.3-1.1-.9-2.3-1.9-3.4-2.8h0c1.1.9,2.3,1.8,3.4,2.8.8.7,1.6,1.5,2.4,2.3ZM870.5,137.8h0c-.3-.3-.6-.5-.9-.8,0,0,0,0,0,0,.3.2.7.5,1,.8h0ZM858.6,129.1c-1.3-.9-2.7-1.9-4.1-2.8,0,0-.2-.1-.3-.2,0,0,.2.1.3.2,1.3.9,2.7,1.9,4.1,2.8ZM853.5,125.5c-.2,2-.3,4.1-.4,6.1-.5.2-.9.4-1.3.5-1.5.6-3.1,1.2-4.6,1.8-1.8.8-3.6,1.5-5.3,2.2-.4-2.2-.9-4.4-1.3-6.6-.2-1.2-.4-2.4-.6-3.6-.4-2.9-.8-5.8-1.2-8.8,0-.6-.2-1.3-.3-1.9,0,0,.2-.2.3-.2-.2-.1-.4-.3-.6-.4,5.1,3.6,10.3,7.2,15.4,10.8h0ZM833,111.1c-.3-.2-.7-.5-1-.7-.3-.2-.5-.4-.8-.6-1.2-.9-2.3-1.8-3.5-2.7,0,0,0,0,0,0,1.2.9,2.4,1.8,3.6,2.8.6.4,1.2.9,1.8,1.3ZM823,103.3s0,0,0,0c-.7-.6-1.5-1.2-2.2-1.8,0,.6,0,1.2-.1,1.8-7.6,4.2-15.2,8.4-22.8,12.6-1,.5-1.9,1.1-2.9,1.6-.6-3.5-1.1-7-1.7-10.4,0-.3-.1-.7-.2-1.1,1.6-1.4,3.3-2.9,4.9-4.3,3.7-3.2,7.5-6.4,11.1-9.8,0,0,0,0,0,0-.4-.3-.7-.6-1.1-.9.7.6,1.5,1.2,2.2,1.8,4.2,3.5,8.5,7.1,12.8,10.6h0ZM751.6,38.4c-.5-.4-1.1-.9-1.6-1.3.5.4,1.1.9,1.6,1.3ZM747,34.8c-.6-.5-1.3-1-1.9-1.5.7.5,1.3,1,1.9,1.5ZM741.7,30.5c.6.5,1.2,1,1.8,1.4-.3,4.2-.5,8.4-.8,12.6-.5.3-1,.6-1.5,1-8.8,5.6-17.6,11.1-26.3,16.8-.5-8.1-.9-16.2-1.3-24.4,0-.8,0-1.6-.1-2.4,1.2-1.1,2.4-2.2,3.6-3.3,1.1-1.1,2.2-2.2,3.3-3.2,1.1-1,2.3-2,3.2-3.2.7-.9,1.2-1.6,1.7-2.5.8-1.3.8-2.9.9-4.3,0-.2,0-.4,0-.7,5.3,4,10.4,8.1,15.6,12.2h0ZM716.3,12.1c.1,0,.2.1.3.1-.1,0-.2-.1-.3-.1h0ZM715.1,11.8c.4,0,.7.2,1.1.3-.4-.1-.7-.2-1.1-.3ZM721.7,15.2c0,0-.2-.1-.2-.2-.2-.1-.5-.3-.7-.4.2.1.5.3.7.4,0,0,.2.1.2.2ZM714.2,11.6c.2,0,.5,0,.7,0-.2,0-.5,0-.7,0-.7,0-1.4,0-2.2,0h0c.7,0,1.4,0,2.1,0h0ZM702.5,11.9c2.2,0,4.3-.2,6.5-.3.9,0,1.8,0,2.8,0h0c-.9,0-1.8,0-2.7,0-1.2,0-2.5.1-3.8.1h0c-.9,0-1.8,0-2.8.1-2.5.1-4.9.2-7.3.3,0,1.3-.1,2.6-.2,3.9-.3-1.3-.5-2.6-.8-3.9-1.4,0-2.8.1-4.1.2-4.8.2-9.5.4-14.2.7,4.8-.3,9.5-.5,14.2-.7,4.1-.2,8.3-.3,12.4-.5h0ZM664,13.9h-.1c.5,0,1,0,1.5-.1.2,0,.5,0,.7,0,2.9-.2,5.7-.3,8.6-.5,0,5.6.1,11.2.2,16.9-3.1,1.9-6.1,3.7-9.2,5.5-7.6,4.6-15.2,9.1-22.8,13.7-.2-1.4-.5-2.7-.7-4.1-.5-2.7-.9-5.4-1.4-8,0-.2,0-.5-.1-.7.7-4.1,1.5-8.2,2.3-12.3.8-.9,1.5-1.8,2.3-2.7,1.9-2.2,3.7-4.5,5.5-6.9-.2,0-.3,0-.5,0,4.6-.3,9.1-.6,13.7-.9h0ZM609.3,16.5c-.2,0-.4,0-.5,0-.4,0-.9,0-1.3,0-3,0-5.9,0-8.8.1,0,.3,0,.6,0,.9-.6.4-1.2.7-1.8,1.1,0-.6-.2-1.3-.2-1.9-3.6,0-7.3,0-10.9.1.2,2.7.4,5.4.6,8.1-3.3,2-6.5,3.9-9.8,5.9-.2-1.8-.4-3.6-.6-5.5-.3-2.8-.6-5.6-.9-8.4,11.2-.1,22.5-.2,33.7-.4.2,0,.4,0,.6,0h0ZM574.9,16.9c-7.5,0-15,.1-22.5.3-2.1,0-4.1,0-6.2,0,1.4,8.6,2.8,17.2,4.4,25.7.2,1,.4,2.1.6,3.1-4.6,2.8-9.2,5.6-13.9,8.4-.4.2-.8.5-1.1.7-.4-5.6-.8-11.1-1.2-16.7,0,0,0,0,0-.1.3-.9.3-1.9.3-2.8s-.2-1.5-.4-2.3c0-.4-.2-.8-.4-1.2-.3-3.5-.6-7-.9-10.4,0-1.3,0-2.7-.2-4,0,0,0-.1,0-.2-4,0-8,.1-11.9.1,0,1.9-.2,3.9,0,5.8,0,1.9.1,3.8.2,5.8,0,0-.2,0-.2.1-1.5.7-3,1.4-4.4,2.2.1-1.2.2-2.4.4-3.5.4-3.5.8-6.9,1.2-10.4-2.3,0-4.6,0-6.9,0,13.6-.2,27.2-.3,40.7-.5,7.5-.1,15-.2,22.5-.3h0ZM498.4,17.8c-1.2,0-2.5,0-3.8,0-1.4,0-2.8,0-4.2,0h0c1.4,0,2.8,0,4.2,0,1.2,0,2.5,0,3.8,0h0ZM455.4,18.8c-1.9,0-3.7.1-5.6.2,1.9,0,3.7-.1,5.6-.2ZM447.1,19.1c.4,3.1.8,6.2,1.2,9.3.4,3.1.8,6.2,1.1,9.4-.2.2-.5.4-.8.5-2.2,1.4-4.3,2.8-6.5,4.2-.9-2.8-1.7-5.5-2.5-8.3-.1-.7-.2-1.3-.4-2-.8-4.3-1.5-8.6-2.3-12.8.6,0,1.2,0,1.9,0,2.8-.1,5.5-.2,8.3-.3h0ZM398.4,21.2c-1.5,0-3.1.1-4.6.2,1.5,0,3.1-.1,4.6-.2ZM393.5,21.5h0c-1.6,0-3.1.1-4.7.2,1.6,0,3.1-.2,4.7-.2h0ZM387.1,21.8c0,.7.2,1.3.3,2,0,.4.1.9.2,1.3-5.5,3.5-10.9,7.3-16.4,11-.6.4-1.3.9-1.9,1.3,0-.2,0-.3-.1-.5-.5-2.3-.9-4.6-1.5-6.9-.3-1.3-.6-2.6-1.1-3.8-.4-1.1-.9-2.2-1.3-3.3-.8,0-1.7,0-2.5.1,6.2-.3,12.4-.6,18.6-.9,1.9-.1,3.9-.2,5.8-.3h0ZM328.8,24.1c-.4,0-.8,0-1.2,0-.1.1-.3.3-.4.4,0,0,0,0,0,0,0-.1,0-.3-.1-.4-.6,0-1.2,0-1.8,0-.4,0-.8,0-1.2,0h-.5c-3,0-6,0-9,0h-4.1c4.5,0,9.1,0,13.6,0,1.6,0,3.2,0,4.8,0h0ZM308.7,24.2h-.6c-4.2,0-8.4,0-12.6,0,0,1.1.1,2.3.3,3.4.2,1.4.3,2.8.5,4.2-1.7,1.2-3.3,2.4-5,3.5.3-2.7.6-5.4,1-8.1.1-1,.2-2,.4-3-4.1,0-8.1,0-12.2-.1-.4,2.4-.8,4.8-1.1,7.3-.5,3.5-1.1,6.9-1.6,10.4-.2,1.1-.4,2.2-.5,3.4,0,.1,0,.3,0,.4-5.6,4-11.2,8.1-16.8,12.1-.8-1.9-1.7-3.8-2.4-5.7-1.7-4.6-3.3-9.1-5-13.7-1.4-4.2-2.8-8.4-4-12.7.7-.6,1.3-1.2,2-1.9-.9,0-1.7,0-2.6,0h0c5.8,0,11.5.1,17.2.2,14.4.2,28.7.4,43.1.4h0ZM235.4,23.5h0c-.8,0-1.6,0-2.3,0h2.3ZM227.7,23.5c-3.1,2.5-6.2,4.9-9.2,7.4-.7-2.5-1.3-4.9-2-7.4,3.8,0,7.5,0,11.2,0h0ZM207.1,23.5h-.7.7,0ZM151.6,25.6c9.4-.6,18.9-1.1,28.3-1.4-3.4,2.8-6.9,5.7-10.3,8.5-5.6,4.7-11.1,9.3-16.6,14-.8-2.5-1.5-5-2.3-7.5-.8-2.6-1.7-5.2-2.8-7.7-.3-.7-.7-1.4-1.1-2,.4-.5.8-.9,1.2-1.4.7-.8,1.4-1.6,2.1-2.5-1.1,0-2.1.2-3.2.2,1.6-.1,3.2-.2,4.8-.4h0ZM135.6,27c.6,0,1.1-.1,1.7-.2-.6,0-1.1.1-1.7.2-.1,0-.2,0-.4,0-.5,0-1,.1-1.6.2.6,0,1.3-.1,1.9-.2h0ZM108.8,32.3c.7-.4,1.5-.7,2.2-.9,2.5-.8,5-1.4,7.5-1.9,2.6-.5,5.1-.9,7.7-1.2,1.8-.2,3.6-.5,5.5-.7h0c-1.8.2-3.6.5-5.5.7-2.6.4-5.1.8-7.7,1.2-2.5.6-5,1.1-7.5,1.9-.8.3-1.5.6-2.2.9-.6.3-1.2.7-1.7,1.1,0,0,0,0,0,0,.6-.4,1.2-.8,1.8-1.1h0ZM102.8,37.8c1.2-1.4,2.5-2.8,3.9-4.1.2-.2.4-.3.7-.5-.2.2-.4.3-.7.5-1.4,1.3-2.7,2.7-3.9,4.1-2.3,2.7-4.5,5.4-6.7,8.1,2.2-2.7,4.4-5.5,6.7-8.1ZM33.3,135.1c-.3.4-.6.8-1,1.2h0c.3-.4.6-.8,1-1.2ZM19.7,163.9h0c-.6.6-1.1,1.2-1.7,1.8.6-.6,1.1-1.2,1.7-1.9h0ZM12.8,171.9c-.1.1-.2.3-.3.4,0,0,0,.1-.1.2,0,0,0-.1.1-.2.1-.1.2-.3.3-.4ZM43.6,176.2c-4,0-8.1,0-12.1,0,1.7-1.6,3.4-3.2,5.1-4.8,1-.2,1.9-.6,2.7-1,1.6-.9,3.2-2.5,3.9-4.2.2-.4.3-.9.5-1.3.9-.9,1.8-1.7,2.7-2.6,5-4.7,10.1-9.4,15.2-14.1,1.4,9.3,2.9,18.7,4.4,28-7.4,0-14.9,0-22.3,0ZM125.8,174.7c-.2-.4-.4-.8-.6-1.2-1.5-3-2.8-6.1-4.2-9.1,1.4,1.1,3.3,1.7,5.1,1.5,1.2-.1,2.4-.3,3.6-.6.3,3.1.5,6.1.8,9.2-1.6,0-3.1.2-4.7.3h0ZM145.8,173.4c-.2-3.1-.6-6.1-.9-9.2-.2-2.3-.5-4.6-.8-6.8,2.7-1.8,5.3-3.7,8-5.6,3.9-2.8,7.8-5.6,11.6-8.4,1.1-.8,2.2-1.6,3.3-2.4,2.3,7,4.5,14.1,7.3,20.9,1.2,2.8,2.3,5.8,3.9,8.5.1.2.2.3.3.5-.5,0-1.1,0-1.6.1-10.4.7-20.7,1.6-31.1,2.4h0ZM201.7,169.6c.4,0,.7,0,1.1,0,.6-.4,1.3-.9,1.9-1.3,2.5-1.7,4.9-3.4,7.4-5.1,4.2-2.9,8.3-5.8,12.4-8.8,4.1-2.9,8.1-5.7,12.2-8.6,2,4.7,4.2,9.4,7.1,13.7,1.6,2.3,3.5,4.6,5.7,6.4.9.7,1.7,1.3,2.6,1.9-3.6.1-7.2.3-10.8.4-13.2.5-26.4.9-39.6,1.5h0ZM311.2,166.1c-4.1,0-8.2,0-12.3.1-10.7.2-21.4.5-32.1.9.5,0,1,0,1.5,0,.2-.1.3-.3.5-.4,1-.3,1.9-.6,2.8-1,2.9-1.2,5.6-2.6,8.3-4.1,1.1-.6,2.2-1.2,3.2-1.9,4.1-2.4,8.1-4.8,12.1-7.2.7.9,1.4,1.8,2.2,2.6,1.4,1.5,2.9,2.9,4.8,3.8,1.8.9,3.9,1.6,5.9,1.3,1.2-.2,2.5-.7,3.5-1.4.9-.5,1.6-1.3,2.3-2,.6-.6,1.1-1.4,1.6-2.2.5-.8.8-1.7,1.1-2.6,1.4-4.5,1.9-9.1,2-13.8,1.1-.6,2.1-1.3,3.2-2,1.5,4.6,3,9.2,4.6,13.7,1.5,4.3,2.9,8.7,4.4,13,.4,1.1.7,2.2,1.1,3.3.2,0,.5,0,.7,0-7.1-.2-14.3-.3-21.4-.3h0ZM404.4,170.2c.9,0,1.9.1,2.8.2-.9,0-1.9-.1-2.8-.2ZM644.5,178.1h0c1.4-.9,2.8-1.7,4.2-2.5,4-2.2,8-4.6,11.9-6.9,1.1,3,2.2,6.1,3.3,9.1-6.5.1-12.9.2-19.4.2h0ZM812.4,169.9c.2-.1.5-.2.7-.4,1.1-.6,2.2-1.1,3.2-1.7,0,.6,0,1.1-.1,1.7-1.3.1-2.6.2-3.8.4h0ZM833.3,167.9c-2.4.3-4.8.5-7.2.8,2.4-.2,4.8-.5,7.2-.8ZM823.8,168.9c-2.3.2-4.6.4-7,.7,2.3-.2,4.6-.4,7-.7Z"/>
      <path class="st0" d="M405.8,36.5l-.3,1.4c0-.2,0-.4.1-.7h0c0-.2.1-.5.1-.7h0Z"/>
      <path class="st0" d="M405.7,37.2h0s0,0,0,0c0,0,0,0,0,0h0Z"/>
    </g>
  </g>
</svg>