<?xml version="1.0" encoding="UTF-8"?>
<svg id="Layer_2" xmlns="http://www.w3.org/2000/svg" version="1.1" viewBox="0 0 254.6 37.8">
  <!-- Generator: Adobe Illustrator 29.3.1, SVG Export Plug-In . SVG Version: 2.1.0 Build 151)  -->
  <defs>
    <style>
      .st0 {
        fill: #2a2042;
      }
    </style>
  </defs>
  <g id="ShadowPot">
    <g>
      <path class="st0" d="M252.4,11.2c-2.7-2.6-6.5-3.6-10.1-4.3-4.7-.9-9.6-1.3-14.3-2-16.2-2.5-32.6-3.3-49-3.2-11,0-22.1.2-33.1-.3-11.2-.5-22.4-1.5-33.6-1.4-13.2-.1-26.3,3.1-39.6,1.8-13.4-.4-27-1.1-40.3,1.3-6.9,1.2-13.6,3.5-20.2,5.8-3.1,1.1-6.1,2.3-8.9,4.1-11.4,6.7,9.9,10.1,14.6,11.9,7.5,2.4,14.7,5.6,22.3,7.9,16.2,5.2,33.2,4.3,50,4.5.9,0,1.8,0,2.7,0,.3.2.5.3.8.5-.2-.2-.4-.3-.6-.5,8.5.1,16.9.4,25.4.5,11.1.3,22.5-.5,33.5-1.8,11.4-1.5,22.8-3.9,34.2-5.5,20.7-2.6,41.5-4.3,61.9-8.6,5.9-1.1,8.9-5.9,4.3-10.6h0ZM247.8,14.8s0,0,0-.1c0,0,0,0,0,.1ZM233.7,11.1c-3.2-.4-6.4-.9-9.7-1.3,3.2.4,6.4.9,9.7,1.3ZM130.3,8.5c0,0,.1,0,.2-.1,1,.1,1.9.2,2.9.3-3.8,1.8-7.6,3.6-11.3,5.5-1.3.7-2.6,1.4-3.9,2,0,0,0,0,.1,0,2.7-1.7,5.3-3.3,7.9-5,1.4-.9,2.7-1.8,4.1-2.7h0ZM127.1,8c.7,0,1.4.1,2.2.2-.7,0-1.4-.1-2.2-.2ZM154.5,18.3c1-1,2-2,3-2.9.4-.4.9-.8,1.3-1.3.6-.7,1.3-1.4,2-2.1-.2,0-.5,0-.7,0,2.9.3,5.8.5,8.7.6-.1,0-.3,0-.5,0-.6.3-1.1.6-1.6.9-1.9,1-3.7,2.1-5.6,3.1-.9.5-1.7.9-2.6,1.4-2.9,1.7-5.7,3.4-8.6,5.1.9-.9,1.8-1.8,2.7-2.8.6-.6,1.3-1.3,2-2h0ZM153,9.1c2.9.4,5.9.8,8.9,1.2-3-.4-5.9-.8-8.9-1.2ZM181.2,11.7c2.3-1.4,4.6-2.9,6.9-4.4h0c-1.4,1.1-2.8,2.3-4.2,3.4-.4.3-.8.7-1.2,1-.5,0-1,0-1.5,0h0ZM183.3,17.2c1.9-1.6,3.9-3.2,5.8-4.7,1.2,0,2.4,0,3.7,0-2.8,1.4-5.6,2.8-8.4,4.2-.5.2-.9.5-1.4.7,0,0,.2-.1.2-.2ZM198.3,12.5c.8,0,1.5.2,2.2.4.2,0,.5,0,.7.1-.2,0-.5-.1-.7-.1-.7-.1-1.5-.3-2.2-.4ZM201,13.1c-.2,0-.4-.1-.6-.1.2,0,.4,0,.6.1ZM200.1,12.9c-.2,0-.5,0-.8,0,.3,0,.5,0,.8,0ZM200.1,8.8c-2.1,1.1-4.3,2.2-6.4,3.3.6,0,1.2,0,1.9.1-1.6-.1-3.2-.2-4.9-.2-2.3,0-4.7-.2-7-.2,2.1,0,4.2.1,6.2.2.2-.2.4-.3.6-.5,1.6-1.3,3.2-2.6,4.8-3.9,0,0,.1,0,.2-.1,2.3,0,4.6.1,6.8.3-.8.4-1.5.8-2.3,1.2h0ZM197.7,12.4c-.6,0-1.3-.1-1.9-.2.6,0,1.3.1,1.9.2ZM196.4,12.6c-.1,0-.3,0-.4,0,.1,0,.3,0,.4,0ZM193.9,12.6c-.3,0-.6,0-.9,0,.3,0,.6,0,.9,0ZM211.5,8.4c-.9,0-1.9-.2-2.8-.2.9,0,1.9.2,2.8.2ZM206.2,7.9c-.9,0-1.9-.1-2.8-.2.9,0,1.9.1,2.8.2ZM187,7.3c-3.5,0-7,0-10.5,0,3.5,0,7,0,10.5,0ZM176.2,7.2c-.6.6-1.2,1.3-1.8,1.9,0,0-.1,0-.2.1-1.2.6-2.3,1.3-3.5,1.9-1.7-.1-3.4-.2-5.1-.4-1.1-.1-2.2-.3-3.3-.4.4-.4.7-.8,1-1.1.6-.7,1.2-1.3,1.8-2h-.9c4,0,8,0,12,0h0ZM179.7,11.6c-.8,0-1.6,0-2.4-.1.8,0,1.6,0,2.4.1ZM173.4,11.3c-.7,0-1.4,0-2-.1.7,0,1.4,0,2,.1ZM157.6,7.1c-.9,0-1.8,0-2.7,0,.9,0,1.8,0,2.7,0ZM130.1,5.9c1.1.1,2.1.2,3.1.4,0,0,.1,0,.2-.1-1.1,0-2.2-.2-3.3-.2,5.2.4,10.4.7,15.6.9h-.3c-.4.2-.8.4-1.2.6-.2.1-.4.2-.6.3,3.1.4,6.1.9,9.2,1.3-4.4-.6-8.9-1.3-13.3-1.9.4,0,.7,0,1.1.1,0,0-.1,0-.2-.2-.5-.4-1.1-.6-1.7-.5-.4,0-.8,0-1.2.2.4,0,.7,0,1.1.2-2.8-.4-5.6-.8-8.5-1.1h0ZM145.4,10.1c-1-.1-2-.2-3-.4,1,.1,2,.2,3,.4ZM139.4,9.4c-1.6-.2-3.2-.4-4.8-.6,1.6.2,3.2.4,4.8.6ZM123.2,7.6c-.3,0-.6,0-.8,0,.3,0,.6,0,.8,0ZM109.2,6.5c-.8,0-1.5-.1-2.3-.2.8,0,1.5,0,2.3.2ZM105.8,6.3c-1,0-2,0-3,0,1,0,2,0,3,0ZM102.7,6.2c-1.3.9-2.7,1.7-4.1,2.5-1.8,1.1-3.7,2.2-5.5,3.3-.8.4-1.5.9-2.2,1.3-1.8.9-3.5,1.8-5.2,2.7-1.4.8-2.9,1.5-4.3,2.2-.8.4-1.7.8-2.6,1.2-.7.3-1.4.6-2.1,1,.7-.6,1.4-1.1,2.1-1.7.3-.2.7-.5,1-.7.8-.5,1.5-1.1,2.3-1.6,2.3-1.7,4.7-3.4,7.1-5,2.3-1.6,4.6-3.2,6.9-4.8-.4,0-.8,0-1.2.1,1-.1,2-.2,3.1-.3,1.7-.2,3.3-.2,4.9-.2h0ZM56.8,29.1c-.4.1-.7.3-1.1.4-1.4.5-2.8,1.1-4.2,1.6,0,0,0,0-.2,0-2.5-.5-5-1.2-7.4-1.9.5-.5,1-1.1,1.5-1.6,1.5-.6,3-1.1,4.5-1.8,3.1-1.3,6.2-2.5,9.3-3.8,1-.4,2.1-.9,3.1-1.4,1.9-.9,3.8-1.8,5.6-2.7,2-1,3.9-2.1,5.8-3.3.3-.2.5-.3.8-.5-.3.2-.6.4-.9.7-2.7,2.2-5.4,4.4-8.1,6.6-.8.7-1.6,1.4-2.4,2.1l-4.8,4.2c-.5.5-1,.9-1.5,1.4h0ZM59,32.6c-.5,0-1.1-.2-1.6-.2.5,0,1.1.2,1.6.2ZM56.3,32.2c-.5,0-1.1-.2-1.6-.3.5.1,1.1.2,1.6.3ZM53.8,31.7c-.5-.1-1.1-.2-1.6-.3.5.1,1.1.2,1.6.3ZM52.1,4.7h0c0-.1,0-.2.2-.2,0,0,0,0-.1.1.1-.1.2-.2.4-.3.7,0,1.4,0,2.1,0-.3.2-.7.5-1,.8,0,0,.2,0,.2,0-1,.2-2,.4-3,.7,0,0,.2,0,.3,0,.3-.3.7-.7,1-1,0,0,0,0,0,0ZM58,4.4c-.2,0-.3,0-.5,0,.2,0,.3,0,.4,0h0ZM55.3,4.3c.7,0,1.3,0,2,0-.7,0-1.3,0-2,0ZM55.9,4.6c-.3,0-.5,0-.8.1.3,0,.5,0,.8-.1ZM43.6,7.5c.7-.1,1.3-.3,1.9-.4-.6.2-1.3.3-1.9.4ZM46.1,6.9c.5-.1.9-.2,1.3-.3-.4.1-.9.2-1.3.3ZM48.4,6.3c.5-.1,1-.2,1.4-.4-.5.1-1,.2-1.4.4ZM78.4,8.1c.3,0,.7,0,1,0-.3,0-.7,0-1,0ZM84.4,7.6h1.6c-.5,0-1.1,0-1.6,0ZM89.6,7.2c.6,0,1.2-.1,1.8-.2-.6,0-1.2.1-1.8.2ZM74.5,8.4c0,0-.2.1-.3.2-1.8,1.1-3.6,2.2-5.5,3.3-2.8,1.6-5.7,3-8.7,4.4-1.7.8-3.3,1.5-5,2.1,0,0-.2,0-.3.1.4-.4.8-.7,1.2-1,.9-.7,1.7-1.5,2.6-2.1,1.2-.9,2.5-1.9,3.7-2.9,1.5-1.1,3-2.3,4.4-3.4,2.6-.2,5.2-.5,7.8-.7h0ZM64,9.3c.4,0,.8,0,1.2-.1-.4,0-.8,0-1.2.1ZM59.8,9.8h0c-.2,0-.5,0-.7.1.2,0,.5,0,.7-.1h0ZM52,4.2h-1,1ZM43,4.6c.4,0,.8,0,1.2,0-.4,0-.8,0-1.2,0ZM45.3,4.4c.5,0,.9,0,1.4,0-.5,0-.9,0-1.4,0ZM48.7,4.3c.4,0,.7,0,1.1,0-.4,0-.7,0-1.1,0ZM41.9,4.7c-.4,0-.8,0-1.2.1.4,0,.8,0,1.2-.1ZM39.7,4.9c-.4,0-.8.1-1.3.2.4,0,.8-.1,1.3-.2ZM37.4,5.2c-.5,0-1.1.2-1.6.3.5,0,1-.2,1.6-.3ZM34.9,5.6c-.7.1-1.3.2-2,.4.7-.1,1.3-.3,2-.4ZM32.7,6.1c-.4.4-.8.7-1.2,1.1-1.5,1.3-2.9,2.6-4.4,3.9-.4.4-.8.7-1.2,1.1,0,0,.2,0,.3-.1-1.5.7-3,1.5-4.4,2.4.6-.1,1.3-.2,2-.3-.4.4-.8.8-1.2,1.1-1.5.8-3,1.6-4.5,2.3-1.7.7-3.3,1.4-5.1,2-.4.1-.7.2-1.1.4-.3,0-.6-.1-1-.2.5-.5.9-1,1.4-1.5,1.4-1.4,2.9-2.7,4.4-4,2.2-1.2,4.3-2.5,6.3-4,.9-.7,1.8-1.5,2.7-2.3,2.3-.8,4.7-1.4,7.1-1.9h0ZM43.4,7.5c-.7.1-1.5.3-2.2.4.7-.1,1.5-.3,2.2-.4ZM39.2,8.3c-.1,0-.2,0-.3,0,.1,0,.2,0,.3,0ZM37.1,8.7c-.1,0-.3,0-.4,0,.1,0,.3,0,.4,0ZM34.8,9.2c-.2,0-.3,0-.5.1.2,0,.3,0,.5-.1ZM32.5,9.8c0,0-.1,0-.2,0,0,0,.1,0,.2,0ZM30.4,10.4c-.2,0-.3.1-.5.2.2,0,.3-.1.5-.2ZM28,11.2c-.1,0-.2,0-.3.1.1,0,.2,0,.3-.1ZM43.4,13.2c0,0-.1,0-.2,0,0,0,.1,0,.2,0ZM40.7,13.4c-.1,0-.2,0-.3,0,.1,0,.2,0,.3,0ZM37.9,13.6c-.2,0-.3,0-.4,0,.2,0,.3,0,.4,0ZM35,13.6c-1,0-1.9,0-2.9,0,1,0,1.9,0,2.9,0ZM32,13.7c-1.8,0-3.5,0-5.3.2,1.8-.1,3.5-.2,5.3-.2ZM26.4,13.9c-.8,0-1.6.1-2.4.2.8-.1,1.6-.2,2.4-.2ZM23.7,22.8c-.5-.1-1-.3-1.5-.4.5.1,1,.3,1.5.4ZM21.6,22.2c-.4-.1-.8-.2-1.3-.3.4.1.9.2,1.3.3ZM19.5,21.7c-.4-.1-.8-.2-1.2-.3.4,0,.8.2,1.2.3ZM17.5,21.2c-.4,0-.7-.2-1.1-.2.4,0,.7.2,1.1.2ZM3.7,17.1c0,0-.1,0-.2.1,1.5,1.2,3.5,1.6,5.3,2.1-1.8-.5-3.8-.9-5.3-2.1,0,0,.1,0,.2-.1ZM24.2,23c.7.2,1.3.4,2,.6,1.6.6,3.2,1.1,4.8,1.7,3.6-1.7,7.3-3.4,10.8-5.4,1.9-1.1,3.8-2.2,5.7-3.4,0,0,.1,0,.2-.1-.7.6-1.4,1.3-2,1.9-1.6,1.6-3.1,3.2-4.6,4.9-.2.3-.5.6-.8.8-1.7.6-3.3,1.1-5,1.6-.6.2-1.2.3-1.8.5,1.8.6,3.5,1.2,5.3,1.7-4.2-1.3-8.3-2.8-12.4-4.2-.7-.2-1.3-.4-2-.6h0ZM38.6,27.8c1.7.5,3.4,1.1,5.2,1.5-1.7-.5-3.5-1-5.2-1.5ZM60,32.7c.5,0,1.1.1,1.6.2-.5,0-1.1-.1-1.6-.2ZM61.9,32.9c.5-.4.9-.8,1.4-1.2.5-.5,1.1-.9,1.6-1.4,1-.5,2-.9,3-1.3,1.8-.8,3.6-1.6,5.3-2.4,4.4-2.1,8.8-4.1,13.2-6.4l5.7-3c.9-.5,1.8-.9,2.6-1.4,2.9-1.7,5.8-3.4,8.6-5.2,1.7-1,3.3-2.1,5-3.2.4-.3.9-.6,1.3-.9,2.7.2,5.4.5,8.1.6.6,0,1.2.1,1.9.2-.9.6-1.8,1.2-2.8,1.8-1.6,1-3.2,2.1-4.8,3.1-1.1.7-2.3,1.3-3.5,2-1.1.6-2.2,1.3-3.4,1.9-1.7.9-3.4,1.8-5.2,2.7-5.7,3-11.2,6.4-17,9-1.2.5-2.5,1.1-3.8,1.5,3.7-2.3,7.4-4.4,11.1-6.6,2.1-1.2,4.2-2.5,6.2-3.7.9-.5,1.8-1.1,2.8-1.6.7-.4,1.5-.8,2.2-1.1.4-.2.8-.4,1.2-.6h0c1.1-.5,2.2-1,3.3-1.5,1.2-.5,2.4-.9,3.7-1.4,0,0,0,0,0,0-1.2.4-2.4.8-3.7,1.1-.7.2-1.3.5-2,.8-.6.2-1.2.4-1.7.7-.9.4-1.7.8-2.6,1.1-.5.2-1,.4-1.5.7-2.9,1.5-5.8,2.9-8.7,4.5-2.7,1.4-5.4,2.9-8.1,4.3-1.2.6-2.3,1.2-3.5,1.8-.7.4-1.3.7-2,1.1-.3.2-.7.4-1,.6-.3.2-.5.3-.8.5-.2.1-.3.4-.4.5-.4.6.3,1.4.9,1.5.5.1,1,.3,1.5.3h0c.7,0,1.4-.1,2.2-.3,1.5-.3,2.9-.8,4.4-1.4,2-.8,3.9-1.7,5.9-2.7,1-.5,2.1-1,3.1-1.6,1.3-.7,2.6-1.5,4-2.2,2.3-1.3,4.7-2.6,7.1-3.9,1.6-.9,3.2-1.7,4.8-2.6,1.4-.7,2.7-1.5,4-2.3,1.1-.6,2.1-1.2,3.1-1.8,1.5-.9,2.9-1.9,4.4-2.8,1.6-1,3.2-2.1,4.8-3.1.4,0,.8,0,1.2.1-1.8,1.2-3.7,2.4-5.6,3.5-1.4.9-2.7,1.7-4.1,2.6-1.2.7-2.3,1.4-3.5,2.1-1.1.7-2.2,1.4-3.4,2-1.8.9-3.5,1.9-5.2,2.8-2.7,1.4-5.4,2.9-8,4.4-1.1.6-2.2,1.4-3.3,2-1.1.7-2.3,1.4-3.4,2.1-1.4.9-2.8,1.8-4.2,2.7l-2.3,1.4c-.1,0-.2.1-.3.2-5.1,0-10.2-.2-15.3-.4-1.5,0-3-.2-4.5-.3h0ZM104.3,29l-1.3.8c-2.2,1.3-4.4,2.5-6.6,3.8-.7,0-1.5,0-2.2,0,3.3-1.5,6.7-3,10-4.6h0ZM93.9,33.6c-1.7,0-3.5,0-5.2,0,1.7,0,3.5,0,5.2,0ZM81.7,33.6c1.9,0,3.9,0,5.8,0h.3c-2.1,0-4.1,0-6.2,0h0ZM87.7,33.3c0,0,.2.2.3.3h0c0,0-.2-.2-.3-.3h0ZM87.6,33.2h0c.2.1.4.3.6.4h0c-.2-.1-.4-.3-.6-.4h0ZM96.7,33.6c2.4,0,4.7,0,7.1,0,.6-.3,1.2-.7,1.8-1,1.7-1,3.3-1.9,5-2.9-.4.2-.8.5-1.2.8-1.8,1.1-3.5,2.1-5.2,3.2,0,0,0,0,0,0,1.5,0,3,0,4.5,0,2.5,0,5,0,7.6-.1-2.5,0-5,0-7.6.1-3.9,0-7.9.1-11.8.2h0ZM116.9,33.3c0,0,.2-.1.3-.2,2.3-1.5,4.6-3,6.9-4.4,2.6-1.6,5.2-3.2,7.9-4.8.2-.1.5-.3.7-.4,1.8-1,3.6-2,5.3-3,2.5-1.4,5-2.7,7.5-4,1.6-.9,3.2-1.7,4.9-2.6-.7.7-1.4,1.4-2.1,2.1-.9.9-1.7,1.7-2.5,2.6-1.3,1.4-2.5,2.9-3.6,4.6-1.1,1.6-2.1,3.4-2.6,5.4,0,.4-.2.7-.2,1.1-1.6,1-3.1,2-4.6,2.9-5.9.5-11.8.7-17.8.8h0ZM145.4,31.4c-.5,0-1,.1-1.5.2.5,0,1-.1,1.5-.2ZM140.5,31.9c-.4,0-.9,0-1.3.1.4,0,.9,0,1.3-.1ZM149.6,30.8c.1,0,.3,0,.4,0,0,0,.1,0,.2,0,0,0-.1,0-.2,0-.1,0-.3,0-.4,0ZM151.5,30.5c.2-.1.5-.3.7-.4,1.5-.9,3-1.8,4.5-2.8,1.1-.7,2.3-1.4,3.5-2.1,3.1-2.1,6.3-4.2,9.4-6.3,1.4-.9,2.7-1.9,4-2.9,1.6-.9,3.3-1.8,4.9-2.7.4-.2.8-.4,1.1-.6h-.2c.9,0,1.8,0,2.6,0h-.4c-1.6,1.3-3.1,2.6-4.8,3.8-2.4,1.8-4.8,3.6-7.3,5.3-1.7,1.2-3.3,2.3-5,3.5-1.1.7-2.1,1.5-3.2,2.2,0,0,.2-.1.3-.2-.1,0-.3.2-.4.3,0,0,0,0,0,0,0,0,0,0,0,0,0,0-.1,0-.2.1,0,0,0,0,.1,0,0,0-.2.1-.3.2,0,0,0,0,.1,0-.9.6-1.7,1.1-2.6,1.7-2.3.4-4.6.8-7,1.1h0ZM173.8,12.6h.4-.4ZM174.4,26.6c-.5,0-1,.2-1.5.3.5,0,1-.2,1.5-.3ZM169.5,27.5c-1.5.3-3,.5-4.5.8,1.5-.3,3-.5,4.5-.8ZM163.4,28.5c-1.5.3-3,.5-4.6.8,1.5-.3,3.1-.5,4.6-.8ZM182.6,25.3c-1.2.2-2.4.4-3.6.5.2,0,.4,0,.6-.1,3-1.5,6.1-3.1,9.1-4.7,2.9-1.5,5.8-2.9,8.7-4.3,1.8-.9,3.7-1.8,5.5-2.8.8.5,1.5,1.2,2.1,2-.6-.8-1.4-1.7-2.3-2.3.1,0,.2.1.3.2,3.2-1.6,6.3-3.2,9.5-4.9.3-.2.7-.3,1-.5,3.3.3,6.7.7,10,1.1-.7.7-1.5,1.3-2.2,1.9-1.4.8-2.8,1.6-4.2,2.4-2.3,1.3-4.6,2.6-6.9,3.9-1.4.8-2.7,1.5-4,2.3-1.5.9-3.1,1.8-4.6,2.7,1-.1,1.9-.2,2.9-.3-7.3.9-14.6,1.7-21.9,2.6h0ZM201.3,13.2c.2,0,.4.1.5.2-.2,0-.4-.1-.5-.2ZM202.2,13.6c.2,0,.3.2.5.3-.2-.1-.3-.2-.5-.3ZM201.2,13c.2,0,.4.1.6.2-.2,0-.4-.2-.6-.2ZM202,13.3c.2,0,.3.1.5.2-.1,0-.3-.2-.5-.2ZM233.4,18.8c-.6.1-1.2.2-1.8.3.6-.1,1.2-.2,1.8-.3ZM225.6,20c-.1,0-.2,0-.4,0,.1,0,.2,0,.4,0ZM219,20.9c-.6,0-1.1.1-1.6.2.6,0,1.1-.1,1.6-.2ZM211.2,21.8h0,0ZM239.6,17.7c-.2,0-.4,0-.5,0,.2,0,.4,0,.5,0,6-.9,8.2-1.9,8.2-2.8,0,.9-2.1,1.9-8.2,2.8Z"/>
      <path class="st0" d="M161.3,27.6s0,0,0,0c0,0,0,0-.1,0,0,0,0,0,.1,0h0Z"/>
      <path class="st0" d="M52.2,4.6h0s0,0,0,0c0,0,0,0,0,0Z"/>
    </g>
  </g>
</svg>