<?xml version="1.0" encoding="UTF-8"?>
<svg id="Layer_2" xmlns="http://www.w3.org/2000/svg" version="1.1" viewBox="0 0 117.6 15.8">
  <!-- Generator: Adobe Illustrator 29.3.1, SVG Export Plug-In . SVG Version: 2.1.0 Build 151)  -->
  <defs>
    <style>
      .st0 {
        fill: #2a2042;
      }
    </style>
  </defs>
  <g id="ShadowLilPot">
    <path class="st0" d="M117.4,8c-.3-.7-1-1.2-1.7-1.5-.9-.4-1.9-.7-3-.9-.4,0-.8-.2-1.2-.2h0c-.5-.1-1-.2-1.5-.3-.4-.1-.8-.2-1.2-.4,0,0,0,0-.2,0h0c-.3-.2-.5-.3-.8-.5,0,0,0,0,0,0,0,0,0,0,0,0-.2,0-.4-.2-.6-.3h0s0,0,0,0h0s0,0,0,0c-.4-.3-.8-.7-1.3-1,0,0-.2-.1-.3-.2h0c0,0-.1,0-.2-.1-.8-.5-1.6-1-2.3-1,0,0-.1,0-.2,0-.9-.3-1.9-.3-2.8-.3-.8,0-1.6,0-2.3,0-.2-.1-.5-.2-.8-.3,0,0,.2,0,.3.1.2-.1.4-.3.6-.5-.7,0-1.5,0-2.2,0,.1,0,.2,0,.3,0,.3,0,.5.1.8.2-.3,0-.5-.2-.8-.2-.8-.1-1.6-.1-2.4,0-.6,0-1.2,0-1.8.2-.3,0-.5,0-.8.1-.8-.3-1.5-.5-2.3-.5-.7,0-1.4,0-2.1,0-.6,0-1.2,0-1.8,0-2.3,0-4.6,0-6.9,0-2.4,0-4.8-.2-7.2-.2h-1.6c-2,0-4.3.1-6.7.2-4.1,0-8.2-.2-12.3-.3-8.3-.2-16.6.6-24.9,1.2-.1,0-.2,0-.4,0-1,0-1.9.2-2.9.2-.2,0-.4,0-.5,0-1,0-1.9.2-2.9.3-2,.2-3.9.4-5.9.6-.1,0-.3,0-.4,0-.9,0-1.8.2-2.7.3,0,0,0,0,0,0h0c-.2,0-.5,0-.7.1-.8.1-1.6.2-2.3.4-1,.2-2,.5-2.9.8,0,0,0,0-.1,0-.4.1-.9.3-1.3.4-.7.2-1.5.5-1.9,1.2C0,6.2,0,6.6.2,6.9c0,.1.2.2.3.4h0c0,0,.1.1.2.2,0,0,0,0,0,0,0,0,0,0,0,0,0,0,0,0,0,0,0,0,0,0,.1,0,0,0,0,0,0,0,0,0,0,0,0,0h0c.1,0,.2.1.3.2,0,0,.1,0,.1,0,.2,0,.4.1.6.2,0,0,.2,0,.2,0,0,0,.2,0,.3,0,.1,0,.3,0,.4.1,0,0,.1,0,.2,0h0c.4.1.9.2,1.3.3.1,0,.2,0,.3,0,.4,0,.9.2,1.3.2.4,0,.9.1,1.3.2.6,0,1.1.2,1.7.3h0s0,0,.1,0c0,0,0,0,0,0,0,0,0,0,0,0,0,0,.1,0,.2,0,.1,0,.2,0,.4.1h0c.2,0,.4.1.5.1,0,0,0,0,0,0,0,0,0,0,0,0,.4.1.7.2,1,.3s.7.2,1,.4c0,0,0,0,.1,0,1.2.4,2.4.9,3.5,1.5.3.1.6.3.9.4h0c.2.1.5.2.7.3,0,0,0,0,.1,0h0c.6.2,1.2.4,1.9.6,1.3.3,2.7.5,4,.7.2,0,.4,0,.6,0,.1,0,.3,0,.4,0h0c.1,0,.2,0,.3,0,.1,0,.3,0,.4,0h.1c0,0,.2,0,.3,0,0,0,0,0,.1,0,0,0,0,0,.1,0h0c.6,0,1.1.2,1.7.2,0,0,.2,0,.2,0h0c.9.1,1.8.2,2.7.3.9,0,1.9,0,2.8.1,2.1,0,4.2,0,6.3.1,2,.1,4.1.2,6.1.3,2,0,4.1,0,6.1,0,1.8,0,3.5,0,5.3,0,2.4,0,4.9,0,7.3,0,4,0,8,0,12,0s4.1,0,6.2,0c1.3,0,2.6,0,3.8,0s1.7,0,2.5,0c1,0,1.9,0,2.9-.1,0,0,0,0,.1,0h0c1,0,2-.1,2.9-.2,2-.2,4-.2,6-.3,1,0,2.1,0,3.1-.2,1,0,1.9-.3,2.9-.5,2-.4,4.1-.9,6-1.8.6-.2,1.1-.5,1.6-.8.8-.5,1.7-1.1,2.2-2,.2-.4.4-.7.3-1.2,0-.3-.1-.5-.2-.8h0ZM105.7,5c0,0,.1,0,.2.1,0,0,0,0,0,0,.1,0,.2.1.3.2h0c-1,.3-2.1.5-3.1.8h0c-.6.2-1.2.3-1.8.4.3-.3.3-.8,0-1.2,1-.4,1.9-.7,2.9-1.1,0,0,.2,0,.3-.1.1.1.3.2.4.3.2.2.4.3.7.5h0ZM98.9,4.9s0,0,0,0c0,0,0-.2.1-.2,0,0,0,0,0,0,0,0,0,0,0,0h0ZM98.8,5.1c-.4.4-.9.7-1.5.8h0c.6,0,1.2-.3,1.6-.8,0,0,0,0,0,0ZM94.6,5.6h0c-.3,0-.7,0-1,0h0c.3,0,.7,0,1,0h0ZM92.1,8.9c.4,0,.9,0,1.4-.2,0,0,0,0,0,.1,0,0,0,.1,0,.2-.5.1-1,.2-1.5.4-.7.2-1.4.3-2.1.4.8-.3,1.6-.6,2.3-.9h0ZM89.6,5s0,0,.1,0c0,0,0,0-.1,0ZM114.5,8.2h.1c0,0,0,0-.1,0-.2,0-.3-.2-.5-.2-.4-.2-.9-.3-1.2-.3.3,0,.7.2,1.2.3.2,0,.3.1.5.2h0ZM112.8,7.6h0s0,0,0,0h0ZM99.5,2.9c.4,0,.9,0,1.4,0h0c-.5,0-1,0-1.4,0h-.3c.1.3.2.7.2,1h0c0-.3,0-.7-.1-1h.3,0ZM92.1,5.4h0,0c-.3,0-.6,0-.8,0h0c.3,0,.6,0,.9,0ZM91,5.4h0c-.3,0-.5,0-.8-.1h0c.3,0,.5.1.8.1ZM33.4,12.9h-.1c-.9,0-1.8,0-2.6-.1-.4,0-.9,0-1.3-.1-.4,0-.7,0-1-.1.2,0,.4,0,.6,0h0c.3,0,.6,0,.9,0,.6,0,1.2,0,1.8.1.4,0,.9,0,1.3,0,.6,0,1.2,0,1.8,0,.1,0,.2,0,.4,0-.6,0-1.1,0-1.7,0h0ZM36.4,6.7h0c-2.9.7-5.7,2.1-8.6,3.1.2-.1.4-.3.5-.4,1.2-.9,2.5-1.9,3.7-2.8.5,0,1,0,1.6,0,.9,0,1.8,0,2.8,0h0c1.2,0,2.5,0,3.8,0,.6,0,1.2,0,1.8,0-1.8,0-3.7,0-5.5,0h0ZM18.5,10.4s-.2-.1-.4-.2c0,0-.1,0-.2,0,.5.3,1.1.5,1.6.8,0,0-.1,0-.2,0-.3-.1-.6-.2-.9-.4h0ZM22.1,11.5c-.3,0-.6-.1-.9-.2-.5-.1-1.1-.3-1.6-.5.8.2,1.7.4,2.5.6ZM27.6,6.2c.5,0,1.1,0,1.7,0,.4,0,.8,0,1.2,0h.1c.5,0,1,0,1.4.1-1.6-.2-3.1-.2-4.7-.2h.3,0ZM21.3,6.2h-.2.5-.3ZM17.6,6.4c-1.9.2-3.8.6-5.6,1.3,0,0,0,0,.1,0-.4-.2-.9-.3-1.4-.4h-.4c.4-.2.7-.3,1.1-.3h0c.4,0,.8-.1,1.1-.2,1.3-.2,2.7-.3,4.1-.4,0,0,.2,0,.3,0,.2,0,.4,0,.6,0h0ZM13.7,8.3c.3.1.5.2.8.3-.3-.1-.5-.2-.8-.3h0ZM47.2,6.5c1.8-.2,3.5-.3,5.3-.6,1.7-.2,3.4-.5,5-.8-1.7.3-3.3.7-5,.8-1.8.3-3.5.4-5.3.6h0ZM6.2,6c.7-.2,1.4-.3,2.1-.5.3,0,.6-.1.8-.2.3,0,.7-.1,1-.2,2.4-.3,4.9-.6,7.3-.8,1.4-.1,2.7-.2,4.1-.4.7,0,1.4-.1,2.1-.2,2-.2,3.9-.2,5.9-.3.1,0,.3,0,.4,0,.3,0,.6,0,.9,0,.1,0,.2,0,.4,0,1.8,0,3.6-.1,5.4-.2h0c.5,0,1,0,1.5,0,1.4,0,2.8,0,4.2-.1h1.8c1.2,0,2.5,0,3.7,0,2,0,4,.1,6,.2.9,0,1.7,0,2.6.1.6,0,1.3,0,1.9.2-1.8.3-3.6.7-5.4,1-1.6.2-3.2.4-4.8.6-1.5.2-2.9.2-4.4.3-1.7,0-3.4,0-5.1,0h-1.1c-1.4,0-2.8,0-4.2,0-.1,0-.3,0-.4,0-.5,0-.9,0-1.3-.1-.2,0-.4,0-.6,0h0c-.2,0-.5,0-.7,0-1.1,0-2.2,0-3.3,0h-.8c-.6,0-1.2,0-1.9,0h-.3c-1.1,0-2.2,0-3.3,0-.2,0-.4,0-.5,0h0c-.1,0-.3,0-.4,0-.2,0-.5,0-.8,0-.2,0-.3,0-.5,0-.3,0-.6,0-.9.1-.1,0-.2,0-.3,0-.8.1-1.6.2-2.3.4-1,.2-1.9.4-2.9.7-.6.2-1.2.3-1.8.6-1.2-.3-2.4-.5-3.6-.7-.4,0-.9-.1-1.3-.2.3,0,.6-.2.9-.3h0ZM55,13.2h-2c.4-.3.8-.6,1.2-.9h0c2.5-2,4.9-4,7.6-5.7,1-.7,3.4-.9,2.6-2.6-.6,0-1.3.1-1.9.2.5,0,1-.2,1.4-.3.3,0,.7,0,1,0,2.1,0,4.1.2,6.2.2,2.1,0,4.2.2,6.2.2,2,0,4,0,6,0h1c1.5,0,3,0,4.5.1,0,0,0,0,.1,0h-.1c-1.5-.1-3-.1-4.5-.1h-.9c-1.2.5-2.3.9-3.5,1.4-2.9,1.1-5.9,2.2-8.9,3.3-3.4,1.2-6.7,2.4-10.1,3.6-.5.2-1.1.4-1.6.6.3,0,.6,0,.9,0-1.7,0-3.4,0-5.1,0h0ZM81,13.5c.7-.3,1.4-.6,2.2-.9,1.3-.6,2.6-1.2,3.9-1.7.4-.2.9-.3,1.3-.5-.2.2-.3.5-.2.8.1.5.6.9,1.1,1.1-.1,0-.2,0-.3,0-.3,0-.7,0-1,.1-.6,0-1.2.3-1.4.9,0,0,0,0,0,0-1.8,0-3.7,0-5.6,0Z"/>
  </g>
</svg>