<?xml version="1.0" encoding="UTF-8"?>
<svg id="Layer_2" xmlns="http://www.w3.org/2000/svg" version="1.1" viewBox="0 0 718.1 85.9">
  <!-- Generator: Adobe Illustrator 29.3.1, SVG Export Plug-In . SVG Version: 2.1.0 Build 151)  -->
  <defs>
    <style>
      .st0 {
        fill: #2a2042;
      }
    </style>
  </defs>
  <path class="st0" d="M717.6,29.6h0c-1.8-7.4-11.4-10.3-17.3-14.2-7.2-3.8-13.7-8.8-20.7-13-8.2-4.2-17.7-1.7-26.4-1.2-10,.8-20.1,1.4-30.2,2-14.4.7-28.8,0-43.2,0-10.8.2-21.7,1.3-32.5,2-21.9,1.6-43.8,3.2-65.7,4.3-11.6.8-23.2,2.6-34.8,3.3-20.6,1.6-41.2-1.4-61.8.2-18.3,1.8-36.6,3.3-55,3-18.1.2-36.2,1.9-54.3,2.8-12.6.9-25.2.6-37.9,1.1-22.5,1.5-45,1.1-67.6,1.1-12.9-.2-25.8.5-38.6-.6-9.3-1-18.5-3.3-27.7-5-6-1.3-12-2.5-18-3.6-4.8-.7-9.8-2.1-14.5-.6-6.1,2-12.1,4.3-18.4,5.6-7.1,1.6-14.3,2-21.5,2.1-7.7.6-15.6,2.4-22.1,6.7-3,2.3-6.1,4.7-9,7.2-.2.3-.3.8-.1,1.2.6,1.4,1.8,2.4,2.6,3.6,1.2,1.5,7.1,9.7,9.2,6.3,5.8,3.8,11.1,8.4,15.5,13.7,4.5,5.3,8,11.9,14.3,15.4,8.6,5.3,18.9,3.8,28.5,4.8,11.4,1.2,22.9,2,34.1,4.2,5.9,1.1,11.7,2.8,17.6,3.4,6.1.6,12.2.5,18.3.6,27,.4,53.7-4,80.5-4.8,25.4-.9,50.8,1.5,76.2-1.2,14.5-1,28.9-.6,43.4-.9,10.7-.2,21.2-1.3,31.9-1.6,13.9-.2,28-.5,42,.2,16.2,1,32.4,1.4,48.6,1.7,16.8.5,33.5,3.1,50.4,2.9,11.4.1,22.8-.9,34.2-.8,8.6,0,17.2.9,25.8.8,12.3.6,23.9-2.8,36-4.2,8.9-.9,17.9-1,26.8-1.9,4.5-.6,8.9-1.7,13.5-2.3,10.1-1.6,20.5.2,30.6-2,8.4-2.3,17.6-3.5,24.2-9.7,3.2-2.7,6.8-5.2,9-8.9,2.2-3.7,3.2-8,4-12.3.6-3.7,1-7.6.2-11.3ZM256.1,23.2c-1.2,1.1-2.5,2.1-3.8,3.2-1.5,1.3-3.1,2.6-4.5,3.9-1.4,1.2-2.7,2.5-4,3.7-.4.4-.8.7-1.2,1,0-.3,0-.6,0-.8,3.4-2.8,6.9-5.6,10.3-8.4,1.1-.9,2.2-1.8,3.2-2.7ZM255.5,43.7c-.1.1-.3.2-.4.3-1.9,1.7-3.8,3.3-5.8,4.9-.9.8-1.7,1.6-2.6,2.3-1.2,1.1-2.5,2.2-3.7,3.3-.1-1.6-.2-3.2-.2-4.9,0-.8,0-1.5,0-2.2,2.3-.7,4.6-1.4,6.9-2.1,1.9-.6,3.9-1.2,5.8-1.8ZM254.5,39.8c2.2-.9,4.4-1.7,6.6-2.6,0,.2,0,.5,0,.7-.4.1-.8.2-1.2.4-1.8.5-3.5,1-5.3,1.6ZM252,21.6c-.2.2-.5.4-.7.5-2.9,2.2-5.8,4.5-8.7,6.7,0-.8,0-1.5,0-2.3,0-1.3,0-2.6-.1-3.9,0-.3,0-.6,0-.9,3.2-.1,6.4-.2,9.6-.2ZM215.2,23c-2.2,1.6-4.4,3.3-6.5,4.9-1.3,1-2.5,1.9-3.8,2.9-.3-1.4-.5-2.7-.8-4.1-.2-1.2-.3-2.3-.5-3.5,3.9,0,7.7-.1,11.6-.2ZM195.9,49.3c.1,1.5.3,2.9.5,4.3,0,.6.1,1.2.2,1.8-2.1.5-4.2,1-6.4,1.6-.2-.8-.4-1.5-.6-2.3.8-.6,1.6-1.3,2.4-1.9.9-.8,1.8-1.6,2.8-2.4.4-.3.8-.7,1.2-1ZM185.7,23.3c2.9,0,5.8,0,8.7,0v.2c0,1.3,0,2.7.1,4,0,2.3.1,4.5.2,6.8,0,1.2.1,2.4.2,3.6-2.8,1.9-5.6,3.8-8.3,5.8-.3-1-.6-2.1-.8-3.2-.9-3.8-1.8-7.6-2.6-11.4-.2-.7-.4-1.4-.5-2.1,0-.1,0-.2,0-.4,1-1.1,2.1-2.2,3.2-3.3ZM186.1,57.9c-.3,0-.5.1-.8.2.2-.2.5-.4.7-.6,0,.1,0,.2,0,.4ZM178.3,23.8h0c0,0,0,.2,0,.2l-1.1,1.1c0-.1,0-.2,0-.3,0-.2,0-.5,0-.8.4,0,.8-.2,1.1-.3ZM169,29.5h0c1.1-1,2.2-2,3.3-3,0,.5,0,1.1.1,1.6h0c0,.1-.1.2-.2.2-1.4.7-2.7,1.3-4.1,2,.3-.3.6-.5.8-.8ZM161,23.2h5.7c-1.3,1.1-2.5,2.2-3.8,3.4-2.3,1-4.6,2-6.9,3.1-.3.1-.6.3-.9.5,1.4-1.6,2.8-3.2,4.1-4.8.6-.7,1.3-1.4,1.9-2.2ZM156.3,32.4c-.6.5-1.1,1-1.7,1.5,0-.2,0-.4-.1-.6.6-.3,1.2-.6,1.8-1ZM152.7,23.3h0c0,0,2.6,0,2.6,0-.8.9-1.6,1.7-2.4,2.6-.1-.8-.2-1.6-.3-2.5,0,0,0,0,0,0ZM150.3,48.5c-1.8,1.4-3.5,2.8-5.3,4.2-.2-.3-.3-.6-.5-.9,1.8-1.6,3.6-3.3,5.4-4.9.1.5.3,1.1.4,1.6ZM148.4,39.5h0c-.2.2-.4.4-.7.6-1.3.6-2.6,1.2-3.9,1.8,1.4-1.4,2.9-2.8,4.3-4.2.1.6.2,1.2.3,1.8ZM146.8,29.6c0,.9.2,1.8.3,2.6-.1.2-.3.3-.5.5-1.3,1.2-2.6,2.4-3.9,3.6-.7.4-1.3.7-2,1-1,.5-2,1-2.9,1.6-.2-.4-.5-.9-.7-1.3.9-.8,1.7-1.6,2.6-2.4,2.3-2.1,4.7-4.2,7-6.4,0,.2,0,.5,0,.8ZM141.9,55.2c-.8.6-1.5,1.2-2.3,1.8-1.1.9-2.2,1.6-3.3,2.4-.5.3-1,.7-1.4,1,2.2-2,4.5-4,6.7-5.9.1.2.2.5.3.7ZM134.6,22.9c3.2.2,6.4.4,9.6.4-.7.6-1.3,1.1-1.9,1.7-2.4,2.1-4.8,4.1-7.2,6.2-.3.2-.6.5-.8.8-.2-.5-.5-1-.7-1.5-.3-.7-.7-1.3-1-2-.9-2-1.8-4-2.6-6,1.6.2,3.1.3,4.7.4ZM134.7,40.7c-.8.4-1.5.8-2.3,1.2.7-.6,1.3-1.2,2-1.8.1.2.2.4.3.6ZM120.6,21.1s0,0-.1,0c1.9.3,3.8.6,5.7.9,0,0-.1,0-.2,0,.8,1.7,1.5,3.4,2.2,5.2,1.1,2.4,2.2,4.8,3.4,7.2-1.3,1.2-2.6,2.3-3.9,3.5-1.1,1-2.2,1.9-3.2,2.9-.5.5-1,1-1.6,1.6-.3-.9-.5-1.7-.8-2.5-.5-1.6-1-3.3-1.4-4.9-.9-3.5-1.6-7-2.3-10.5.7-1,1.4-2.1,2.1-3.1ZM117.6,39.2c.7,2.1,1.3,4.2,2,6.3-1.7,1.7-3.4,3.3-5,5-.3.3-.6.6-.9.9-1.2-2.7-2.3-5.4-3.3-8.1.8-.4,1.7-.8,2.5-1.2.3-.1.6-.3.9-.4.8-.4,1.5-.8,2.2-1.2.4-.2.7-.5,1.1-.7.2-.2.4-.3.5-.5ZM113.2,61.3c-.3.2-.5.4-.8.6.3-.2.5-.5.8-.8,0,0,0,0,0,0,0,0,0,0,0,.1ZM116.7,36.3c0,.2,0,.4.1.6,0,0-.2-.2-.3-.2-.5-.4-1.1-.5-1.7-.7.4-.6.8-1.3,1.2-2,.2.8.4,1.5.6,2.3ZM115.6,32.1c0,.2.1.4.2.6-.4-.3-.8-.5-1.3-.4-.4,0-.8,0-1.2.2-.4.2-.8.3-1.1.5.3-.4.5-.7.8-1.1.7-.9,1.3-1.8,2-2.7.2.9.4,1.9.7,2.8ZM110.3,19.1c.9.2,1.9.4,2.8.5,0,0,0,.2,0,.3-.8.9-1.6,1.8-2.4,2.8-.8.9-1.6,1.9-2.4,2.8-.9,1-1.8,2-2.7,2.9-.2-.8-.4-1.6-.6-2.4-.4-1.6-.7-3.1-1.1-4.7-.3-1.2-.5-2.4-.8-3.6,2.4.5,4.8.9,7.2,1.3ZM105.7,41.4c-.1,0-.3.1-.4.2,0,0,0,0,0,0,.1,0,.2,0,.4-.1ZM85.6,21.1h0c1.2-2,2.5-4,3.7-5.9,2.8.5,5.5,1,8.3,1.5.2.6.4,1.3.5,2h-.4c-.3,0-.7,0-1,.1-4.1.6-8,1.7-11.7,3.2.2-.3.4-.6.6-.9ZM82.1,14.3c-.4.5-.8.9-1.2,1.4-1.3,1.5-2.6,3-3.8,4.5-.2-.8-.4-1.6-.6-2.5,1.1-.7,2.3-1.3,3.4-2,.8-.5,1.5-1,2.3-1.4ZM76.5,13.9c.2,0,.5-.2.7-.3.4,0,.8,0,1.2,0-.5.3-1,.5-1.5.8-.4.2-.7.4-1.1.5,0,0,0-.2,0-.3,0-.2,0-.3-.1-.5.3-.1.5-.2.8-.3ZM66.7,22.9c.8-.4,1.6-.8,2.4-1.2.5-.2.9-.5,1.4-.7,0,.1,0,.2,0,.3.4,1.7.8,3.5,1.2,5.2-.8.9-1.5,1.9-2.3,2.8,0,0-.2.2-.2.3-.2,0-.3.2-.5.2.2-.5.4-.9.5-1.4,0-.5.2-.9.1-1.3-.2-.9-.2-.9-.6-1.8-.2-.4-.5-.7-.7-1.1-.4-.5-.9-.9-1.5-1.2,0,0,0-.1.1-.2ZM66.1,27.1c0,.2,0,.5-.1.7-.2.5-.5,1-.8,1.5-.4.6-.8,1.1-1.3,1.6-.9.8-1.8,1.5-2.7,2.2-.6.4-1.2.8-1.8,1.2l-.5.3c.2-.3.5-.6.7-1,2-2.7,3.9-5.5,5.7-8.3,0,0,.1.1.2.2.1.2.2.3.3.5,0,.2.2.4.3.6,0,.2,0,.3,0,.5ZM61.8,56.1c-.5.2-.9.4-1.4.6-.3-.4-.6-.9-1-1.3.4-.4.7-.8,1.1-1.2.4.6.9,1.2,1.3,1.8ZM60.3,20.9c1.8-.9,3.7-1.7,5.5-2.5l-1.1,1.8c-.9.4-1.7.7-2.5,1.1-.3,0-.6-.1-1-.2-.3,0-.7-.1-1-.2,0,0,0,0,0,0ZM61.5,25.4c-.5.7-1,1.5-1.5,2.2-2.2,3.1-4.6,6.2-7,9.2-.2-.2-.3-.4-.5-.7-.9-1.2-1.7-2.4-2.6-3.6.4-.4.7-.8,1.1-1.2.8-.9,1.5-1.7,2.3-2.6.9-.3,1.7-.7,2.6-1.1,1.8-.8,3.7-1.5,5.5-2.3ZM58.5,41.6l-.4.4c-.2.2-.5.4-.7.7-.2-.2-.3-.4-.4-.6.2,0,.5-.2.7-.2.3,0,.5-.2.8-.2ZM56.8,49.1c-.2.2-.4.4-.6.7-.1.2-.3.3-.4.5,0,0,0-.1-.1-.2.4-.4.7-.7,1.1-1.1,0,0,0,0,0,.1ZM54.4,45.6c-.3.3-.7.7-1,1-.5-.7-1-1.4-1.5-2.1.4-.3.8-.5,1.1-.8.5.6.9,1.3,1.3,1.9ZM51.3,20.3c1-.1,1.9-.3,2.9-.5-.2,0-.5.2-.7.3-.4.2-.8.3-1.2.5-1,0-2,0-3.1,0,.7-.1,1.4-.2,2.1-.4ZM43.3,40.5c0,0,.1.2.2.3-.2,0-.4,0-.5,0,.1-.1.2-.3.3-.4ZM23.6,29.9c.4-.1.8-.2,1.3-.4.4-.1.7-.2,1.1-.3.1.9.2,1.7.4,2.6,0,0-.1,0-.2,0-1.2.2-2.5.3-3.7.5.4-.8.7-1.6,1.1-2.4ZM23.5,41.4c1.4-.9,2.8-1.7,4.2-2.5.3,1.3.6,2.7.9,4-1.6.1-3.2.2-4.8.2-1,0-1.9,0-2.9,0,.8-.5,1.7-1.1,2.5-1.6ZM13.5,27.3c2-1.1,4.1-2,6.2-2.7-.2.4-.4.9-.6,1.3-1.4.3-2.7.7-4.1,1-.6.2-1.2.3-1.7.5,0,0,.1-.1.2-.2ZM13,39.7c-.2-.5-.4-.9-.5-1.4l-.2-.5c.2,0,.3,0,.5,0,.3,0,.7,0,1,0-.3.7-.6,1.3-.8,2ZM16,32.7c-.6,0-1.2,0-1.8,0,.7-.2,1.4-.4,2.1-.7,0,.2-.2.4-.3.6ZM28.7,50.2c-.3.2-.6.3-1,.5-1.2.6-2.4,1.2-3.6,1.7-1.7-1.7-3.5-3.2-5.3-4.7,0,0,.1,0,.2.1.7,0,1.5.1,2.2.1s1.9,0,2.8,0c2,0,4-.2,6-.4,0,.1.1.3.2.5s0,0,0,0c-.5.7-1,1.4-1.5,2.2ZM30.5,22.3c0,0,0-.1,0-.2.8,0,1.5-.2,2.2-.2.2.3.3.6.4.9-.9.2-1.7.3-2.6.5,0-.3,0-.7,0-1ZM32.3,30c-.1-.2-.3-.5-.4-.7-.2-.4-.4-.8-.7-1.1,0-.2,0-.3,0-.5,1.1-.3,2.1-.6,3.2-.8l-.4,2.2c-.6.3-1.1.6-1.7.9ZM35.8,63c-.5-.1-1-.2-1.5-.3,0-.3,0-.6,0-.9.5-.4,1-.9,1.5-1.3.4.6.7,1.1,1.1,1.7-.4.3-.7.6-1.1.9ZM37.4,38.5c-.2-.3-.4-.6-.6-.9,0-.6.2-1.3.2-1.9,0-.6.1-1.2.2-1.7.1,0,.3,0,.4-.1.4-.1.9-.2,1.3-.4.3.6.7,1.2,1,1.7-.6.7-1.1,1.4-1.7,2.1-.3.4-.6.8-1,1.2ZM40.2,59.1c-.3-.6-.7-1.1-1-1.7,0,0,0,0,0-.1,1.1-1.1,2.3-2.2,3.4-3.4,0,.1.2.2.2.3.4.5.8,1,1.2,1.5-1.2,1.2-2.5,2.3-3.8,3.4ZM43.3,63.9l-.8-1.1c.9-.8,1.8-1.7,2.8-2.5.4-.4.9-.8,1.3-1.2.2.2.3.4.5.6-1.3,1.4-2.6,2.8-3.8,4.3ZM47.2,52.7c0,0-.1-.1-.2-.2-.4-.6-.9-1.3-1.3-1.9.5-.6,1-1.1,1.5-1.7.4.9.8,1.8,1.2,2.6-.4.4-.8.8-1.3,1.2ZM48.8,39.9c0-.1-.1-.2-.2-.3-.7-1.1-1.3-2.1-2-3.2.1-.2.3-.3.4-.5,0-.1.2-.3.3-.4.9,1.3,1.8,2.6,2.7,4-.2,0-.3.2-.5.2-.2,0-.5.1-.8.2ZM50.1,56.4c-.1-.1-.2-.3-.4-.5.2-.2.3-.3.5-.5,0,.2.2.4.2.5-.1.1-.2.3-.4.4ZM53.3,75.6c-.8-.8-1.5-1.6-2.2-2.3,0,0,.1,0,.2,0,2-.4,4-.8,6-1.2.9,1,1.8,2.1,2.7,3.1.2.3.3.7.5,1-2.4,0-4.8-.2-7.2-.6ZM60.4,66.4c0-.1-.1-.3-.2-.4.3-.1.6-.2.9-.4.2.3.4.6.7.9-.5,0-.9,0-1.4,0ZM64.6,73.7c-.2-.3-.5-.6-.8-.9-.3-.6-.7-1.3-1-1.9.4,0,.8-.1,1.2-.2.4,0,.8,0,1.2,0,.4.5.8,1,1.2,1.5-.6.5-1.3,1-1.9,1.4ZM67.1,65.8c-.2-.2-.4-.5-.6-.7-.4-.5-.7-.9-1-1.4.4-.2.8-.4,1.2-.6.6.8,1.2,1.7,1.8,2.5-.5,0-.9.1-1.3.2ZM65.9,54.1c-.8-1.1-1.6-2.2-2.4-3.3,0,0,0,0,0,0,1.7-2,3.3-3.9,5-5.8.7-.8,1.3-1.5,1.9-2.3.2-.2.3-.4.5-.6.9-1.2,1.8-2.4,2.7-3.6.3-.4.6-.8.9-1.2,0,.2,0,.3.1.5.6,2.2,1.2,4.3,1.9,6.4.4,1.4.9,2.7,1.3,4.1-1.6.8-3.2,1.5-4.8,2.3-2.4,1.2-4.8,2.3-7.1,3.5ZM78.7,58c-1.3,1.6-2.6,3.2-3.8,4.8-.2.3-.5.6-.7.9-.2.3-.4.6-.6.8-.9-1.2-1.8-2.4-2.6-3.6.4-.2.8-.4,1.2-.6,1.2-.7,2.4-1.4,3.6-2,1.3-.5,2.6-1,3.9-1.5-.3.4-.7.8-1,1.2ZM82.5,25.7c1.5-.8,2.9-1.5,4.4-2.1,1.2-.5,2.3-1,3.5-1.4.8-.3,1.6-.6,2.5-.8,1.1-.3,2.3-.7,3.4-.9.6-.1,1.2-.2,1.8-.3h.2s0,0,0,.1c-.2.2-.4.4-.6.7-.2.2-.5.4-.7.5-1.9,1.1-4,2-6,2.9-1.5.7-3,1.4-4.5,2.1-2.1.9-4.3,1.9-6.4,2.8.8-1.2,1.6-2.4,2.4-3.6ZM88.3,28.4c2.1-1.1,4.1-2.2,6.2-3.3,1.4-.7,2.7-1.4,4-2.2.3-.2.5-.4.8-.6,1,3.2,2,6.4,3.1,9.6-.7.7-1.4,1.5-2.1,2.2-2.4,2.5-4.9,5-7.3,7.5-2.4,1-4.9,2-7.3,3-.5-.8-1-1.6-1.5-2.4-.4-1-.9-2.1-1.3-3.1-.5-1.3-1-2.6-1.5-4-.3-.9-.6-1.8-.9-2.7,2.6-1.3,5.2-2.6,7.8-3.9ZM85.1,72.9c-.4.2-.7.5-1,.8-.2.2-.4.4-.6.7-.3.3-.5.8-.6,1.2,0,.2,0,.3,0,.5,0,.2,0,.5,0,.8-.7-.8-1.3-1.7-2-2.5.9-.8,1.7-1.7,2.6-2.5,1-1,2-1.9,3-2.9,0,.1.1.2.2.3.3.7.7,1.3,1.1,2-.2.2-.5.3-.7.5-.6.4-1.3.8-1.9,1.2ZM87.6,76.4c0,0-.2,0-.2,0,.1-.1.2-.2.3-.4.3-.2.6-.5.9-.7-.3.4-.7.7-1,1.1ZM92.8,55c.7-.7,1.5-1.4,2.2-2.2,1.5-1.5,3-3,4.4-4.6.7-.3,1.5-.7,2.2-1-.5.6-1.1,1.2-1.6,1.7-1.7,1.8-3.4,3.6-5.1,5.5-.5.5-1,.9-1.5,1.4-.2-.3-.4-.6-.7-.8ZM95.3,66.3c-.3-.7-.7-1.3-1-2,0,0,.1,0,.2,0,.2,0,.4-.1.6-.2.4.5.9,1,1.3,1.5-.4.2-.7.5-1.1.7ZM96.4,59.7c-.1-.2-.3-.3-.4-.5.8-.8,1.5-1.6,2.3-2.4.8-.8,1.5-1.7,2.2-2.6,1.5-1.7,2.9-3.4,4.4-5.1.6-.7,1.2-1.5,1.8-2.2.2-.3.5-.6.7-.9,1.1,2.8,2.1,5.6,3.2,8.5-.4.4-.9.9-1.3,1.3-3.8,1.3-7.6,2.4-11.4,3.5-.5.1-1,.3-1.5.4ZM99.2,62.9c.8-.2,1.7-.5,2.5-.8-.7.4-1.4.9-2,1.3-.2-.2-.3-.4-.5-.6ZM103.1,79.8c-.2,0-.3.1-.5.2-.1,0-.3,0-.4,0,0-.1-.1-.3-.2-.4.6,0,1.2-.1,1.8-.2-.2,0-.4.2-.6.3ZM101.7,75.7c.9-.5,1.7-1.1,2.5-1.6.4.4.8.8,1.1,1.2-1.2.2-2.4.3-3.7.5ZM111.2,74.4c-.3,0-.6.1-1,.2-.9-.9-1.8-1.8-2.7-2.7,2.6-1.8,5.2-3.6,7.8-5.5.3.8.7,1.6,1.1,2.4-1.8,1.8-3.6,3.7-5.2,5.7ZM116.6,57.7c.4-.5.9-.9,1.3-1.3.4-.2.8-.3,1.2-.5.9-.4,1.8-.7,2.6-1.1-1.6,1.2-3.2,2.5-4.8,3.7-.1-.3-.3-.5-.4-.8ZM122.3,63.1c-.6.6-1.2,1.2-1.8,1.7-.3-.5-.6-1-.9-1.5,1.5-1.1,2.9-2.3,4.3-3.4.2-.2.4-.3.6-.5.2.4.3.8.5,1.2-.9.8-1.8,1.7-2.7,2.6ZM130.2,47c1.1-.6,2.2-1.3,3.2-1.9-.9.8-1.9,1.7-2.9,2.5,0,0,0,0,0,0-1.1.5-2.2.9-3.3,1.4,1-.7,2-1.3,3-2ZM128.1,57.7c-.1-.3-.2-.7-.4-1,3.4-2.8,6.7-5.8,10-8.8,0,0,.1-.1.2-.2,0,0,.1,0,.2,0,.1.3.3.5.4.8-2.4,2.2-4.9,4.3-7.3,6.5-1,.9-2.1,1.9-3.1,2.8ZM137.3,74.1c-.4,0-.8,0-1.1.2-.6,0-1.2.1-1.7.2,1-.2,2-.4,3.1-.6.1,0,.2,0,.3,0-.2,0-.3.2-.5.3ZM134,70.1c-.4,0-.7.1-1.1.2-.2-.4-.3-.9-.5-1.3,2.5-1.7,4.9-3.4,7.3-5.2,1.5-1.1,3.1-2.2,4.6-3.4,0,0,.1-.1.2-.1,1.1,2.2,2.3,4.5,3.4,6.8-1.2.3-2.4.5-3.6.8-3.4.8-6.8,1.6-10.2,2.3ZM153,78.1c-1,.1-2,.2-2.9.4-3,.4-5.9.7-8.9,1.1,1.3-.7,2.6-1.3,3.9-1.9,1.9-.3,3.8-.5,5.6-.8.7,0,1.4-.2,2.1-.3.2.4.4.7.6,1.1-.1.1-.2.3-.3.4ZM152,65.8c-1.4-2.6-2.8-5.2-4.2-7.8,0-.1-.1-.3-.2-.4,1.2-1,2.4-1.9,3.5-2.9.2-.2.4-.3.6-.5,0,.4.2.7.3,1,.3.9.5,1.8.8,2.7.4,1.4.8,2.7,1.2,4.1.2.7.4,1.4.6,2.1,0,0,0,0,0,.1-.9.5-1.8,1-2.7,1.5ZM156.7,43.5c-.2-.7-.4-1.5-.6-2.2,2.1-1.9,4.2-3.8,6.3-5.8,2.1-1.1,4.2-2.2,6.3-3.3.7-.4,1.4-.7,2.1-1.1-2.4,2.2-4.9,4.3-7.3,6.5-1.5,1.3-2.9,2.6-4.4,3.9-.8.7-1.6,1.3-2.4,1.9,0,0,0,0,0,0ZM161.6,59.9c-.1-.4-.3-.8-.4-1.2-1.1-3.2-2.1-6.4-3.1-9.7,1.5-1.2,3-2.5,4.5-3.7.7-.5,1.3-1.2,2-1.8,1.9-1.7,3.7-3.5,5.6-5.2l3.2-3c.3,2.1.6,4.2.9,6.2.4,2.2.8,4.4,1.2,6.7.2.8.3,1.6.4,2.4-4.4,2.8-8.9,5.7-13.3,8.5-.4.2-.8.5-1.1.7ZM175.6,57.3c.5-.3,1.1-.7,1.6-1,0,.2,0,.5.1.7-1.8,1.5-3.5,2.9-5.3,4.4-1.3.3-2.6.6-3.8.9,2.5-1.6,5-3.3,7.4-4.9ZM172.7,70.2c-.9,0-1.8.1-2.7.2,1.2-.9,2.4-1.9,3.5-2.8,1.3-1,2.6-2,3.9-3.1.2,0,.4-.1.6-.2.2,0,.5-.1.7-.2.2,1.1.4,2.2.6,3.2-2.2.9-4.5,1.8-6.7,2.7ZM180.4,47.9c-.1-.6-.2-1.2-.3-1.9-.3-1.9-.7-3.8-1-5.7-.4-3-.8-6-1.2-8.9.3-.2.5-.5.8-.8.3-.3.5-.5.8-.8.9,4,1.8,8.1,2.6,12.1.2,1,.5,2,.7,3,0,.4.2.7.3,1.1-.9.6-1.8,1.2-2.7,1.9ZM183.9,65.6c-.1-.8-.3-1.5-.5-2.3,0,0,0-.2,0-.3,1.3-.3,2.5-.6,3.8-.9.2.6.3,1.3.5,2-.8.3-1.6.7-2.4,1-.4.2-.9.3-1.3.5ZM185.9,74c.3-.1.5-.3.8-.4.3,0,.7,0,1,0,.8,0,1.7,0,2.5-.1,0,0,0,0,0,0-1.4.2-2.9.3-4.3.5ZM191.4,61.2c1.9-.5,3.8-.9,5.6-1.4,0,.2,0,.4,0,.6-1.8.7-3.5,1.4-5.3,2.2-.1-.4-.3-.9-.4-1.3ZM198.1,69c-.4,0-.8,0-1.3,0-.9,0-1.8,0-2.7,0,1.2-.8,2.5-1.6,3.7-2.4,0,.7.2,1.5.2,2.2h0ZM199.5,34.3h0c0-2.1-.2-4.3-.2-6.4,0-1.3-.1-2.5-.1-3.8,0-.3,0-.5,0-.8h1.5c.1.8.2,1.6.3,2.4.2,1.2.4,2.4.6,3.6.2,1.2.4,2.3.6,3.5-.4.3-.7.5-1.1.8-.6.4-1.1.8-1.6,1.1,0-.2,0-.3,0-.4ZM201.2,52.9c-.3-2.5-.6-5-.8-7.6.2-.2.4-.3.6-.5,1-.9,2.1-1.8,3.1-2.7.5,2,.9,4,1.4,6.1.3,1.4.6,2.8,1,4.2,0,.2,0,.3,0,.5-1,.3-2.1.5-3.2.8-.7.2-1.3.3-2,.5,0-.4,0-.8-.1-1.2ZM205.5,66.3c-.8.6-1.5,1.3-2.3,1.9-.2-1.5-.4-3-.6-4.6,1.2-.8,2.5-1.7,3.7-2.5.7-.3,1.4-.6,2.1-.9.3,1,.6,2,.9,3-1.3,1-2.6,2-3.9,3.1ZM209.6,52.1h0c-.1-.5-.2-.9-.3-1.4-.8-3.3-1.7-6.6-2.5-9.9,0-.3-.1-.5-.2-.8.6-.5,1.1-1,1.7-1.5,2.3-2,4.6-3.9,7-5.9,1-.9,2-1.7,3-2.5,1.8-1.6,3.6-3.2,5.4-4.7,0,.8,0,1.5,0,2.2,0,.8,0,1.5,0,2.3,0,1.3,0,2.6.1,3.9,0,2.5.2,5.1.3,7.6,0,.4,0,.8,0,1.2-1.2.9-2.3,1.7-3.5,2.6-.8.6-1.6,1.1-2.4,1.7-2.1,1.4-4.2,2.9-6.3,4.4-.2.1-.4.3-.6.4-.5.1-1.1.3-1.6.4ZM211.6,58.9c2.1-.9,4.2-1.8,6.2-2.8.4-.2.8-.4,1.2-.6-.9.8-1.8,1.5-2.8,2.3-1.3,1.1-2.7,2.1-4,3.2-.2-.7-.5-1.4-.7-2.1ZM224.7,65.4c0,1.3,0,2.6,0,3.9,0,.1,0,.3,0,.4-1.2,0-2.3.2-3.5.3-.6,0-1.2.1-1.8.2-.5-.2-.9-.4-1.4-.5-.5,0-1-.1-1.5-.2-.3,0-.7,0-1,0-.3-.8-.6-1.6-1-2.4,2.2-1.7,4.3-3.5,6.5-5.2.9-.7,1.8-1.5,2.7-2.2.4-.3.7-.6,1.1-.9,0,2.2,0,4.4,0,6.6ZM227.6,30.1c0,0,0,.1,0,.2,0-2.5,0-4.9,0-7.4v-.4c.2,0,.5,0,.7,0,.1,2.6.2,5.3.3,7.9,0,2.1.3,4.2.4,6.2,0,.7,0,1.5.1,2.2l-1.3.9c-.2-3.2-.3-6.5-.4-9.7ZM228.3,45.3c.5-.3.9-.7,1.4-1,0,.8.1,1.5.2,2.3,0,0-.1.1-.2.2-.2.1-.5.2-.7.3-.2,0-.3,0-.5.1,0-.6,0-1.2-.1-1.9ZM230.6,53.7c.2,1.5.4,2.9.6,4.4.2,1.5.4,3,.6,4.6,0,.6.1,1.1.2,1.7,0,0,0,.1,0,.2,0,0-.2.2-.3.3-.9.8-1.7,1.6-2.6,2.4v-1.2c0-3.6-.1-7.2-.3-10.8.2-.2.4-.3.6-.5.4-.3.8-.7,1.2-1ZM228.7,79.4c.1,0,.3,0,.4,0,0-.2,0-.4,0-.6,0-1,0-2,0-3,.2-.2.5-.4.7-.6,1.3-.3,2.6-.7,3.9-1,.3,1.5.8,3,1.3,4.4.1.3.2.5.3.8-2.2,0-4.5,0-6.7,0ZM232.6,42s0,0,.1-.1c1.3-1,2.5-1.9,3.8-2.9,0,.2,0,.5,0,.7s0,.5,0,.8c-.5.4-1,.9-1.4,1.3-.8.7-1.5,1.4-2.3,2.1,0-.3,0-.6-.1-.9,0-.3,0-.7-.1-1ZM235.5,61.5c-.3-1.7-.6-3.4-.9-5.1-.1-.8-.3-1.7-.4-2.5-.1-.8-.2-1.7-.3-2.5,0-.2,0-.3,0-.5,0-.1,0-.1,0,0,.4-.4.8-.8,1.2-1.2.6-.2,1.1-.3,1.7-.5.1,3.2.3,6.5.5,9.7,0,.4,0,.7,0,1-.6.5-1.2,1.1-1.8,1.6ZM237.2,25.1h0c0,.4-.1.8-.1,1.1,0,.6,0,1.2-.1,1.8,0,1.5-.2,3-.3,4.5,0,.3,0,.6,0,.9,0,0,0,0,0,0-1.4,1-2.8,2-4.1,3-.1,0-.2.1-.3.2-.2-2-.4-4-.5-6-.1-2.8-.3-5.5-.4-8.3-.3,0-.5,0-.8,0,2.4-.1,4.8-.3,7.2-.4-.1,1-.3,2.1-.4,3.1ZM242.3,77.4c0,0,0-.1,0-.2.1-1.3.2-2.7.2-4,.2,1.2.5,2.5.7,3.7-.3.2-.6.4-.9.5ZM252.9,71.3c-2.3,1.3-4.6,2.7-6.9,4-.3-1.3-.6-2.7-.8-4,1.8-.4,3.7-.9,5.5-1.3,1.5-.1,3.1-.2,4.6-.3h.4c-.9.5-1.9,1.1-2.8,1.6ZM261.2,60.3c0,.5,0,1,0,1.5-.8.2-1.7.4-2.5.6-4.8,1.2-9.6,2.3-14.4,3.5-.1-.7-.2-1.4-.3-2.1,3.6-2.8,7.2-5.6,10.8-8.3,1.7-1.3,3.3-2.6,5-3.9.5-.4,1-.8,1.5-1.2,0,.4,0,.8,0,1.3,0,1.4.1,2.9.2,4.3,0,.5,0,.9,0,1.4,0,1-.1,2-.2,3ZM261.5,26.1c0,2.7-.2,5.4-.3,8.1-.4.1-.8.3-1.2.4-3.2,1.2-6.5,2.4-9.7,3.6-1.3.5-2.6.9-3.8,1.4l-1.9.8c2.4-2.4,4.8-4.8,7.2-7.1,3-2.8,6.1-5.7,9.1-8.5.2-.2.5-.4.7-.7,0,.7,0,1.3-.1,2ZM264.2,76.4c0-.1,0-.2,0-.3,0,0,0,0,0,0,0,0,0,.2,0,.3,0,0-.1,0-.2,0ZM274.1,68.9c0,.7,0,1.5,0,2.2-.6.3-1.2.7-1.8,1-1.1.6-2.2,1.3-3.4,1.9-.2,0-.4.2-.5.3-.1,0-.3.2-.5.2,0-.3-.2-.6-.3-.9.2-.2.4-.3.6-.5,2-1.5,3.9-3,5.9-4.5,0,0,0,0,0,0,0,0,0,.2,0,.3ZM274.4,58.5c-.3.2-.6.4-.9.5-1.8.4-3.5.8-5.2,1.2-.9.2-1.8.4-2.7.6,0,0,0-.2,0-.3,0,0,0,0,0,0,.2-.3.5-.5.8-.8.3-.2.6-.5.9-.7.3-.2.6-.3.9-.5.6-.3,1.2-.5,1.9-.6.8-.2,1.5-.4,2.3-.5.7-.1,1.4-.2,2.1-.3v.2h0c0,.4,0,.8,0,1.3ZM274.5,48.1c0,2.8,0,5.6,0,8.5-.3,0-.6,0-.9.1-1.2.2-2.5.4-3.7.9-.7.2-1.3.4-1.9.7-.3.1-.6.3-.9.5-.4.2-1.1,1-1.5,1.5.2-3.5.4-6.9.6-10.4,0-1.3.2-2.7.2-4.1,2.2-1.9,4.4-3.8,6.7-5.6.5-.4,1-.8,1.4-1.2,0,3.1,0,6.2,0,9.3ZM274.7,26.8h0v.9c-.4.3-.8.7-1.3,1-.9.8-1.8,1.5-2.8,2.3-1.2.4-2.3.8-3.5,1.1.1-2.5.3-5.1.4-7.6,0-1.1.1-2.2.2-3.3.2,0,.4,0,.6,0,2.2-.1,4.4-.2,6.6-.4-.1,2-.2,4-.3,6ZM692.7,13.9c.5.3,1,.6,1.5.8,0,.5,0,.9,0,1.4,0,.9.1,1.8.2,2.7,0,.6,0,1.1.1,1.7,0,.2,0,.4,0,.6-.3-.6-.6-1.1-.9-1.7-.6-1.1-1.1-2.2-1.6-3.4.2-.7.4-1.4.6-2.1ZM683.2,27.7v.2c0,.2,0,.3,0,.5.4,2.6.8,5.2,1.2,7.8,0,.1,0,.2,0,.3,0,.2,0,.5,0,.7-.8.6-1.5,1.2-2.3,1.7-.2-.7-.4-1.3-.6-2-.5-1.9-1.1-3.7-1.6-5.6,0-.5-.2-1-.3-1.5-.2-1.4-.4-2.8-.6-4.2,1-1.1,2.1-2.2,3.1-3.3.3,1.8.5,3.5.8,5.3ZM679,4.9c.2.1.4.2.6.4,0,.1,0,.3,0,.4.5,2.9.9,5.7,1.4,8.6-.6.2-1.2.5-1.8.7-.2,0-.4.1-.5.2,0-1.1,0-2.2,0-3.3h0c0-2.3.1-4.6.3-6.9ZM672.4,23.9c0,.3,0,.5,0,.8-.6.5-1.2,1-1.7,1.5-.7.6-1.3,1.1-2,1.6-.2.1-.4.3-.6.4-.6-1.8-1.1-3.7-1.5-5.5.2,0,.4,0,.6-.1,1.5-.3,3-.7,4.5-1.1.2.8.4,1.7.7,2.5ZM669.6,13.5c.3,1.3.7,2.6,1,3.9-.3,0-.5.1-.8.2-1.3.4-2.6.7-3.9.9-.2-1.2-.3-2.4-.5-3.6,1.2-1.2,2.4-2.4,3.6-3.6l.6,2.1ZM668.3,8.5c-.2.2-.4.4-.7.6-.4.4-.9.8-1.3,1.2-.4.4-.8.7-1.2,1.1,0,0,0-.2,0-.2,0,0,.2-.1.2-.2,1-.8,2-1.7,3-2.5ZM666.5,2.7c.3.9.6,1.8.8,2.6-.8.7-1.6,1.3-2.5,2,0-1.5,0-3,0-4.5.6,0,1.1,0,1.7,0ZM660.8,30.3c.3.9.6,1.7.9,2.6-2.2,1.6-4.5,3.3-6.8,4.9-.3-1.1-.7-2.2-.9-3.3-.5-1.9-.9-3.8-1.2-5.7,0-.4-.1-.9-.2-1.4.8-.8,1.6-1.5,2.4-2.3h0c1.3-.3,2.5-.5,3.8-.8.7,2,1.3,3.9,2,5.9ZM657,18.9c-.8.7-1.5,1.4-2.2,2.1-.7.1-1.3.3-2,.4,1.3-1.1,2.7-2.2,4-3.2,0,.3.2.5.2.8ZM652.2,3.9s0,0,.1,0c.1.4.2.7.3,1.1-.2.1-.4.3-.6.5,0-.5,0-1,.1-1.6ZM654.6,11.3c.3,1.1.7,2.2,1,3.2-1.3,1-2.6,2-3.9,3,0-1,0-2.1,0-3.1,1-1,2-2,2.9-3.1ZM652,46l.2.6c-.5.5-1.1,1-1.7,1.5,0,0-.2.1-.3.2,0-.2-.2-.5-.3-.8.4-.3.7-.5,1.1-.8.3-.2.6-.5.9-.7ZM648.3,34.8c.6,2.1,1.2,4.3,2,6.4-.6.5-1.3.9-1.9,1.4,0-.2-.1-.5-.2-.7-.6-2-1.2-4-1.8-6-.2-.6-.4-1.3-.6-1.9.6-.6,1.2-1.2,1.9-1.8.2.9.4,1.8.7,2.6ZM646.8,28.1c-.7.6-1.4,1.3-2.1,1.9,0-.3-.2-.6-.2-.9,0-.4-.2-.8-.3-1.1.4-.3.8-.6,1.2-.9.4,0,.8-.1,1.2-.2,0,.4.1.8.2,1.3ZM646,21.9c-.5.4-1,.7-1.5,1.1-.4,0-.9.2-1.3.2.7-.7,1.4-1.3,2-2,.2-.2.5-.5.7-.7,0,.5,0,1,.1,1.4ZM645.7,10.5c-1.6,1.3-3.2,2.5-4.8,3.8-.1-.5-.2-1-.4-1.5,1.8-1.8,3.5-3.5,5.3-5.2,0,1,0,2-.2,3h0ZM645.9,4.3c-1.2,1.1-2.4,2.2-3.5,3.3-.8.8-1.7,1.6-2.5,2.3-.1-.4-.2-.8-.3-1.2,1.9-1.4,3.9-2.9,5.8-4.3.2,0,.4,0,.5,0ZM610.8,34.7h0c-1,.7-1.9,1.5-2.8,2.2-.4-1.1-.9-2.1-1.3-3.2-.1-.3-.2-.5-.3-.8,2.7-.3,5.3-.7,8-1-1.2.9-2.4,1.9-3.6,2.8ZM611.8,42.7c-.3.3-.7.6-1,.9,0,0,0-.1,0-.2.3-.2.7-.5,1-.7h0ZM536,56.9c-.3-.1-.7-.2-1-.4-1.4-.5-2.8-1-4.2-1.5,4.9-2.8,9.9-5.5,14.8-8.2,1.1-.6,2.1-1.2,3.2-1.8.4,1.3.7,2.5,1.2,3.8-1.7,1-3.4,2-5,3.1-1,.6-1.9,1.2-2.9,1.8-2,1.1-4,2.2-6,3.3ZM541,64.2c-.2.1-.4.2-.6.3-.3.2-.6.3-.9.5.4-.3.8-.6,1.3-.9,0,0,.2,0,.2.1ZM552.8,25c.3.7.7,1.4,1,2.1-.5,0-1,0-1.5.1,0-.6,0-1.2,0-1.9.2-.1.4-.2.5-.4ZM570.6,31.8c.8-.5,1.6-1.1,2.4-1.6,1.6-1.1,3.3-2.1,4.9-3.2.2.9.5,1.8.7,2.8h0c-1,.7-2,1.4-3,2.1-2.1.2-4.1.4-6.2.6.4-.2.8-.5,1.2-.7ZM529.4,30c4.6-2.5,9.2-4.9,13.8-7.3-2.1,1.5-4.2,3-6.4,4.4-3,2-6,3.8-9,5.7-1.2.4-2.5.8-3.7,1.3-1.4.5-2.8,1-4.2,1.5-1,.4-2,.8-3,1.2,4.2-2.3,8.3-4.5,12.5-6.7ZM541.9,32.3c.9-.6,1.8-1.1,2.7-1.8.5,0,1.1-.2,1.6-.3.1,1.5.3,3,.5,4.5-3.4.3-6.7.6-10.1.9,1.8-1.1,3.5-2.2,5.3-3.4ZM546.8,59.7c2-1.4,4-2.8,5.9-4.3.3.7.7,1.4,1,2.1-2.2,1.2-4.5,2.3-6.8,3.5-.4-.2-.9-.3-1.3-.5.4-.3.8-.5,1.2-.8ZM552.7,33.9c-.1-1.5-.2-3.1-.3-4.6.5,0,1-.1,1.4-.1.3,0,.6,0,.8,0,0,0,0,0,0,0,.5,1,.9,2,1.3,3.1-.7.3-1.4.7-2,1-.4.2-.9.4-1.3.7ZM559,38.8h0c.1.3.3.6.4.9-.4.6-.8,1.2-1.2,1.7-1.1,1.5-2.2,3-3.5,4.3h0c-.2-.6-.3-1.3-.5-1.9-.2-.6-.3-1.3-.4-1.9,1.7-1,3.4-2.1,5.2-3.1ZM563.2,47.4c.7,1.2,1.3,2.5,2,3.7-1,.6-2.1,1.2-3.2,1.8-1.3.8-2.7,1.5-4,2.3-.4-1-.8-1.9-1.2-2.9,2.1-1.6,4.2-3.3,6.3-4.9ZM564.9,38c0-.1,0-.2.1-.4.9-.1,1.9-.2,2.8-.3-.8.6-1.6,1.2-2.5,1.7-.2-.4-.3-.7-.5-1.1ZM576.2,37.5h0c.5-.4,1.1-.8,1.6-1.2,0,0,0,0,0,0,.9-.1,1.8-.2,2.8-.3.6,1.7,1.3,3.3,2,5-2.1,1.3-4.2,2.6-6.3,3.8-2.1,1.2-4.2,2.4-6.2,3.6-.2-.5-.5-.9-.8-1.4-.5-1-1-2-1.6-3,2.8-2.2,5.7-4.3,8.5-6.4ZM586.6,30.5c3.2-2.3,6.4-4.7,9.6-7,.6,1.5,1.2,3,1.8,4.5.2.5.4,1,.6,1.5-4.2.5-8.3.9-12.4,1.4.1-.1.3-.2.4-.3ZM593.1,34.5c-1.9,1.1-3.7,2.3-5.6,3.4-.3-.9-.7-1.8-1-2.7,2.2-.3,4.4-.5,6.6-.8ZM600.7,34.7h0c.7,1.8,1.5,3.7,2.2,5.5,0,.2.1.3.2.5-1.4,1.1-2.8,2.2-4.2,3.3-.7.6-1.4,1.1-2.2,1.6-1.5,1.1-2.9,2.2-4.4,3.3-.4-.8-.7-1.5-1.1-2.2-.7-1.5-1.4-3-2.1-4.5,3.8-2.5,7.7-4.9,11.5-7.4ZM616.8,46.9c4-2.7,8.1-5.3,12.1-8,.5-.3.9-.6,1.4-.9.2.9.3,1.8.5,2.7,0,.5.2,1,.2,1.5-.3.3-.7.6-1,.9-4.1,3.6-8.1,7.2-12.2,10.7-.5.5-1,.9-1.5,1.3-.6-1.1-1.2-2.2-1.7-3.3-.2-.6-.5-1.1-.8-1.7,0,0,0-.1,0-.2,1-1,2-2.1,3-3.1ZM640.6,4.6c-.5.4-1.1.7-1.6,1.1-.1,0-.2.2-.3.2-.1-.4-.2-.8-.4-1.2.8,0,1.6-.1,2.3-.2ZM521.9,9.4c-2.9,2.2-5.8,4.4-8.7,6.5-2.6,1.3-5.2,2.6-7.8,4-.4.1-.9.3-1.3.4-7.5,2.2-15.1,4.4-22.5,6.9-.4.1-.8.3-1.2.4.4-.2.7-.4,1.1-.6,2.8-1.5,5.5-3.1,8.2-4.7,2.6-1.5,5.1-2.9,7.7-4.4,1-.6,2-1.2,3-1.7,3.3-2,6.5-4,9.8-6,3.9-.2,7.8-.5,11.7-.8ZM507.2,53.6h0c.7-.4,1.4-.8,2-1.2l3.5,1.4c-1.4.7-2.8,1.4-4.1,2.1-.6-.6-1.3-1.3-2-1.9h0c.2-.1.3-.2.5-.3ZM506.1,45.5l-1.1-.4c.3-.1.6-.3,1-.5,1.4-.6,2.8-1.3,4.3-1.9.2,0,.4,0,.6,0-.9.5-1.8,1.1-2.7,1.6-.7.4-1.3.8-2,1.2ZM487.5,47.9h0c-.4-.7-.7-1.3-1-2-.1-.4-.3-.8-.5-1.2.2,0,.5,0,.7,0,.4,0,.8,0,1.3-.1.9.5,1.7,1,2.6,1.5,0,0,.1,0,.2.1-1.1.6-2.1,1.2-3.2,1.8ZM489.9,64.9c-1.2.6-2.3,1.1-3.5,1.7-.4-.2-.7-.5-1.1-.8,0,0-.1,0-.2,0,1.2-.7,2.5-1.4,3.8-2.1.3.4.7.8,1,1.2ZM464.7,41.3c-.2,0-.4,0-.6,0-3.7.2-7.3.4-11,.7,2.2-1.1,4.5-2.3,6.7-3.4,1.4-.7,2.8-1.4,4.2-2.2,1.3-.5,2.7-1,4-1.4.8,1,1.6,2.1,2.4,3.2-1.9,1-3.9,2.1-5.8,3.1ZM465,46.2c-1.5.8-3,1.6-4.5,2.4,1.4-.8,2.9-1.6,4.3-2.4,0,0,.1,0,.2,0ZM460.6,34c-.6.3-1.1.6-1.7.8-.6.2-1.2.5-1.9.7-2.3.8-4.6,1.7-7,2.5,0,0,0-.2,0-.3,0-.3-.2-.7-.2-1,2.6-1.3,5.1-2.8,7.6-4.2,1.9-1,3.7-2.1,5.6-3.1,0,0,0,0,0,0,.1.1.3.2.4.4.5.4.9.8,1.3,1.3.2.2.3.3.5.5-1.5.8-3,1.6-4.6,2.3ZM451.3,48.6h0c-.1,0-.3.2-.4.2,0-.2,0-.3,0-.5.1,0,.3.2.4.3ZM450.7,57.3c1.4-.8,2.8-1.5,4.2-2.3,1.1-.6,2.2-1.2,3.2-1.7,2.6,1.8,5.3,3.7,7.9,5.5-2.8,1.2-5.6,2.4-8.5,3.6-1.3-.6-2.5-1.3-3.8-1.9-1.5-.8-3.1-1.6-4.6-2.4.5-.2,1-.5,1.5-.7ZM470.7,62c.5.4,1.1.7,1.6,1.1-2.4,1.1-4.8,2.1-7.3,3.2-.5-.2-.9-.5-1.4-.8,2.4-1.2,4.7-2.4,7.1-3.6ZM471.6,56.3c-2.8-1.9-5.6-3.9-8.3-5.8,2.1-1.2,4.3-2.3,6.4-3.5.9-.5,1.7-.9,2.6-1.4.5,0,.9,0,1.4-.1.6,0,1.3,0,1.9-.1.2.3.4.7.7,1,.9,1.4,1.9,2.8,2.8,4.1.3.5.7,1,1,1.5-1.6.9-3.1,1.7-4.7,2.6-1.2.6-2.5,1.1-3.7,1.7ZM477.9,58.3c.3-.2.6-.3.9-.5,1.3-.7,2.7-1.3,4-2,.4.6.8,1.1,1.2,1.7-.8.4-1.7.8-2.5,1.2-1.2.6-2.5,1.2-3.8,1.9-.6-.4-1.2-.8-1.8-1.3.6-.3,1.3-.7,1.9-1.1h0ZM478.4,33.9c-.8-.5-1.7-1-2.5-1.5,3.6-1.2,7.3-2.3,10.9-3.5.8-.3,1.7-.5,2.5-.8-3.7,1.9-7.3,3.8-10.9,5.8ZM495.4,49.7c.4.3.8.7,1.2,1-1.9,1-3.7,2-5.6,3-.3-.5-.6-1-1-1.5,1.8-.9,3.6-1.7,5.3-2.6ZM499.5,53.2c0,0,.2.1.2.2-2.1,1.2-4.2,2.3-6.3,3.5,0-.1-.2-.2-.3-.3,2.1-1.1,4.2-2.2,6.4-3.4ZM502.7,56.1h0c0,0,.1.1.2.2.5.5,1.1,1,1.6,1.5-2.4,1.1-4.7,2.3-7.1,3.4-.5-.5-1-1-1.4-1.5,2.2-1.2,4.5-2.5,6.7-3.7ZM503.8,51.2s-.1,0-.1-.1c.3-.2.6-.3.9-.5,0,0,.1,0,.2,0-.3.2-.6.4-.9.6ZM506.6,10.4c-.8,0-1.6,0-2.4.1-1.3.8-2.7,1.5-4,2.3-2.8,1.6-5.6,3.1-8.4,4.6-2.6,1.5-5.3,2.9-7.9,4.3-1.2.7-2.4,1.3-3.6,1.9-3.3,1.7-6.6,3.4-9.9,5.2-1-.7-2-1.4-3-2.1,4.1-2.6,8.2-5.2,12.3-7.8,3.3-2.1,6.5-4.3,9.7-6.4.7-.5,1.5-1,2.2-1.5-.9,0-1.8,0-2.6.1,5.9-.3,11.7-.6,17.6-.9ZM469.8,17.4c1.5-.9,3-1.8,4.5-2.7,1.6-.9,3.1-1.9,4.7-2.8,2.2-.2,4.4-.3,6.7-.5-2.3,1.5-4.5,3-6.8,4.5-3.2,2.1-6.5,4.2-9.8,6.3-1.8,1.2-3.6,2.3-5.4,3.5-1,.6-2,1.1-3,1.7-3.9,2.2-7.8,4.4-11.7,6.6-.1-.3-.2-.7-.3-1,1.5-1.6,3-3.2,4.6-4.7,1.6-1.5,3.2-3,4.8-4.4,2.4-1.3,4.7-2.6,7.1-3.9,1.5-.8,3.1-1.7,4.6-2.5ZM461.6,15.9c-.9.6-1.8,1.2-2.6,1.8-.3.2-.7.4-1,.6-2,1.2-3.9,2.3-5.8,3.5-2.4,1.4-4.8,2.8-7.2,4.2l-.3-.4c.4-.2.8-.4,1.1-.6,4.3-2.4,8.6-4.9,12.9-7.3,1-.6,1.9-1.1,2.9-1.7ZM447.2,50.6c0,0,0,.2,0,.3-1.7.9-3.4,1.8-5.1,2.7-1.7-1.2-3.3-2.4-4.9-3.7,1.7-.8,3.3-1.6,5-2.4,1.8,0,3.6-.2,5.5-.3,0,1.2-.2,2.4-.4,3.5,0,0,0-.1,0-.2ZM440,34.5c0,0,.2-.1.3-.2,0,0-.2.2-.2.2,0,0,0,0,0,0ZM446,38.6h0c.3-.1.6-.3.8-.4,0,.3.1.6.2.9h0c0,0-.1.1-.2.1-.3-.2-.5-.4-.8-.6ZM439.3,17.2c.7-.5,1.4-.9,2.1-1.4.3-.2.6-.4.9-.6.4,0,.8,0,1.2,0-1.4.7-2.8,1.4-4.2,2.1,0,0,0,0,0,0ZM445.1,16.6c1.2-.6,2.3-1.2,3.5-1.8.3,0,.6,0,.9,0,2.8-.2,5.7-.4,8.5-.7-3.9,2.3-7.8,4.5-11.7,6.7-1.3.8-2.6,1.5-3.9,2.2-.5-.5-1.1-1-1.7-1.6-.6-.6-1.3-1.1-2-1.6,2.1-1.1,4.3-2.2,6.4-3.3ZM437.7,22.8c.2.2.4.3.6.5.5.4,1,.8,1.4,1.3-1,.6-2,1.1-3,1.6.3-1.1.6-2.2.9-3.4ZM435.6,30.5c.3-.2.6-.3.9-.5,1.8-1,3.7-2,5.6-3,.1.2.3.3.4.5-2.3,1.4-4.6,2.7-6.9,4.1,0,0-.2,0-.2-.1,0-.3.2-.6.3-1ZM412,35.7c-.4,1.5-.8,2.9-1.3,4.3,0,0,0,0,0,0-.9.5-1.8.9-2.7,1.4.3-2.2.7-4.4,1.1-6.6.7-.4,1.5-.7,2.2-1.1.5-.2,1-.5,1.4-.7-.3.9-.5,1.8-.8,2.7ZM416.6,48.6c1.2,0,2.5,0,3.8-.1-2,1-4,1.9-5.9,2.9-.9.5-1.9.9-2.8,1.3.2-.5.3-.9.5-1.4,1.5-.9,3-1.7,4.5-2.6ZM410.1,57.1c4.6-1.8,9.1-3.6,13.7-5.4h0c-2.2,1-4.3,1.9-6.5,2.8-1.9.8-3.9,1.7-5.8,2.5-.5.2-1.1.5-1.6.7,0-.2.1-.4.2-.6ZM422.9,33.8h0c-.9-1.3-1.9-2.6-2.8-3.8.6.2,1.2.3,1.7.6,1.4.5,2.7,1.1,4,1.7-.4.2-.7.4-1.1.6-.6.3-1.2.6-1.8,1ZM425.7,26.4c.6-.3,1.2-.6,1.8-.9,1.6-.8,3.2-1.6,4.9-2.4-.6,1.9-1.1,3.7-1.7,5.6-1.6-.9-3.3-1.7-5-2.3ZM427.3,35c.6-.3,1.1-.6,1.7-.9-.2.6-.4,1.2-.5,1.8-1,.6-1.9,1.1-2.9,1.7-.1-.2-.2-.3-.4-.5-.2-.3-.4-.5-.5-.8.9-.4,1.7-.9,2.6-1.3ZM426.6,60.1c0-.3.1-.6.2-.9.1-.1.2-.3.4-.4,1.2-1.4,2.4-2.9,3.6-4.3.5-.6,1-1.2,1.5-1.8,0,0,.2.1.3.2,1.4,1.2,2.9,2.3,4.4,3.3-2.2,1.2-4.4,2.3-6.6,3.5-1.4.8-2.8,1.5-4.3,2.2.2-.6.3-1.2.5-1.9ZM436.5,38.6c-1,1.1-2,2.3-3,3.4-.5.2-1,.5-1.4.7.4-1.2.7-2.5,1.1-3.7,0-.1,0-.2,0-.4.4-.2.8-.5,1.2-.7.2-.1.4-.2.5-.3.5.3,1,.7,1.5,1ZM422,15.2c4.2.1,8.4.2,12.6.2-.2.7-.4,1.4-.7,2.2-.8-.3-1.6-.6-2.5-.8-1-.3-2-.5-3.1-.6-1.4-.2-2.7-.3-4.1-.3-.8,0-1.6,0-2.4,0,0-.2.1-.5.2-.7ZM421,19.4h0c1.3-.1,2.6-.2,4-.3,1.3,0,2.5,0,3.8.1.7,0,1.4.2,2.1.4.1,0,.2,0,.3,0-1.4.9-2.8,1.9-4.1,2.8-1.5.9-3,1.7-4.5,2.6h0c-.6-.2-1.2-.4-1.9-.5-.3,0-.6-.1-.9-.2.4-1.7.9-3.4,1.3-5.1ZM419.8,39.4c.2.3.5.7.8,1-2,1.1-4,2.3-6,3.4,0,0-.2,0-.3,0,.3-.9.5-1.8.8-2.7,1.4-.7,2.9-1.5,4.3-2.2.1.2.2.3.4.5ZM417.4,36.2c0,0,.1.2.2.3-.5.2-.9.5-1.4.7.2-.6.3-1.3.5-1.9.2.3.4.6.7.9ZM414.5,14.9c.5,0,1.1,0,1.6,0-.6.3-1.3.6-1.9.8.1-.3.2-.6.3-.9ZM413.4,20.8c1-.3,2-.5,2.9-.7-.4,1.5-.8,3.1-1.2,4.6-.3,0-.5,0-.8.1-.7.1-1.5.6-1.8,1.2-.3.5-.3,1-.2,1.5.2.9.3,1.7.7,2.5-.2,0-.4.2-.6.3-.9.4-1.8.9-2.7,1.3.8-3.5,1.6-7.1,2.7-10.6.3-.1.6-.2,1-.3ZM383,16c0-.3.1-.5.2-.8,1.9-.1,3.7-.3,5.5-.4-1.7,1-3.3,2.1-5,3.1-.4,0-.8.2-1.2.3.2-.8.3-1.5.5-2.3ZM380.4,28.3c1.9-1.6,3.9-3.2,5.8-4.8,2.3-1.9,4.5-3.7,6.8-5.6,1.1-.9,2.1-1.8,3.1-2.7.2-.2.4-.4.7-.6,4.7,0,9.5,0,14.2.2-.3.8-.5,1.5-.8,2.2,0,.2-.2.5-.2.7,0,0-.1,0-.1,0-1.8.6-3.6,1.2-5.3,2-1.2.5-2.2,1.2-3.3,1.9,0,0,0,0-.2,0-1.1.5-2.3,1-3.4,1.6,0,0,0,0,0,0,0,0,0,0,0,0,0,0,0,0,0,0-3.2,1.4-6.4,2.9-9.6,4.3-2.5,1.1-5,2.2-7.4,3.3-.2,0-.4.2-.6.3.2-1,.3-1.9.5-2.9ZM378.5,38.9c.4-2,.7-4,1-6,.7-.3,1.4-.7,2.1-1,5-2.2,10.1-4.4,15.1-6.6-.5.5-.9,1-1.3,1.5-.2.3-.4.6-.6.9-.5.7-1,1.5-1.3,2.2-.3.8-.8,1.6-1,2.4-.2.8-.5,1.6-.6,2.4,0,.8-.2,1.7-.2,2.5,0,1,0,2,0,3.1-1,.5-2,1-3,1.5-2.1,1-4.2,2.1-6.3,3.1-1,0-2,0-3,.1-.7,0-1.4,0-2.1,0,.3-2.1.7-4.2,1.1-6.3ZM388.1,58.1c-1.1.5-2.3,1.1-3.5,1.6-.8,0-1.5-.1-2.3-.1-1.1,0-2.2,0-3.2,0s-.8,0-1.1,0c1.7-.8,3.4-1.7,5.1-2.5,3.6-1.8,7.1-3.5,10.7-5.3.1.6.3,1.2.5,1.8,0,.4.2.8.3,1.1-1.2.6-2.4,1.3-3.7,1.9-1,.5-1.9,1.1-2.9,1.5ZM390.7,64.6l-1.8.5c.5-.2,1-.4,1.4-.6,0,0,.2,0,.3,0s0,0,0,0ZM390.7,49.6c.4,0,.9,0,1.3,0-.9.5-1.8.9-2.7,1.4-4.4,2.2-8.8,4.4-13.2,6.6.2-2.3.5-4.5.8-6.8.3-.2.7-.3,1-.5,1.5,0,3.1-.2,4.6-.2,2.7-.1,5.5-.2,8.2-.3ZM388.7,44.7c1.2-.5,2.3-1.1,3.5-1.6,0,.5.1,1,.2,1.5-1.1,0-2.2,0-3.3.1-.1,0-.3,0-.4,0ZM361.8,19.6c.1-.8.2-1.6.4-2.5,4.9-.4,9.8-.9,14.7-1.3l-.6,2.6c-.1.6-.2,1.2-.4,1.8-.1,0-.2,0-.3.1-.8.3-1.6.6-2.4.9-1.8.6-3.5,1.3-5.3,1.9-.3.1-.7.3-1,.4-.9.4-1.8.8-2.8,1.2-1,.5-2.1.9-3.2,1.4,0-.8.1-1.5.2-2.3.1-1.4.3-2.8.5-4.2h0ZM366.4,28.9c-2,1.3-4,2.5-6,3.8.1-1.4.3-2.8.4-4.1.1,0,.3-.1.4-.2,1.6-.7,3.1-1.4,4.7-2,1.2-.5,2.4-1,3.6-1.5.5-.2.9-.4,1.3-.5,1.5-.6,3.1-1.1,4.6-1.7,0,.2-.1.5-.2.7-3,1.8-5.9,3.7-8.8,5.5ZM371.5,30.2c-.8.6-1.5,1.2-2.3,1.8-.5.4-1,.7-1.4,1.1-1.9,1.7-3.8,3.4-5.7,5.1-.8.7-1.5,1.3-2.2,2,0-.7,0-1.5,0-2.2,3.2-2.1,6.3-4.3,9.5-6.4.7-.5,1.4-.9,2.1-1.4h0ZM337.5,25h0c.4-2.3.7-4.5,1-6.8.1,0,.2-.2.4-.3,3.4,0,6.8,0,10.2-.2h0c.9,0,1.8,0,2.6,0-.9,0-1.8,0-2.6,0-.4.3-.8.5-1.2.8-3.3,2.3-6.7,4.6-10.1,7-.2.1-.3.2-.5.3,0-.3,0-.6.1-.9ZM335.9,36.6c.7-.5,1.3-1,2-1.4.9-.7,1.9-1.3,2.7-2.1,1.6-1.3,3.2-2.6,4.8-3.9,2.2-1.8,4.5-3.7,6.7-5.5.7-.5,1.3-1.1,1.9-1.6-.4,1.7-.8,3.3-1.2,5-.2.7-.4,1.4-.5,2.2,0,.2-.1.5-.2.7-1.6.7-3.1,1.5-4.7,2.2-2.9,1.4-5.8,2.8-8.6,4.3-1.1.4-2.1.9-3.2,1.3,0-.4,0-.8.1-1.2ZM353.4,45.7c.3-.1.5-.3.8-.4-.3.3-.6.5-.9.8,0-.1,0-.2,0-.4ZM336.5,39.1c1.1-.5,2.2-1.1,3.3-1.6,3.4-1.4,6.8-2.8,10.2-4.2.6-.2,1.2-.5,1.7-.7-.5,2.2-.9,4.3-1.3,6.5,0,0,0,0,0,.1-1.4.9-2.8,1.8-4.2,2.7-3.4,2.2-6.9,4.3-10.3,6.5-.4,0-.8.1-1.2.2.3-3,.6-6,.9-8.9.3-.2.6-.3.9-.5ZM317.6,26.8h0c.2-1.5.4-3.1.6-4.6,0-.6.2-1.3.2-1.9.4-.2.7-.3,1.1-.5,1.3-.6,2.6-1.1,3.9-1.7,2.3,0,4.6,0,6.9-.1-.3.2-.6.4-.9.6-.5.4-1.1.7-1.6,1.1-3.5,2.6-6.9,5.2-10.4,7.9,0-.3,0-.6.1-.8ZM317,34.6c.5-.3,1-.7,1.4-1.1,2.9-2.2,5.8-4.4,8.7-6.7.9-.7,1.9-1.4,2.8-2.1,0,.2-.1.4-.2.5-.7,2.3-1.3,4.6-2,7,0,0,0,.1,0,.2-.8.5-1.5,1-2.3,1.5-1,.7-2,1.4-2.9,2.1-2,1.5-4,2.9-6,4.4.1-2,.2-3.9.3-5.9ZM316.4,50.7c.2-.2.5-.3.7-.5.9-.6,1.8-1.3,2.8-1.9,1.5-.8,3-1.7,4.5-2.5l-.9,3.6c0,.2,0,.4-.1.6-1.5.2-3.1.4-4.6.7-.8.1-1.5.2-2.3.4,0-.1,0-.2,0-.3ZM289.4,27.6c2.6-.8,5.2-1.6,7.9-2.4.8-.2,1.6-.5,2.4-.7-.7.3-1.5.6-2.2.9-1.2.5-2.3.9-3.5,1.3-2.6,1-5.2,1.9-7.8,2.9-.8.3-1.7.6-2.5.9.6-.6,1.2-1.1,1.9-1.7,1.3-.4,2.5-.8,3.8-1.2ZM279.3,20.6c1.6-.1,3.2-.2,4.8-.3-1,.7-2,1.5-3,2.3-.6.5-1.3,1-1.9,1.5,0-1.2.1-2.3.2-3.5ZM278.5,77.9c0-.2,0-.5,0-.7,0,.2.2.4.3.6,0,0-.2,0-.3,0ZM278.9,52.7h0c0-4.8,0-9.6,0-14.4,0,0,0,.1,0,.2,0-.8,0-1.6,0-2.4,1-.3,2-.7,3-1,.8-.3,1.5-.5,2.3-.8,4.7-1.8,9.5-3.7,14.2-5.5,1.1-.4,2.1-.9,3.2-1.3,2.5-1.1,5.1-2.1,7.6-3.2,1.1-.4,2.1-.9,3.2-1.4-.6,2.6-1.1,5.1-1.7,7.7-.2.9-.5,1.9-.7,2.8-.7.6-1.5,1.1-2.2,1.7-3.2,2.5-6.5,4.8-9.7,7.2-2.9,2.2-5.8,4.3-8.7,6.5-.8.6-1.5,1.1-2.2,1.7-.1,0-.3.2-.4.3-2.6,1.6-5.1,3.2-7.7,4.8,0-.9-.1-1.9-.2-2.8ZM296.2,53.7c-1.5.4-3.1.8-4.6,1.1,0,0,0,0,.1,0,5.3-4.2,10.6-8.3,15.8-12.5-.2.5-.4,1.1-.5,1.6-.5,1.7-1.1,3.3-1.6,5-1.5,1.1-3,2.3-4.6,3.4-1.5.5-3.1,1-4.6,1.4ZM300.1,61.6c-.1.2-.2.4-.3.6-.3,0-.6.1-1,.2.4-.3.8-.5,1.2-.8h0ZM304.2,66.2c.6-1.3,1.2-2.6,1.8-3.9.7-.2,1.4-.3,2-.5,1.5-.3,2.9-.6,4.4-.9v1.5c-1.1.7-2.3,1.4-3.5,2-1.7.9-3.4,1.8-5.1,2.7.1-.3.3-.6.4-.9ZM309.8,60.4c-1.1.2-2.1.4-3.2.6.1-.3.2-.5.3-.8.3-.8.6-1.5.9-2.3.8-.1,1.5-.3,2.3-.4.8-.1,1.5-.2,2.3-.4,0,1,0,1.9,0,2.9-.9.2-1.8.3-2.6.5ZM280.1,64c.4-.3.8-.7,1.2-1,1.3-.3,2.7-.6,4-.8.8-.2,1.5-.3,2.3-.5-.4.3-.8.6-1.2.9-1.1.8-2.2,1.6-3.2,2.4-.9.1-1.9.2-2.8.4,0-.4-.2-.9-.2-1.3ZM294.4,71.7c-3.6,1.6-7.2,3.2-10.9,4.5-.1-.3-.3-.6-.4-.9-.2-.4-.3-.8-.5-1.2,0-.2-.1-.5-.2-.7.1,0,.2-.2.3-.3,1.3-1,2.6-2,3.9-3,.4-.2.8-.4,1.1-.7,2.6-1.7,5.3-3.4,7.9-5,.3,0,.7-.1,1-.2.8-.2,1.6-.3,2.4-.5-.2.4-.4.8-.6,1.2-1,2.2-2.1,4.3-3.3,6.4-.3.1-.5.2-.8.3ZM305.5,77c-.9.3-1.8.7-2.7,1,.3,0,.7,0,1.1,0-2.5.1-4.9.2-7.4.4.5,0,1,0,1.5-.1.7-1.1,1.4-2.2,2.1-3.4,0,0,0,0,0,0,2.7-1.3,5.3-2.6,7.9-4,1.2-.6,2.4-1.3,3.6-1.9.3-.2.8-.4,1.2-.6,0,1.5.2,3,.4,4.5,0,.5.1,1,.2,1.4-2.6.9-5.2,1.9-7.8,2.8ZM312.8,43.3c0-.3.2-.6.3-.8,0-.2.1-.4.2-.6,0,.4,0,.8,0,1.1-.1,0-.2.2-.4.3ZM313.3,18.5c-1.1.3-2.3.7-3.4,1-2.5.7-5,1.3-7.5,2-2.2.6-4.3,1.1-6.5,1.8-2.2.6-4.3,1.2-6.5,1.9l1.5-1.3c.7-.6,1.4-1.3,2.1-1.9.5-.5,1-.8,1.5-1.2.5-.4,1.1-.8,1.5-1.2,2.8-.2,5.6-.4,8.4-.5,2.9-.2,5.9-.4,8.8-.5,0,0,0,0,0,0h0ZM319.3,66.1c-.2.9-.5,1.9-.7,2.8-.3,1-.5,2.1-.9,3.2,0,0,0-.2,0-.3-.3-2-.6-4-.8-6,.3-.2.6-.3.8-.5.7-.4,1.4-.9,2.2-1.3-.2.7-.4,1.4-.5,2.1ZM321.6,57c-1,.6-2,1.2-3,1.8-.1,0-.2,0-.4,0-.6,0-1.1.2-1.7.3,0-.9,0-1.8,0-2.8,1.8-.3,3.7-.6,5.6-.9-.1.5-.3,1-.4,1.6ZM328.1,77.3h0c-.8,0-1.6,0-2.4,0,.8-.7,1.6-1.5,2.5-2.2,0,.7,0,1.4-.1,2.1ZM328.7,66.4h0c-1.5,1.2-3.1,2.5-4.6,3.7-.3.1-.6.2-.8.3,0,0,0-.1,0-.2.2-.9.4-1.9.6-2.8.5-2.3,1-4.7,1.5-7,.9-.6,1.9-1.1,2.8-1.7.4-.2.8-.4,1.2-.6-.3,2.8-.5,5.5-.8,8.3ZM331.3,43.2c-.3,2-.6,3.9-.8,5.9-.9.1-1.7.2-2.6.3.4-2.1.9-4.2,1.3-6.3.8-.4,1.5-.8,2.3-1.3,0,.4-.1.9-.2,1.3h0ZM333.7,24.6c.3-1.2.6-2.3,1-3.5.1,0,.2-.2.3-.2-.5,2.5-1,5.1-1.4,7.6-.4.2-.7.5-1.1.7.4-1.5.8-3.1,1.2-4.6ZM343.3,72.7c0,.2,0,.4-.1.6-1.8.8-3.6,1.6-5.5,2.4-1.1.5-2.2,1-3.3,1.5-.4,0-.8,0-1.2,0,0-1.2,0-2.3,0-3.5,0-.9,0-1.9,0-2.8,0,0,.1,0,.2-.1,3.8-1.6,7.6-3.2,11.4-4.9-.5,2.3-1,4.5-1.5,6.8ZM345.7,61.7c-.2,0-.5.2-.7.3-.7.3-1.3.5-1.9.8.6-.5,1.2-1,1.8-1.6.4-.3.8-.6,1.1-1-.1.5-.2,1-.3,1.5ZM342.8,55.1h0c-3,2.4-5.9,4.8-8.9,7.2,0,0-.2.1-.2.2.1-1.6.2-3.2.3-4.8,2-.2,4-.3,6-.5h0c-2,0-4,.2-6,.3,0-.2,0-.4,0-.6,0-.4,0-.7,0-1.1,1.6-.8,3.3-1.7,4.9-2.6,1.4-.2,2.8-.4,4.1-.5.9-.1,1.7-.2,2.6-.2.2,0,.3,0,.5,0-1.1.9-2.2,1.8-3.3,2.7ZM346.2,47.3h0c.2-.2.4-.3.7-.4.7-.5,1.5-1,2.2-1.5,0,.3-.1.7-.2,1-.5.3-1,.5-1.6.8-.4,0-.7,0-1.1,0ZM348,74.2c0,0,0-.2,0-.3.2-.1.5-.2.7-.3,0,0,0,.2.1.3,0,0,0,0,0,0-.3,0-.6.2-1,.3ZM355,72.2h0c0-.1,0-.2,0-.3,0-.2.2-.3.3-.5.1-.2.3-.4.4-.6,0,.4,0,.8,0,1.2-.3,0-.5.2-.8.2ZM355.9,61.9c0,.4,0,.8,0,1.1,0,0-.1,0-.2,0-.9.5-1.8.9-2.6,1.5-.8.6-1.7,1.1-2.3,1.9-.5.6-1.2,1.3-1.6,2,0,0,0,.1-.1.2.2-.9.3-1.8.5-2.8.2-.8.3-1.6.5-2.4.8-.4,1.6-.7,2.4-1.1,1.2-.5,2.4-1.1,3.5-1.7,0,.4,0,.8,0,1.2ZM356.1,53.9c0,1.2,0,2.4-.1,3.6-1.7.7-3.5,1.4-5.2,2.1.3-1.4.5-2.8.8-4.2,0,0,.2-.1.2-.2.4-.3.8-.7,1.1-1.1.9-.9,1.8-1.8,2.7-2.6,0,0,0,0,0,0,.2,0,.4,0,.6,0,0,.8,0,1.6-.1,2.5ZM356.9,41.6c0,.2,0,.4,0,.7-1,.5-2.1,1.1-3.1,1.6v-.8c.2-.4.3-.8.4-1.1,1-.7,2-1.3,2.9-2,0,.5,0,1.1-.1,1.6ZM357.5,34.6c-.7.5-1.5,1-2.2,1.4.4-1.8.7-3.6,1.1-5.4.6-.2,1.1-.5,1.7-.7-.2,1.6-.4,3.2-.6,4.8ZM359,21.9c-.2,1.8-.4,3.6-.6,5.3-.5.2-.9.4-1.4.6.6-2.7,1.2-5.4,1.8-8.1.2-.8.3-1.6.5-2.3,0,0,0,0,0,0,.6,0,1.2,0,1.8-.1-.5,0-.9,0-1.4.1-.2,1-.3,1.9-.5,2.9,0,.5-.2,1.1-.2,1.6ZM367.6,75.5c-.8,0-1.7,0-2.5.1-.4,0-.8-.1-1.2-.2,1.4-.6,2.7-1.2,4.1-1.8-.1.6-.3,1.2-.4,1.9ZM369.2,67h0c-1.1.5-2.2,1-3.2,1.5-.6.3-1.2.5-1.8.8-.4.1-.9.3-1.3.4-1,.3-2,.6-3,.9,0-.4,0-.8,0-1.2,0-.4,0-.8,0-1.2,1.5-.7,3-1.5,4.6-2.2,1.8-.4,3.5-.8,5.3-1-.1.7-.2,1.3-.4,2ZM371,55.2c-.2,1.5-.4,3-.6,4.5-.2,0-.4,0-.6,0-2.3.2-4.7.5-6.9,1-1.1.2-2.2.5-3.2.8,0-.9,0-1.7,0-2.6,1.8-.8,3.6-1.7,5.3-2.5.7-.3,1.3-.6,1.9-1,1.5-.7,2.9-1.5,4.4-2.2,0,.6-.1,1.2-.2,1.8ZM366.2,52.9c-1,.5-2.1,1-3.1,1.5-1.2.5-2.4,1.1-3.6,1.6,0-1.2,0-2.4,0-3.5,0-.4,0-.9,0-1.3,1.1,0,2.1-.2,3.2-.3.8,0,1.7,0,2.5-.1,2-.1,4-.2,6.1-.3-1.7.8-3.4,1.6-5.1,2.5ZM373.2,35.9c-.4,3.2-.7,6.4-1.1,9.5-2.8.1-5.7.3-8.5.4-.8,0-1.5,0-2.3.1.2-.2.5-.5.8-.8,2.8-2.7,5.5-5.4,8.3-8.1.9-.4,1.9-.9,2.8-1.3,0,0,0,0,0,0ZM398.9,75.1h0c-8.1,0-16.1,0-24.2.2,0-1.4,0-2.8.2-4.1.5,0,1.1-.2,1.6-.3,3.2-.5,6.3-1.1,9.4-1.8,3.2-.8,6.4-1.6,9.5-2.5.9-.2,1.7-.5,2.6-.8.1,0,.3,0,.4-.2.4.9.8,1.8,1.2,2.6.2.4.4.8.7,1.2-.8,1.9-1.5,3.8-2.2,5.6h.9ZM402.2,50.6c-1,.5-2,1.1-3,1.6,0,0,0,0,0,0,0-.3-.2-.5-.2-.8-.1-.7-.3-1.3-.4-2,.1,0,.2-.1.3-.2,1.2,0,2.4,0,3.6-.1l-.2,1.5ZM403.2,43.8c-.2.1-.5.2-.7.4-.3,0-.6,0-.9,0l-4.1.2c0-.2,0-.3,0-.5,0,0,0,.2,0,.3-.2-1.1-.4-2.2-.5-3.3.6-.3,1.2-.6,1.9-.9,1.9-1,3.8-1.9,5.8-2.9-.5,2.2-.9,4.5-1.3,6.7ZM401.3,35.7c-1.5.7-3,1.5-4.5,2.2h0c0-.8,0-1.5.1-2.2,0-.3.1-.6.2-.9.2-.7.4-1.4.7-2,.2-.6.5-1.2.9-1.8.3-.6.7-1.1,1-1.7.7-.9,1.4-1.7,2.2-2.5.5-.5,1.1-1,1.7-1.4.6-.4,1.1-.8,1.7-1.2.9-.5,1.8-1,2.8-1.5,0,0,.2,0,.2-.1-1.1,3.7-2.2,7.4-3,11.2-1.4.7-2.7,1.3-4,2ZM409.9,68h0c-.9,1-1.9,2.1-2.8,3.1-.1-.2-.3-.3-.4-.5-.1-1-.2-2.1-.3-3.1.1-.3.3-.7.4-1,1.3.2,2.7.4,4,.6-.3.3-.6.6-.9.9ZM411.5,75.4s-.1,0-.2,0h.2c0,0,.1,0,.2,0h-.2ZM414.1,63.4c-1.6-.2-3.3-.5-4.9-.8l-1-.2c0-.1,0-.2.1-.3.7-.2,1.4-.5,2.1-.7.6-.2,1.2-.4,1.8-.6,2.4-1,4.7-2,7.1-3-1.7,1.8-3.5,3.7-5.2,5.5ZM430.4,70.1c-2.4,1-4.9,1.9-7.4,2.7,0,0,0,0,0,0,.3-.9.6-1.8.9-2.7.6-.3,1.2-.5,1.8-.8.2,0,.4-.2.6-.3.6,0,1.2.2,1.8.2,1.1.1,2.2.2,3.3.4-.3.1-.6.3-.9.4h0ZM440.1,63.7c-.8.8-1.7,1.6-2.6,2.3-.2.2-.4.3-.6.5-1.3-.1-2.5-.3-3.8-.4,0,0-.2,0-.3,0,.2-.1.5-.2.7-.3,2.9-1.4,5.8-2.8,8.7-4.2-.1.2-.2.3-.4.4-.5.6-1.1,1.2-1.6,1.8ZM441.8,67h0c1.1-1,2.2-2.1,3.1-3.3.4-.6.9-1.1,1.3-1.7.7.4,1.4.8,2.1,1.1,1.2.6,2.3,1.2,3.5,1.8-1.1.5-2.1.9-3.2,1.4-1.4.6-2.8,1.2-4.3,1.8-.2-.2-.4-.3-.7-.4-.5-.2-1-.5-1.5-.6-.1,0-.2,0-.4,0ZM445.4,73.9c1.1-.5,2.3-1,3.4-1.5,2.9-1.3,5.8-2.6,8.7-3.8.3-.1.5-.2.8-.4.4.2.8.4,1.2.6-.4.2-.8.3-1.2.5-.7.3-1.4.6-2.1.9-4.4,1.7-8.8,3.3-13.3,4.7.8-.3,1.6-.7,2.4-1ZM454.6,77h0c-2.4,0-4.7-.1-7-.2,2.8-1.2,5.7-2.3,8.5-3.5.9-.3,1.7-.7,2.6-1.1,1.5-.6,2.9-1.1,4.4-1.7.7.3,1.4.7,2,1.1,0,0,0,0,0,0-2.5,1.3-5.1,2.6-7.6,3.8-1,.5-2,1-3,1.5ZM464.4,77.1h0c0,0-.2,0-.3.1-.4,0-.8,0-1.2,0h-.4c2.3-1.1,4.5-2.2,6.8-3.4.3.2.6.3.9.5-1.9.9-3.9,1.8-5.8,2.8ZM470.3,69.1c-.5-.3-1.1-.6-1.6-.9,2.1-.9,4.2-1.8,6.3-2.8.1,0,.2-.1.4-.2.4.2.7.5,1.1.7-1.7.8-3.4,1.7-5.1,2.5-.4.2-.7.4-1.1.5ZM475.2,71.9c-.3-.2-.7-.4-1-.6.6-.3,1.1-.6,1.7-.9,1.3-.7,2.7-1.3,4-2,.4.2.7.5,1.1.7-1.9.9-3.8,1.8-5.8,2.7ZM480.8,62.8c1.8-.8,3.5-1.7,5.3-2.6.1.2.3.3.4.5-1.6.9-3.2,1.8-4.8,2.7-.3-.2-.6-.4-.8-.6ZM491.3,79.2c-1.4-.1-2.8-.2-4.2-.3-.9-.5-1.8-1-2.7-1.5-.2-.1-.3-.2-.5-.3,1.8-.8,3.7-1.5,5.5-2.3,1.6,1.1,3.3,2.1,4.9,3.2-1,.4-2,.8-3,1.3ZM495.2,72.4h0c.3-.1.6-.3,1-.4.8.9,1.5,1.7,2.3,2.5-1.1-.7-2.2-1.4-3.3-2.2ZM504,73.6c-.4-.4-.8-.9-1.2-1.3-.7-.8-1.4-1.5-2.1-2.3.2,0,.3-.2.5-.2,1.4,1.1,2.8,2.1,4.2,3.2-.5.2-.9.4-1.3.6ZM510.1,70.6c-.3.2-.7.3-1,.5-1.4-1.1-2.7-2.2-4.1-3.2,2.1-1,4.2-2,6.3-3.1.8.8,1.6,1.6,2.4,2.4,0,0,0,0,0,0,.3.4.7.7,1,1.1,0,0,0,0,0,0-1.6.8-3.1,1.5-4.7,2.3ZM526,42.5c.7-.4,1.3-.8,1.9-1.2,4-.4,8.1-.7,12.2-1.1-2.8,1.4-5.6,2.8-8.4,4.2-4.2,2.1-8.3,4.1-12.5,6.2-1.4-.5-2.8-1-4.2-1.6,3.7-2.2,7.3-4.3,10.9-6.5ZM519,66.3h0s0,0-.1-.1c-.2-.2-.5-.5-.7-.7-.2-.2-.3-.4-.5-.6-.7-.7-1.4-1.5-2.1-2.2,3-1.4,5.9-2.9,8.9-4.3.1,0,.3-.1.4-.2,1.8.7,3.5,1.3,5.3,1.9-3.6,2-7.1,4-10.7,5.9-.1,0-.3.2-.4.2ZM520.1,80h0c-.2-.2-.5-.4-.7-.5,0,0,0,0,0,0,1.4-.5,2.7-1.1,4.1-1.7.7.7,1.4,1.4,2.1,2.1-1.9,0-3.7.1-5.6.2ZM549.4,73.6h0c-4.4,1.9-8.8,3.9-13.2,5.8-1.5,0-2.9.1-4.3.2-1.3-1.3-2.6-2.5-3.9-3.8,0,0,0,0,0,0,.2,0,.4-.2.6-.3.5-.2.9-.4,1.4-.6,1.3-.2,2.6-.5,3.9-.7,4.6-.6,9.2-.9,13.9-.9h2.3c-.2.1-.4.2-.6.3ZM552.7,69.9c-2.1-.1-4.1-.2-6.2-.2s-.7,0-1,0c-1.4,0-2.8,0-4.2,0,.7-.3,1.3-.6,1.9-1,1.3-.7,2.7-1.4,4.1-2.1.7.3,1.4.6,2.1.9,2,.9,4,1.8,5.9,2.6-.9-.1-1.7-.2-2.6-.3ZM556.5,65.2c-1.2-.5-2.3-1.1-3.5-1.6,1-.5,2.1-1.1,3.2-1.7,1,1.5,2,3.1,3.2,4.5-.9-.4-1.9-.9-2.8-1.3ZM562,79.7c.8-.4,1.5-.8,2.2-1.2,1.2-.7,2.5-1.4,3.7-2.1,0,0,0,0,0,0,1.1,1.2,2.3,2.4,3.4,3.6-3.1,0-6.3-.2-9.4-.3ZM571.6,62c-2.4,1.2-4.8,2.5-7.2,3.7-.3-.5-.7-.9-1-1.4-1.1-1.5-2.1-3-3-4.6.2,0,.3-.2.5-.2.4-.2.8-.5,1.3-.8,1.2-.7,2.3-1.4,3.5-2.1.7-.4,1.4-.8,2.1-1.2,1.3,2.2,2.7,4.3,4.1,6.5,0,0-.2.1-.3.2ZM572.5,52.5c2.4-1.4,4.8-2.9,7.2-4.3,1.7-1,3.3-2,4.9-3.1.4.8.7,1.5,1.1,2.2.8,1.5,1.5,3.1,2.2,4.6-1.8,1.1-3.7,2.2-5.5,3.4-2,1.2-4,2.4-5.9,3.7-1.4-2.1-2.7-4.2-4-6.4ZM577.2,80c-.2-.2-.4-.5-.7-.7.6.2,1.2.5,1.8.7-.4,0-.8,0-1.1,0ZM576.4,74.1c-.8-.3-1.7-.7-2.5-1.1,1.4-.8,2.8-1.6,4.2-2.4.1.2.2.3.4.5,1.4,1.8,2.8,3.7,4.3,5.5-2.1-.9-4.2-1.7-6.4-2.5ZM593.2,74.2c-1.1.9-2.3,1.7-3.4,2.6-.7-.9-1.4-1.7-2.1-2.6-1.7-2-3.2-4.1-4.8-6.1.7-.4,1.5-.9,2.2-1.3,2.6-1.5,5.1-3,7.7-4.6.4.9.9,1.9,1.3,2.8,0,.2.1.3.2.5-.2.6-.3,1.1-.5,1.7,0,.5-.2,1-.2,1.4,0,1,0,1.9.2,2.8.2.6.4,1.2.7,1.7,0,0,0,0,0,0-.4.3-.8.7-1.3,1ZM595,54.4c0,0,0-.1,0-.2.4-.2.8-.5,1.2-.8.7-.4,1.4-.9,2.1-1.3,2.5-1.8,5.1-3.5,7.6-5.3.1.2.2.5.3.7-2.1,1.3-4.2,2.6-6.4,3.9-1.6,1-3.2,2-4.8,3ZM601,67.3h0c0,0,0-.1,0-.2.5-1.1,1-2.2,1.7-3.2.6-1,1.3-2.1,2-3.1,1.5-2.1,3.2-4.1,4.8-6.1.7,1.4,1.5,2.9,2.2,4.3,0,0,0,0-.1,0-3.5,2.9-7,5.8-10.4,8.7,0-.2-.1-.3-.2-.5ZM609.2,68.5c-1.4.8-2.7,1.6-4.1,2.4,3-2.6,5.9-5.1,8.9-7.7.3.6.7,1.2,1,1.8-.5.3-1,.6-1.5.9-1.4.9-2.9,1.7-4.4,2.6ZM616,72.5c-1,.1-2,.3-2.9.4,1.4-.8,2.8-1.6,4.1-2.5l.9-.6c.5.7.9,1.4,1.3,2-1.1.2-2.3.5-3.5.6h0ZM618.5,59.4c.7-.6,1.3-1.1,1.9-1.7,2-1.9,4-3.7,6.1-5.6,1.8-1.6,3.5-3.3,5.3-4.9,0,.3,0,.5.1.8,0,.6.2,1.3.2,1.9.2,1.3.3,2.6.5,3.9-1.6,1.1-3.2,2.2-4.7,3.3-2.6,1.6-5.2,3.2-7.9,4.8-.5-.8-1-1.7-1.5-2.6ZM628.4,67.5c-1.1.9-2.2,1.8-3.3,2.6-.8-1.1-1.5-2.2-2.2-3.3,2.1-1.3,4.1-2.6,6.2-3.9.8-.5,1.5-1,2.3-1.4.3-.2.6-.3.9-.6.3-.2.7-.5,1-.7,0,1.1.2,2.1.2,3.2-1.7,1.4-3.3,2.8-5,4.2ZM635.9,34.1h0s0,0,.1,0c1-.7,2-1.5,3.1-2.2.2.9.5,1.8.8,2.7-1.1,1-2.2,2-3.3,3-.2-1.1-.4-2.2-.6-3.4ZM637.7,44.9c-.2-.9-.3-1.8-.5-2.8.5-.4.9-.9,1.4-1.3.8-.8,1.6-1.5,2.4-2.3.3,1.2.7,2.4,1,3.6.2.8.5,1.7.8,2.5.2.5.3,1.1.5,1.6-1.6,1.2-3.2,2.3-4.9,3.4-.2-1.6-.5-3.2-.7-4.8ZM639.4,57.1c0-.5-.1-.9-.2-1.4,1.4-1.1,2.9-2.1,4.3-3.2.5-.4,1.1-.8,1.6-1.2.2.4.3.8.5,1.2-2,1.8-4.1,3.7-6.1,5.5,0-.3,0-.6,0-1ZM640,64.4c1.3-1.2,2.7-2.5,4-3.7,1.2-1.1,2.3-2.2,3.5-3.3.4,1,.9,2.1,1.3,3.1-2.9,1.5-5.8,3-8.8,4.4,0-.2,0-.3,0-.5ZM645.8,71.9c-.8.2-1.5.3-2.3.5,1.4-.8,2.8-1.7,4.1-2.6,1.5-1,3-1.9,4.5-2.9.8,1.4,1.5,2.7,2.3,4-2.9.1-5.8.4-8.7,1ZM654.7,57.2c-.2.1-.5.3-.7.4-.3-.6-.5-1.2-.8-1.8-.4-.9-.8-1.9-1.1-2.8.6-.6,1.3-1.2,1.9-1.8,0,.2.2.5.3.7.6,1.5,1.2,3.1,1.7,4.6-.4.2-.8.5-1.2.7ZM656.5,42.5h0c.4-.3.8-.6,1.2-.9-.4.3-.7.7-1.1,1,0,0,0,0,0-.1ZM657.1,64.1h0c0,0,0-.2-.1-.2.3-.2.6-.4.9-.6.2-.1.3-.2.5-.3.5,1.4,1,2.8,1.5,4.1.3,1,.7,2,1,3.1-1.3-2-2.5-4-3.7-6.1ZM659.7,51h0c-.5-1.3-1-2.6-1.5-3.9.8-.7,1.5-1.5,2.3-2.2,1.4-1.4,2.8-2.7,4.2-4.1.3.9.7,1.7,1,2.6.7,1.9,1.5,3.8,2.2,5.7-2.3,1.5-4.7,3-7.1,4.5-.3-.8-.7-1.7-1-2.6ZM671.1,66c-.4.5-.9,1-1.3,1.5-.9.9-1.8,1.8-2.7,2.8,0,0,0,0,0,0-.6-1.7-1.1-3.4-1.8-5.1-.4-1-.8-2.1-1.2-3.1-.3-.8-.6-1.6-.9-2.3.2,0,.3-.2.5-.3,1.8-1.3,3.7-2.6,5.5-3.9.3-.2.7-.4,1-.7.6,1.4,1.1,2.8,1.7,4.3.6,1.4,1.1,2.8,1.7,4.2-.8.9-1.6,1.8-2.4,2.8ZM674,70.3c.1-.2.3-.3.4-.5.4-.5.8-1,1.2-1.4,0,0,0,.1,0,.2.2.5.4,1,.6,1.5-.8,0-1.5.2-2.3.3ZM674.7,44.3c-.2-.3-.3-.7-.5-1-.7-1.7-1.5-3.4-2.2-5.1-.5-1.1-1-2.2-1.4-3.3l.2-.2c.7-.7,1.4-1.5,2.1-2.2.2-.2.4-.5.7-.7.3,1.5.7,2.9,1.1,4.3.3,1.1.6,2.2.9,3.3.3,1.2.7,2.4,1.1,3.5-.7.5-1.3.9-2,1.4ZM679.8,55.9h0c0,0,0,.1-.2.2-.5-1.2-1-2.4-1.4-3.6-.4-1-.8-1.9-1.2-2.8.5-.4,1.1-.8,1.6-1.2,0,0,0,.2.1.3.6,1.6,1.1,3.2,1.7,4.7.2.4.3.7.5,1.1-.4.5-.8.9-1.2,1.4ZM683.8,65.4h0c-.2.2-.4.3-.6.5-.4-1.2-.8-2.4-1.3-3.5-.2-.4-.3-.8-.4-1.2.5-.6,1-1.2,1.5-1.9.2.3.3.6.5,1l.2.5c.3.9.7,1.7,1.1,2.6,0,.3.2.5.3.8,0,0,0,.1,0,.2-.4.4-.9.7-1.3,1.1ZM685.6,49.2h0c0-.2-.2-.5-.3-.7-.4-1.3-.8-2.6-1.2-3.9.5-.4,1-.7,1.5-1.1.2,1.6.5,3.3.7,4.9-.2.3-.5.5-.7.8ZM691.1,31.6c-.1-1.8-.2-3.5-.2-5.3,0,0,0,.1,0,.2.5.8,1,1.7,1.6,2.5.4.6.8,1.2,1.3,1.8,0,0,0,0-.1,0-.9.5-1.7,1.1-2.6,1.7,0-.3,0-.6,0-.9ZM691.9,39.7h0c0-.2,0-.4,0-.7,1.8-1.3,3.5-2.5,5.2-3.8,0,.1.2.2.2.3,0,.3.1.6.2.8-.5.5-.9,1-1.4,1.5-1.3,1.4-2.6,2.7-3.9,4.1,0-.8-.2-1.5-.3-2.2ZM695.8,55l-1.5,1.3c-.5-3.1-1-6.2-1.4-9.3.6-.7,1.2-1.4,1.8-2.1,1.2-1.3,2.4-2.7,3.6-4,0,.3.1.7.2,1l.7,5.1c.2,1.4.3,2.9.5,4.3-1,.9-1.9,1.8-2.8,2.7-.3.3-.7.7-1,1ZM700.1,61.8c-1,.9-2.1,1.6-3.2,2.2.2-.2.4-.4.6-.7.5-.6,1-1.1,1.5-1.7.4-.3.8-.7,1.2-1,.2-.2.4-.4.6-.6,0,.3.1.6.2,1-.3.3-.6.5-.9.8ZM714.9,35.8h0c-.6.7-1.2,1.3-1.7,2-.4.5-.8,1-1.3,1.5-.4-2.4-.8-4.8-1.2-7.2,0,0,0,0,0,0-.3-2-.7-3.9-1.1-5.9.2-.1.3-.2.5-.4.5-.3.9-.6,1.3-1,1,.8,1.9,1.7,2.5,3,.9,2.5,1.1,5.2,1,7.9Z"/>
</svg>