<svg xmlns="http://www.w3.org/2000/svg" viewBox="0 0 1256 913"><defs><style>.cls-1{fill:#edf7f9;}.cls-2{fill:#dfeef2;}.cls-3{fill:#cc9f85;}.cls-4{fill:#d3a863;}.cls-5{fill:#5c5754;}.cls-6{fill:#fff;}.cls-10,.cls-7,.cls-8,.cls-9{fill:none;stroke:#a2b1b7;stroke-miterlimit:10;}.cls-7,.cls-9{stroke-linecap:round;}.cls-10,.cls-7{stroke-width:6px;}.cls-8{stroke-width:27px;}.cls-9{stroke-width:5px;}.cls-11{fill:#dbad93;}.cls-12{fill:#89612b;}.cls-13{fill:#d99675;}.cls-14{fill:#dea687;}.cls-15{fill:#4c4542;}.cls-16{fill:#bcd6e0;}.cls-17{fill:#b0cad1;}</style></defs><g id="Layer_1" data-name="Layer 1"><path class="cls-1" d="M512.87,372.24c-14,0-35-21-45.47-31.48s-21-31.48-28-38.48-3.5-10.49-10.49-10.49c-4.34,0-8.71,2.41-13.19,6.65,0,0-.07,0-.07.07-5.49,5.1-11.19,12.94-17.35,22.31l-2.87,4.41c-12.52,19.48-33,85.49-33,85.49-10.5,52.46-14,143.41-14,143.41h-7L344,524.71c2.56-29.42,14.94-110.5,16.27-127.25,1.29-16.37,12.21-31.59,22.49-55.2.24-.49.45-1,.66-1.5,10.5-24.48,21-38.48,31.48-49s21-14,42-3.5S514,349.15,514,349.15s1.15,2.1,2.41,5C519.31,361,522.67,372.24,512.87,372.24Z"/><path class="cls-1" d="M516.44,354.19c-10.67-13.95-51.21-57.36-57.78-60.65-7-3.5-28-10.49-38.48,0-1.29,1.29-2.8,3-4.44,4.9,0,0-.07,0-.07.07-5.18,6.05-11.68,14.62-17.35,22.31C391.08,330.62,385.2,339,385.2,339l-2.41,3.25c.24-.49.45-1,.66-1.5,10.5-24.48,21-38.48,31.48-49s21-14,42-3.5S514,349.15,514,349.15,515.18,351.25,516.44,354.19Z"/><path class="cls-1" d="M329.53,533.4s-10.38-70.9-32-99.54-64-68.13-105.91-98.71-72.53-37.93-69.49-44,37,1.07,37,1.07l31.09,16.25c10.36,5.42,38.4,27.78,45.25,30.41s12.42,12.75,5.87,16.06-16.75.87-16.75.87,66.75,53,84.42,73C342.92,467.23,347.89,531,347.89,531Z"/><path class="cls-1" d="M359.59,551.94S373.65,456.53,386,431.88c6.17-9.24,9.25-12.32,15.41-9.24s40.06,92.44,80.12,141.74c0,0,6.16-43.14-27.74-101.68s-55.46-52.39-64.71-46.22-31.13,104.84-40.37,138.74Z"/><path class="cls-1" d="M168.42,217.46s36.77,42.53,49,55.62,74.8,115.09,91,145.89,21.38,118.25,21.38,118.25l10.17.9S337,456.32,315.5,417.05s-79.67-124.34-79.67-124.34,12.25,6.55,18.38,0-21.45-36-30.64-45.8-27.58-32.73-42.9-42.54-21.45-3.27-18.38,3.27A40.64,40.64,0,0,0,168.42,217.46Z"/><path class="cls-1" d="M337.23,505.3l-9.18,17.78-1.7-44.71s-1.75-14.2-3.45-33.25-26-122.7-26-122.7S253.54,204,245.19,179.69a.1.1,0,0,1,0-.06c-.25-.77-.5-1.45-.68-2-6.16-18.49,0-30.82,0-30.82s-1.54,10.79,7.7,23.12,23.11,20,41.6,44.68c7.92,10.53,15.81,26.71,21.54,43,7.7,21.79,11.49,43.73,6.19,52.54C312.27,325.5,303,322.42,303,322.42,315.35,350.16,337.23,505.3,337.23,505.3Z"/><path class="cls-1" d="M318.4,273.06c-1.42-2.13-46.47-71-64.68-83.14a24.77,24.77,0,0,1-8.53-10.23.1.1,0,0,1,0-.06c-.25-.77-.5-1.45-.68-2-6.16-18.49,0-30.82,0-30.82s-1.54,10.79,7.7,23.12,23.11,20,41.6,44.68c7.92,10.53,15.81,26.71,21.54,43Z"/><path class="cls-1" d="M504.77,134.76l-9.95,7.92L461.5,169.19s-31.22,39.28-40.42,55.2-32.71,63.9-32.71,63.9c-4.68,14.7-8.86,28.49-12.57,41.48C341.15,450.67,346,498.9,346,498.9L327.27,530S348.82,397.07,359,364.75s26.24-93.12,26.24-93.12-4.6,7.95-23.62-17.91,21.15-77,47.77-108.29S464.49,120,485,121.2,504.77,134.76,504.77,134.76Z"/><path class="cls-1" d="M494.82,142.68,461.5,169.19s-31.22,39.28-40.42,55.2-32.71,63.9-32.71,63.9c-4.68,14.7-8.86,28.49-12.57,41.48l-8.33,31.37L379.67,296s6.09-32.57,11.44-52.83c4.2-15.9,14.31-32.08,14.31-32.08C426.27,182.33,468.64,156.69,494.82,142.68Z"/><path class="cls-1" d="M415.6,54.53A18,18,0,0,0,413.75,53a5.18,5.18,0,0,0-2.19-.91,7.14,7.14,0,0,0-1.48-.07,11.49,11.49,0,0,0-2.24.32c-10.37,2.51-28.61,19.25-45.73,41.88-1.15,1.58-2.3,3.12-3.42,4.7q-3.36,4.65-6.6,9.56v0c-13.73,20.85-25.3,44.75-29.18,66.76-10.48,59.4-10.48,83.85,7,90.85,0,0,1.74,1.74,8.72,1.74,0,0-7,69.88-7,118.8s-1.57,146.56-1.57,146.56l7.82-.67s-1-193.06,6-266.43c0,0,7,7,17.46-45.43,3.74-18.72,10.18-38.77,17.19-57.44v-.06a776.51,776.51,0,0,1,31.73-71.76C416.89,78.11,426.72,64.81,415.6,54.53ZM345.62,219v41.92s-10.48-7-10.48-28,0-59.37,31.44-90.81C365.93,143.29,345.62,181.13,345.62,219Z"/><path class="cls-1" d="M410.26,91.42a778.43,778.43,0,0,0-31.73,71.77c3.92-18.69,11.53-49.41,23-70,8.74-15.72,11.39-30.5,10-41.09a5.22,5.22,0,0,1,2.2.91,20.68,20.68,0,0,1,1.85,1.54C426.71,64.8,416.9,78.11,410.26,91.42Z"/><polygon class="cls-1" points="294.1 510.46 379.24 510.46 370.12 857.59 303.22 857.59 294.1 510.46"/><path class="cls-2" d="M52.86,695.47s19.67,0,31.47,11.8,15.74,23.61,39.35,23.61S155.15,723,155.15,723s15.74,15.74,19.68,23.61l3.93-3.94L163,723s3.94-7.87-31.47-19.67S76.46,691.53,52.86,695.47Z"/><path class="cls-2" d="M340.84,675.14s-17.22,4.34-24.67,18.39-8,26.37-28.68,31.58-29.49-.68-29.49-.68-9.93,18.74-11.45,27.24l-4.41-2.95,9-22.55s-5.37-6.76,22.75-26S319.21,676.54,340.84,675.14Z"/><path class="cls-2" d="M208.71,749.31s1.81-25-16-31.06-28.12,6.2-36,4.79-7.36-4.15-7.36-4.15-4.58,10.45,22.56,9.71c14.22,11,14.87,22.4,14.87,22.4Z"/><path class="cls-2" d="M275,645s-17.83,10.74-25.47,17.9-25.46,21.48-20.37,28.64,10.19,7.16,10.19,7.16S221.5,730.92,219,745.24h5.09s15.28-43,20.37-46.54c0,0,7.64,10.74,15.28,7.16s20.37-14.32,20.37-28.64S275,655.74,275,645Z"/><path class="cls-2" d="M312.08,560.68s14.61,28.78,4.87,43.17-34.09,33.58-48.7,33.58S239,623,239,613.45s-9.74,9.59-9.74,9.59S200.07,714.19,204.94,743h-4.87s0-67.16,24.35-119.93c17.22-37.31,29.22-38.38,48.7-38.38S312.08,560.68,312.08,560.68Z"/><path class="cls-2" d="M125.25,604.78s-12.44,65.41,9.32,68.86,24.87,0,24.87,0l31.08,68.85h6.22l-34.19-72.3S181.2,666.75,181.2,653s-12.44-31-24.87-37.87S125.25,604.78,125.25,604.78Z"/><path class="cls-2" d="M214.56,699.43a29.85,29.85,0,0,0,11.1,13.86c8.31,5.55,11.09,25,11.09,33.27l-28.8,3.5s-3.1-17,.37-28.29S214.56,699.43,214.56,699.43Z"/><polygon class="cls-2" points="152 741.11 259.41 741.11 247.9 855.4 163.51 855.4 152 741.11"/><rect class="cls-2" x="69" y="854" width="1098" height="15" rx="7.5"/><path class="cls-3" d="M726,549s-3.13,8.69,5.94,10.84S758,558,758,558h26s-6-9-17-9a178.85,178.85,0,0,0-23.34,1.91S737,547,733,546,726,549,726,549Z"/><path class="cls-4" d="M919,206s144.82-28,184.81,134.83S995.26,573.65,922.42,566.51L925,453s55.8,1.75,48-88c-6-69-119-64-119-64s35.49-36.65,57-63S919,206,919,206Z"/><path class="cls-5" d="M887,406s51,81,81,8l-1-15s24,24,63,30c52.72,8.11,82-23,82-23s-.36,158.85-223,170Z"/><path class="cls-3" d="M788,489s5,26,1,29l29-8-7-24Z"/><path class="cls-5" d="M1046,515s-57.82-43.16-88.41-66.08c0,0-134.37,43.6-192.48,82.34S633,805,633,805l17,3S775,584,800,581,996,586,1046,515Z"/><path class="cls-6" d="M851,245s60-6,56-40l-7.62-4L916,201s11,18-15,36-51,15-51,15Z"/><line class="cls-7" x1="649" y1="384" x2="511" y2="384"/><path class="cls-8" d="M1212,191.5l-97.85,325.59a84.81,84.81,0,0,1-81.23,60.41H784"/><line class="cls-9" x1="443" y1="243" x2="512" y2="385"/><line class="cls-10" x1="980" y1="579" x2="980" y2="787"/><path class="cls-10" d="M821.5,829.5V817.87a30.37,30.37,0,0,1,30.37-30.37h256.26a30.37,30.37,0,0,1,30.37,30.37V829"/><circle class="cls-10" cx="821" cy="840" r="13"/><circle class="cls-10" cx="1140" cy="840" r="13"/></g><g id="Foot1"><path class="cls-11" d="M649,808s-8,27-8,34-2,20-16,17c-12-2.56-39.24-.75-46.94-.16a35,35,0,0,1-4.69,0c-7.62-.47-28.62,1.62-27.37-5.87,1-6,10-4,10-4a75,75,0,0,0,12-1c2.19-.44,8-2,12-3s29-13,38-22a82.3,82.3,0,0,0,14-19Z"/></g><g id="Foot1-up"><path class="cls-11" d="M649,808s-8,27-8,34-2,20-16,17-48,0-48,0-27-6-25-15,10-2,10-2a59.23,59.23,0,0,0,6,4c2,1,8,0,12-1s29-13,38-22a82.3,82.3,0,0,0,14-19Z"/></g><g id="Arm_2" data-name="Arm 2"><path id="hand1" class="cls-3" d="M816.23,324.59c-44.16,26.5-122.35,4.3-166.42-1.92-25.45-3.59-43.7,2.48-54.59,8.25-3.35,1.71-6.14,3.06-6.14,3.06s-13.07,1.07-16,1.46c-4.21.58-15.32,9.7-15.32,9.7a3.26,3.26,0,0,0,3.49,2.21,17.49,17.49,0,0,0,4.26-1.07s1.09,3.73,4.48,2.32c5-2.1,11.61-4.29,11.61-4.29s-3.53,5.72-3.65,7l.19,13.76s.2.59,2.85-.64c3-1.39,3.64-14.46,3.64-14.46l4.68-3.33,15.28-2.84s-15.81,6.09-15.48,8.49a3.3,3.3,0,0,0,4.28,2.6c1.13-.65,15.16-7.23,18.63-8.69s12.41-4.15,15.06-6.23a4,4,0,0,0,1.31-3.27,46.25,46.25,0,0,1,14.63.36c17.22,3.44,138.39,64.83,156.81,60.6s67.34-63.49,67.34-63.49Z"/><path id="hand2" class="cls-3" d="M816.23,324.59c-44.16,26.5-122.35,4.3-166.42-1.92-22.15-3.13-55,5.53-55.74,5.75a39.22,39.22,0,0,0-6.06,2.27s-12.1,2.77-15.89,5S558,342.8,558,342.8a4.18,4.18,0,0,0,3.78,2,11.72,11.72,0,0,0,5.3-1.51s.25,2.78,4,2.27S586,340,586,340L567.08,354.4s.76.5,3.78.76,16.4-8.83,16.4-8.83l7.56-4,8.58-.25s-14.12,9.84-14.12,12.36,2,2.77,3.27,2.27,14.38-10.09,18.16-11.1,13.37-2.52,16.4-4.29c1.56-.91,1.91-2.89,1.89-4.6a45.73,45.73,0,0,1,14.07.42c17.22,3.44,138.39,64.83,156.81,60.6s67.34-63.49,67.34-63.49Z"/></g><g id="Leg_2" data-name="Leg 2"><path class="cls-5" d="M900,433S824,264,773,268s14,220,14,220l24-2-7-107s12,180,75,183,79.4,2,79.4,2Z"/></g><g id="Arm_1" data-name="Arm 1"><path id="hand1-2" data-name="hand1" class="cls-11" d="M811.53,358.45c-41.82,27-83.64-6.5-126.4-11.15-37-4-68.06,6.87-75.77,9.88a3.53,3.53,0,0,0-.54.1,34,34,0,0,0-6.49,2.93S594.18,362.09,591,364a122.17,122.17,0,0,1-11.5,5.23,3.16,3.16,0,0,0,2.93,2.3,9.67,9.67,0,0,0,4.39-1.26l12.8-4.4-3.11,2.41-13.68,9.2c2,2.75,3.78,2.51,4.48,2.26a5.41,5.41,0,0,0,3.9,1c1.88-.21,11.5-8.79,11.5-8.79l7.11-2.5,2.3.2s-9.83,2.93-9.83,5,3.35,1.88,4.4,1.47,13.17-3.14,16.3-4a49.43,49.43,0,0,0,12.24-4.7c1.35-.79,2.72-3.45,3.7-5.76,8.48-1,25.64-2.44,37.8-.42,16.73,2.79,118,70.64,135.69,66s48.33-53,48.33-53Z"/><path id="hand2-2" data-name="hand2" class="cls-11" d="M812.76,358.45c-41.83,27-83.65-6.5-126.4-11.15-39.31-4.27-71.94,8.29-76.94,10.35a3,3,0,0,0-.7.07,34.5,34.5,0,0,0-6.51,2.94s-8.18,1.89-11.33,3.78-11.34,8-11.34,8a2.82,2.82,0,0,0,2.73,2.31l.31,0c.63,2.4,3.89,1.49,3.89,1.49l6.69-4.15-5.85,6s2.42,2,4.41.42c2.93-2.31,8.81-6.51,8.81-6.51l8-2.93,5.24.63s-10.07,5-10.07,7.13,4.2,1.05,5.25.63,10.91-4,14.06-4.83,11.12-2.09,13.64-3.56,1.26-6.3,1.26-6.3l-2.37-.52c3.6-.5,27.06-3.57,42.47-1,16.73,2.79,118,70.64,135.69,66s48.33-53,48.33-53Z"/><path id="hand3" class="cls-11" d="M809.21,358.45c-41.82,27-83.65-6.5-126.4-11.15-34.34-3.73-63.58,5.38-73.76,9.12-.61.2-1.24.44-1.85.69-1.3.51-2,.82-2,.82l.17,0c-1.42.7-2.45,1.31-2.45,1.31s-8.36,1.93-11.57,3.86-11.78,6.42-11.78,6.42-.42,3,1.93,3a9.51,9.51,0,0,0,2.31-.08l-1,.51c.21,3.21,4.06,2.14,4.06,2.14l6.82-4.23h0c1.88-.86,4.52-2,6.88-2.83a14.33,14.33,0,0,1,5.91-.88c-1.15,1.54-2.2,3-2.89,3.9-.82,1.1-3,4.33-4.2,6.15a.8.8,0,0,0,.75,1.24A7.78,7.78,0,0,0,604,377c.17-.14.38-.32.61-.55.87,1.18,4.22.33,5.15-.05s11.13-4.07,14.35-4.92S634.4,371,638,367.83c2.23-2,1.28-6.43,1.28-6.43l-.1,0c9-.93,24.2-2,35.23-.14,16.72,2.79,118,70.64,135.69,66s48.33-53,48.33-53ZM607.44,373.32c1.33-1.58,2.82-3.44,4.17-5.15l6.3.94A94.22,94.22,0,0,0,607.44,373.32Z"/><path id="hand4" class="cls-11" d="M812.1,358.45c-41.82,27-83.64-6.5-126.39-11.15-33.73-3.66-62.54,5.07-73.2,8.92l-.27,0a24.37,24.37,0,0,0-3.91,1.57l-.23.1h0c-1.37.67-2.37,1.26-2.37,1.26s-8.15,1.88-11.29,3.76-11.92,8.37-11.92,8.37.84,2.51,3.14,2.51c0,0,.39.12,1,.21,1.09,1.28,3.44.62,3.44.62l6.65-4.13h0l.19-.08-5,6.31s.63,1.47,2.51.63,5.72-3.91,11.2-10.24a10.53,10.53,0,0,1,6.37.41l7.32,1.05s-13,2.93-12.55,5.85c.3,2.07,4.15,1.38,5.23,1.05,2.72-.84,11.29-3.55,14.43-4.39s10-.42,13.59-3.56c1.91-1.69,1.43-5.25,1.29-6.09,8.93-.94,24.65-2.11,36-.22,16.73,2.79,118,70.64,135.69,66s48.33-53,48.33-53Z"/></g><g id="Body"><path class="cls-12" d="M777,143l1,122h15l1-27.36,2,28.47L846,265s39-8.89,47-68.57c0,0-55-93.55-79-80.18S777,143,777,143Z"/><path class="cls-13" d="M838.29,218.17s40-8,51,25c0,0,35-7,48-19s0-24,0-24-23-19-75-16Z"/><path class="cls-14" d="M786.5,143.61s-9,69,35,84,66-51,62-65-22-52-49-55S786.5,143.61,786.5,143.61Z"/><path class="cls-15" d="M835.62,187.2a24,24,0,0,1-6.16,4,40.94,40.94,0,0,1-6.91,2.4,52,52,0,0,1-7.23,1.25c-1.22.13-2.44.18-3.66.27l-3.68.06.35-4.67,3.41.39c1.14.06,2.29.17,3.43.19a49.15,49.15,0,0,0,6.86-.29,36.9,36.9,0,0,0,6.73-1.39,22.74,22.74,0,0,0,6.18-2.9Z"/><path class="cls-15" d="M806,176.54c2.46-.93,4.82-1.68,7.29-2.37a36,36,0,0,1,7.76-1.41,15.3,15.3,0,0,1,4.1.45,35.45,35.45,0,0,1,3.67,1.08,66.3,66.3,0,0,1,6.9,2.86.49.49,0,0,1,.23.66.51.51,0,0,1-.57.28h0a64.67,64.67,0,0,0-7.11-1.39,30.59,30.59,0,0,0-3.52-.3,11.25,11.25,0,0,0-3.2.27,33.87,33.87,0,0,0-6.32,2.55c-2.08,1.06-4.2,2.26-6.13,3.48h0a3.45,3.45,0,0,1-3.69-5.84A4.48,4.48,0,0,1,806,176.54Z"/><path class="cls-14" d="M790.5,182.61s-2,26-1,30,11,0,11,0"/><path class="cls-12" d="M777,142.16s37.44,41.68,75.89,37.51c0,0,7.08,1,7.08-7.29s18.21,6.25,18.21,6.25S904.49,213,892.35,234.9L888,241.11l12.24-4s7.29-12.59,6.27-25.09c0,0,8.64,31.55,4.49,42.13l9-6s2.07-32.49-4-45l15,38s31-15.49,35-28c2.43-7.5-1-27-1-27s-14,2-23-6c-22.2-19.73-46.62-64-68.88-76.51S835.69,89,821.52,94.22,784.08,115.06,777,142.16Z"/><line class="cls-10" x1="216.09" y1="858.41" x2="300.72" y2="389.05"/><line class="cls-10" x1="933.81" y1="858.41" x2="849.18" y2="389.05"/><rect class="cls-16" x="189.95" y="388" width="770" height="17"/><rect class="cls-17" x="189.95" y="405" width="770" height="8"/><path class="cls-4" d="M862,377s40-56,50-80,6.77-66.9,6.77-66.9S874,253,856,256s-33,42-38,62-18,40-18,40Z"/></g></svg>