<?xml version="1.0" encoding="UTF-8"?>
<svg id="Layer_1" data-name="Layer 1" xmlns="http://www.w3.org/2000/svg" viewBox="0 0 82.39 58.4">
  <defs>
    <style>
      .cls-1 {
        fill: #4d8f9e;
      }
    </style>
  </defs>
  <g id="SLcdy9.tif">
    <g>
      <polygon class="cls-1" points="17.34 0 29.38 10.94 41.41 0 53.01 10.94 65.05 0 82.39 17.32 76.04 23.7 64.52 12.15 53.01 23.7 40.97 12.18 29.38 23.7 17.86 12.15 6.35 23.7 0 17.32 17.34 0"/>
      <path class="cls-1" d="M17.86,34.69l11.51,11.55,11.51-11.55,11.6,11.52,12.04-11.52,17.86,17.96-6.27,5.74c-1.17-.21-8.37-9.01-10.36-10.35-.61-.41-.88-.73-1.72-.51-1.94.51-9.97,11.14-11.55,10.86l-11.51-10.88-11.51,10.88-11.6-10.94-12.04,10.94-5.83-5.74,17.86-17.96Z"/>
    </g>
  </g>
</svg>