<?xml version="1.0" encoding="UTF-8"?>
<svg id="Layer_2" data-name="Layer 2" xmlns="http://www.w3.org/2000/svg" viewBox="0 0 280.92 231.76">
  <defs>
    <style>
      .cls-1 {
        fill: #4b361b;
      }

      .cls-2 {
        fill: #753b17;
      }

      .cls-3 {
        fill: #a86947;
      }

      .cls-4 {
        fill: #9e5434;
      }

      .cls-5 {
        fill: #58442a;
      }

      .cls-6 {
        fill: #a55f39;
      }
    </style>
  </defs>
  <g id="Pot">
    <g>
      <path class="cls-6" d="M245.41,121.82s.01-.04.02-.06c0,0,0,0,0,0,0,.02-.01.04-.02.06Z"/>
      <polygon class="cls-6" points="245.4 121.83 245.41 121.82 245.4 121.83 245.4 121.83"/>
      <path class="cls-6" d="M267.73,65.96s-.09-.09-.13-.12c-.13-.11-.27-.19-.43-.26-.05-.03-.11-.05-.17-.07-.1-.04-.2-.06-.31-.08-.53-.09-1.09.03-1.47.4-.11.11-.21.25-.28.41-.02.03-.03.07-.04.11-.02-.02-.05-.04-.07-.05-.21-.16-.42-.29-.62-.38-.75-.36-1.4-.3-1.95.02-.15.09-.3.2-.44.33-.07.06-.13.12-.19.19-.05.06-.11.12-.16.18-.03.03-.05.06-.07.09-.17.23-.32.48-.46.75-.04.08-.08.16-.12.25-.04.07-.07.15-.1.22-.02.03-.03.06-.04.1,0,0,0,0,0,.01-.04.08-.07.16-.1.24-.05.12-.09.24-.12.36-.73-.03-1.47.06-2.15.23-.15.04-.3.08-.44.12-2.04.67-4.04,1.46-5.99,2.34,0,0-.01,0-.02,0-.84.38-1.68.77-2.51,1.19-.27.13-.54.27-.81.41,0,0-.01,0-.02.01-.38.19-.75.38-1.12.58-.57.3-1.13.6-1.69.91l-.77.41c-.21.11-.41.22-.62.32-.16.09-.31.17-.47.25-.24.12-.48.25-.72.36-.23.12-.47.23-.7.34-.19.09-.37.17-.56.25-.14.07-.29.13-.44.19-.07.03-.14.06-.22.09,0,0-.01,0-.02,0-.15.07-.3.12-.46.18-.14.05-.29.11-.43.16-.07.03-.14.05-.22.08-.19.07-.38.13-.57.19-.76.24-1.54.42-2.33.54-.2.03-.41.05-.62.07-2.68.25-5.25.94-7.82,1.64-.02,0-.03.01-.05.02l-1.68.46c-2.04.54-4.09,1.03-6.2,1.24-.23.03-.46.05-.69.08-7.75.92-15.55,1.11-23.37,1.12-.36,0-.73,0-1.09,0-1.71,0-3.43,0-5.14-.02-.86,0-1.71-.01-2.57-.02-.85,0-1.7-.01-2.55-.02h-.01s0,0,0,0c-.38,0-.77,0-1.15,0-1.73,0-3.46,0-5.19,0-.86-.03-1.71-.05-2.57-.07-.78-.02-1.55-.04-2.33-.05-.94-.02-1.88-.04-2.82-.05-.69-.01-1.38-.02-2.06-.03-.17,0-.34,0-.51,0h-.11c-2.08-.02-4.16-.04-6.24-.05-1.15,0-2.3-.02-3.45-.02h0c-2.78-.02-5.55-.05-8.32-.09-.58-.01-1.16-.02-1.74-.04-.67-.01-1.34-.03-2.01-.05-.67-.02-1.34-.04-2.01-.05-.67-.02-1.34-.04-2.02-.07-.88-.16-1.75-.27-2.63-.36-.85-.09-1.71-.14-2.56-.17-2.45-.09-4.91.02-7.37.22-.32,0-.64.03-.96.05-1.63.12-3.23.4-4.82.75-2.48.54-4.94,1.25-7.43,1.76-.3.04-.59.07-.89.09-.11-.09-.21-.17-.32-.24,0,0,0,0-.01,0-.11-.08-.22-.15-.34-.21-.12-.07-.24-.13-.36-.19s-.25-.12-.38-.17c-.23-.09-.46-.17-.71-.24-1.62-.46-3.52-.45-5.22-.44-.55,0-1.07,0-1.55,0h-1.81c-2.04,0-4.08,0-6.12,0-1.02,0-2.04.01-3.06.02-.47,0-.94.01-1.41.02-.47,0-.94.02-1.41.03-.94.02-1.88.05-2.82.08-4.28.13-8.56.25-12.84.29h0c-.05-.06-.1-.12-.15-.18-.05-.06-.11-.11-.16-.16-.11-.11-.23-.21-.35-.3-.14-.1-.28-.2-.42-.28-.16-.09-.32-.17-.48-.24-.16-.07-.31-.12-.47-.18-.11-.04-.22-.07-.34-.09-.14-.04-.29-.07-.44-.09-.14-.02-.28-.05-.43-.06-.13-.02-.26-.03-.39-.04-.09,0-.18-.01-.26-.02-.09,0-.18,0-.27,0-.54-.02-1.09,0-1.63.02-.62.02-1.25.04-1.85.01h-.21c-.45-.01-.89-.01-1.33-.01-.57,0-1.15,0-1.73,0h-1.66c-.48,0-.97,0-1.46,0-.43,0-.87,0-1.3,0-.18,0-.37,0-.56,0-.25,0-.49,0-.74,0-.29,0-.57,0-.86-.01h-.15c-.18,0-.37,0-.55,0l-1.03-.02c-1.3-.03-2.59-.07-3.89-.14h0c-.07-.14-.14-.27-.23-.39-.18-.26-.41-.5-.67-.71-.05-.04-.11-.08-.16-.12-.07-.05-.14-.09-.21-.14-.06-.04-.12-.07-.18-.11-.09-.05-.18-.1-.28-.15-.07-.04-.15-.07-.22-.11-.06-.03-.12-.05-.19-.08-.07-.03-.13-.05-.2-.08-.15-.05-.31-.11-.47-.16-.08-.03-.16-.05-.24-.07-.56-.16-1.17-.28-1.81-.37-.09-.02-.19-.03-.29-.04-.15-.02-.3-.04-.45-.05-.09,0-.18-.02-.27-.02-.17-.02-.34-.03-.52-.04-.07,0-.14-.01-.21-.02-.16,0-.31-.02-.46-.02-.14,0-.29-.01-.43-.02-.16,0-.33-.01-.5-.01-.12,0-.24,0-.36,0-.94-.01-1.88.01-2.8.05-2.51.11-4.81.32-6.12.28-.41-.17-.9-.38-1.46-.59h0c-.73-.29-1.58-.59-2.46-.87-1.91-.6-4.02-1.06-5.63-.88-.68.08-1.28.28-1.73.63-.4-.05-.8-.11-1.19-.16-1.47-.22-2.92-.49-4.36-.78,0-.02-.02-.04-.02-.07-.06-.15-.13-.3-.21-.43-.04-.07-.09-.14-.14-.21-.15-.21-.34-.4-.54-.57-.03-.03-.06-.05-.09-.07-.07-.06-.15-.12-.23-.18-.09-.06-.18-.12-.27-.18-.08-.05-.17-.1-.25-.14-.05-.03-.11-.06-.17-.09-.09-.04-.17-.08-.26-.11-.13-.05-.26-.1-.39-.14-.05-.02-.09-.03-.14-.04s-.1-.02-.15-.04c-.08-.02-.16-.04-.24-.05-1.04-.24-2.38.07-3.11.86-.38.4-.59.92-.52,1.56h-.01c1.06,6.62,3.79,12.93,4.72,19.61.93,5.11,1.29,10.27,1.98,15.41.88,5.29,1.98,10.55,3.06,15.8,3.18,12.13,8.85,23.35,14.02,34.72,2.29,4.81,3.36,10.16,6.24,14.69.68,1.71.71,3.7,1.18,5.5.99,5.2,2.96,10.14,4.48,15.2.98,3.12,1.95,6.24,2.95,9.35.81,2.55,1.82,5.19,4.05,6.82,2.32,1.61,5.25,1.74,7.92,2.37,3.09.64,6.18,1.32,9.17,2.35,3.37,1.36,6.79,2.59,10.25,3.73,3.46,1.36,6.92,2.85,10.67,3.18,6.47.29,11.98,1.04,18.28,1.59,2.67.05,5.36,0,8.02.21,1.64.19,3.23.56,4.82.98,1.43-.3,2.91-.35,4.39-.17,1.11.13,2.16.42,3.16.85,2.75-.57,5.48-1.11,8.26-1.49,3.12-.43,6.36-.57,9.51-.65,2.98-.07,5.98-.16,8.96-.03,1.32.06,2.64.14,3.96.24,3.27-.95,6.52-1.96,9.89-2.46,3.2-.39,6.05-.28,9.41-.36,7.11.11,14.19-.48,21.16-1.69,1.07-.87,2.18-1.7,3.3-2.48,3.3-2.3,6.77-4.34,10.07-6.64,1.1-.87,2.16-1.77,3.19-2.73.54-2.06,1.09-4.12,1.63-6.18.43-1.62.85-3.24,1.27-4.86.58-2.2,1.15-4.39,1.73-6.59.57-2.2,1.15-4.39,1.73-6.59,0,0,0-.02,0-.02.58-2.2,1.16-4.41,1.75-6.61.05-.2.1-.39.15-.58.54-2.01,1.07-4.02,1.61-6.02.59-2.2,1.18-4.4,1.78-6.6,1.79-6.59,3.61-13.18,5.48-19.75,1.64-5.77,3.3-11.55,5.04-17.29.02-.07.04-.13.06-.2.36-1.17.71-2.34,1.07-3.51.38-1.21.75-2.42,1.13-3.62,0-.02.02-.04.02-.06.72-2.3,1.45-4.59,2.21-6.87.18-.56.37-1.12.56-1.67,0-.02,0-.03.01-.04.19-.57.38-1.14.58-1.71.19-.56.38-1.11.58-1.67.09-.27.18-.54.28-.8.3-.88.62-1.76.93-2.63.2-.56.4-1.12.61-1.67.14-.37.27-.74.41-1.11.2-.54.4-1.09.61-1.62.3-.78.6-1.56.91-2.34.11-.28.21-.55.33-.82.07-.18.14-.36.21-.54.11-.29.22-.57.34-.85.15-.39.31-.77.47-1.15h0c.23-.56.46-1.12.7-1.67l.69-1.63c.05-.13.11-.26.17-.39.14-.34.29-.68.44-1.03h0c.03-.07.06-.14.09-.21.16-.36.31-.73.47-1.09.12-.27.24-.55.36-.82.1-.23.2-.46.3-.7,0-.03.02-.05.04-.08.07-.18.16-.37.24-.55.3-.68.59-1.37.9-2.05.02-.06.05-.12.08-.18.62-1.41,1.25-2.83,1.9-4.23,1.34-2.93,2.7-5.85,3.93-8.82.11-.27.22-.54.33-.81.2-.5.4-1,.59-1.5.02-.04.03-.09.05-.13.11-.27.21-.55.31-.82.04-.11.08-.21.12-.32,0-.01.01-.03.02-.04.06-.15.11-.31.17-.46.11-.29.21-.59.31-.88.25-.68.68-1.26,1.21-1.72-.04-.06-.08-.11-.13-.16ZM124.05,86.59h0c.81-.12,1.63-.23,2.45-.3,0,0,.02,0,.03,0-.05.03-.1.06-.15.1-.95.11-1.91.2-2.87.29,0,0,.02,0,.03,0l.5-.08Z"/>
    </g>
    <g>
      <path class="cls-4" d="M266.16,69.24s-.02.06-.03.09c.01-.03.02-.06.03-.09,0,0,0,0,0,0Z"/>
      <path class="cls-4" d="M266.13,69.32s.03-.08.05-.13c0,0,0,0,0,0-.01.04-.03.09-.04.13Z"/>
      <path class="cls-4" d="M266.15,69.23s.01-.03.02-.04c0,0,0,0,0,0-.03-.08-.07-.16-.12-.24,0,0,0,0,0,0-.02-.04-.04-.08-.06-.12-.84-1.38-2.74-1.31-4.18-1.2-.33.03-.66.07-.98.12-.12.02-.25.04-.38.07-.12.02-.25.05-.37.07-.25.05-.5.11-.74.18-.12.03-.24.07-.36.1-.24.07-.48.14-.72.22s-.47.16-.71.25c-.23.09-.46.18-.7.28-.08.03-.16.07-.24.1-.5.21-.99.44-1.48.68-.19.09-.38.18-.56.28,0,0-.01,0-.02,0-.3.12-.6.25-.9.38-.2.09-.4.17-.6.26-.15.07-.3.14-.46.21-.26.12-.51.23-.77.36-.3.14-.61.29-.91.43-.14.07-.28.13-.41.2-.23.11-.46.23-.7.34-.53.27-1.06.54-1.59.81-.3.15-.59.31-.89.46,0,0,0,0,0,0s0,0,0,0c-.05.02-.11.04-.16.05-.21.07-.43.14-.64.21-.2.08-.39.16-.59.23-.14.05-.28.11-.42.15-.55.19-1.1.35-1.66.5-.11.03-.21.06-.32.08-1.09.27-2.18.48-3.29.67-.61.11-1.21.21-1.82.31-.2.04-.41.07-.61.11-.12.02-.24.04-.36.07-.36.07-.73.13-1.09.21-.21.04-.43.09-.64.14-1.25.27-2.5.61-3.76,1.09-.17.05-.34.1-.5.14-.16.04-.32.09-.48.12-.11.03-.22.06-.33.08-.13.04-.26.06-.39.09-.19.04-.39.09-.58.12-.27.06-.53.11-.79.16-.12.02-.25.05-.38.07-.51.09-1.01.16-1.52.23-.15.02-.3.04-.45.05-.16.02-.33.04-.49.05-.33.04-.66.07-.98.09-.16.02-.32.03-.49.04-.38.03-.76.05-1.14.07-.28.02-.55.03-.83.04-1.64.07-3.29.09-4.95.12-.32,0-.64.02-.96.02-.18,0-.36,0-.54.01-.41.01-.83.02-1.25.04-.33.01-.66.03-1,.04-.26.01-.53.03-.79.04-.22.01-.45.03-.67.04-.45.03-.89.07-1.34.11-.5.09-1,.18-1.5.27l-.43.07c-.46.08-.93.15-1.39.22-.55.09-1.11.17-1.67.25s-1.11.16-1.67.23c-.55.07-1.11.14-1.67.21-.98.12-1.95.24-2.93.35-1.32.15-2.63.3-3.95.45-.78.09-1.56.17-2.35.26-.28.03-.55.06-.84.09-.56.06-1.12.13-1.68.2-.56.07-1.12.13-1.68.2-.52.06-1.03.13-1.54.2-.33.04-.65.09-.98.13-.46.06-.93.13-1.39.2h-.01s0,0,0,0c-.36.05-.73.11-1.09.16-4.7.74-9.7.32-14.43-.25-.37-.05-.74-.09-1.11-.13h-.01s-.07,0-.1-.01c-.19-.02-.38-.04-.58-.05-.14-.02-.29-.03-.43-.04-.02,0-.03,0-.05,0-.49-.04-.98-.07-1.47-.09l-.62-.02c-.14,0-.29,0-.43-.01h-.02s-.09,0-.14,0c-.33,0-.67-.01-1-.01-.46,0-.91,0-1.37.02-.38,0-.75.02-1.12.03-.41.01-.82.03-1.23.05-.39.02-.79.04-1.18.06-.02,0-.04,0-.05,0h0c-.95.05-1.9.12-2.85.19-4.98.39-9.91,1.36-14.91,1.32-3.01.14-6.23.02-9.22.46-.23.09-.53.2-.56.48-2.12-.06-4.24-.05-6.38-.03-4.93.04-9.88.07-14.73-.83-1.62-.3-3.23-.67-4.84-1.06-.55-.13-1.1-.27-1.65-.4-.46-.11-.92-.22-1.38-.33-1.6-.38-3.21-.72-4.82-.97-.25-.04-.5-.07-.75-.11-.04,0-.07-.01-.11-.02-.44-.06-.88-.11-1.32-.15-.11-.01-.22-.02-.33-.03-.31-.03-.62-.05-.93-.06-.1,0-.21-.01-.31-.02-.13,0-.26-.01-.39-.01-.23,0-.45,0-.68,0-4.52-.02-8.96,1-13.45,1.4-.29.03-.59.06-.88.08-.25.03-.5.05-.75.07-.33.03-.66.05-1,.07-1.31.09-2.61.14-3.92.16-.72.01-1.44.05-2.02-.43-.2-.14-.4-.29-.61-.43h0s0,0,0,0c-.19-.13-.38-.25-.58-.36-.07-.04-.14-.08-.21-.11s-.14-.07-.22-.11c-.07-.03-.14-.06-.22-.09-.07-.03-.14-.06-.22-.09-.55-.2-1.12-.3-1.7-.25-.11.01-.21.03-.32.05-.07.02-.15.04-.21.06s-.13.04-.2.07c-.05.02-.11.04-.15.06-.15.06-.29.14-.4.22-.04.03-.08.05-.12.09,0,0-.02.01-.03.02-.05.04-.09.08-.13.12-.04.05-.09.09-.12.14h0c-.04.05-.07.1-.09.15h0c-.61,1.09.31,2.69,1.62,3.44,6.96,4.2,15.61,3.4,23.43,3.66,8.84-.05,17.67.05,26.51-.18,1.95-.05,3.91-.12,5.86-.2,5.34,0,10.67-.11,16.01-.07.93.02,1.86.06,2.79.12-5.01.03-10.03.13-15.04.34-3.6.48-18.33-.05-17.91,5-3.85-.13-7.68-.6-11.53-.64-.85-.11-1.37.74-.86,1.45.32.48.93.87,1.44,1.13,2.08,1.02,4.43,1.73,6.57,2.43-2.35-1.25-5.41-1.82-7.12-3.96,0-.03.01-.06.02-.09,0,0,0,0,.01-.01,4.25.47,8.44,1.32,12.69,1.78,1.89,1.42,4.43,1.3,6.69,1.32,1.97-.02,4.07-.04,6.51-.15-.33.46-.48,1.05-.31,1.72,1.43,4.13,7.98,2.26,11.39,2.6-.88,1.95,1.13,3.87,3,4.11,3.21.28,6.36.03,9.62,0-1.42,1.2-.38,3.33,1.04,4.05.3.18.62.33.94.45-4.74,3.44-10.73,9.4-4.8,13.31-1.19,1.5-3.68,3.62-1.76,5.46-.81.7-1,2.02-.41,2.92-1.89,3.99-2.88,8.34-4,12.59-1.45,6.66-6.11,20.05-1.45,25.74-.71,2.31,1.48,4.13,3.64,4.23,3.01.22,5.4-2.2,7.9-3.56.59.04,1.14-.04,1.67-.2,1.03.19,2.13.23,3.28.16-.12,1.25.06,2.49.98,3.42-1.45,3.47-5.54,9.69-3.41,13.25-1.66,3.32-3.64,6.53-4.48,10.18-2.87,2.29-5.72,4.62-8.3,7.24-1,1.12-2.28,2.29-2.68,3.77-1.42,1.48-3.23,3.15-4.39,4.95-.58.97-.14,2.09.58,2.85-2.28,1.53-3.75,4.44-.71,6.07-.29,1.34.73,2.57,1.84,3.21.66,1.16,1.6,2.1,2.68,2.85,2.22-.45,4.44-.86,6.69-1.17,3.12-.43,6.36-.57,9.51-.65,2.98-.07,5.98-.16,8.96-.03,1.8.08,3.59.2,5.39.35,1.26.11,2.5.26,3.72.59,1.12.31,2.18.82,3.12,1.51,4.35-.62,8.71-1.34,13.12-2.09,3.16-.81,11.53-1.77,17.69-3.45,1.49-1.3,3.07-2.52,4.7-3.65,3.3-2.3,6.77-4.34,10.07-6.64,1.11-.87,2.16-1.78,3.19-2.73.55-2.06,1.09-4.12,1.63-6.18,1.65-6.28,3.3-12.57,4.96-18.85.41-1.56.83-3.12,1.25-4.68,1.38-5.2,2.78-10.4,4.19-15.59,1.68-6.18,3.38-12.35,5.13-18.51,1.71-6,3.44-11.99,5.25-17.96.54-1.76,1.08-3.52,1.63-5.28.14-.46.28-.92.43-1.38,0,0,0,0,0,0,0,0,0,0,0,0,0-.01,0-.02.01-.03h0s0,.02,0,.03c0,0,0-.02,0-.03,0,.01,0,.02,0,.04,2.1-6.72,4.33-13.4,6.84-19.97.19-.5.38-1,.58-1.49.05-.13.1-.26.15-.38.23-.59.46-1.18.7-1.77.12-.3.24-.59.36-.89.34-.84.68-1.67,1.03-2.51.03-.07.06-.15.09-.22.2-.48.4-.95.61-1.43.31-.72.61-1.44.92-2.16.73-1.71,1.47-3.43,2.23-5.13,0,0,0,0,0,0,0,0,0,0,0-.01.62-1.41,1.26-2.83,1.9-4.23,1.17-2.56,2.36-5.12,3.46-7.71.16-.37.32-.74.47-1.11.11-.27.23-.54.33-.81.21-.5.4-1,.59-1.5.02-.04.03-.09.05-.13.15-.38.29-.75.43-1.13h0ZM91.74,85.64c-2.18-.02-4.38-.04-6.56-.16-.34-.02-.69-.03-1.03-.04,2.8-.46,5.62-.81,8.42-.81,2.57,0,5.14.29,7.67,1.06-2.84-.01-5.66-.02-8.5-.04ZM143.03,224.72c-.17.17-.34.34-.51.51-.86-.06-1.71-.18-2.54-.39.6-.16,1.2-.31,1.81-.44.67-.14,1.34-.31,2.02-.46-.26.26-.52.52-.77.78ZM199.09,112.88s0,0,0,0c2.78-.37,5.56-.78,8.43-1.28-1.1.29-2.2.58-3.31.86-1.72.15-3.45.32-5.17.48.01-.02.03-.04.05-.06ZM179.63,122.3c-.28.13-.55.26-.83.38-.03-.08-.07-.15-.1-.22.31-.05.62-.1.93-.16ZM172.47,125.45c-.32-.4-.65-.78-1.01-1.14.4-.23.81-.45,1.21-.68.2.6,0,1.25-.2,1.82ZM168.25,127.48c-.9.26-1.83.46-2.75.67.22-.3.44-.59.65-.9.47-.25.94-.51,1.41-.77.35.28.67.6.96.94-.09.02-.18.05-.27.07ZM214.51,103.96c.13-.04.26-.08.38-.12,3.2-.98,6.51-1.42,9.83-1.71-3.4.63-6.82,1.21-10.22,1.83ZM174.67,162.85c-.58.6-1.16,1.26-1.75,1.92.3-.51.59-1.01.89-1.52.29-.15.58-.29.85-.4ZM171.67,166.9c-.01.15-.02.3,0,.44-.13.07-.25.16-.39.22.13-.22.26-.44.39-.66ZM236.3,99.56c-2.89.79-5.83,1.45-8.77,2.03-1.8-.1-3.63-.15-5.43-.16,5.21-.85,10.42-1.75,15.62-2.7,0,0,.01,0,.02,0-.48.26-.95.54-1.42.83,0,0-.01,0-.02,0ZM246.62,84.1c-.53.02-1.07.04-1.6.05.61-.35,1.21-.72,1.81-1.1.9-.57,1.79-1.13,2.64-1.77-.95.94-1.9,1.88-2.86,2.81ZM207.24,98.44c.69-.2,1.2-.48,1.58-.8,1.7-.2,3.4-.39,5.1-.58-2.22.51-4.44,1.01-6.68,1.38ZM148.91,118.61c1.2-1.75,2.82-3.18,4.52-4.43.14.14.29.27.45.39-1.57,1.39-3.26,2.84-4.97,4.04ZM213.01,154.77c-.48.67-.99,1.31-1.49,1.97-.58-.08-1.18-.02-1.75.17.92-.92,1.95-1.71,3.24-2.13ZM197.58,87.06c4.57-.31,9.11-.99,13.64-1.62-.13.44-.04.94.35,1.35-5.09.21-10.18.47-15.27.76-.26-.09-.52-.16-.78-.19-.42-.04-.84-.07-1.27-.1.09,0,.19-.02.28-.03,1.02-.08,2.03-.14,3.05-.17ZM145.38,142.09c.79-2.71,1.49-5.46,2.71-8.02.14.03.28.06.41.08.23.37.48.7.8,1.03.13.73.32,1.44.55,2.12.34,1,.75,1.98,1.27,2.89-1.69,1.6-4.18,3.08-4.44,5.59-.81-.02-1.61.11-2.38.4.36-1.36.69-2.73,1.07-4.09ZM154.82,225.08c.65-.55,1.29-1.11,1.93-1.68,3.05,0,6.1-.02,9.15-.02,1.41,0,2.83,0,4.25,0-5.1.68-10.2,1.39-15.33,1.7ZM187.47,207.41c-1.6.43-3.2.87-4.8,1.3-1.1.3-2.21.53-3.32.76.43-.2.86-.4,1.29-.6,2.03-.94,4.01-2.02,6.02-3.01,1.25-.61,2.5-1.23,3.75-1.83-.97,1.13-1.95,2.26-2.93,3.38ZM204.28,170.47c3.03-2.5,5.96-5.11,9.05-7.52.42.04.83.03,1.2-.07.04-.01.08-.03.12-.04-2.9,3.23-6.41,4.68-10.37,7.64Z"/>
      <path class="cls-4" d="M270.54,27.44c-.33-2.61-1.88-4.82-3.74-6.6-1.79-1.7-3.91-3.06-6.09-4.2-4.46-2.32-9.23-3.95-14.06-5.32-2.3-.65-4.63-1.23-6.97-1.75-.33-.07-.66-.16-1-.23-.11-.03-.22-.05-.34-.07-.5-.13-1.02-.21-1.53-.32l-.22-.05-1.57-.32c-1.16-.23-2.33-.45-3.5-.66-2.43-.43-4.86-.83-7.29-1.19-1.12-.16-2.23-.32-3.35-.47,0,0-.02,0-.02,0-3.35-.45-6.71-.84-10.07-1.19-.71-.07-1.93-.23-3.15-.32-.08,0-.16-.02-.24-.02h0c-.89,0-1.79.16-2.46.79-.2.18-.35.39-.47.62-5.13-.5-10.27-.86-15.42-1.11-10.51-.52-21.05-.71-31.57-.6-3.05.03-6.16.08-9.28.16-5.36.14-10.73.3-16.09.46-5.18.16-10.37.34-15.54.66-5.32.34-10.63.85-15.93,1.42-.59.06-1.17.13-1.76.2-1.95.21-3.9.45-5.85.67-2.61.3-5.21.59-7.82.93-1.45.18-3.27.42-5.08.67-5.34.74-10.66,1.63-15.95,2.67-4.86.95-9.71,1.96-14.51,3.21-4.66,1.21-9.27,2.64-13.78,4.32-2.39.89-4.76,1.88-7.07,2.97-1.09.52-2.18,1.07-3.23,1.67-.03.02-.05.03-.09.05-.14.07-.29.15-.42.24-.17.09-.34.19-.51.29-.9.52-1.8,1.07-2.65,1.68-1.85,1.32-3.64,2.8-4.99,4.65-.87,1.19-1.52,2.52-1.81,3.96-.18.87-.27,1.83-.12,2.71.38,2.31,1.71,4.3,3.34,5.94.38.38.77.75,1.18,1.09,1.61,1.38,3.43,2.54,5.29,3.51,2.24,1.18,4.58,2.19,6.96,3.05,5.01,1.8,10.14,3.17,15.34,4.3l.43.09c.85.18,1.7.36,2.55.53,10.27,2.03,20.68,3.32,31.11,4.2,4.11.35,8.22.63,12.33.86,1.17.07,2.35.13,3.52.18.02,0,.04,0,.05,0,4.05.19,8.11.34,12.17.43,1.22.03,2.44.05,3.66.07,1.88.03,3.76.05,5.64.06h.01c1.08,0,2.16.01,3.24.01,6.21,0,12.44-.11,18.65-.31,1.31-.04,2.63-.09,3.94-.14,6.94-.27,13.87-.66,20.8-1.18,3.02-.23,6.04-.48,9.05-.76,10.34-.96,20.66-2.2,30.93-3.82,10.16-1.61,20.24-3.63,30.19-6.24,4.7-1.23,9.35-2.67,13.91-4.36,4.25-1.57,8.48-3.38,12.36-5.75.23-.14.45-.28.68-.42,1.97-1.26,3.9-2.71,5.44-4.49.07-.08.14-.16.21-.25.75-.91,1.41-1.91,1.88-2.99.25-.57.44-1.16.56-1.76.17-.79.21-1.62.1-2.46Z"/>
    </g>
    <path class="cls-5" d="M236.47,34.6c-6.64-4.92-13.92-9.21-22.12-10.85-10.24-2.54-20.82-2.98-31.29-3.96-31.18-2.79-62.57-2.68-93.79-.59-11.8.8-23.54,1.65-35.21,3.79-7.82,1.1-19.01,7.24-12.22,16.11,9.94,12.12,30.6,12.85,45.15,15.2,17.07,2.75,34.12,5.82,51.51,5.47,14.45.49,28.89-1.16,42.77-5.22,10.2-.93,20.44-1.35,30.63-2.34,8.01-.8,16.1-1.9,23.56-5.08,8.27-2.97,7.28-7.98,1-12.54ZM203.05,47.89c1.96-.59,3.88-1.26,5.75-2.12,2.51-1.28,10.38-4.69,13.16-8.39-.02.03-.04.05-.06.08-2.83,3.67-10.61,7.03-13.1,8.3-1.86.86-3.79,1.53-5.75,2.12ZM124.47,49.62c-.52.08-.99.49-1.05,1.01-2.89-.61-5.78-1.26-8.67-1.89.12.03.25.05.37.08,1.11-.07,2.22-.13,3.33-.25,2.6-.28,5.2-.5,7.8-.76,2.59-.27,5.18-.61,7.77-.91,1.81-.21,3.61-.42,5.41-.64-.91.28-1.83.56-2.74.84-1.66.37-3.32.74-4.98,1.1-2.4.52-4.81,1.05-7.23,1.42ZM134.03,52.47c-.81-.1-1.61-.21-2.41-.33.8.12,1.61.23,2.41.33ZM130.37,51.94c-.8-.13-1.61-.27-2.41-.42.8.15,1.61.29,2.41.42ZM126.89,51.33c-1.13-.22-2.26-.45-3.39-.68,1.13.24,2.26.47,3.39.68ZM145.61,30.41h0c.06-.03.11-.07.16-.1-.05.03-.11.07-.16.1ZM146.71,29.44c.43-.35.89-.66,1.36-.92-.47.25-.92.57-1.36.92ZM148.11,28.64c.17-.13.35-.27.52-.4,0,0,0,0,0,0-.18.13-.35.27-.52.4ZM222.49,36.55c-.04.07-.07.14-.11.21.09-.16.17-.31.24-.47,0,0,0,.01,0,.02-.04.08-.08.16-.12.24ZM222.09,37.21s0,.01-.01.02c.1-.14.2-.29.28-.43-.04.07-.08.13-.13.2-.05.07-.09.15-.14.22ZM222.68,36.16c.08-.21.15-.41.19-.62,0,0,0,.02,0,.03-.04.17-.09.34-.15.51-.01.03-.02.06-.03.08ZM222.94,34.93c0,.05,0,.1,0,.15,0,0,0,.01,0,.02,0-.06,0-.12,0-.19,0,0,0,0,0,.01ZM222.89,34.35s0,.03,0,.05c-.1-.53-.34-1.05-.78-1.56-1.55-1.65-3.92-1.71-6.09-1.69.03,0,.05,0,.07,0,2.15-.02,4.48.06,6.02,1.69.43.5.67,1,.77,1.51ZM219.48,35.3s-.09.07-.14.11c0,0,0,0,0,0,.04-.04.09-.07.13-.11ZM216.31,37.13s.03-.01.04-.02c-.16.07-.32.14-.48.21.03-.01.05-.02.07-.03.12-.05.25-.11.37-.16ZM216.71,36.95c.11-.05.22-.1.33-.15,0,0,.02,0,.02-.01-.15.07-.3.14-.45.21.04-.02.07-.03.1-.05ZM217.68,36.48c.08-.04.15-.08.23-.13.02-.01.05-.03.07-.04-.22.12-.46.25-.7.37.14-.07.27-.13.4-.2ZM218.3,36.13c.09-.05.17-.1.25-.15,0,0,.01,0,.02-.01-.09.06-.18.11-.28.17,0,0,0,0,.01,0ZM215.03,31.15s0,0,0,0c.15,0,.3,0,.45,0-.15,0-.31,0-.46,0,0,0,0,0,0,0ZM218.86,35.77c.08-.05.15-.11.22-.16,0,0,0,0,0,0-.08.06-.15.11-.23.17,0,0,0,0,0,0ZM199.68,26.21c1.23-.2,2.46-.4,3.69-.6-.82.51-1.65,1.01-2.5,1.46-.94.5-1.9.98-2.85,1.44-.3-.14-.63-.23-.97-.26-.69-.06-1.38-.11-2.07.03-.13.03-.27.06-.4.09-.41-.21-.86-.34-1.3-.43-.32-.07-.65-.13-.98-.17.09-.02.18-.05.26-.07,1.13-.29,2.29-.49,3.43-.73,1.23-.26,2.45-.56,3.7-.76ZM201.33,24.89c.09.01.18.02.27.03-.09-.01-.18-.02-.27-.03ZM184.04,31.9c-2.32.84-4.64,1.74-6.98,2.51-2.81.92-5.62,1.84-8.43,2.75-.56.09-1.13.17-1.69.26-.55.07-1.11.13-1.66.2.47-.14.95-.27,1.42-.41,1.9-.55,3.77-1.22,5.65-1.84,1.5-.49,3-1,4.5-1.52,2.5-.86,4.98-1.79,7.52-2.52.82-.22,1.65-.38,2.49-.51.06,0,.12,0,.18-.01-1,.37-2,.74-3,1.1ZM172.05,33.08c1.6-.42,3.19-.84,4.78-1.27.47-.1.94-.21,1.4-.31.53-.12,1.06-.22,1.59-.33-.14.04-.29.07-.43.11-1.8.47-3.61.95-5.41,1.43-2.72.73-5.46,1.4-8.19,2.11-1.02.26-2.05.5-3.08.74.52-.16,1.04-.31,1.56-.47,2.6-.66,5.19-1.34,7.78-2.01ZM189.24,29.99s-.08,0-.12-.01c.06,0,.12,0,.18,0-.02,0-.04.01-.06.02ZM173.62,22.27c2.45.56,4.91,1.35,7.25,2.12.23.08.46.15.69.23h0c-2.54-.84-5.24-1.73-7.93-2.35,0,0,0,0,0,0ZM129.61,41.78c.4-.1.8-.2,1.21-.3.42.2.87.35,1.32.46-1.46.17-2.91.34-4.37.5.62-.22,1.23-.44,1.85-.66ZM208.32,40.08c1.1-.49,4.51-1.48,7.41-2.7,0,0,0,0,0,0-2.9,1.22-6.32,2.21-7.42,2.7-1.2.44-2.4.85-3.62,1.23,1.21-.38,2.42-.79,3.62-1.23ZM211.69,26.61s-.05-.01-.07-.02c.02,0,.05,0,.07.01,0,0,0,0,0,0ZM193.32,24.02c-1.39.25-2.78.52-4.16.83-2.3.51-4.6,1.05-6.89,1.58,1.53-.55,3.06-1.11,4.59-1.66.98-.35,1.95-.72,2.92-1.1,1.18.12,2.36.24,3.55.36ZM173.1,22.11s-.06,0-.09,0c-.04,0-.08,0-.13-.01,0,0,0,0,0,0,.07,0,.14.01.22.02ZM166.68,21.9c.62.06,1.23.12,1.85.19-.54.18-1.08.36-1.62.54-.19.06-.38.13-.57.19.14-.3.26-.6.33-.92ZM153.46,23.42c.78-.21,1.56-.43,2.34-.64,1.06-.29,2.15-.51,3.24-.69-.37.27-.75.53-1.13.79-1.8,1.17-3.75,2.08-5.7,2.98-4.93,2.2-10.08,3.93-15.15,5.78-.42.15-.85.27-1.28.39-1.12.34-2.25.68-3.38,1.02-1.69.51-3.37,1.03-5.06,1.54-1.21.28-2.41.57-3.61.86.55-.19,1.1-.39,1.66-.58,2.13-.74,4.27-1.48,6.34-2.39,1.5-.66,3.01-1.3,4.38-2.21.69-.45,1.38-.92,1.89-1.55.42-.17.83-.35,1.25-.52.62-.26,1.24-.52,1.88-.75,2.56-.92,5.13-1.86,7.7-2.77,1.54-.43,3.09-.84,4.64-1.26ZM122.65,22.49c.39-.19.78-.38,1.17-.57,1.81-.25,3.63-.47,5.46-.59,4.97-.32,9.98-.49,14.98-.51-1.4.39-2.81.77-4.21,1.17-1.96.55-3.89,1.17-5.83,1.77-.27,0-.54,0-.8,0,.07,0,.14,0,.21,0-.11,0-.21,0-.32,0,.04,0,.07,0,.11,0-.04,0-.07,0-.11,0-2.4.04-4.8.28-7.18.45-.7.05-1.39.15-2.08.22l-3.62.39c-.93.1-1.85.26-2.77.4-.32.05-.64.1-.96.15,2-.93,3.97-1.93,5.96-2.89ZM117.31,28.64c1.23-.25,2.46-.52,3.69-.76.22-.03.43-.06.65-.08-1.12.37-2.24.74-3.36,1.12-2.39.79-4.78,1.6-7.16,2.41-2.35.8-4.72,1.54-7.09,2.31-2.07.68-4.17,1.29-6.24,1.96-2.76.9-5.58,1.72-8.22,2.94-1.24.57-1.45,2.11-.78,3.18.09.14.18.27.29.39-1.83.27-3.66.54-5.49.81-.31-.07-.63-.13-.94-.2-1.27-.39-2.62-.71-3.97-1.06,1.1-.65,2.22-1.27,3.34-1.89.77-.43,1.54-.86,2.31-1.29.48-.15.97-.28,1.44-.45,2.94-1.06,5.88-2.13,8.81-3.2.84-.3,1.71-.57,2.54-.92.63-.27,1.26-.53,1.89-.79.3-.07.59-.15.89-.22,2.48-.61,4.94-1.25,7.41-1.88,2.36-.6,4.73-1.18,7.1-1.77.95-.24,1.93-.41,2.89-.61ZM106.81,47.17c-.59-.1-1.17-.2-1.76-.29-1.26-.19-2.52-.4-3.78-.6,1.26.2,2.52.41,3.79.6.45.07.91.14,1.36.22.02,0,.04,0,.06-.01,0,0,0,.02.01.02.11.02.22.04.33.06ZM86.19,31.24s.07-.02.1-.04c4.31-1.57,8.7-2.91,13.15-4.02-4.45,1.1-8.84,2.45-13.15,4.02-.03.01-.07.02-.1.04ZM121.16,53.87c-8.47-.65-16.89-1.87-25.3-3.05-10.39-1.56-20.95-2.03-31.2-4.43-4.44-1.15-8.99-2.28-12.92-4.76-3.47-2.38-8.38-6.61-3.83-10.52,3.98-3.66,9.67-4.29,14.75-5.38,3.43-.67,6.45-1.14,10-1.63,12.71-1.53,25.59-2.45,38.39-3.07-11.34,2.12-22.51,4.97-33.21,9.35-12.93,4.63-15.47,9.57-.62,14.03,9.92,2.78,20.17,4.17,30.33,5.81,6.35.99,12.13,2.67,18.51,3.92-1.64-.06-3.27-.14-4.91-.26ZM71.07,38.18s.06.04.08.07c-.03-.02-.06-.04-.08-.07.83-1.1,2.08-1.75,3.32-2.35-1.23.61-2.48,1.26-3.31,2.35ZM135.15,52.61c.46.05.92.08,1.38.13,0,0,0,0,0,.01-.46-.04-.92-.09-1.37-.14ZM141.51,53.07h0s.1,0,.15,0c.14,0,.29,0,.43,0-.14,0-.29,0-.43,0-.05,0-.1,0-.15,0ZM175.99,49.94c-4.33,1.13-8.7,2.17-13.12,2.9-.57.03-1.15.05-1.72.08.95-.12,1.92-.21,2.85-.4,1.12-.23,2.23-.46,3.35-.69.89-.19,1.79-.34,2.67-.56,2.16-.55,4.32-1.11,6.48-1.67,1.97-.51,3.92-1.14,5.88-1.71.19-.06.38-.11.57-.17,2.14-.71,4.27-1.41,6.43-2.07-4.48,1.37-8.89,2.95-13.37,4.3ZM190.81,45.21c.45-.13.91-.26,1.36-.39-.57.16-1.13.32-1.7.49.11-.03.23-.07.34-.1ZM197.14,49.51s0,0,.01,0c.1-.01.2-.02.3-.03-.1.01-.21.02-.31.03ZM194.68,44.15c-.69.17-1.37.35-2.05.54.11-.03.22-.06.33-.09,1.8-.57,3.59-1.14,5.39-1.71,1.89-.6,3.78-1.21,5.66-1.84-1.06.47-2.13.94-3.19,1.41-2.04.58-4.09,1.13-6.14,1.68ZM209.68,48.32c2.02-.7,3.99-1.51,5.98-2.29.37-.15.75-.29,1.12-.44,1.28-.16,2.57-.3,3.85-.46,1.35-.16,2.71-.37,4.07-.47,1.92-.14,3.85-.29,5.77-.43.54-.04,1.08-.04,1.62-.05-7.21,2.45-14.8,3.41-22.4,4.13ZM236.21,39.37c-2.12.09-4.23.21-6.34.34-.74.05-1.47.11-2.21.17.39-.29.77-.58,1.13-.9,1.13-.99,2.27-2.09,3.06-3.38,0,0,0,0,0,0,1.69,1.1,3.46,2.2,4.64,3.77-.09,0-.18,0-.27.01ZM237.26,40.68s0,0,0,0l.04.02s0,0,0,0c0,0-.03-.02-.04-.02Z"/>
    <g>
      <path class="cls-1" d="M209.25,46.83s.02,0,.02,0c0,0,0,0,0,0,0,0-.01,0-.02,0Z"/>
      <path class="cls-1" d="M217.21,26.65c-11.71-5.29-24.77-6.22-37.42-7.33-31.28-1.96-62.63.2-93.84,2.75-7.99.64-16.01,1.18-23.91,2.57-4.12.97-11.47,1.26-13.27,5.77-.31.22-.6.45-.85.69-4.51,3.87.27,8.06,3.73,10.46,1.31-.27,2.61-.54,3.92-.82,1.95,1.18,4.16,2.27,6.42,3.26-1.02.27-2.05.53-3.07.8,1.89.6,3.83,1.09,5.74,1.58,1.94.45,3.89.84,5.85,1.17.08-.02.16-.05.24-.07-.08.02-.16.05-.24.07h0c.11-.03.21-.06.32-.09,2.47.89,4.62,1.64,6.09,2.23,16.01,5.31,32.69,8.82,49.63,8.32,16.47-.08,32.55-4.48,48.55-7.93,7.2-1.5,14.28-3.6,21.55-4.7,2.04-.53,4.98-.33,6.07-2.46,3.16-.65,10.22-1.04,15.63-2.34-2.63,1.8-5.82,3.36-7.95,4.39.25-.08.51-.15.77-.22,2.59-.74,5.2-1.31,7.86-1.72.49-.07.99-.13,1.48-.16-.05.05-.1.1-.15.15.05-.04.09-.09.14-.13-.12.11-.24.2-.37.29-.64.4-1.33.7-2.01,1.04-.78.39-1.54.8-2.33,1.17-1.37.62-2.76,1.19-4.13,1.8-.87.39-1.75.78-2.62,1.18,3.25-.3,6.5-.64,9.72-1.12.22-.13.44-.26.66-.39,1.13-.7,2.4-1.23,3.38-2.15.39-.36.68-.78.83-1.29.13-.44,0-.95-.02-1.39-.04-.68-.77-1.11-1.36-1.23-.7-.14-1.37-.32-2.08-.35-.44-.02-.87,0-1.31,0,3.04-.78,5.48-1.87,6.27-3.49,1.75-4.95-4.12-8.47-7.91-10.32ZM211.27,29.53c.3.12.61.23.9.36-1.07.32-2.14.65-3.2.97-.26.08-.51.15-.77.23,1.03-.51,2.05-1.03,3.07-1.55ZM165.28,23.43c5.29.14,10.87.39,16.38.81-.15.08-.29.17-.44.26.12.04.23.08.35.12-.13-.03-.25-.07-.38-.1-.69.39-1.4.75-2.1,1.12-2.34-.78-4.81-1.18-7.25-1.47-2.45-.22-4.89-.39-7.34-.51.26-.08.53-.15.79-.23ZM146.02,29.03c.61-.19,1.22-.39,1.83-.58.04-.01.07-.02.11-.03-.02,0-.05.01-.07.02.02,0,.03-.01.05-.02l-.19.05c-.08.02-.16.04-.24.07,3.39-.96,6.77-1.95,10.14-2.95.97-.27,1.93-.54,2.9-.81,5.82-.18,11.63-.14,17.33,1.04.19.04.37.11.56.15-1.39.72-2.79,1.43-4.19,2.11-1.33.58-2.64,1.21-3.96,1.81-1.03.47-2.06.94-3.09,1.41-7.63-.66-15.4-.87-23.15-.93.6-.42,1.21-.84,1.82-1.26.05-.03.1-.06.15-.09ZM145.75,23.32s-.08.02-.12.03c-1.76.02-3.52.04-5.29.06,1.5-.03,3.32-.07,5.4-.09ZM116.62,25.79c.59,0,1.17.01,1.76.01-.06.02-.12.03-.17.05.05-.02.1-.03.16-.04-1.02.29-2.04.58-3.06.87.43-.32.87-.62,1.32-.89ZM128.11,25.82c3.23-.02,6.47-.07,9.7-.15-.96.29-1.91.58-2.86.88-4,1.27-7.96,2.6-11.96,3.87-.03,0-.05.02-.08.03-3.51.06-7.02.16-10.52.33,5.27-1.57,10.51-3.22,15.72-4.96ZM79.92,41.08c-.38.2-.77.4-1.16.6.32.08.64.16.96.25-.09.7-.03,1.44.27,2.21-2.65-.61-9.72-2.84-14.07-5.79.39-.1.78-.19,1.17-.3-.2-2.56,3.75-5.16,10.75-7.67,2.61-1.07,5.25-2.04,7.91-2.94,6.35-.51,12.71-.92,19.02-1.52-1,.24-1.99.47-2.99.7-4.45,1-8.83,2.28-13.14,3.76-.29.28-.54.61-.72.97-3.05,1.17-6.18,2.13-9.31,3.05-2.71.71-5.68,1.6-7.56,3.8.95.86,2.04,1.51,3.22,2.03,2.72-.74,5.43-1.56,8.11-2.45-1.11.94-2.06,2.05-2.48,3.32ZM112.04,43.53c-2.14,1.15-4.28,2.29-6.42,3.44.04,0,.07.01.11.02-2.57-.05-5.15-.13-7.71-.27-3.93-.23-8.03-.57-11.3-3.01-.03-.09-.03-.19-.03-.28,3.48-1.73,6.9-3.59,10.27-5.52,3.41-.68,6.87-1.06,10.33-1.35,0,.03-.02.05-.02.08-.07.61.19,1.21.57,1.68.88,1.07,2.36,1.51,3.69,1.25,0,0,0,0,0,.01.15-.04.31-.07.46-.11-2.34.89-4.69,1.77-7.03,2.66-1.24.47-2.47.93-3.71,1.4-.41.16-.82.33-1.23.46-1.43.45-2.86.9-4.3,1.36,2.29.41,4.59.8,6.89,1.16.45-.18.9-.34,1.34-.52,2.86-1.12,5.71-2.23,8.56-3.35,1.28-.5,2.59-.97,3.85-1.52-1.44.81-2.88,1.63-4.33,2.41ZM155.49,36.32c-.46.19-.92.36-1.39.53l-4.14,1.54c-1.86.69-3.71,1.44-5.59,2.06-2.58.85-5.16,1.7-7.74,2.55-1.88.62-3.78,1.16-5.68,1.71-.05.01-.09.03-.14.04.01,0,.03,0,.04-.01-.95.25-1.9.52-2.85.76-.77.16-1.54.33-2.31.54-.57.12-1.12.42-1.48.89-1.25.02-2.51.04-3.77.06-1.03.02-2.07.02-3.11.04.62-.35,1.24-.71,1.85-1.07,1.33-.76,2.67-1.5,3.99-2.28,2.29-1.34,4.57-2.68,6.85-4.02,1.67-.98,3.27-2.05,4.9-3.11.49-.32.99-.64,1.48-.95,2.43-.01,4.87-.02,7.34-.02,4.36,0,8.72.04,13.09.17-.45.19-.9.39-1.36.58ZM180.03,38.3c-3.24,1.14-6.52,2.14-9.81,3.1-.36.1-.72.19-1.09.29-.35.04-.7.07-1.05.11-2.18.26-4.36.55-6.54.85,1.85-.81,3.7-1.62,5.54-2.45.17-.08.33-.16.5-.24,1.35-.43,2.7-.87,4.04-1.32,1.46-.49,2.93-.98,4.4-1.47,1.67.22,3.34.48,5,.77-.33.12-.67.25-1,.37ZM180.5,29.07c-1.18.63-2.39,1.2-3.59,1.8-.81.4-1.62.81-2.43,1.21-.54-.07-1.09-.13-1.63-.2,1.37-.67,2.73-1.34,4.08-2.03,1.48-.76,2.96-1.52,4.41-2.33.16-.09.32-.19.49-.28.36.17.73.35,1.09.54-.81.43-1.61.86-2.42,1.29ZM182.22,27.02c1-.57,1.99-1.15,2.98-1.74.35-.21.7-.42,1.06-.64.76.07,1.51.15,2.26.23-.92.44-1.83.89-2.73,1.37-.84.45-1.68.9-2.52,1.35-.35-.2-.7-.38-1.05-.57ZM198.14,29.33c-.49.29-.98.59-1.48.86-2.45,1.33-4.91,2.66-7.36,3.99-.12.07-.25.13-.37.19-1.09-.25-2.19-.47-3.3-.68,1.49-.55,2.98-1.1,4.47-1.66,1.47-.55,2.94-1.09,4.41-1.64.62-.23,1.24-.48,1.86-.69.86-.29,1.72-.58,2.58-.87-.27.16-.54.32-.82.48ZM207.42,36.77c-2.6.32-5.21.6-7.77,1.03-.18-.08-.36-.15-.55-.23,1.88-.65,3.76-1.29,5.63-1.94.8-.28,1.58-.62,2.36-.93,1.15-.46,2.3-.93,3.45-1.37,1.61-.62,3.21-1.27,4.83-1.86.24.14.46.29.69.44-.11.06-.22.12-.32.18-.66.36-1.29.77-1.93,1.16-1.5.9-3.03,1.74-4.57,2.57-.61.33-1.22.64-1.83.96ZM213.53,35.85c.06-.04.12-.07.18-.11,1.18-.7,2.3-1.5,3.5-2.15.21-.11.42-.22.63-.34.42.38.8.76,1.12,1.17-1.77.62-3.59,1.07-5.43,1.43Z"/>
    </g>
    <g>
      <path class="cls-2" d="M57.47,17.06c7.04-.88,14.32-.52,21.4-.75,4.68-.17,9.37.05,14.06.37-1.25.2-2.62.46-3.87.77-.62.13-1.14.5-1.63.88-.06.04-.07.13-.05.19.15.5.61.68,1.08.66,11.34.58,22.72.39,34.07.68,12.11.17,24.22.14,36.32.39,13.64.15,27.24,1.35,40.86,2.04.9.02,1.81.03,2.71.04,3.77.63,7.55,1.31,11.35,1.7,5.91.66,11.93,1.05,17.87,1.67-.02,0-.05,0-.07,0,.88.1,1.75.2,2.7.31-.02,0-.04,0-.06,0,3.48.53,7.18.72,10.39,2.24,2.44,1.14,4.15,3.31,6.38,4.7.4.16.96.19,1.27-.18.87-1.81-2.58-4.38-3.97-5.19.15-.22-.1-.53-.31-.61-3.98-1.09-8.08-2.01-11.84-3.8-6.71-3.74-14.51-3.18-21.93-3.45-4.61.06-9.14-.51-13.71-1-4.48-.26-8.97-.43-13.45-.76-1.43.11-6.09-1.11-6.61.44-3.93-.39-7.88-.52-11.83-.63,4.89.47,9.85,1.26,14.73,2.19-13.49-.98-26.99-1.88-40.51-2.35,1.57-.02,3.14-.04,4.7-.04,9.12-.06,18.52-.15,27.7-.71,5.03-.25,10-1.06,15.02-1.34,1.93.11,4.29-.36,5.99.7.02.06.03.12.02.19,0,.01.02.02.03,0,0-.05.02-.16-.02-.2-.32-.34-.77-.45-1.21-.57-2.77-.57-5.65-.41-8.47-.28-5.27.41-10.56.69-15.85.81-18.62.33-37.39-.09-56.02-.6-14.79-.52-29.41-2.76-44.24-2.55-7.01.15-14.53-.63-21.12,2.15-2.91,1.66-5.97,3.68-7.79,6.53,2.66-1.44,5.95-1.86,8.87-2.79,2.29-.63,4.68-1.45,7.05-1.82ZM214.86,22.48c-.26-.03-.54-.06-.82-.09.03,0,.07,0,.1,0,.31-.01.63-.02.94-.03.4.09.8.17,1.21.26-.48-.04-.96-.09-1.43-.14ZM223.86,22.83c-.4-.12-.8-.22-1.21-.31,2.29.31,4.56.71,6.82,1.19-1.88-.17-3.75-.53-5.61-.88ZM226.53,21.06c2.7.18,5.22,1,7.69,2.15-4.77-1.18-9.63-2.13-14.55-2.5,2.32.09,4.63.21,6.95.37-.03,0-.05,0-.09-.01ZM210.08,21.53c-1.15-.04-2.3-.09-3.45-.14-.15-.02-.31-.04-.46-.07,1.32-.02,2.62.07,3.91.21ZM87.92,18.54c1.38-1.24,3.4-1.34,5.15-1.85,4.84.33,9.68.76,14.51.99-6.61.42-13.24.99-19.66.86Z"/>
      <path class="cls-2" d="M39.39,27.45c.92-.54,1.87-1.04,2.83-1.51-1.37,3.3-.87,7.44.47,10.77-.29-3.54-.5-8.25,1.3-11.61,3.6-1.61,7.37-2.86,11.12-4.04,4.57-1.41,9.21-1.92,14.03-1.62,4.77.25,9.54-.07,14.32-.2-6.44-.18-13.05-.53-19.54-.79-5.18.08-10.21,1.33-15.07,3.09-1.16-.3-2.31-.43-3.31.42-.75.48-1.37,1.04-1.9,1.66-.69.3-1.38.6-2.07.91-7.3,2.85-7.64,8.65-4.36,15.02-1.1-3.95-1.98-9.51,2.19-12.11ZM47.53,21.74c.21,0,.42.03.63.06-.69.26-1.37.52-2.05.8.43-.32.89-.62,1.42-.86Z"/>
      <path class="cls-2" d="M20.74,46.08c-1-.48-1.67-1.55-2.22-2.55-.73-1.33-1.4-2.7-2.05-4.08,3,3.2,6.62,5.81,10.61,7.69-4.61-2.89-8.71-6.71-12.14-11.04-1.16-2.65-2.36-5.27-3-8.12.01-.42-.31-1.29.18-1.51.38-.07.89-.03,1.2-.12-.55.04-1.33-.34-1.72.16-.43,1.22-.11,3.43.66,5.93-.52-.79-1.02-1.59-1.5-2.4.35.42.68.85,1.02,1.27-.25-.54-.71-1.24-1.08-1.8-.66-.45-.34.89-.05,1.32.79,1.72,1.73,3.36,2.8,4.9,1.99,4.81,5.04,9.65,7.29,10.37Z"/>
      <path class="cls-2" d="M263.57,70.21c-3.69.35-6.92,2.01-10.1,3.83-1.59.5-3.19.97-4.74,1.52-5.59,1.15-10.93,2.64-16.31,4.53-4.45.77-8.94-.19-13.46.41-4.52.34-8.77,1.96-13.18,2.83-6.55.7-13.15.62-19.72,1.21-6.93.63-13.8.9-20.77.91-5.73.11-11.56.93-17.3,1.1-6.01.28-12.02.39-18.04.41-2.89-.24-5.77-.5-8.65-.77-5.75-1-11.63-2.22-17.52-2.27-3.49-.06-6.94-.56-10.41-.91-4.21-.28-8.45-.15-12.67-.2-9.55-.57-18.65-.26-28.02-.68-7.17-1.12-14.57-1.98-21.77-3.16-4.33-.69-8.62-1.82-13.01-1.94-.22,0-1.78.09-1.18.32-.03-.02-.06-.05-.07-.08,4.55.17,8.85,2.13,13.43,2.8,8.3,1.34,16.58,3.02,24.93,3.96,5.46.28,10.92.11,16.38.2,4.6.27,9.19.48,13.8.46,4.55,0,8.84.21,13.41.82,4.13.38,8.29.35,12.41.79,1.2.21,2.41.4,3.61.58-.56,0-1.11-.01-1.67-.02-6.39-.24-12.93.49-19.23-.45-.49-.16-1.26-.24-1.4-.8-.04-.12.04-.39-.05-.46.01.23-.09.5.05.7.94.86,2.35.97,3.56,1.2,3.46.42,6.95.45,10.44.46,4.88-.01,9.77.05,14.65.11,6.13.59,12.29.81,18.46.95,6.41.26,12.97.09,19.31-.07-6.36-.06-12.71-.36-19.05-.79,7.81-.11,15.62-.52,23.42-.92,8.99.1,17.95-.5,26.9-1.27,5.29-.4,10.62-.34,15.89-.94,4.31-.77,8.42-2.41,12.83-2.87,4.6-.71,9.34-.14,13.93-.85,2.72-.7,5.27-1.92,7.99-2.64,2.57-.7,5.27-1.15,7.87-1.88-.55.34-1.09.71-1.6,1.15.67-.3,1.37-.61,2.07-.9-.55.29-1.1.57-1.65.84-1.21.65-2.46,1.24-3.72,1.8-.97.35-1.95.7-2.93,1.03-.05.03-.13.07-.24.11-.66.16-1.32.31-1.98.43-2.01.42-4.05.67-6.1.87-.14.02-.26.12-.2.27.05.12.19.18.32.18,1.13-.02,2.27-.06,3.4-.16-1.87.75-3.16,1.56-1.36,2.06,5.45-.63,10.75-2.6,15.6-5.14,2.01-1.05,3.9-2.32,5.83-3.52.59-.3,1.19-.6,1.8-.87.53-.09,1.07-.16,1.61-.25-2.28,2.78-4.18,5.89-6.09,8.93,2.45-3.03,4.86-6.29,7.54-9.22.6-.14,1.2-.31,1.77-.58.42-.19.5-.76.1-1.02-.06-.05-.13-.08-.2-.11.54-.48,1.1-.94,1.72-1.3.39-.38-.24-.82-.64-.72ZM261.48,71.89c-.32.04-.65.15-.96.22-.09.02-.19.04-.28.05-.02,0-.05.02-.07.02-.59-.09-1.27.16-1.85.24,1.19-.52,2.44-.87,3.71-1.1-.19.18-.37.38-.56.57Z"/>
      <path class="cls-2" d="M280.6,38.67c-.16-1.25.22-2.79-.73-3.77.31-2.72-.92-4.41-1.96-.86-1.1.06-2.39.61-2.89,1.65-.9,2.05-1.25,4.29-1.77,6.46-1.05,4.82-1.38,9.76-1.25,14.68.09,1.77-.13,3.8,1.04,5.27.28.29.56.56.84.83-1.33,1.01-2.7,1.98-4.18,2.77-5.65,3.06-11.84,4.96-17.79,7.34,5.78-1.5,11.8-3.17,17.09-6.12,1.9-.98,3.48-2.41,5.09-3.78.07.07.15.14.22.22-.17,1.45-.32,2.92-.66,4.32,0,.01.02.02.02.01.48-.94.86-1.95,1.21-2.95.11-.32.22-.63.33-.95.61.17,1.31.08,1.79-.26,1-.14,1.88-.79,2.29-1.72,1.06-3.06,1.24-6.39,1.48-9.59.29-4.49.07-9.01-.18-13.55Z"/>
      <path class="cls-2" d="M209.49,219.98c-13,1.28-26.1,2.3-39.16,3.25-4.58.41-9.31.93-13.79,1.5,13.88-.88,27.79-1.13,41.68-1.86-10.97,2.57-22.19,3.49-33.4,4.36-4.07.42-7.99.87-12.04,1.56-3.22.67-6.85,1.05-9.54,2.97,5.66-2.31,12.12-1.68,18.12-2.59,11.73-1.16,23.52-1.82,35.1-4.18,4.55-.76,8.99-1.96,13.47-3.02,1.4-.32.65-1.89-.43-1.99Z"/>
    </g>
    <path class="cls-3" d="M126.75,86.26c-.91.07-1.81.19-2.7.32,1.28.1,2.56.2,3.84.28,2.92-.2,5.83-.75,8.75-.33,10.6,3.49,21.84.95,32.77,1.48,2.76.2,5.43.89,8.13,1.43.91.25,2.29.41,3.72.66-.07-.9.39-1.77,1.68-2.25-12.14-.2-24.3-.4-36.44-.51-6.57-.58-13.12-1.71-19.75-1.08Z"/>
    <path class="cls-3" d="M278.33,42.93c.05-1.89.33-3.92-.33-5.73-.15-1.49.14-3.27-.79-4.54.1-.63.16-1.28.11-1.92-.06-.65-.13-1.33-.33-1.96-.21-.66-.45-1.29-.75-1.92-.36-.73-.82-1.39-1.3-2.05-1.72-2.35-4.16-4.12-6.58-5.67-2.27-1.45-4.73-2.63-7.21-3.7-4.72-2.04-9.64-3.61-14.59-4.96-2.48-.68-4.98-1.33-7.5-1.87-.16-.03-.35-.06-.55-.06-.66,0-1.34.08-1.91.38l.22.05c.5.11,1.02.19,1.53.32.11.02.23.05.34.07.34.07.67.15,1,.23,2.34.52,4.66,1.09,6.97,1.75,4.83,1.36,9.6,3,14.06,5.32,2.18,1.14,4.31,2.5,6.09,4.2,1.86,1.77,3.41,3.99,3.74,6.6.11.84.07,1.66-.1,2.46.02.18.03.36.04.54-.02.3-.05.6-.1.9-.02.07-.04.14-.06.21-.15.03-.3.06-.44.11-.46,1.08-1.12,2.09-1.88,2.99-.07.09-.14.17-.21.25,0,.2,0,.4,0,.61-.09.1-.18.2-.28.29-.49.43-1,.84-1.51,1.24,1.2-3.76,1.07-7.83,2.4-11.62.07-.12.08-.31.25-.32.01,0,0-.02,0-.02-.2-.03-.27.08-.43.23-.38.34-.69.86-.96,1.29-2.5,3.46-2.83,7.87-4.96,11.48-1.88,2.61-4.91,3.93-7.72,5.29-7.01,3.14-14.47,4.86-21.77,7.2-9.1,2.29-18.3,4.13-27.57,5.59-.07.01-.15.02-.22.03-12.61.66-25.24,1.04-37.8,2.39-1.34.12-2.68.25-4.02.39-5.92-.17-11.84-.06-17.75.34-14.11-.92-28.25-1.38-42.39-1.46-4.21-.23-8.41-.42-12.62-.38-1.25.01-2.52.04-3.77.12-.68.01-1.16.27-1.47.62-.99-.15-1.98-.29-2.97-.4-13.3-1.02-26.8-.46-39.58-5.21-3-1.04-6.18-1.67-9-3.15-.73-.77-1.45-1.58-2.36-2.15-2.59-1.72-5.64-2.54-8.44-3.87-1.51-.91-2.93-1.97-4.55-2.71-2.14-1.11-4.5-1.68-6.64-2.76-.69-.72-.97-1.86-1.25-2.81-.12-2.1-.44-4.53.12-6.63.75-.62,1.52-1.2,2.32-1.77,1.07-.68,2.16-1.33,3.28-1.95,1.06-.58,2.16-1.09,3.26-1.61,2.45-1.08,5.01-2.12,7.62-3.02,2.79-.96,5.59-1.82,8.43-2.65,1.45-.4,2.9-.8,4.36-1.16,11.27-2.82,22.69-4.78,34.19-6.37,8.29-1.09,16.6-1.95,24.92-2.63.59-.07,1.17-.13,1.76-.2,5.3-.57,10.61-1.08,15.93-1.42,5.18-.32,10.36-.51,15.54-.66,5.36-.16,10.73-.32,16.09-.46,3.11-.08,6.23-.13,9.28-.16,10.52-.11,21.07.08,31.57.6,5.15.25,10.29.62,15.42,1.11.12-.23.27-.44.47-.62.67-.62,1.57-.79,2.46-.79h0c.08,0,.16,0,.24.02,1.21.09,2.44.24,3.15.32,3.36.35,6.72.74,10.07,1.19-.86-.18-1.71-.36-2.57-.53-5.91-1.15-11.86-2.1-17.83-2.86-5.77-.74-11.59-1.28-17.39-1.66-5.86-.39-11.71-.71-17.58-.9-11.73-.38-23.47-.43-35.2-.14-11.68.29-23.34.89-34.98,1.88-11.74,1-23.46,2.35-35.08,4.27-11.57,1.91-23.1,4.3-34.27,7.93-2.75.89-5.47,1.89-8.14,3-2.75,1.14-5.45,2.41-8,3.93-.06.03-.11.07-.17.11-.9.07-1.78.27-2.61.67-1.31.66-2.22,1.85-2.83,3.33,0,0-.01.01-.02.02-.5.48-1.01.97-1.45,1.51-.91,1.12-1.72,2.33-2.19,3.7-.41,1.2-.64,2.46-.52,3.73.04.39.09.77.18,1.15-.16,1.12.12,3.25.52,5.57-.1,1.12.07,2.27.13,3.39.02,7.2.61,14.41,1.45,21.56.14.97.27,2.14.98,2.86.3.5.7.96,1.16,1.38,1,.96,2.2,1.55,3.48,1.89,2.07,1.13,4.23,2.02,6.47,2.71.73-.78,2.08-1.09,3.11-.86.08.02.16.03.24.05.05,0,.1.02.15.04.05.02.1.03.14.04.13.04.27.09.39.14.09.04.17.07.26.11.05.03.11.05.17.09.09.04.17.09.25.14.09.05.18.11.27.18.08.05.16.11.23.18.03.02.06.05.09.07.2.17.38.36.54.57.05.07.1.14.14.21.09.14.16.28.21.43.51.07,1.02.14,1.54.2.95.22,1.89.43,2.84.64.39.06.79.11,1.19.16.2-.15.42-.27.67-.37,3.57,1.22,7.29,1.92,10.99,2.6,10.78,1.74,21.71,2.29,32.59,3.06,2.45.25,4.89.42,7.34.54.02.03.05.05.07.08.41,0,.82-.02,1.22-.02,4.23.18,8.46.2,12.72.07,23.41,1.95,46.9,1.12,70.36,1.32,4.64.19,9.29.31,13.94.31,3.24.01,6.47-.08,9.7-.25.19,0,.38-.02.57-.03,7.85-.43,15.66-1.32,23.46-2.31,3.45-.17,6.9-.43,10.33-.83.23-.03.46-.05.69-.08,2.11-.21,4.17-.7,6.2-1.24l1.68-.46s.04,0,.05-.02c2.57-.7,5.15-1.4,7.82-1.64.21-.02.41-.04.62-.07.8-.11,1.57-.3,2.33-.54.19-.06.38-.12.57-.19.07-.02.14-.05.22-.08.14-.05.29-.11.43-.16.15-.06.3-.12.46-.18,0,0,.01,0,.02,0,.07-.03.15-.06.22-.09.15-.06.29-.12.44-.19.19-.08.37-.16.56-.25.23-.11.47-.22.7-.34.24-.12.48-.24.72-.36.16-.08.32-.16.47-.25.21-.11.41-.21.62-.32l.77-.41c.56-.31,1.12-.61,1.69-.91.37-.2.75-.39,1.12-.58,0,0,.01,0,.02-.01.27-.14.54-.27.81-.41.48-.24.97-.46,1.45-.69.78-.28,1.56-.56,2.34-.85,6.79-2.08,14.44-1.05,20.71-4.74.8-.54,1.81-1.26,2.04-2.22-.08.02-.17.03-.25.05.45-.31.84-.69,1.11-1.19.32-.68.39-1.25.37-2,.26-1.62.18-3.22-.2-4.83-.13-.83-.25-1.67-.34-2.52,0,0,0-.01,0-.02,2.2-2.93,1.83-7.12,1.75-10.62ZM1.37,38.96c-.1-.33-.19-.66-.27-.98.07.14.14.28.22.42.08.14.16.28.25.41-.05,0-.11.03-.16.07-.02.03-.03.05-.04.08ZM1.67,39.98c-.09-.29-.18-.58-.26-.88.02-.06.05-.12.07-.19.04-.02.07-.05.11-.07.16.27.33.52.51.77-.16.1-.3.21-.43.36ZM247.31,73.44c-.05.02-.11.04-.16.05.05-.02.11-.04.17-.05t0,0ZM262.55,46.47c-.03-.05-.05-.1-.08-.15.07-.03.15-.06.22-.1-.05.08-.09.16-.14.25Z"/>
  </g>
</svg>