<?xml version="1.0" encoding="UTF-8"?>
<svg id="Layer_2" xmlns="http://www.w3.org/2000/svg" version="1.1" viewBox="0 0 543.1 172.1">
  <!-- Generator: Adobe Illustrator 29.3.1, SVG Export Plug-In . SVG Version: 2.1.0 Build 151)  -->
  <defs>
    <style>
      .st0 {
        fill: #2a2042;
      }
    </style>
  </defs>
  <g id="ShadowDog">
    <g>
      <path class="st0" d="M540.4,44.1C522.3,4.9,446.8,6.2,409,1.9c-69.5-4.5-139.1-1-207.5,12.4-42.5,8.8-88.1,10-125.8,33.5-12.2,6.6-26,9-39.8,8.1-7.5-.8-28.3-7.5-29.1,4.4-2.8.4-7.1.5-6.8,4.3.2,1.7,1.9,3.1,3.6,2.8,5-.8,10-1.6,15-1.3,7.9.3,15.1,4.1,22.9,4.9,6,2.2,21.5-2,21.4,6.7.6,10.9,6.3,27.3,19.6,26.5,14.2-1.9,28.7-3.6,42.9-.5,7.3.8,12.8,4.8,17.4,10.3,11.9,4.7,27.7-6.2,38.9-10.8,22.3-12.7,46.4-22.7,71.5-27.9,24.4-4.9,135.6-19.9,103.7,31.2-8.7,13.8-40,23.1-7.9,33.3,18.2,9.5-7.6,29.8,24.5,32.1,19.1,1.8,38.1-2.9,57-4.9,36-4.6,76.5-17.4,98.4-48.2,9.7-21.6,18.8-51.4,11.4-74.6h0ZM491.5,48.5c.1-.3.2-.6.4-.9,1-1.1,2-2.1,3-3.2-.5,1.1-1.1,2.2-1.7,3.4-.5.2-1.1.5-1.7.7h0ZM487.1,34.2c.4-1.4.7-2.7,1-4.1,2.2-1.1,4.3-2.1,6.5-3.2-2.5,2.4-5,4.9-7.5,7.3ZM487,23.3c2.2.5,4.4,1.1,6.6,1.6-2.2-.6-4.4-1.1-6.6-1.6ZM478.5,76.9c-1.5,1.1-2.9,2.2-4.3,3.2.2-.6.3-1.2.5-1.7,1.1-3.9,2.3-7.9,3.4-11.9h.1c1.6,0,3.2-.4,4.7-.8.6-.2,1.1-.4,1.7-.6-1.8,3.8-3.7,7.5-5.5,11.3l-.7.5h0ZM479.9,21.7c2.2.5,4.3.9,6.5,1.4-2.2-.5-4.3-1-6.5-1.4ZM472.7,20.3c2.2.4,4.3.8,6.5,1.3-2.1-.5-4.3-.9-6.5-1.3ZM455.8,71.3c-1.1,1.1-2.2,2.2-3.3,3.4-.3-.5-.6-.9-1-1.3,1.6-1.2,3.2-2.4,4.8-3.6-.2.5-.4,1-.5,1.5ZM430,54.3c1.9-1.8,3.7-3.5,5.5-5.3,4.1-4.1,8.3-8.1,12.3-12.3,1.9-2,3.9-4,5.8-6.1,0,.6,0,1.3,0,2,.1,1,.5,2,1,2.9-2.9,2.2-5.7,4.3-8.6,6.5-5.4,4.1-10.7,8.2-16.1,12.3h0ZM435.3,64.5c-1.1,1.1-2.3,2.1-3.4,3.1-3.9,3.5-7.8,6.9-11.6,10.4-2.5,2.2-5,4.3-7.4,6.4.3-1,.6-1.9.9-2.9,1.9-1.5,3.8-3,5.6-4.5,5.3-4.2,10.7-8.4,16-12.6h0ZM423.2,46c0-.2,0-.3.1-.4.1-.7.3-1.3.5-2,.9-.7,1.7-1.3,2.6-2,2.2-1.7,4.5-3.4,6.7-5.1-.9.9-1.8,1.8-2.8,2.7-2.3,2.3-4.7,4.5-7.1,6.8h0ZM450.7,16.9c2.3.3,4.6.6,6.9.9-2.3-.3-4.6-.6-6.9-.9ZM443.4,16c-.7.5-1.5,1-2.2,1.6,0,0-.2,0-.2.1-2.1.9-4.2,1.7-6.3,2.5-2.5,1-5.1,2-7.6,3,2.7-2.7,5.3-5.4,7.9-8,5.2.5,10.4,1,15.5,1.7-2.4-.3-4.8-.6-7.2-.8h0ZM424.5,14.3c3.5.3,7,.6,10.5.9-3.5-.3-7-.6-10.5-.9ZM414.1,13.6c3.5.2,6.9.4,10.4.7-3.5-.3-6.9-.5-10.4-.7ZM401.8,23c3.1-3.1,6.3-6.3,9.4-9.6.9,0,1.8.1,2.7.2-4,3.1-8,6.3-12,9.4ZM405.5,108.5c2.9-2.3,5.9-4.6,8.8-6.9,4.1-3.2,8.3-6.4,12.4-9.6,2.7-2.1,5.4-4.1,8.1-6.1-.9,1.9-1.7,3.9-2.6,5.9-.7,1.6-1.4,3.2-2.1,4.9-5.6,5.4-11.2,10.9-16.9,16.3-4.3,4.2-8.6,8.4-12.9,12.7,1.8-5.7,3.5-11.5,5.3-17.2h0ZM430.2,158c-.4,0-.8.1-1.3.2.4,0,.8-.1,1.3-.2ZM426.3,158.6c-.4,0-.9.1-1.3.2.4,0,.9-.1,1.3-.2ZM422.4,159.1c-.4,0-.9.1-1.3.2.4,0,.9-.1,1.3-.2ZM418.5,159.6c-.4,0-.8.1-1.2.1.4,0,.8-.1,1.2-.1ZM414.5,160.1c-.3,0-.6,0-1,.1.3,0,.6,0,1-.1ZM434,157.4l-1.1.2,1.1-.2ZM446.7,154.9c-.4,0-.8.2-1.2.3.4,0,.8-.2,1.2-.3ZM442.3,155.9c-.2,0-.4,0-.6.1.2,0,.4,0,.6-.1ZM437.8,156.7c-.2,0-.3,0-.5,0,.2,0,.3,0,.5,0ZM450.6,154.1c-.5.1-.9.2-1.4.3.5-.1,1-.2,1.4-.3ZM454.4,153.1c-.5.1-1,.2-1.5.4.5-.1,1-.2,1.5-.4ZM472.7,147.5c-.4.1-.8.3-1.1.4.4-.1.8-.3,1.1-.4ZM469.1,148.8c-.5.2-.9.3-1.4.5.5-.1.9-.3,1.4-.5ZM465.5,149.9c-.5.2-1,.3-1.5.5.5-.1,1-.3,1.5-.5ZM461.9,151.1c-.5.1-1,.3-1.5.4.5-.1,1-.3,1.5-.4ZM458.2,152.1c-.5.1-1,.3-1.5.4.5-.1,1-.3,1.5-.4ZM458.1,17.9c2.2.3,4.4.7,6.6,1-2.2-.4-4.4-.7-6.6-1ZM465.5,19c2.2.4,4.3.7,6.5,1.1-2.2-.4-4.3-.8-6.5-1.1ZM476.2,146.1c-.1,0-.2,0-.3.1.1,0,.2,0,.3-.1ZM484.4,142.5c-.4.2-.8.4-1.1.5.4-.2.8-.4,1.1-.5ZM480.6,144.3c-.3.1-.5.2-.8.4.3-.1.5-.2.8-.4ZM487.9,140.7c-.4.2-.8.4-1.2.6.4-.2.8-.4,1.2-.6ZM491.3,138.9c-.4.2-.8.5-1.3.7.4-.2.8-.5,1.3-.7ZM494.6,137c-.4.2-.8.5-1.2.7.4-.2.8-.5,1.2-.7ZM520.3,36.6c.2.1.3.2.5.4-.2,0-.5.2-.7.2,0-.2.1-.4.2-.6h0ZM508.6,29.8c.8.3,1.5.7,2.2,1-.7-.4-1.5-.7-2.2-1ZM511.3,31c.7.4,1.4.7,2.1,1.1-.7-.4-1.4-.7-2.1-1.1h0ZM513.5,32.2c.7.4,1.4.8,2.1,1.2-.7-.4-1.4-.8-2.1-1.2ZM516.1,33.7c.7.4,1.4.9,2,1.3-.7-.5-1.3-.9-2-1.3ZM518.3,35.1c.6.4,1.2.9,1.8,1.3-.6-.5-1.2-.9-1.8-1.3ZM524.8,40.7c-.3-.3-.5-.6-.8-.8.3.3.5.6.8.8ZM531.1,50.4c-.1-.3-.3-.7-.4-1,.2.3.3.7.4,1ZM530.3,48.7c-.2-.3-.3-.7-.5-1,.2.3.3.7.5,1ZM529.5,47.1c-.2-.4-.4-.7-.6-1.1.2.3.4.7.6,1.1ZM528.6,45.5c-.3-.5-.7-1-1-1.5.3.5.7,1,1,1.5ZM527.5,43.8c-.3-.4-.6-.8-1-1.2.3.4.7.8,1,1.2ZM526.1,42.2c-.3-.3-.5-.6-.8-.9.3.3.5.6.8.9ZM531.3,51c.1.4.3.8.4,1.2-.1-.4-.2-.8-.4-1.2ZM531.9,52.8c.2.6.3,1.2.5,1.7-.1-.6-.3-1.2-.5-1.7ZM532.5,55c0,.4.2.8.2,1.3,0-.4-.2-.8-.2-1.3ZM520.9,37.1c.4.3.8.7,1.2,1-.4-.4-.8-.7-1.2-1ZM522.6,38.6c.3.3.6.6.9.8-.3-.3-.6-.6-.9-.8ZM503.1,27.7c-.8-.3-1.6-.5-2.4-.7-2.3-.7-4.5-1.3-6.8-1.9,2.3.6,4.5,1.2,6.8,1.9.8.2,1.6.5,2.4.7ZM508.3,29.6c-.7-.3-1.4-.6-2.1-.9.7.3,1.4.6,2.1.9ZM505.9,28.7c-.8-.3-1.5-.6-2.3-.8.8.3,1.5.5,2.3.8ZM507.4,128.1c-.2.1-.4.3-.5.4.2-.1.4-.3.5-.4ZM504.3,130.5c-.3.2-.6.4-.9.7.3-.2.6-.4.9-.7ZM501.1,132.8c-.4.2-.7.5-1.1.8.4-.2.7-.5,1.1-.8ZM497.9,134.9c-.4.3-.8.5-1.2.8.4-.2.8-.5,1.2-.8ZM411,13.4c-3.9-.2-7.9-.4-11.8-.6,3.9.2,7.9.4,11.8.6ZM382.3,83.5h0c0,0,.1,0,.2,0,0,0-.1.1-.2.2-.1,0-.2.2-.3.2-.1,0-.2.2-.3.3-.1,0-.2.2-.3.3,0,0,0,0,0,0-.5.5-1.1.9-1.6,1.4,0,0,0,0,.1,0-.7.7-1.5,1.3-2.2,2-.3.2-.6.5-.8.7,0,0,0,0,0,0,0,0-.1.1-.2.2-.1,0-.2.2-.3.3,0,0,0,0,.1,0-.2.2-.5.4-.7.6h0c.1-.1.2-.2.4-.3-.1,0-.2.2-.4.3.5-2.9.9-5.7,1.4-8.6,5-4,10.1-8.1,15.1-12.2-1.4,3.3-2.9,6.7-4.3,10-1.9,1.7-3.9,3.5-5.8,5.2,0,0,.1-.1.2-.2h0ZM377.9,163c-.5,0-1,0-1.5,0,.5,0,1,0,1.5,0ZM376,162.9c-.5,0-1.1,0-1.6-.1.5,0,1.1.1,1.6.1ZM258.1,16.5c2.4-.3,4.8-.6,7.3-.8-2.4.3-4.8.5-7.3.8ZM266.4,38c-1.4,1.4-2.7,2.9-4.1,4.3-.6.6-1.2,1.2-1.8,1.8v-.9c.2-.4.3-.8.3-1.1.4-.3.9-.6,1.3-.9,1.4-1.1,2.9-2.1,4.3-3.2h0ZM123.2,59.4c-4.4,2-8.9,4-13.3,5.9,0-1.6-.2-3.2-.3-4.9-.2-2.8-.3-5.6-.6-8.4,0-.3,0-.6,0-.8,3.8-3.1,7.7-6.1,11.6-9.1,1.1-.9,2.3-1.8,3.4-2.7,1-.2,2-.5,3-.7-.7,4-1.4,8-2.1,12-.5,2.9-1,5.8-1.5,8.7h0ZM124.1,94.4c-.2,0-.4,0-.6,0,.2,0,.4,0,.6,0ZM122.5,94.2c-.2,0-.3,0-.5,0,.2,0,.3,0,.5,0ZM120.8,94c-.1,0-.2,0-.3,0,.1,0,.2,0,.3,0ZM113.4,42.1c.5-.1.9-.3,1.4-.4-.5.1-.9.3-1.4.4ZM118.1,40.9c.5-.1.9-.2,1.4-.4-.5.1-.9.2-1.4.4ZM165.7,89c1.8-3.9,3.5-7.9,5.2-11.8,1.2-.5,2.4-1.1,3.6-1.6,0,0,.1,0,.2,0-.1.5-.3,1-.4,1.4-1.5,5.5-3,11-4.6,16.6-.2.7-.4,1.4-.6,2.2-2.5.8-5,1.6-7.5,2.3,1.4-3,2.7-6,4.1-9ZM159.9,66.9c-.6.4-1.3.7-1.9,1.1.4-2.1.8-4.3,1.2-6.4.4-2.2.9-4.5,1.3-6.8,1.1-.7,2.1-1.3,3.2-2,1-.5,1.9-1,2.9-1.4-2.2,5.2-4.5,10.3-6.7,15.4h0ZM174.3,33.7c-.8.4-1.6.9-2.4,1.3-2.9,1.6-5.7,3.2-8.5,4.8.1-.8.3-1.6.4-2.5.3-1.8.6-3.6,1-5.4,0-.1,0-.2,0-.3-2.6.4-5.2.9-7.8,1.3,6.7-1.1,13.4-2.2,20.1-3.4-.4,0-.7.1-1.1.2-.4.9-.8,1.8-1.2,2.7-.2.4-.4.8-.5,1.2h0ZM133.9,37.2c2.1-.4,4.1-.8,6.2-1.2-2.1.4-4.2.8-6.2,1.2ZM140.3,35.9c2.7-.5,5.3-1,8-1.5,0,.3-.2.5-.2.8-1.6,4.9-2.9,9.8-4.3,14.8-1.9.9-3.8,1.8-5.6,2.7.5-3.7,1-7.5,1.4-11.2.2-1.8.5-3.7.7-5.5h0ZM135.7,71.3c.9-.7,1.8-1.3,2.7-2-.9,3.3-1.8,6.6-2.7,9.9-.3.1-.7.3-1,.4.4-2.8.7-5.6,1.1-8.4ZM135.3,97.4c-.2,0-.5-.2-.7-.3.2,0,.5.2.7.3ZM138.3,98.8c-.2-.1-.4-.2-.7-.3.2.1.5.2.7.3ZM136.8,98.1c-.2-.1-.5-.2-.7-.3.2,0,.5.2.7.3ZM143.7,102.4c-.2-.2-.4-.4-.6-.5.2.2.4.4.6.5ZM142.4,101.4c-.2-.2-.4-.3-.7-.5.2.2.4.3.7.5ZM141.1,100.5c-.2-.2-.4-.3-.7-.4.2.1.4.3.7.4ZM139.7,99.6c-.2-.1-.4-.3-.7-.4.2.1.4.3.7.4ZM145,103.6c-.2-.2-.4-.4-.6-.6.2.2.4.4.6.6ZM146.2,104.8c-.2-.2-.4-.5-.7-.7.2.2.4.5.7.7ZM147.6,106.3c-.3-.3-.6-.7-.9-1,.3.3.6.7.9,1ZM148.8,34.3c2.6-.5,5.1-.9,7.7-1.3-2.6.4-5.1.9-7.7,1.3ZM182.4,28.6c.8-.1,1.6-.3,2.4-.4-.8.1-1.6.3-2.4.4ZM212.6,67.7c2.4-2.4,4.9-4.7,7.3-7.1-.6,1.2-1.2,2.3-1.8,3.5-.9.6-1.8,1.2-2.8,1.9,0,0,0,0,0,0-.9.6-1.9,1.2-2.9,1.7h0ZM212.3,58.6c0-.4.2-.8.3-1.2.7-.3,1.4-.7,2.1-1-.8.7-1.6,1.5-2.4,2.2h0ZM214.1,22.9c.7-.1,1.5-.2,2.2-.4-.7.1-1.5.2-2.2.4ZM207.9,78.9c.5-.2.9-.4,1.4-.7.8-.4,1.5-.8,2.2-1.1-.3.5-.6,1.1-.9,1.6,0,0,0,0,.1,0-1.1.5-2.2.9-3.3,1.4,0,0,.2,0,.3-.1,0-.4.1-.7.2-1.1h0ZM216.5,76.4c-.4.2-.9.3-1.3.5.4-.2.9-.3,1.3-.5ZM221.5,74.5c-.6.2-1.1.4-1.6.6.6-.2,1.1-.4,1.6-.6ZM239.5,63.9c-.3.3-.6.6-.9.8-2,1.8-4,3.7-6,5.5.8-1.7,1.7-3.4,2.5-5.2.8-1.7,1.5-3.4,2.3-5.2l3.6-2.7c-.5,2.2-.9,4.5-1.4,6.7h0ZM241.9,68.1c-.6.2-1.2.3-1.8.5.6-.2,1.2-.3,1.8-.5ZM237,69.5c-.5.2-1,.3-1.6.4.5-.2,1-.3,1.6-.4ZM235.1,27.4c-5.1,2.5-10.2,5-15.3,7.5-.5.3-1.1.5-1.6.8.3-1,.5-1.9.8-2.8.6-2.3,1.3-4.6,2-7,.4-1.5.8-2.9,1.3-4.4,5.6-.9,11.1-1.7,16.7-2.5-1.3,2.8-2.5,5.6-3.8,8.4h0ZM230.9,71.3c-.3,0-.6.2-.9.3.3,0,.6-.2.9-.3ZM226.2,72.8c-.5.2-1.1.4-1.6.6.5-.2,1.1-.4,1.6-.6ZM305.4,12.4c1.8-.1,3.6-.2,5.4-.3-1.8,0-3.6.2-5.4.3ZM294.1,13.1c1.8-.1,3.6-.2,5.4-.4-1.8.1-3.6.2-5.4.4ZM296.8,15.4c0,.3,0,.6-.1.9-.2.2-.4.3-.5.5.2-.5.4-.9.7-1.4h0ZM279.9,49.2c1.9-3.8,3.9-7.7,5.8-11.5,2.9-2.6,5.9-5.3,8.8-7.9.1,0,.2-.2.3-.2-.2,1.1-.3,2.2-.5,3.4-.2,1.1-.3,2.3-.5,3.4-1.2,1.4-2.5,2.8-3.7,4.1-3.5,4-7.2,7.9-10.8,11.8-.7.7-1.3,1.5-2,2.2.9-1.7,1.7-3.5,2.6-5.2h0ZM282.9,14c1.8-.1,3.5-.3,5.3-.4-1.8.1-3.5.3-5.3.4ZM280.6,61.4c-.7,0-1.3.2-2,.2.6,0,1.3-.2,2-.2ZM278.5,61.7c-2.2.3-4.3.5-6.4.8,2.1-.3,4.2-.6,6.4-.8ZM292.3,60.2c-.8,0-1.6.1-2.3.2.8,0,1.6-.1,2.3-.2ZM289.8,60.5c-.7,0-1.4.1-2.1.2.7,0,1.4-.1,2.1-.2ZM287.3,60.7c-.6,0-1.2.1-1.8.2.6,0,1.2-.1,1.8-.2ZM285,60.9c-.6,0-1.1.1-1.7.2.6,0,1.1-.1,1.7-.2ZM282.7,61.2c-.6,0-1.1.1-1.7.2.6,0,1.1-.1,1.7-.2ZM294.6,60.1c-.7,0-1.4.1-2.2.2.7,0,1.4-.1,2.2-.2ZM296.9,59.9c-.5,0-1.1,0-1.6.1.5,0,1.1,0,1.6-.1ZM303.9,59.5c-.5,0-1,0-1.5,0,.5,0,1,0,1.5,0ZM301.5,59.6c-.5,0-1,0-1.5,0,.5,0,1,0,1.5,0ZM299.1,59.8c-.5,0-1,0-1.5,0,.5,0,1,0,1.5,0ZM309.1,59.3h0c1.7-.7,3.4-1.3,5.1-2-.7.6-1.4,1.3-2,1.9h.4c-1.9,0-3.8,0-5.7,0,.7,0,1.5,0,2.2,0ZM306.5,59.4c-.6,0-1.2,0-1.8,0,.6,0,1.2,0,1.8,0ZM362.2,67.3c-.1.8-.3,1.5-.4,2.3h0c-.5-.3-.9-.6-1.4-.9,0,0,0,0,0,0,.6-.5,1.2-.9,1.8-1.4ZM370,23.4s0,0-.1,0c0,0,.1-.2.1-.3,0,0,0,.2,0,.2ZM365.3,11.5c.3,0,.6,0,1,0h-1ZM369.8,78.1c0-.1-.1-.2-.2-.4,0,.1.1.2.2.4ZM368.6,76.3c-.1-.2-.2-.3-.4-.5.1.2.2.3.4.5ZM367.2,74.5c0,0-.2-.2-.2-.3,0,0,.2.2.2.3ZM365.6,72.7c-.1-.1-.3-.2-.4-.4.1.1.3.2.4.4ZM364,71.3c-.1-.1-.3-.2-.5-.4.1.1.3.2.5.4ZM386.6,12.3h.2c0,0-.2.1-.2.2v-.2h0ZM378.4,12c2.5.1,5.1.2,7.6.3-2.5-.1-5.1-.2-7.6-.3ZM382,52.3c-.1.1-.3.3-.5.4,0,0,0-.2,0-.3.1,0,.3,0,.4,0h0ZM387.1,12.3c3.9.2,7.8.3,11.6.5-3.9-.2-7.8-.3-11.6-.5ZM354.9,11.2c-.5,0-1,0-1.6,0,.5,0,1,0,1.6,0ZM352,11.2c-.9.7-1.8,1.4-2.8,2.2-12.9,10.1-25.8,20.3-38.6,30.5.5-4.5.9-9,1.4-13.5,0-.6.1-1.3.2-1.9.3-.4.7-.8,1-1.2,1.5-1.8,3-3.6,4.5-5.4,2-2.6,3.9-5.3,5.9-7.9.6-.8,1.1-1.6,1.7-2.4,8.9-.3,17.8-.4,26.7-.3h0ZM358.4,67.5c-.2,0-.3-.2-.5-.3.2,0,.3.2.5.3ZM356.1,66.3c-.1,0-.3-.1-.4-.2.1,0,.3.1.4.2ZM353.5,65.2c-.1,0-.3-.1-.5-.2.1,0,.3.1.5.2ZM351,64.3c-.2,0-.4-.1-.6-.2.2,0,.4.1.6.2ZM348,63.3c0,0-.1,0-.2,0,0,0,.1,0,.2,0ZM345.4,62.6c-.2,0-.4-.1-.6-.2.2,0,.4,0,.6.2ZM342.1,61.8s0,0-.1,0c0,0,0,0,.1,0ZM339.2,61.3c-.2,0-.4,0-.6-.1.2,0,.4,0,.6.1ZM336.2,60.8c-.1,0-.3,0-.5,0,.1,0,.3,0,.5,0ZM332.8,60.3c-.2,0-.4,0-.5,0,.2,0,.4,0,.5,0ZM329.7,60c-.2,0-.4,0-.6,0,.2,0,.4,0,.6,0ZM326,59.7c-.1,0-.2,0-.3,0,.1,0,.2,0,.3,0ZM323,59.5c-.2,0-.5,0-.8,0,.2,0,.5,0,.8,0ZM319.2,59.4h-.1.1ZM316,59.3h-.8.8ZM316.6,11.8c1.8,0,3.6-.1,5.4-.2-1.8,0-3.6.1-5.4.2ZM276.9,14.5c-1.8.2-3.5.3-5.2.5,1.8-.2,3.5-.3,5.2-.5ZM249.6,17.6c-1.9.2-3.7.5-5.5.7,1.8-.2,3.7-.5,5.5-.7ZM205.9,24.3c-.4,1.1-.8,2.1-1.2,3.2-2.3,6.2-4.5,12.4-6.8,18.6-.8.4-1.6.8-2.3,1.2.4-2.6.9-5.3,1.3-7.9.2-1.8.4-3.5.6-5.3.3-.2.6-.4.8-.7,2.2-1.8,2.9-4.8,1.4-7.3-.1-.3-.3-.5-.5-.7,2.2-.4,4.4-.8,6.6-1.2h0ZM202.8,82.1c-.2.1-.5.2-.7.3.2-.1.5-.2.7-.3ZM198.2,84.2c-.4.2-.8.4-1.2.6.4-.2.8-.4,1.2-.6ZM192.5,26.8c-.4,0-.7.1-1.1.2-.3,0-.6.1-.9.2.3,0,.6-.1.9-.2.4,0,.7-.1,1.1-.2h0ZM193.4,86.5c-.3.2-.6.3-1,.5.3-.2.6-.3,1-.5ZM132.7,37.5c-1.6.3-3.3.7-4.9,1.1,1.6-.4,3.3-.7,4.9-1.1ZM108.8,43.4h0,0c-14.2,5-26.7,14.1-40.8,19,14.1-5,26.6-14.1,40.8-19ZM97.8,70.3c-.1,0-.3.1-.4.2,0-.7.2-1.3.3-2,0,.6,0,1.2,0,1.8h0ZM57.3,65.2c.5,0,.9,0,1.4,0-.5,0-.9,0-1.4,0h0ZM59,65.3c.4,0,.8,0,1.1.1-.4,0-.7,0-1.1-.1ZM60.3,65.4c.4,0,.8.2,1.2.3-.4,0-.8-.2-1.2-.3ZM61.8,65.8c.3,0,.6.2,1,.3-.3-.1-.6-.2-1-.3ZM64.3,66.7c.2.1.4.2.6.3.3-.2.6-.3.9-.5,4.2-2.5,8.4-5,12.6-7.5.4-.3.9-.5,1.3-.8,0,.8-.2,1.7-.3,2.5-1.4,1.2-2.8,2.3-4.1,3.5-2.3,2.1-4.5,4.1-6.8,6.2,0,.1.2.2.2.4-1.1-1.7-2.6-3.1-4.5-4.1h0ZM63,66.2c.4.1.7.3,1.1.5-.3-.2-.7-.3-1.1-.5ZM77.3,94.4c-.2-.1-.4-.3-.6-.4.2.2.4.3.6.4ZM76.8,78.8c.2-.2.4-.4.6-.5,0,.1,0,.2,0,.3-.2,0-.3.1-.5.2h0ZM78.1,94.9c-.2-.1-.5-.3-.7-.4.2.2.5.3.7.4ZM79.7,95.5c-.2,0-.3,0-.5-.2.2,0,.3.1.5.2ZM78.9,95.2c-.2,0-.4-.2-.5-.2.2,0,.3.2.5.2ZM76.1,91.6c0,.6,0,1.1-.2,1.6-.3-.4-.7-.8-1-1.2.4-.1.8-.3,1.2-.4ZM70.6,79.1c0-.5,0-.9,0-1.4,0,.5,0,.9,0,1.4ZM70.6,76.3c0,.3,0,.6,0,1,0-.3,0-.6,0-1ZM70.5,75.9c0-.3,0-.6-.1-.9,0,.3,0,.6.1.9ZM70.3,74.6c0-.3-.2-.7-.3-1,.1.3.2.7.3,1ZM70,73.4c-.1-.4-.3-.8-.4-1.2.2.4.3.8.4,1.2ZM69.4,71.9c-.1-.3-.3-.6-.4-.8.2.3.3.5.4.8ZM70.6,79.1c.2.7.3,1.4.4,2.1-.2-.7-.3-1.3-.4-2.1h0ZM74.8,91.8c-.2-.2-.3-.5-.5-.7.2.3.3.5.5.7ZM74.2,90.7c-.1-.2-.3-.5-.4-.7.1.3.2.5.4.7ZM73.6,89.6c-.1-.3-.3-.6-.4-.9.1.3.2.6.4.9ZM73.1,88.3c-.2-.4-.3-.9-.5-1.4.2.5.3.9.5,1.4ZM72.5,86.7c-.1-.4-.3-.9-.4-1.3.1.5.3.9.4,1.3ZM71.9,84.9c-.1-.4-.2-.8-.3-1.2.1.4.2.8.3,1.2ZM71.4,83.1c-.1-.4-.2-.9-.3-1.3.1.5.2.9.3,1.3ZM76,93.3c.1.1.3.3.4.4-.1-.1-.3-.3-.4-.4ZM80.9,95.7c.2,0,.4,0,.5,0-.2,0-.4,0-.5,0ZM80.1,95.6c.2,0,.3,0,.5.1-.2,0-.3,0-.5-.1ZM81.9,95.8c.2,0,.4,0,.6,0-.2,0-.4,0-.6,0ZM82.9,95.9h.7-.7ZM83.9,95.9c.3,0,.7,0,1.1,0-.4,0-.7,0-1.1,0ZM85.6,95.8c.2,0,.4,0,.6,0-.2,0-.4,0-.6,0ZM86.9,95.6c.2,0,.3,0,.5,0-.2,0-.3,0-.5,0ZM88.2,95.5c.2,0,.3,0,.4,0-.2,0-.3,0-.4,0ZM89.6,95.3c0,0,.2,0,.2,0,0,0-.2,0-.2,0ZM93.7,94.6c.6-3.6,1.1-7.2,1.7-10.8.8-.3,1.6-.7,2.4-1,.2,0,.5-.2.7-.3.2,3.2.4,6.3.7,9.5,0,.6.1,1.3.2,1.9-.8,0-1.6,0-2.4.1-1.2.2-2.3.4-3.3.5h0ZM125.2,94.6c.2,0,.4,0,.6.1-.2,0-.4,0-.6-.1ZM133.8,96.8c-.2,0-.5-.2-.7-.2.2,0,.5.2.7.2ZM132.2,96.3c-.2,0-.5-.2-.7-.2.2,0,.5.1.7.2ZM130.7,95.8c-.2,0-.4-.1-.7-.2.2,0,.5.1.7.2ZM129.1,95.4c-.2,0-.4-.1-.7-.2.2,0,.4,0,.7.2ZM127.4,95c-.2,0-.4,0-.7-.1.2,0,.4,0,.7.1ZM251.2,65.9c-.1,0-.2,0-.3,0,.1,0,.2,0,.3,0,4.4-.8,10.1-1.8,16.7-2.8-6.6,1-12.4,2-16.7,2.8h0ZM245,67.3c.5-.1,1.1-.3,1.6-.4-.5.1-1.1.3-1.6.4ZM272,62.5c-.7,0-1.3.2-2,.3.6,0,1.3-.2,2-.3ZM269.9,62.8c-.6,0-1.3.2-1.9.3.6,0,1.2-.2,1.9-.3ZM347.2,128.6c14.7-9.6,27.5-25.4,25-44,0,0,0,0,0-.1,0,0,0,0,0,.1,2.5,18.6-10.4,34.4-25,44,14.5,3.4,21.8,17.2,17.7,31.3h0c4-14.1-3.3-27.9-17.7-31.3ZM370.7,79.9c0,.2.1.4.2.5,0-.2-.1-.4-.2-.5ZM371.5,81.9c0,.2.1.4.2.6,0-.2-.1-.4-.2-.6ZM372.3,114.6c-.4.9-.7,1.7-1.1,2.6.1-.7.2-1.3.3-1.9.3-.2.5-.4.8-.6h0ZM372,162.4c-.5-.1-1-.2-1.5-.3.5.1,1,.2,1.5.3ZM370,161.9c-.4-.1-.8-.2-1.2-.4.4.1.8.2,1.2.4ZM368.2,161.4c-.4-.1-.8-.3-1.1-.5.4.2.8.3,1.1.5ZM366.5,160.7c-.5-.2-1-.5-1.6-.8.5.3,1,.6,1.6.8ZM372.2,162.4c.6.1,1.2.2,1.9.3-.6,0-1.2-.2-1.9-.3ZM378.2,163c.6,0,1.2,0,1.8,0,2,0,4.1,0,6.1-.1-2.6,0-5.3.2-7.9.1h0ZM387.5,162.9c-.2,0-.4,0-.5,0,.2,0,.4,0,.5,0ZM389.4,162.8h.2c.9-.7,1.9-1.5,2.8-2.2,3.7-2.9,7.3-5.9,10.9-8.9,1.5-1.2,3.1-2.5,4.6-3.8-.4,1-.8,1.9-1.2,2.9-1.6,3.6-3.3,7.2-5,10.8-4,.4-7.9.8-11.8,1.2h-.6ZM410.2,160.6c-.2,0-.4,0-.5,0,.2,0,.4,0,.5,0ZM533,62.2c0-.4,0-.8,0-1.2,0,.4,0,.8,0,1.2ZM532.8,64.6c0-.5.1-1,.2-1.5,0,.5,0,1-.2,1.5ZM532.8,57.1c0,.4,0,.7.1,1.1,0-.4,0-.8-.1-1.1ZM533,59.1c0,.4,0,.7,0,1.1,0-.4,0-.8,0-1.1Z"/>
      <path class="st0" d="M381.9,83.8s0,0,0,0c0,0,0,0,0,0,0,0,.2-.2.3-.2-.1,0-.2.2-.3.3h0Z"/>
      <path class="st0" d="M376.6,88.5c0,0,.1,0,.2-.2-.1.1-.2.2-.4.3,0,0,.1-.1.2-.2h0Z"/>
      <path class="st0" d="M377.4,87.8c0,0,.1-.1.2-.2,0,0,.1,0,.1-.1-.1,0-.2.2-.4.3h0Z"/>
      <path class="st0" d="M382.2,83.6h0s0,0,0,0c0,0,0,0,0,0h0Z"/>
    </g>
  </g>
</svg>