<?xml version="1.0" encoding="UTF-8"?>
<svg id="Layer_2" data-name="Layer 2" xmlns="http://www.w3.org/2000/svg" viewBox="0 0 833.55 486.4">
  <defs>
    <style>
      .cls-1 {
        fill: rgba(107, 85, 58, .72);
      }

      .cls-2 {
        fill: #eaebf4;
      }

      .cls-2, .cls-3, .cls-4 {
        stroke: #eaf4ff;
        stroke-linejoin: round;
      }

      .cls-5 {
        fill: #59452c;
      }

      .cls-6 {
        fill: #735d43;
      }

      .cls-7 {
        fill: #57432a;
      }

      .cls-8 {
        fill: #ca9273;
      }

      .cls-3 {
        fill: #e8e8f2;
      }

      .cls-9 {
        fill: #f5ebc7;
      }

      .cls-10 {
        fill: #c0945c;
      }

      .cls-11 {
        fill: #c6a479;
      }

      .cls-12 {
        fill: #ac8d65;
      }

      .cls-13 {
        fill: #877156;
      }

      .cls-4 {
        fill: #21223e;
      }

      .cls-14 {
        fill: rgba(78, 59, 35, .72);
      }

      .cls-15 {
        fill: #5a462d;
      }

      .cls-16 {
        fill: #846f54;
      }
    </style>
  </defs>
  <g id="Table">
    <g>
      <path class="cls-16" d="M832.01,133.74c-.21-.92-.01-2.56-.66-3.2-.1,1.28-.17,2.58-.23,3.87.31-.21.61-.43.89-.67Z"/>
      <path class="cls-16" d="M831.22,130.42h.01l-.03-.02s.01.01.02.02Z"/>
      <path class="cls-16" d="M831.23,130.42s.08.08.12.12v-.08s-.08-.03-.12-.04Z"/>
      <path class="cls-16" d="M831.58,150.35c.92-1.28.61-3.02-.13-4.27-.29-.38-.58-.76-.92-1.06.27.03.55.05.82.08-.32-1.85-.41-3.56.21-5.36-.23-.03-.46-.06-.69-.09-.02.37-.05.75-.07,1.13-.06-.39-.11-.77-.16-1.16-2.66-.3-5.36-.39-8.03-.38,2.76-1.29,5.44-2.75,7.96-4.46.18-2.36.13-4.71-.31-7.04-1.22.35-2.43.76-3.63,1.19-1.06-1.56-3.48-2.06-5.22-1.34-.03.12-.06.23-.08.35-.2-.04-.4-.07-.59-.13.03-.02.06-.04.08-.07-3.63,1-7.19,2.29-10.7,3.66,3.66-.03,7.32-.11,10.98.04h.09s.01.07.01.1c-5.69,1.28-11.52,1.91-17.3,2.54,1.83-.93,5.67-.36,6.21-2.67-5.15,2-10.24,4.15-15.46,5.99.74.02,1.49.04,2.23.06.76.01,1.52,0,2.28.01-.07.01-.13.03-.18.03,3.28.28,6.47.23,9.6-.11,2.72-.05,5.43-.13,8.16-.22h.07c.38-.48.74-1,.95-1.6,3.05-.87,6.06-2,9.07-3.35-1.71,1.04-3.47,1.98-5.26,2.87.01.08.02.16.04.24-.08-.05-.16-.1-.25-.14-.31.16-.63.32-.95.46-.71.32-1.41.65-2.12.97-.35.15-.7.31-1.05.47-.1.04-.19.09-.28.13-.1.04-.2.09-.3.13.03-.03.05-.06.08-.09-2.27.84-4.65,1.27-7.08,1.47.05-.02.09-.04.14-.06-3.85.02-7.86-.48-11.65-.1-3.89-.21-7.79-.4-11.54.04-.02-.18-.09-.36-.19-.51,2.17-.53,4.35-.68,6.55-.7-.52-.43-1.06-.77-1.71-1.04,6.74-3.89,20.12-7.59,23.34-14.59-25.79-2.76-40.85,5.89-64.31,13.43-.37.05-.74.11-1.11.16-.08.01-.15.02-.22.03,1.67-1.64,3.73-2.87,5.83-4.06,1.2.02,2.41.04,3.6.05,2.63.16,4.33-.22,5.18-1.17.51-.57.69-1.31.51-2.29-.44-1.1-1.2-1.81-2.12-2.32-.02-.74-.37-1.51-.94-2-2.74-2.52-6.19-1.37-9.39.05-4-.43-8.05-.8-12.19-1.11.03-.27.02-.54-.06-.79-2.71-.33-5.28-.13-7.8.28-3.85-.21-7.76-.38-11.77-.5,13.04-.9,28.63-1.74,44.39-1.74.33,0,.66,0,.99,0h.13l.1-.08c1.41-1.15,1.94-2.15,1.61-3.06-.95-2.63-9.43-2.93-17.59-2.87-.69,0-1.24.01-1.62,0h-.03c-47.66,3.69-97.45,7.13-148.32,8.96.09-.12.18-.23.27-.35-4.04-.03-8.07-.1-12.11-.16-.54.32-1.09.64-1.64.96-5.59.17-11.19.31-16.81.44.71-.52,1.43-1.05,2.14-1.57-4.41-.01-8.22.03-12.76.08-.82.58-1.64,1.16-2.46,1.74-6.4.1-12.81.16-19.22.2.83-.57,1.65-1.15,2.44-1.77-3.69.02-7.41.04-11.13.04-.75.63-1.54,1.21-2.34,1.77-5.1,0-10.2-.03-15.31-.08.73-.55,1.47-1.09,2.21-1.63-6.03-.07-11.93-.54-17.35,1.42-.83-.02-1.67-.02-2.5-.04-.43.05-2.58.13-5.56.24-1.71.06-3.77.14-6.07.23.91-.61,1.83-1.2,2.75-1.79-3.68-.01-7.35-.03-11.03-.06-.56.37-1.15.71-1.72,1.07-.73.44-1.45.89-2.18,1.33-.9.05-1.81.1-2.72.15,1.46-.86,2.92-1.72,4.38-2.57-4.38-.04-8.75-.09-13.12-.12-.06.04-.12.07-.17.11-1.81,1.19-3.6,2.39-5.4,3.58-2.12.19-4.16.39-6.05.61-.17,0-.33.01-.49.02,2.22-1.44,4.43-2.89,6.64-4.35-3.76-.02-7.52-.01-11.28,0-1.23.72-2.46,1.45-3.69,2.18-4.11-1.73-13.1-1.47-22.48-.76-.01-.03-.02-.07-.03-.1.64-.4,1.28-.81,1.92-1.22-4.05.01-8.11.01-12.17,0,.02.06.04.11.06.16-.47.33-.97.64-1.47.92-.3-.36-.59-.72-.89-1.08h-7.6c.79.95,1.58,1.91,2.37,2.87-.76.06-1.48.11-2.16.16-.33-1.01-.66-2.02-1-3.03-7.54,0-15.08.04-22.63.1.28.86.56,1.72.83,2.58-.94-.08-1.87-.17-2.8-.25l-.72-.06c-1.48.13-2.4.68-2.91,1.36-.88-.48-1.76-.96-2.63-1.45-.32-.7-.65-1.4-.97-2.1-6.68.06-13.35.11-20.03.12.26.29.51.59.77.89-1,.62-2.01,1.24-3.01,1.86-.82-.75-1.92-.95-3.06-.95.78-.6,1.55-1.2,2.33-1.8-4.62,0-9.24.02-13.86.04-1.29.76-2.59,1.52-3.88,2.28-1.05.03-2.1.07-3.14.1-6.66.2-13.44.41-20.17.8-.16-1.02-.28-2.05-.35-3.08-5.81.03-11.62.04-17.44.05-1.31,1.3-2.7,2.5-4.24,3.54h-5.25c.11-1.18.24-2.36.4-3.54-4.41,0-8.82,0-13.22,0-1.45,1.11-2.86,2.29-4.27,3.47h-1.15c.07-1.15.15-2.3.26-3.45-2.32.01-4.64.02-6.96.04-.09,1.12-.16,2.24-.21,3.36-1.74-.27-3.49-.54-5.23-.79-.14-.84-.27-1.68-.41-2.52-2.26.03-4.51.05-6.77.08.07.48.15.96.23,1.44-.52-.07-1.05-.15-1.57-.22-1.64-.23-3.28-.47-4.92-.7.02-.15.03-.3.05-.45-8.86.73-18.51-1.17-27.05.78.02-.27.05-.54.07-.81-2.19-.03-4.38-.06-6.57-.08-.08.87-.14,1.75-.2,2.63-1.48.08-2.88.31-4.19.71h-1.98c-.05-.14-.11-.29-.17-.43-.38-.99-.75-1.98-1.12-2.96-5.84.12-11.83-.81-17.21,1.92.03-.6.06-1.21.09-1.81-4.51.07-9.02.17-13.53.2.02.09.05.18.08.27-1.41,2.14-2.89,4.23-4.35,6.33-1.22.15-2.45.31-3.68.47.03-2.35.05-4.7.18-7.05-11.04-1.13-18.81.99-28.06,7.1.06-1.27.26-2.51.41-3.76-2.17,1.02-4.33,2.03-6.5,3.07-.01,0-.02.01-.03.01-.1,1.4-.24,2.8-.35,4.21-1.29.7-2.57,1.42-3.85,2.14-.97-1.76-2-3.49-3.03-5.22,2.5-1.19,5.01-2.34,7.5-3.53-.12.78-.22,1.55-.26,2.34,1.55-1.03,2.95-2.28,4.43-3.42.71-.01,1.43-.01,2.14-.02.1-.82.21-1.64.31-2.46.47-.2.93-.4,1.4-.6-6.5.43-13.44-1.24-19.68.75-.18-.3-.36-.61-.54-.92-2.36-.02-4.72-.04-7.09-.04.6,1.06,1.21,2.11,1.83,3.16-.26.11-.52.22-.79.34,3.99-.02,7.98-.05,11.97-.09-1.54.81-3.09,1.68-4.65,2.57-4.35-2.11-8.65-2.93-13.5-2.47-.91.62-1.82,1.24-2.74,1.86,2.03.82,3.95,1.89,5.91,2.85-1.19-.15-2.4-.27-3.6-.36-.94-.67-1.82-1.43-2.57-2.31-.62.43-1.24.85-1.87,1.27.33.31.66.61,1.01.89-.78-.01-1.56-.01-2.33.01-1.11.75-2.22,1.48-3.34,2.22-.29.11-.59.22-.89.32-.3.11-.6.22-.89.33.41-3.55.98-7.08,1.66-10.59-2.07.01-4.13.01-6.19.01-.23,1.15-.46,2.31-.67,3.48-3.42-.3-6.69.28-9.85,1.38,1.42-.75,2.84-1.54,4.47-1.36-.36-1.16-.73-2.33-1.08-3.5-3.78,0-7.56-.01-11.34-.01-2.04,1.55-4.19,2.98-6.41,4.29.24-1.44.54-2.87.86-4.3h-6.44c-.62,2.6-.98,5.25-1.43,7.88-.85.38-1.7.74-2.55,1.1-.39-2.33-.78-4.66-1.16-6.99.87-.69,1.75-1.35,2.64-1.99-3.46,0-6.93.01-10.39.04-.64.58-1.28,1.16-1.9,1.75.07-.58.16-1.16.24-1.74-3.54.03-7.07.09-10.61.15.03,1.71.03,3.42.04,5.13.98-.63,1.95-1.27,2.92-1.91.61.01,1.22.02,1.83.03-1.58.82-3.16,1.63-4.75,2.45.01,2.31-.01,4.62-.08,6.92-1.14,1.26-2.3,2.5-3.43,3.77-1.04.25-2.09.51-3.14.75.76-5.74,1.88-11.41,3.06-17.07-2.23.04-4.46.08-6.69.12-.2.93-.39,1.86-.57,2.8,1.11.02,2.22.04,3.34.06-1.27.79-2.56,1.56-3.83,2.34-.03.14-.06.28-.08.42-.01-.11-.03-.23-.04-.35-.4.25-.81.5-1.22.75-.09-1-.19-2-.2-3,.37-.23.77-.28,1.19-.24-.19-2.06-.35-4.12-.53-6.18-1.2,1.3-3,2.21-3.8,3.8-1.32.28.05,3.14.02,4.35-.47,2.75-.35,6.5-.16,9.66-.14,2.67-3.36,8.34,1.01,8.74,4.8.37,9.63.19,14.44.12.02-.02.03-.04.05-.07v.07c2.89-.1,5.78-.28,8.68-.37.13-1.24.26-2.47.39-3.7,2.44-.77,4.89-1.51,7.33-2.28.2,1.28.4,2.55.59,3.83,2.14-1.35,4.29-2.69,6.43-4.03.4.22.85.36,1.25.38,1.69.37,3.24.14,4.71-.37l.17.02c-4.13,1.77-7.77,5.18-12.48,4.53.07.41.12.83.18,1.25-.74.02-1.48.04-2.22.06-.32-.03-.73.05-1.06.21-.7,0-1.4,0-2.09,0,.44.36.95.58,1.48.74-.03.24.06.59.6.92,0,0,.02.01.02.01l.09.06c-.01.55-.03,1.11-.05,1.66-.26.03-.51.07-.72.14l-2.36.73h3.05c-.01.42-.02.83-.04,1.23-.41.64-.44,1.48-.09,2.16-.95.41-1.52,1.26-1.11,2.79.41,2.11.58,4.28.72,6.46-.74,14.8-1.82,29.6-1.76,44.42v.02c.09,83.89-.41,167.78,1.26,251.65-.01,1.7-.02,3.39-.03,5.09-1.06.6-1.8,1.76-1.22,3,.35.53.76.95,1.21,1.29-.24,3.05-.58,6.36,2.61,7.13,6.93-1.65,29.39,1.76,32.43-3.52-.35-20.06-1.6-40.2-1.87-60.3-1.37-54.47-3.97-108.92-5.02-163.4.01-2.96,0-5.91,0-8.87.89-30.81,3.67-61.91,4.69-92.5.54-.07,1.09-.12,1.63-.2l-.02-.35c4.19.12,8.39.25,12.57.42.02-.85.04-1.7.07-2.55,2.73-1.34,5.47-2.65,8.23-3.93l11.78,2.62c-.27.17-.54.33-.8.49-1.85,1.16-3.68,2.36-5.46,3.61,3.18.01,6.35,0,9.52-.02,2.11-.02,4.21-.04,6.31-.08-.7.04-1.41.07-2.11.1-1.41.05-2.81.07-4.2-.02-.86,1.74.96,2.42,2.58,2.79-.04.08-.04.19,0,.33-.63-.05-1.25-.11-1.88-.16-3.78.05-2.98,4.89.23,5.3-8.34,51.1-14.62,102.43-12.06,154.29.6,4.31-1.34,9.75,1.45,13.36,10.16,4.78,22.52,4.56,33.47,7.35,3.14,1.24,6.9-1.64,5.25-4.96-.96-3.21-.36-6.61-.48-9.91.2-24.88.41-49.76.6-74.65.13-15.55.25-31.12.38-46.68.09-1.58.11-3.07.04-4.43.04-4.94.08-9.89.12-14.83-1.15-8.05,3.94-20.76-5-22.7.9-.75,2.05-1.3,3.54-1.55,1.39-1.31,1.06-2.1-.33-2.54-2-.63-6.18-.51-10.52-.11-.75-.36-1.59-.71-2.05-.85-.04-.02-.07-.03-.11-.04l1.07-.4c.69-.03,1.38-.05,2.07-.09,0-.23,0-.46.01-.7l12.26-4.62,3.95.2c-2.32,1.56-4.6,3.19-6.78,4.93h.09c6.35-.07,12.82.06,19.18.43-.01-.52-.02-1.04-.04-1.56l.03-.03c-2.28-.08-4.57-.2-6.85-.3,2.88-.63,5.78-1.12,8.63-1.85.23-.28.45-.57.67-.86l11.09.57c.4,1.42.79,2.84,1.2,4.26,2.37.02,4.75.04,7.13.06-.08-.62-.16-1.24-.23-1.86h-.64c.2-.06.41-.11.62-.17-.06-.63-.11-1.25-.17-1.88l4.35.22c-.13.19-.26.38-.38.57.31-.08.63-.17.94-.27h.01c.72.43,1.44.84,2.18,1.23-1.34.22-2.69.34-4.06.27-.46.6-.92,1.19-1.4,1.76-.16.05-.31.09-.47.14.46,0,.92.01,1.38.01,15.23.1,30.48.4,45.67-.77-8.71-2.03-17.21-1.79-25.98-1.3,2.78-.53,5.71-.24,8.46-1.12,0-.51,0-1.02,0-1.53.48.39,1.1.66,1.82.68,3.19.25,6.39-.12,9.5-.54,2.16.97,4.37,1.82,6.61,2.6.8.27,1.6.54,2.41.8.03.07.07.14.1.21,4.78-.28,9.55-.59,14.33-.91,3.19-.21,6.38-.42,9.56-.63-.06-.27-.12-.53-.18-.8.47-.48.94-.95,1.41-1.42.11-.01.22-.02.33-.03v2.16c6.16-.38,12.31-.71,18.47-.96.44.62,1.06,1.12,1.76,1.36l.12.02c25.09.26,50.59-1.16,75.75-2.99,9.91.15,19.82.43,29.73.81,7.61.29,15.21.63,22.82,1,1.46.09,2.93.18,4.39.27-.13-.07-.25-.14-.38-.21.07-1.13.09-2.26.06-3.38-.52-.03-1.04-.06-1.56-.09.13-.05.27-.11.4-.17,3.57-.19,7.17-.3,10.65-.12-.17.45-.25.87-.23,1.27-2.25,1.01-4.51,1.97-6.83,2.83,7.02.51,14.04.92,21.07,1.16,6.16.23,12.33.31,18.5.23,3.96-.18,7.95.06,11.91.19,7.92.28,15.68.16,22.68-4.43-2.08,1.59-4.18,3.14-6.21,4.81,3.33.14,6.65.29,9.98.41.62-.46,1.24-.93,1.86-1.4,1.86-1.42,3.7-2.84,5.65-4.13-1.62.61-3.14,1.55-4.93,1.28,3.01-.73,5.72-2.03,8.32-3.58.82-.01,1.65-.04,2.47-.04-.02,1.08.3,1.97.96,2.64.04.05.1.08.15.13-3.98,1.77-7.99,3.47-12.02,5.13-.03.02-.06.03-.09.04,7.39.09,14.9,1.46,21.37-2.91-1.21,1.09-2.43,2.18-3.65,3.27,3.42.13,6.85.28,10.27.44,6.64.32,13.28.65,19.93.81-.74.47-1.18.97-1.23,1.53l-.04.42.43-.02c10.81-.49,22.04-.56,32.9-.62,12.19-.07,24.55-.15,36.85-.81-.55.45-1.1.9-1.64,1.37,3.3.14,6.6.28,9.9.41,1.26-.89,2.53-1.76,3.8-2.64,1.75-.16,3.5-.33,5.25-.52-2.6,1.03-5.19,2.1-7.76,3.22,14.32-.59,29.62,4.28,43.18-1.16-1.73.88-3.43,1.81-5.12,2.73,5.3.74,10.19.52,14.91-.79,2.95-.83,5.84-2.07,8.71-3.79,7.29-3.08,14.54-6.24,21.74-9.53-.79.24-1.59.48-2.39.72,2.2-1.35,4.39-2.72,6.58-4.08.22,0,.44-.02.66-.03,3.33-.13,6.67-.26,10.02-.39-14.59,7.12-29.35,14-44.96,18.41-.13.04-.27.07-.4.11,10.83.81,21.67,1.3,32.53,1.25,1.84.02,3.68,0,5.5-.09-1.21,1.05-.55,2.82-.73,4.22-1.24.05-1.1,1.12-.52,1.8-1.1,1.05-.66,2.25.46,3.16-.47,39.19-.94,78.39-1.39,117.59-.06,15.79-.58,31.6-.34,47.38,2.44,7.45,17.53,3.6,24.01,5.36,6.77.75,3.59-8.28,4.55-12.41.44-11.72.7-23.46,1.13-35.18.95-41.17,2.16-82.35,2.67-123.53v-.44c.31-2.16-.1-3.61-.98-4.55,1.12-3.06-7.78-4.6-10.86-3.85-.7-.54-1.96-.63-2.53.11-2.46.54-6.62.36-9.97,1.08-.31-.41-.72-.75-1.23-.98-1.22.08-2.45.14-3.68.19,2.61-.18,5.19-.57,7.7-1.43,11.57.45,23.39-5.26,34.77-7.77-4.07,2.04.63,6.21,3.72,5.15.11.24.26.45.43.65,10.36-.83,21.09,1.12,31.4,1.14,2.7.23,5.38.24,8.05.03-.02.14-.04.29-.03.43,2.39.11,4.78.2,7.18.26.62-.89,1.35-1.6,2.13-2.19,3-.7,5.96-1.6,8.89-2.62,1.71-.12,3.43-.17,5.06-.28-3.31,2.21-7.03,3.78-10.74,5.2,2.89-.45,9.29.28,15.9.76,9.25.67,18.89.85,19.85-3.36-.43.15-.86.3-1.29.44ZM327.38,130.41s.04,0,.06,0c-.23.11-.45.21-.68.32.2-.11.41-.21.62-.32ZM365.47,129.14c.34.55.86,1.06,1.56,1.44-.89.13-1.81.21-2.7.29-.83.07-1.67.15-2.5.26,1.18-.72,2.4-1.38,3.64-1.98ZM205.16,126.33h-.99c.14-.07.28-.14.42-.21h.9c-.11.08-.22.14-.33.21ZM202.51,137.9c.29.22.59.42.89.64-.46.05-.92.1-1.38.14-.56.05-1.13.11-1.71.17-.44.07-.76.19-1.03.33,0-.05,0-.1,0-.15-.27.08-.54.17-.81.26,1.35-.44,2.7-.9,4.04-1.39ZM538.5,141.78c3.99-.13,8.01-.26,12.01-.37-.01,0-.02.02-.04.03-4.23,1.2-8.53,2.04-12.92,2.31-2.02.13-4.07.14-6.13.01,2.36-.67,4.72-1.32,7.08-1.98ZM645.12,136.38c-.66-.07-1.32-.15-1.98-.21.89,0,1.78-.03,2.67-.04-.23.08-.46.16-.69.25ZM387.97,125.5c-.84.05-1.69.09-2.53.11.68-.55,1.35-1.1,2.03-1.65.17.51.33,1.02.5,1.53ZM352.41,125.8c.18-.17.36-.34.54-.51,1.62,1.21,3.52,1.39,5.48,1.35,1.61-.01,3.26-.18,4.83-.04l1.94.02c-.04.09-.07.18-.1.28-.7.01-1.41.06-2.11,0-.28.01-.55.02-.83.02-1.23,0-2.49-.11-3.73-.11-.81,0-1.61.05-2.38.21.45.25.89.5,1.34.74.02.05.05.1.07.14.59,1.26,1.17,2.5,1.76,3.75-.44.13-.87.27-1.28.45-.03,0-.06,0-.1,0-1.2-1.43-2.4-2.85-3.63-4.26-1.85.82-3.71,1.65-5.57,2.47.45.52.9,1.05,1.35,1.57-1.25-.02-2.49-.04-3.73-.06.28-.28.56-.56.84-.84-.63.28-1.26.55-1.89.83-1.05-.01-2.09-.03-3.14-.04,2.73-1.64,5.45-3.31,8.16-4.99-3.29-.03-6.58-.06-9.86-.1,0-.06-.01-.12-.02-.19,4.24,0,8.48.02,12.72.04-.22-.25-.44-.49-.66-.74ZM162.63,126.13c-2.12,1.1-4.33,2.09-6.53,3.1-1.42.16-2.85.31-4.27.48,3.18-2.43,6.58-4.39,10.8-3.58ZM370.25,139.96c.23-.03.46-.06.69-.09.71.15,1.41.29,2.13.4-.69.28-1.36.65-2.02,1.13-.27-.48-.53-.96-.8-1.44ZM451.85,144.45c1.51-1.18,3.07-2.3,4.65-3.39-1.34.78-2.86.45-4.34.46.03-.01.06-.03.08-.04,3.13-.36,6.3-.71,9.5-1.04-3.28,1.38-6.58,2.72-9.9,4ZM655.99,140.61c3.19-1.2,6.23-2.98,9.23-4.86,2.61-.07,5.22-.15,7.83-.23-5.65,1.81-11.38,3.4-17.06,5.1Z"/>
      <path class="cls-16" d="M16.76,112.3c.04.52.08,1.03.13,1.55,2.07-1.87,4.15-3.74,6.23-5.61-.16-1.32-.19-2.67-.61-3.94-4.59,4.15-9.2,8.29-13.8,12.44-.5,1.89-.96,3.79-1.38,5.7,2.92-2.61,5.83-5.22,8.73-7.84.23-.77.46-1.54.7-2.3Z"/>
      <path class="cls-16" d="M31.36,96.3c-2.03,1.84-4.07,3.68-6.11,5.52-.23,1.03-.36,2.09-.58,3.12-.17.78-.34,1.57-.5,2.35,3.21-2.88,6.41-5.76,9.62-8.63-.33-1.15-1.29-2-2.43-2.36Z"/>
      <path class="cls-16" d="M423.66,26.15s.03.02.03.03c.02-.01.04-.03.05-.05-.02.01-.05.01-.08.02Z"/>
      <path class="cls-16" d="M423.18,26.68c.42-.27.56-.42.51-.5-.16.18-.44.35-.51.5Z"/>
      <path class="cls-16" d="M419.85,26.72c-.11.16-.25.31-.39.44,1.4-.33,2.8-.66,4.2-1.01-.37-.21-3.18.56-3.81.57Z"/>
      <path class="cls-16" d="M422.76,30.57c-7.18.38-14.34.87-21.47,1.58,3.8-.47,7.52-1.27,11.09-2.96-3.82.73-7.65,1.34-11.34,2.61-.68.19-1.36.36-2.05.53,1.75-.54,3.5-1.08,5.25-1.62-4.09.73-8.2,1.37-12.29,2.12-.22.04-.43.08-.65.12,2.48-.19,4.95-.32,7.4-.54-11.37,1.22-22.65,3.05-33.77,6.01-14.11,3.27-28.19,6.63-42.22,10.19,13.3-1.11,26.69-1.29,39.92-2.99,20.26-3.82,40.06-10.23,60.13-15.05Z"/>
      <path class="cls-16" d="M387.45,44.6c18.19.39,34.7-8.67,51.33-15.12-18.46-.72-34.18,9.59-51.3,15.11-.01,0-.02.01-.03.01Z"/>
      <path class="cls-16" d="M447.02,28.95c-7.5,8.08-19.07,8.87-28.77,13.36-.73.27-1.45.55-2.18.82,6.05-.53,12.32.28,18.02-2.08-.21.29-.42.59-.61.9-.32.15-.64.29-.97.43,5.92-.83,12.81,1.23,17.7-2.84,2.24-1.64,5.85-4.39,2.35-6.79,2.02-1.5,3.92-3.17,6.02-4.55-3.85.25-7.7.51-11.56.75Z"/>
      <path class="cls-16" d="M463.59,41.31c12.83-.86,25.89-.7,38.56-2.8-.69.23-1.37.46-2.06.7,20.35.53,38.77-8.68,58.63-11.7-8,3.22-16.08,6.24-24.06,9.52,10.59-.61,21.18-1.16,31.77-1.63,13.59-4.16,27.25-8.09,40.89-12.07.64.37,1.3.69,1.96.99-11.4,4.36-23.22,7.47-34.95,10.8,36.04-5.67,72.18-10.94,108.35-15.9,12.72-1.75,25.45-3.46,38.18-5.13-2.49-1.87-4.29-5.92-7.77-5.62-5.67,1.37-11.38,2.83-16.96,4.56.64.01,1.27.02,1.91.03-5.37.26-10.42,2.88-15.63,4.18.65-1.14.35-2.7-.22-3.82-15.47-.24-30.6,1.32-45.47,5.7,2.22-.98,4.88-1.91,5.96-4.26-10.56.58-21.19.95-31.71,1.89.01-.04.01-.07.01-.11-2.32.14-4.64.29-6.95.44-.02.54.02,1.07.11,1.59-11.97,3.38-23.95,6.73-35.88,10.25,2.08-1.38,4.25-3.41,1.91-5.72,5.85-1.56,11.65-3.31,17.46-5.02-26.2.23-51.18,7.57-76.7,12.67,8.54-3.08,17.53-5.11,25.74-8.99-9,.71-18.03,1.31-27.01,2.13-15.32,5.04-30.34,10.97-45.29,17.02-.26.1-.52.2-.78.3Z"/>
      <path class="cls-16" d="M413.21,18.87c.43,1.42.92.53.76-.4-3.67-2.27-8.57.84-12.53,1.31,3.04-1.38,16.89-8.05,6.57-8.84-10.67,3.85-19.44,11.55-29.87,15.74-.27.2-.45.46-.55.76,10.86-2.17,21.93-3.69,32.07-8.35,1.14-.32,2.4-.66,3.55-.22Z"/>
      <path class="cls-16" d="M420.16,23.85c.23.54.29,1.1.21,1.64,0,.01,0,.02-.01.03.06,0,.11-.03.16-.05h0c7.61-1.05,15.27-1.14,22.93-1.7-.01-.02-.01-.03-.01-.05,6.84-2.05,13.68-4.11,20.55-6.06-2.82,1.65-5.63,3.34-8.36,5.14,5.03-1.02,11.52.56,15.49-3.21,3.21-.74,6.94-3.19,9.08-5.69.94-2.94-2.31-4.65-4.84-4.25h.5c-14.89,1.28-28.92,7.87-43.46,11.13-2.5-4.32-11.15.16-15.22.5,1.28.45,2.44,1.36,2.97,2.57Z"/>
      <path class="cls-16" d="M588.73,11.68c-3.11.99-6.23,1.92-9.36,2.84,10.55-.34,21.1-.67,31.66-.97-3.76-8.73-15.54-3.65-22.3-1.87Z"/>
      <path class="cls-16" d="M623.93,13.09c-.26.08-.52.15-.78.22,6.63-.09,13.25-.24,19.88-.27-1.7-7.08-14.28-.62-19.1.05Z"/>
      <path class="cls-16" d="M667.24,12.32c-1.15.19-2.3.38-3.45.6,6-.03,11.98,0,17.98-.02-3.27-2.75-10.51-.98-14.53-.58Z"/>
      <path class="cls-16" d="M182.47,79.99c-4.65,1.37-9.31,2.72-13.96,4.1-5.77,1.57-11.53,3.14-17.3,4.71,11.45.73,21.62-2.8,31.26-8.81Z"/>
      <path class="cls-16" d="M207.23,77.7c-3.22,1.49-9.83,4.05-3.54,7.03,4.77.49,9.67-.85,14.44-1.36-.74.58-.93,1.67-.53,2.51.02.06.05.12.09.19,8.82-.84,18.16.99,26.47-2.5,14.21-5.15,29.12-9.89,42.63-16.18.67-.23,1.33-.46,1.99-.7-15.77.71-31.53.77-46.5,6.09-7.64,2.13-15.28,4.39-23.13,5.62,5.44-2.72,10.87-5.48,16.25-8.32-13.47,1.57-27.37,1.64-40.27,6.08-.18,6.69,8.52,2.65,12.1,1.54Z"/>
      <path class="cls-16" d="M793.16,385.85v-.44c0-.19,0-.38.01-.56v-.13c0-.21,0-.43.01-.64v-.15c0-.28,0-.55.01-.83v-.21c.01-.46.01-.92.02-1.38,0-.44,0-.88,0-1.31.01-.42.01-.84.02-1.26v-.2c.1-6.66.22-13.32.29-19.99v-.2c0-.27.01-.53.01-.8v-.24c.34-27.87-.71-55.76-1.43-83.6-.27,5.03-.55,10.13-.83,15.24-.05-7.46-.12-14.92-.23-22.38,1.87-4.26-.32-21.01.39-24.11-1.08-5.01,2.69-48.84-2.67-45.36-.01-1.67-.63-3.76-2.65-3.75-.48-1.72-.22-4.22-1.95-5.19-.17-2.17.06-11.34-3.78-7.48-.34,3.81-.45,7.64-.67,11.47-3.7-8.21-1.11-17.8-1.87-26.63,6.19.61,5.85-3.28,0-2.91-.07-.84.14-1.75-.17-2.53,1.93.14,6.61-1.12,3.4-3.26-1.32-3.39-6.92-1.31-9.87-1.93-.67-1.37-3.24-1.79-3.66-.03-3.64-.27-4.53,3.45-.71,4.15-1.38,18.83-.48,37.84,1.22,56.7-.08,1.8-.14,3.17-.2,3.99v-.05s0,.11,0,.16c-.04,1.32-.07,2.63-.1,3.94-9.08,17.02-3.59,46.47-4.03,66.37,1.15,22.64.32,45.52,2.55,68.09-.49,26.64-.96,53.29-1.46,79.93-.11,8,0,16-.07,24,0,.09-.01.18-.01.28-1.32,25.77-1.87,21.74,22.65,23.68,1.33.15,3.25.34,3.84-1.18.37-6.58.31-13.22.42-19.84,3.13-8.03,2.1-28.02.75-43.3.3-12.04.6-24.08.78-36.13Z"/>
    </g>
    <path class="cls-8" d="M377.48,117.91c.35,0,.7,0,1.04,0-11.27,1.04-22.57.92-33.86.31,10.94-.09,21.88-.2,32.82-.3Z"/>
    <path class="cls-11" d="M289.49,64.86c2.84,3.78,5.61,7.81,7.64,12.02-2.89-3.73-5.73-7.77-7.64-12.02Z"/>
    <path class="cls-10" d="M297.13,76.89c-2.89-3.73-5.73-7.77-7.64-12.02,2.84,3.78,5.61,7.81,7.64,12.02Z"/>
    <path class="cls-13" d="M133.55,10.42c-.26-.34-.5-.68-.7-1.05-1.63,1.55-2.97,3.36-4.19,5.28,1.56-1.52,3.21-2.93,4.89-4.22ZM282.54,118.6c-5.98.02-11.97.04-17.95.06,5.98-.02,11.97-.03,17.95-.06ZM297.13,76.89c-2.03-4.21-4.8-8.24-7.64-12.02,1.91,4.25,4.75,8.29,7.64,12.02ZM318.7,118.41c-5.86.04-11.71.07-17.56.11,5.86-.03,11.71-.06,17.56-.11ZM378.52,117.9c-11.28.1-22.57.22-33.86.31,11.29.61,22.59.73,33.86-.31ZM832.56,122.14c1.76,12.85-37.64,5.31-45.87,5.96-21.84-1.07-43.71-1.58-65.57-1.72-114.08-.38-227.92.99-341.92.68-121.32-.54-242.8-2.28-364.08-2.26-2.44.08-5.34-3.23-2.3-5.06,32.86-28.97,65.44-58.26,97.9-87.67,7.23-4.76,9.74-13.19,14.96-19.57-.87-3.54,2.38-5.74,6.3-6.73.5-5.31,6.56-6.25,10.87-5.58,16.45,1.19,32.99,1.2,49.47,1.41,121.1.18,242.39,6.01,363.48,3.69,49.7.19,99.48-2.19,149.14-1.4,10.55,1.86,16.7,11.73,24.2,18.42,10.96,11.05,21.84,22.21,32.5,33.55,16.58,19.74,37.96,34.23,57.38,50.91,4.67,4.82,12.01,8.48,13.53,15.37Z"/>
    <path class="cls-1" d="M829.86,116.72c-1.22-1.66-2.86-3.3-4.85-4.78-8.13-8.29-21.46-18.31-32.5-26.83-1.58-1.27-3.16-2.53-4.73-3.81h-.02c-2.32-1.89-4.64-3.79-6.92-5.72-5.49-4.94-10.54-10.34-15.56-15.77h.05c-.63-.68-1.27-1.35-1.9-2.02h.01c-.48-.52-.96-1.02-1.44-1.53-2.65-2.87-5.32-5.73-8.05-8.51-.08-.08-.15-.16-.23-.24-.78-.8-1.52-1.59-2.29-2.39-15.81-.11-31.62-.09-47.44-.22,14.86-1.21,29.76-1.92,44.64-2.69-5.68-5.87-11.39-11.71-17.13-17.52-7.5.09-14.98.18-22.48.27-.13,0-.26.01-.39.01-.3,0-.6,0-.9.01-4.3.04-8.59.07-12.89.12,11.86-.51,23.72-1,35.59-1.49-17.54-18.73-20.62-21.63-46.62-19.91-25.53.13-51.06.77-76.59,1.13-136.09-1.02-271.85,7.75-407.88,10.45,16.01-3.92,32.11-7.41,48.35-10.24,18.03-1.7,36.3-.69,54.41-1.44-40.93-2.86-81.91-1.78-122.89-2.25-5.6-.17-11.21-.34-16.79-.3-3.94-.1-7.89-.21-11.83-.35-5.77.24-15.93-3.26-18.29,3.74-.03.01-.07.02-.1.03-.13.43-.21.86-.24,1.3-2.69.68-5.06,1.93-6,3.8-.43.85-.56,1.83-.29,2.93-1.22,1.3-2.28,2.79-3.21,4.43.04-.01.07-.01.11-.02-.02.04-.05.08-.07.12-.03,0-.06,0-.09-.01-.14.3-.3.58-.45.87-1.24,2.04-2.44,4.12-3.74,6.11-1.94,2.64-4.16,5.05-6.52,7.36-.33.24-.65.48-.99.71-3.12,2.82-6.24,5.63-9.35,8.45-3.01,2.56-6,5.14-8.75,7.91-2.34,2.11-4.68,4.22-7.02,6.33,29.5-5.31,59.24-8.48,88.79-13.49,51.62-4,103.31-7.02,155.04-9.17,33.17-1.07,66.27-3.53,99.22-7.52,12.57-.46,25.13-1.59,37.65-2.72,1.81-.16,3.69-.9,4.84-2.27,75.54-4.4,151.22-7.48,226.91-6.52-206.35,7.46-411.86,30.52-617.66,46.4-2.76,2.48-5.52,4.97-8.28,7.45-3.53,3.18-7.07,6.36-10.61,9.54-6.06,5.44-12.14,10.86-18.22,16.28-1.48,1.32-2.96,2.65-4.44,3.96,7.83-1,15.66-2.05,23.49-3.14,74.78-4.77,149.7-8.14,224.63-8.81-44.66,4.8-90,2.94-134.77,7.82-41.41,3.23-82.46,9.9-123.84,13.41-3.94,3.49-7.89,6.98-11.83,10.47,17.51,5.25,36.75,1.18,54.8.78,27.77-1.81,55.51-3.98,83.26-6.07-6.93,1.73-13.88,3.37-20.78,5.17-8.88,2.38-17.64,5.1-26.17,8.56,14.05,1.49,27.08-1.58,40.45-5.53,17.22-4.14,34.48-8.16,51.85-11.61,8.14-.57,16.28-1.09,24.43-1.61-6.33,1.83-12.6,3.89-18.78,6.25.07-.03.13-.06.2-.09-4.99,1.16-4.52,6.22-1.33,8.68-17.12,1.43-34.23,2.95-51.33,4.59,82.87.1,165.78,2.16,248.63,1.28.11.12.22.24.35.37,20.27.08,40.55.04,60.83-.08,40.69-.13,81.41-.53,122.15-.79,55.37-.01,111.01-.29,166.51.8,11.27.25,22.55.54,33.82.91.78.04,1.56.09,2.33.13,2.8.28,5.59.44,8.38.5,8.21.46,16.42.81,24.66.65h0c.73.11,1.45.17,2.16.17,1.45,0,2.83-.23,4.07-.65,1.9-.5,3.26-1.33,4.12-2.39.96-.82,1.37-1.85,1.32-3.06.38-2.01-.32-4.34-2.59-6.69ZM344.66,118.22c10.94-.09,21.88-.21,32.82-.31.34,0,.69,0,1.04-.01-11.27,1.05-22.57.92-33.86.32ZM480.43,125.74c2.94-.39,5.88-.77,8.82-1.13,10.06-.43,20.12-.93,30.18-1.51-13,.81-26.01,1.66-39,2.64Z"/>
    <g>
      <path class="cls-14" d="M717.58,91.09s0,0,0,0c0,0,.02,0,.03,0-.01,0-.02,0-.03,0Z"/>
      <path class="cls-14" d="M821.74,109.14c-.44.04-.87.07-1.31.11.22-.23.43-.47.59-.74-4.09-3.55-7.99-7.38-12.27-10.32-1.84-1.5-3.69-3.01-5.54-4.5-.98.12-1.97.25-2.95.38-2.47-.68-5.11-.97-8.01-.71-3.93-9.62-16.9-4.94-24.93-5.27-3.29.19-6.57.45-9.85.74.55-.09,1.1-.18,1.66-.28,10.69-1.49,21.34-3.18,32.04-4.51-1.41-1.13-2.81-2.27-4.21-3.41-23.17,3.17-46.23,7.08-69.37,10.46-1.03.2-2.08.39-3.12.55-1.51-9.66-40.6-.95-48.42-1.08,3.37-1.75,6.2-3.89,8.47-6.26,32.1-3.37,63.98-9.48,96.08-12.55-30.68-.02-61.68,3.93-92.49,7.9,7.49-12.36,1.9-27.45-18.88-26.61,15.81-4.92,33.15-8.27,46.95-17.67,10.14-1.99,20.33-3.72,30.53-5.41-2.22-2.26-4.45-4.52-6.68-6.77-8.57,1.52-17.15,2.97-25.7,4.62-14.63-3.13-30.39,4.06-44.94,6.6.02-.05.04-.1.06-.15,0,0,0,.02-.01.02,3.6-6.18-10.07,0-12.72.23-16.52,4.35-32.88,9.34-49.73,12.31-38.52,9.98-77.75,16.33-116.67,24.63,9.26-16.58-62.49,3.56-70.14,3.34,104.62-24.54,211.4-39.02,317.77-53.69-2.35-2.35-4.7-4.68-7.07-7.01-95.94,12.6-191.69,27.15-286.58,46.2-54.22,13.02-108.34,26.61-163.09,37.29-35.2,5.91-70.51,13.87-106.37,13.48,14.16-10.88,32.38-14.23,49.32-18.55,26.42-6.79,52.7-14.14,79.12-20.95-1.44-2.16-2.75-4.4-3.78-6.7,1.58,2.1,3.13,4.27,4.55,6.5,21.93-5.57,44.04-10.43,65.96-16.04,3.69-1.87,19.44-3.1,16.91-8.86-4.01-5.46-34.29,3.2-42.2,3.82-32.08,5.47-63.57,13.61-94.62,23.3,18.6-7.06,37.59-12.95,56.76-18.26-.2.06-.39.11-.59.17,31.71-8.27,63.47-16.6,95.69-22.66,4.65-1.96,31.18-2.19,28.21-8.98-1.77-9.94-80.51,13.51-92.06,15.56-64.08,16-127.17,35.37-190.74,53.18,19.22-6.74,38.64-13.18,57.25-21.47,1.92-.92,1.95-3.31.72-4.79-3.55-4.45-9.51-1.29-14.11-.65-50.95,12.82-102.91,26.11-148.8,52.13,29.66-17.93,60.78-33.23,91.79-48.65,15.44-7.78,32.38-12.04,47.75-19.93,4.82-2.89.62-8.76-3.73-9.16-3.6-.93-7.28.07-10.73,1.13.29-.08.58-.16.88-.25-30.18,9.39-60.36,18.83-90.15,29.45-7.3,6.56-14.61,13.12-21.94,19.65,12.87-4.29,25.65-8.85,38.44-13.36-5.79,2.55-90.29,43.53-69.61,48.09,16.04-.42,32.32,1.53,47.83-3.42,40.84-10.68,81.2-23.25,121.9-34.49-4.23,2.96-30.4,7.86-22.54,15-8.38,3.77-11.57,14.26-.19,16.08-14.34,2.04-28.76,3.9-42.9,7.08,20.49.31,40.98.69,61.47.91,28.69-6.69,57.88-10.74,86.42-18.11,54.21-12.26,109.7-18.34,164.59-26.96-11.7,2.37-127.28,23.64-115.53,37.55.84,0,1.68-.01,2.52-.02-.84,0-1.68.01-2.52.02,13.11,7.91,61.75-.64,78.88-2.11-10.63,3.13-23.21,3.45-32.07,10.59,78.43.5,157.13,3.49,234.64-10.67,13.97,8.09,37.7-.62,53.41-1.87,23.94-3.97,47.76-9.21,71.96-11.31-8.98,3.16-75.72,9.32-65.14,23.42,34.97.29,69.94-.6,104.9.69,23.23.53,46.34-4.3,69.39-6.91-2.17-4.63-6.84-7.6-10.4-11.11ZM654.09,34.16s0,0-.01,0c.02,0,.04-.02.06-.03,0,0-.01,0-.02,0,1.74-.68,3.47-1.79,5.36-1.85-.02.15-.04.3-.07.45,0,0,0,0,0-.01-.12.58-.24,1.17-.35,1.75-4.91,1.3-9.81,2.63-14.72,3.9,3.27-1.36,6.52-2.77,9.75-4.23ZM501.27,88.19c1.01-.29,2.02-.59,3.03-.89-.12.77-.09,1.57.07,2.35-5.02.66-10.05,1.3-15.07,1.98,4-1.12,7.99-2.29,11.97-3.44ZM344.66,118.22c10.94-.09,21.88-.21,32.82-.3.35,0,.7,0,1.04,0-11.27,1.04-22.57.92-33.86.31ZM339.28,112.88c2.8-1,5.67-1.85,8.5-2.77,45.68-14.59,93.25-21.65,140.01-31.79-7.58,1.84-29.65,7.08-13.04,15.34-45.13,6.51-89.82,16.97-135.47,19.21ZM593.74,104.96c-62.36,8.38-124.86,15.78-187.57,20.94,44.97-10.27,89.37-23.27,135.22-29.23,14.18-2.18,28.36-4.38,42.41-7.29,4.25-1.71,16.35-.94,13.34-8.17-1.06-1.71-3.15-2.74-5.13-2.84,23.66-5.89,47.91-11.5,72.44-10.51-.39,5.85-4.68,10.73-11.04,14.9-11.62,1.4-23.19,2.65-34.68,3.53,9.48.5,18.91.48,28.32.1-17.17,8.62-42.36,13.8-53.31,18.58ZM688.08,122.95c-3.5-.07-7.01-.1-10.51-.22,24.14-6.79,49.16-9.72,73.8-14.13,2.07-.39,4.14-.8,6.21-1.2,9.06-1.24,18.11-2.57,27.16-3.92,7.08-.39,14.2-.08,21.38,1.47-38.37,10.5-78.65,13.33-118.04,18Z"/>
      <path class="cls-14" d="M170.26,10.3c-12.16-5.42-25.58,4.2-37.88,5.94,8.52-5.32,17.24-10.38,26.26-14.81,0,0-.01,0-.02,0,.32-.14.64-.29.96-.43-11.74-.47-23,5.09-33.84,9.11-.24.72-.28,1.51-.06,2.39-4.72,4.99-6.29,12.69-11.97,16.87,2.43.67,5.01.23,7.49-.21-5.03,2.37-10.06,4.73-15.1,7.08-12.09,10.92-24.17,21.85-36.29,32.75,33.98-17.01,69.08-32.38,102.12-51,2.82-2.27,1.15-6.29-1.67-7.69ZM132.85,9.37c.2.37.44.72.7,1.05-1.68,1.3-3.33,2.71-4.89,4.22,1.22-1.92,2.56-3.73,4.19-5.28Z"/>
    </g>
    <path class="cls-12" d="M764.92,127.12c-170.46-.71-340.91-.17-511.37-.77-82.1-.88-164.2.76-246.3-.25-12.79.5-.45-7.18,3.19-10.92,34.48-31.27,69.48-61.95,103.87-93.32,33.78-31.03,22.92-18.23-.92,3.49C78.37,58.71,42.35,90.98,6.38,123.3c194.08-.46,388.25-.85,582.3-1.06,54.97.28,109.86-.44,164.74-.47,20.87-.04,41.73-.22,62.59.02,4.95.89,14.66-2.05,16.97,2.48,1,4.74-12.41,1.94-15.01,2.72-17.67.28-35.36.1-53.03.12Z"/>
    <path class="cls-12" d="M1.62,143.27c.02-3.21-2.48-20.96,3.32-18.86-4.78-.17-1.99,15.11-3.32,18.86Z"/>
    <path class="cls-12" d="M3.29,144.88c-.32-.83-.55-1.69-.72-2.56-3.06-.9.41-8.41-.74-11.31-.15-2.41-2.35-11.31,1.09-4.88,2.85-4.91,2.57,18.33.37,18.76Z"/>
    <path class="cls-12" d="M667.16,153.32c-75.7-3.9-151.5-5.92-227.27-7.71-47.38-.53-94.68-5.78-142.11-3.06-34.15.36-68.16,3.64-102.28,4.71-27.57.6-55.22-1.53-82.74-.4-28,1.06-56.16-1.28-84.13-.77-5.41-.7-29,3.36-28.57-2.03,2.59-15.54,4.05-12.32,1.73.9,67.44-.66,134.92,1.19,202.39-.12,48.45-2.95,96.9-7.63,145.5-6.66,107.12,5.48,214.45,4.28,321.57,10.25,24.02,1.82,47.74-2.78,71.68-3.34,27.56-.06,55.06,2.75,82.63,2.89-13.9-31.93,9.27-24,2.54-18.42-.37,5.54,1.34,11.18,3.21,16.33.88,1.57,2.22,3.44,1.21,5.25-5.17,4.32-13.67,1.48-20.01,1.95-12.27-.77-24.57-.53-36.82-1.49-36.26-4.28-72.27,5.02-108.52,1.7Z"/>
    <path class="cls-12" d="M830.61,143.25c.4-4.25.43-8.54.75-12.79-.03-.05-.15,0-.15-.06,1.82,3.59.58,9.01-.6,12.85Z"/>
    <path class="cls-12" d="M826.25,149.73c-3.65-3.95-3.3-10.06-2.11-14.95.45,1.09.84,2.35,1.3,3.49.9-2.71-1.75-16.34,3.94-10.8.88-5.94,1.68,8.25.98,10.01.24,4.04,4.25,17.17-4.11,12.25Z"/>
    <path class="cls-12" d="M794.45,150.49s-.03-.05-.04-.08c-1.1,0-2.26-.22-3.06-1.07-12.59,2.81-18.35-.04-1.49-2.32,0-.01,0-.03,0-.04-8.98-.24-17.89.37-26.85.89-1.55.05-5.83.41-4.61-2.25-1.04-.06-2.07-.14-3.1-.23,2.95,4.13-6.02,1.58-7.49.42-7.44-.17-14.86-.93-22.29-.78-1.73-.2-4.14.5-5.26-1.17-.61-.07-1.22-.19-1.82-.3-2.86,2.06-12.98,6.94-13.74,1.16-2.34.98-11.42,4.09-9.04-1.33,2.7-1.51,5.89-1.97,8.78-3.05-.04-.1-.06-.22-.07-.33-5.6-4.94,5.3-2.77,7.68-2.52,4.45-1.02,8.18-4.03,12.31-5.92-10.14-9.04,10.14-8.23,15.15-7.73,3.37-1.47,6.75-3.72,10.51-3.78,4.64.44,1.4,3.6-.82,4.93,4.1-.32,8.15-.65,12.09,1.02,4.2-4.01,12.69-5.28,16.15.28,12.85.51,25.71-.01,38.56-.32,1.43.06,6.13-.73,4.75,1.86,10.11,1.33,8,6.4-.87,7.25,3.45-.38,2.41,2.79-.18,3.29,2.37.56.83,2.95-.55,3.71-.48,1.63-2.44,1.58-3.77,2.09,4.16.08,9.52-2.62,13.18-.44.88,1.91-2.13,1.91-3.32,2.14.1,4.25-14.82,2.69-18.16,3.25-4.13-.68-8.94,3.36-12.62,1.37ZM800.5,144.06c2.07-.82,4.17-1.55,6.21-2.44-.73-.01-1.47-.03-2.2-.03-1.81,1.33-4.5,1.35-6.53,2.46.84,0,1.68,0,2.52.01ZM782.96,142.72c-.41.38-.86.72-1.34,1.01,4.04-.63,8.07-1.28,12.07-2.1-3.3.03-6.57.09-9.87.19-.27.32-.56.62-.87.91ZM758.58,143.17c1.09.05,2.18.14,3.27.14-2-1.83-5.81-.21-6.89-2.93-.83-.39-1.64-.8-2.43-1.26-1.44,1.29-3.15,2.22-4.93,2.96,3.65.45,7.3.94,10.97,1.09ZM772.55,142.72c.69-.17,1.48-.36,2.05-.78.02,0,.04,0,.06,0-.09,0-.2,0-.27,0-1.35.02-2.71.03-3.37.33.51.17,1.01.34,1.54.44ZM730.89,142.44c.44.05.89.09,1.33.13-1.21-.09-2.44-.46-3.64-.38.77.08,1.54.17,2.31.25ZM778.15,142.24c.27-.1.55-.21.8-.35-.05,0-.1,0-.16,0,.04,0,.09,0,.13,0-.1,0-.2,0-.3,0,.04,0,.08,0,.11,0-.1,0-.2,0-.3,0-.09.12-.19.23-.29.35ZM743.12,140.53c.28.16.56.33.84.49,1.63-.54,3.22-1.19,4.68-2.09-2.33-.03-4.57.25-6.82.85.43.25.86.5,1.29.75ZM739.23,141c-.29-.17-.59-.34-.88-.51-.43.08-.85.15-1.28.23.72.1,1.44.19,2.16.29ZM800.42,138.52c5.55-.47,11.57,1.64,16.53-1.35-10.2.82-20.5-.61-30.53.93.1.16.17.33.19.51,4.64-.06,9.21-.13,13.8-.09ZM748.96,138.73c.47-.3.91-.65,1.32-1.02-.02-.01-.04-.03-.06-.04-1.2.36-2.42.69-3.64.99.79.03,1.58.05,2.38.08ZM757.81,138.53c1.35-.06,2.71-.08,4.05-.15-.31-.41-.6-.83-.87-1.27-1.61-.04-4.17.79-4.9-1.2-.26.06-.53.09-.79.18.79.92,1.59,1.65,2.5,2.42ZM765.42,138.19c3.99-.32,7.54-.87,11.42-1.49,0-.2-.02-.41-.04-.61-4.12.24-8.24.51-12.37.76.29.47.62.92.98,1.34ZM810.08,131.86c-1.33,1.72-4.25,1.4-6.18,2.23,5.92-.65,11.88-1.29,17.69-2.63-3.82-.17-7.65-.09-11.48-.05.02.15,0,.3-.04.45ZM735.07,134.06s0,0,0,0c3.29-.68,6.56-1.44,9.81-2.25-.37-.77-.66-1.63-.76-2.49-3.07,1.49-6.14,2.93-9.05,4.74ZM767.5,133.2c-.99.28-1.98.54-2.97.79,2.86-.27,5.73-.49,8.6-.68-.85-.43-1.49-.74-2.21-1.11-1.14.34-2.27.67-3.42.99ZM779.48,132.01s.07,0,.02,0c2.89-.05,5.66-.01,8.51-.15-2.85.03-5.7.04-8.54.06,0,.03.01.06.02.09ZM775.13,131.16s.09.05.14.07c-.17-.18-.31-.4-.36-.64-.1.11-.22.21-.34.3.19.09.37.18.56.27ZM747.85,131.05c.63-.17,1.26-.33,1.88-.5-.06-.2-.12-.41-.17-.61-.65-.52-1.37-.96-2.11-1.34-.17.83.07,1.69.39,2.45ZM726.95,130.21c2.43-1.27,4.87-2.53,7.32-3.77-2.99.4-6.84-.46-9.1,1.58.34.9,1.1,1.54,1.78,2.18ZM738.85,126.79c-2.12,1.06-4.21,2.18-6.3,3.3,2.97-1.13,5.95-2.23,8.92-3.34-.69-.11-1.39-.18-2.09-.23-.18.09-.36.18-.54.27ZM752.8,129.75c1.73-.43,3.46-.85,5.21-1.23-.65-.11-1.3-.22-1.96-.33.09,0,.18.02.26.03-1.51-.17-3.01-.35-4.52-.47-.1.28-.06.6-.05.89.38.34.73.71,1.06,1.11ZM774.89,128.56c.24.29.41.64.42,1.01.04-.03.07-.05.11-.08-.14-.35-.28-.7-.45-1.04-.06,0-.13-.01-.19-.02.04.04.07.08.1.12ZM778.74,129.07c.72-.02,1.44-.04,2.17-.05-.76-.06-1.52-.15-2.28-.26.04.1.07.21.11.31ZM769.35,127.4c.48.02.92.12,1.36.26-.71-.32-1.17-1.39-.39-1.89-1.68.27-3.37.76-4.8,1.71,1.22.21,2.56-.24,3.83-.08ZM745.16,125.02c1.29-.92,2.57-1.84,3.81-2.83-1.29.38-2.54.89-3.77,1.44.05-.02.11-.05.16-.07-.66.3-1.32.62-1.98.94.6.15,1.19.32,1.77.52Z"/>
    <path class="cls-12" d="M671.25,148.44c-4.83-.2-9.65-.45-14.47-.66,4.21-1.61,8.38-3.3,12.47-5.19-20.25,8.64-42.22,3.17-63.55,2.97,4.24-1.66,8.48-3.33,12.73-4.97-14.47,5.98-29.56,4.39-44.83,3.69,8.34-3.47,16.51-7.35,24.49-11.58,6.45-3.71,12.4-7.42,20.12-6.06-9.13,5.54-18.39,10.91-27.9,15.76,11.73-3.3,23.54-6.33,35.15-10.02,10.34-4.99,20.85-6.46,32.25-5.64-8.67,4.79-17.37,9.6-26.38,13.72,9.57-2.85,19.15-5.62,28.47-9.25,6.74-3.72,13.52-5.27,21.2-4.43-8.35,4.57-16.44,9.62-24.99,13.82,9.73-3.07,19.76-5.35,29.11-9.49,6.88-4.69,14.38-4.66,22.42-4.27-6.57,3.87-13,7.96-19.5,11.95,10.09-3.01,20.48-5.34,29.04-11.8,1.5.02,3,.04,4.51.05-.11.87.33,1.95,1.52,3.27-.34.27-.68.54-1.03.81.41-.19.83-.38,1.24-.57.3.32.65.66,1.04,1.01-4.12,1.88-7.85,4.9-12.3,5.92-2.37-.24-13.28-2.41-7.68,2.52,0,.11.03.22.07.33-2.89,1.08-6.08,1.54-8.78,3.05-2.37,5.42,6.69,2.31,9.04,1.33.78,5.78,10.86.9,13.75-1.16.6.11,1.21.23,1.82.3,4.42,2.69,11.05.41,16.19,1.43-21.75,1.31-43.36,4.72-65.21,3.16Z"/>
    <path class="cls-12" d="M94.9,145.54c-8.87.02-17.73-.31-26.59-.62,8.82-3.12,17.47-6.78,25.8-11.03,7.35-4.77,14.26-9.07,23.34-7.68-1.56,1.2-3.03,2.51-4.67,3.59,6.18-4.09,13.01-3.91,20.15-3.7-12.35,5.67-24.26,12.27-36.63,17.9,11.54-3.5,23.12-7.1,33.99-12.36,8.43-5.74,17.5-6.26,27.43-5.57-4.24,2.1-7.77,5.23-11.54,8.03,8.55-4.15,16.48-9.53,26.36-7.81-9.59,4.9-18.99,10.15-28.58,15.03,14.13-3.11,28.47-6.29,40.32-14.98,6.77,0,13.53-.12,20.29-.21-6.69,3.26-13.16,6.94-19.65,10.57,7.12-2.98,14.12-6.29,20.56-10.57,1.87,0,3.74.02,5.61.02-18.49,12.41-40.15,21.51-62.72,19.18,4.41-.95,8.28-3.3,12.3-5.25-21.2,7.12-43.73,4.68-65.77,5.45Z"/>
    <path class="cls-12" d="M176.99,144.77c3.35-.65,6.66-1.49,9.99-2.23.2-.57.83-.95,1.45-.97,7.55-.63,14.75-3.96,21.77-6.69,8.73-3.04,16.42-9.95,26.04-8.67,0,.02-.01.04-.02.06.04-.02.07-.04.11-.06,9.19.11,18.38.16,27.57.16-4.35,2.64-9.22,5.21-13.74,7.66,1.87,1.89-3.88,2.88-4.98,3.96-13.89,8.17-30.89,5.63-46.42,7.01,1.62-.74,3.34-1.31,4.85-2.26-9.36,3.36-19.41,2.19-29.18,2.51.86-.16,1.72-.33,2.58-.49ZM246.06,131.63c-7.27,3.24-14.55,6.47-21.85,9.63,6.21-1.65,12.39-3.48,18.16-6.35-.07.03-.13.06-.19.09,4.39-2.13,8.76-4.28,13.06-6.58-3.07,1.03-6.24,1.83-9.18,3.21Z"/>
    <path class="cls-12" d="M2.21,145.05c-.14-.03-.29-.04-.43-.08-.02-.94.16-1.87.31-2.79.13.07.29.11.46.13.18.87.41,1.74.72,2.56,1.51-1.95,1.66-4.33,1.59-6.73.32-.19.64-.38.97-.58-.32.15-.65.3-.97.46-.32-2.96.22-5.78-.12-8.71,1.72-1.06,3.46-2.09,5.17-3.16,3.48.06,6.95.12,10.43.18-2.22,1.46-4.44,2.91-6.71,4.31,2.89-1.33,5.72-2.81,8.54-4.28,14.39.19,28.78.09,43.17.08-11.45,4.91-22.01,11.37-32.43,18.15-10.25-.03-20.46,1.16-30.71.48Z"/>
    <path class="cls-12" d="M59.36,144.52c-7.26-.12-14.53.02-21.79.03,11.76-6.02,23.48-12.1,35.23-18.13,5.35,0,10.7,0,16.05,0-9.05,6.22-18.26,12.2-27.47,18.18-.68-.03-1.35-.06-2.03-.07Z"/>
    <path class="cls-12" d="M555.74,143.94c-4.58-.03-9.16-.04-13.74-.06,7.02-2.36,14.1-4.54,21.15-6.81,9.74-4.12,18.35-11.85,29.43-10.41-.03.02-.05.03-.08.05,4.47-.22,9-.11,13.5-.15-15.98,7.15-32.74,15.95-50.27,17.38Z"/>
    <path class="cls-12" d="M530.44,143.74c-15.99-.26-31.93-1.46-47.93-1.37,3.15-1.27,6.32-2.49,9.44-3.83-11.62,5.72-24.28,3.15-36.76,3.05,1.14-.46,2.28-.93,3.43-1.39-.13.06-.27.12-.4.18,4.07-1.85,8.14-3.71,12.22-5.55-.06.03-.12.06-.19.08,8.8-4.81,17.09-9.55,27.44-8.05-6.39,3.39-12.77,6.79-19.18,10.16,9.78-3.15,19.56-6.34,29.08-10.24,6.34-.04,12.68-.14,19.02-.13-4.52,2.25-8.92,4.75-13.37,7.14,10.77-4.46,20.88-8.73,32.79-7.07-7.51,4.64-14.95,9.43-22.88,13.33,19.92-3.78,38.76-14.03,59.16-13.24-17.1,6.11-34.05,13.34-51.88,16.92Z"/>
    <path class="cls-12" d="M174.96,143.36s.02,0,.03,0c-.07.02-.14.04-.21.06.06-.02.12-.04.18-.05Z"/>
    <path class="cls-12" d="M451.94,141.52c-8.47-.1-16.95.01-25.42-.04,14.72-4.53,28.95-13.58,44.34-14.39,3.28-.02,6.57-.05,9.85-.07-10.2,3.53-18.84,10.42-28.77,14.5Z"/>
    <path class="cls-12" d="M263.96,136.53c22.58-12.37,26.79-10.4,51.61-10.05-9.48,2.79-17.44,8.84-26.32,13.02-11.88.58-23.76,1.03-35.62,1.89,3.45-1.62,6.89-3.23,10.33-4.86Z"/>
    <path class="cls-12" d="M401.38,140.67c12.72-3.9,23.6-14.68,37.25-13.43-.63.36-1.26.73-1.88,1.09,4.83-2.12,10.37-.72,15.54-1.14-16.56,6.67-32.47,16.9-50.91,13.48Z"/>
    <path class="cls-12" d="M387.87,139.95c-1.71-.09-3.43-.17-5.14-.24,9.22-3.58,18.23-7.55,26.84-12.46,5.6.02,11.2.02,16.79.02-12.7,4.44-24.62,14.61-38.49,12.69Z"/>
    <path class="cls-12" d="M362.37,138.81c-2.16-.13-4.31-.27-6.46-.38,7.24-3.33,14.09-7.47,21.02-11.4,6.81.07,13.63.12,20.44.16-11.61,3.83-22.43,13.2-35,11.62Z"/>
    <path class="cls-12" d="M313.59,137.22c11.82-6.01,22.92-12.71,36.64-10.44-5.93,3.7-11.93,7.32-18.04,10.72,10.25-3.45,19.73-11.38,30.8-10.6,0,0,0,0,0,0,2.45.02,4.91.05,7.36.07-2.62,1.25-5.47,2.12-7.88,3.77l.32-.21c-4.38,2.32-8.37,6.54-13.11,7.66-12.9-.24-25.8-.16-38.69.29.87-.42,1.74-.84,2.61-1.26Z"/>
    <path class="cls-12" d="M4.55,126.19s-.02-.09-.03-.13c.19,0,.37,0,.56,0-.18.08-.35.17-.53.25,0-.04,0-.09,0-.13Z"/>
    <path class="cls-5" d="M53.91,252.86c0-17.39-2.55-34.93.1-52.22-2.67-1.1-1.59-4.41-1.74-6.66-.88,2.5-4.28,2.67-5.87.77-1.54-8.53,2.18-18.07,3.17-26.78-.26-.08-.48-.24-.66-.41-.48.14-.97.27-1.45.4,0,0,.01,0,.02,0-1.18.47-3.87.88-3.52-1.11-1.13-1.24-1-3.2-1.39-4.76-1.17-.29-1.67-1.96-.29-2.35-.08-.77-.14-1.53-.18-2.31-.53.06-1.06.12-1.6.17.68,3.39-2.94,2.88-3.57.24-.58.05-1.2-.1-1.59-.59.33,2.43-.7,5.27-3.26,2.78-1.94-2.93-2.7-6.57-2.92-10.04-.54-.35-.55-1.13.15-1.31.32-1.18,1.81-1.51,2.84-1.04,0-.11,0-.23,0-.34,0,.07,0,.13,0,.2,0-.43.01-.86.23-1.22,0-.07,0-.14.02-.21,3.42-.04,6.79,0,10.15.34.03-.11.06-.21.09-.32,1.47,0,2.95.02,4.42.03.06.12.13.25.19.37,2.84.05,5.67.01,8.49-.18.07-.05.14-.09.22-.14.57.07,1.25-.13,1.76.13.74,0,1.86-.1,2.08.83.07.05.17.06.25.09.08-.04.16-.07.25-.09,5.7-2.71,2.48,10.57,2.64,13.41.54.38.4.99-.06,1.36,0,.08,0,.15,0,.23v-.11c-2.74,30.24-6.84,60.52-8.96,90.83ZM53.54,180.37c.35-2.65.8-5.29,1.27-7.92-.66-.66-.43-1.63-.36-2.46-.2.05-.4.09-.6.11-.29,3.41-.31,6.84-.31,10.26ZM58.6,176.56c.03-.12.05-.25.08-.37-.02,0-.05.01-.07.02-.01.12,0,.24,0,.35ZM60.13,168.01c.01.19.03.38.04.58.13-.81.24-1.62.37-2.43-.16.12-.36.19-.56.22.04.54.12,1.09.15,1.64ZM54.04,167.29c-.04.36-.06.73-.09,1.09.18-.06.36-.12.53-.21-.13-.47-.26-.94-.38-1.42-.02.18-.04.35-.06.53ZM46.21,165.7c.72-.24,1.44-.45,2.17-.66-.01-.28-.02-.56-.03-.84-.7.14-1.4.28-2.1.38,0,.37,0,.75-.04,1.12ZM45.24,157.63c.73-.25,1.45-.51,2.18-.77-.77.08-1.54.16-2.31.25.05.17.09.35.13.52ZM35.38,156.01c.07-.06.14-.11.22-.16-.07-.05-.14-.09-.22-.14,0,.1,0,.2,0,.3ZM40.41,154.47c.24-.05.48-.1.72-.16-.14-.34-.29-.68-.44-1.02-.1,0-.2,0-.31,0,0,.39.01.79.02,1.18ZM44.9,149.89c.26,0,.52-.01.77-.02-.04-.13-.08-.26-.14-.38-.2,0-.4,0-.6,0-.01.13-.03.27-.04.4ZM36.47,148.12c.2,0,.41,0,.61-.01,0-.09.02-.18.03-.27-.26-.04-.52-.05-.78-.08.05.12.09.24.14.36Z"/>
    <path class="cls-5" d="M54.23,478.47c-2.57-.9-21.99-3.02-20.05-5.91.07-1.31,1.56-1.61,2.66-1.53.61-1.16,2.2-1.94,3.14-2.95-1.49.62-3.4.29-4.45-.98-2.62-3.77,8.38-7.92,11.04-9.57.07-2.8.41-7.4,3.75-8.05,2.49-8.72,4.69-17.58,5.5-26.64.47-1.77-.41-4.7,1.34-5.73.01-2.63-.07-5.25-.13-7.88-.03-1.27,2-1.03,2.37-.1.29.71.37,1.49.5,2.24.06-.03.12-.06.19-.09-.53-15.85-.58-31.74-.97-47.55-.08-1.27.78-2.46,2.05-2.72,1.93-.48,3.69,1.32,3.37,3.23.17,4.59,2.65,8.98,3.4,13.58,3.11,17.22-1.09,34.93-2.17,52.18,0-.05,0-.11,0-.16,0,.1,0,.2,0,.3,0-.03,0-.06,0-.1,0,.04,0,.09,0,.13,0-.03,0-.07,0-.1.85,13.89-1.21,27.75-.24,41.55-1.28,2.76-4.28-.08-3.81-2.36-.28.12-.6.18-.91.19-.13.66-.29,1.32-.49,1.96,1.02.46,1.87,1.83,1.18,2.87,1.25,4.18-4.38,4.93-7.28,4.18ZM37.23,471.01c4.06-.22,8.12-.15,12.18-.03,2.68-8.52,6.22-7.31,5.35-18.92-1.38,3.14.11,9.43-4.01,10.28-3.39,4.25-8.51,6.82-13.52,8.68Z"/>
    <path class="cls-5" d="M65.79,430s0,0,0-.01c0,.02,0,.03,0,.05v-.03Z"/>
    <path class="cls-5" d="M59.13,363.73c0,.08,0,.17,0,.25,0-.09,0-.17,0-.25Z"/>
    <path class="cls-5" d="M59.13,363.7s0,.02,0,.03c0,0,0-.02,0-.03Z"/>
    <path class="cls-5" d="M792.93,196.18c.16-3.42.37-6.87.31-10.31-.8-.25-1.5-.74-1.94-1.47-2.69.68-5.32-1.53-4.96-4.31-.08-7.54.25-15.09.46-22.62-7.27.93-14.65.85-21.95,1.56.03,0,.06,0,.09-.01-4.22,1.87-9.02-4.15-2.88-5.08-.14-.42-.15-.91,0-1.33-.19-.61-.1-1.29.27-1.83,11.34.58,22.66,1.67,34.02,1.73.01.04.02.08.03.12,1.35,2.26.26,5.41.57,7.99,0-.07,0-.15,0-.22-.01,1.75,0,3.49-.01,5.24,0-.02,0-.04,0-.06v.96s-.01-.03-.01-.04c0,.59,0,1.17-.02,1.76,0,0,0,0,0,0,0,.12,0,.24,0,.36v-.31c-.01,2.01-.07,4.02-.09,6.02,0-.06,0-.11,0-.17,0,.18,0,.35,0,.53v-.32c0,.18,0,.36,0,.54v-.03c0,.11,0,.22,0,.32,0-.01,0-.02,0-.03,0,.28,0,.56,0,.84v-.32c0,.23,0,.47,0,.71v-.32c0,.28,0,.56,0,.84,0-.06,0-.12,0-.17-.6,2.81,1.56,7.68-1.48,9.19-.48,3.46-1.33,6.85-2.31,10.2,0,0,0,0,0,0h0c.17-.32.05.22-.08.1Z"/>
    <path class="cls-5" d="M796.82,175s0-.08,0-.12c0,.09,0,.17,0,.26v-.14Z"/>
    <path class="cls-5" d="M796.83,174.1s0-.01,0-.02c0,.02,0,.03,0,.05,0-.01,0-.02,0-.03Z"/>
    <path class="cls-5" d="M796.91,168.19c0-.05,0-.11,0-.16,0,.07,0,.14,0,.2,0-.01,0-.03,0-.04Z"/>
    <path class="cls-5" d="M796.93,166.21c0,.09,0,.18,0,.27,0-.09,0-.18,0-.27Z"/>
    <path class="cls-5" d="M786.07,232.36c-.66-5.67.5-11.5.83-17.2-2.41-3.18-.06-8.15-.44-11.95-8.76,3.61-5.15-10.91-6.21-15.65-.24,4.62,1.26,20.73-6.96,12.13-7.39.72-4.24-14.66-5.42-19.53-.02.44-.03.88-.05,1.32v-.05c0,.51,0,1.02-.02,1.54v-.04c0,.23,0,.46,0,.69,0,0,0-.01,0-.02,0,.88-.02,1.76-.03,2.64v-.02c0,.07,0,.14,0,.2v-.02c-.04.79.04,1.7-.04,2.41-.12-3.46-4.71-44.43,3-35.93,1.83-2.22,5.82-.65,6.13,2.07.15-1.08.18-2.19.54-3.22,3.61.23,7.22.43,10.84.56.34,1.67.62,3.36.89,5.04.19-1.04,1.36-1.41,2.28-1.23,3.57,1.04,1.81,6.3,2.67,9.14.24-2.72,1.9-16.43,1.68-5.91.24,15.18-.49,30.33-.57,45.5-.77,5.01,1.32,38.88-9.11,27.52Z"/>
    <path class="cls-5" d="M767.81,183.58s0,0,0,0c0,0,0,0,0,0Z"/>
    <path class="cls-5" d="M791.61,250.22c-.86-27.68-3.26-55.31-4.1-82.99h0s0,0,0,0c0,0,0,0,0,0-3.42,19.39-4.63,39.35-3.51,59-.16,1.73,1.87,5.76-.55,6.12-2.24-1.24-1.16-4.93-1.52-7.12-1.47-11.44-2.48-22.96-2.36-34.51,0,.02,0,.04,0,.05,0,0,0-.02,0-.02,0,0,0,0,0,0,.03-2.92.07-5.83.12-8.75v.04c0-.07,0-.14,0-.22v.04-.07.04-.04.04c.03-2.67.1-5.35.14-8.03v.02-.07.03c.04-2.08.13-4.16.18-6.24h0c.12-3.56.53-12.14.31-4.13h0c-.13,15.84-.18,31.76,1.58,47.53,0-.02,0-.04,0-.06v.07-.17.1c0-.12,0-.25,0-.38v.1c0-.07,0-.15,0-.22,0,.02,0,.03,0,.05,0-.06,0-.12,0-.18v.1c.01-1.49.03-2.99.05-4.48v.1-.23.1c0-.14,0-.29,0-.43v.1-.21.1c.27-3.41,2.19-44.92,6.44-39.6l-.02-.07c2.57,25.07,3.47,50.65,3.53,75.92v-.03c-.02,1.25-.06,2.5-.09,3.75v-.02c-.05,1.6-.06,3.34-.2,4.87Z"/>
    <path class="cls-5" d="M781.9,210.44s0,.03,0,.05c0-.02,0-.03,0-.05Z"/>
    <path class="cls-5" d="M794.49,315.03c-.81-33.62-1.9-67.27-1.56-100.9v.13c.03-3.76.14-7.52.22-11.28v.11c.04-3.6.15-7.19.21-10.79v.08c.36-7.46-.57-20.83-.22-24.77h0s-.05-.07-.08-.1c2.8,29.81,2.33,59.84,2.53,89.76v-.02.02-.02s0,.08,0,.13c0-.01,0-.03,0-.04-.05,3.1-.04,6.21-.11,9.31v-.12c-.21,15.18-.7,30.35-.98,45.53h0c-.03.97.05,2.07,0,2.98Z"/>
    <path class="cls-5" d="M794.3,330.76c-1.26-21.98-3.29-43.88-2.72-65.93v.12-.26.12-.24.13-1.5s.01.08.01.12c0-.45,0-.91.01-1.37,0,.02,0,.04,0,.06,0-.44,0-.88.01-1.32v.13c0-.2,0-.4,0-.59v.13c0-.47,0-.93.01-1.4v.13c0-.25,0-.51,0-.77v.13c0-.41,0-.81.01-1.22,0,.02,0,.04,0,.06,0-.68.02-1.36.02-2.03,0,.02,0,.04,0,.05,0-.67.02-1.34.02-2v.13-.21.13-.21.13-.16.13c.1-7.85.28-15.71.52-23.56v.12c.17-7.69.45-15.37.63-23.06v.09c.1-3.41.21-6.82.32-10.23v.06c.09-2.91.19-5.83.3-8.74v.05c.21-4,.73-25.53.99-12.08-.12-.91-.09-2.04-.17-3.03-.19,19.07.26,38.14.15,57.21,0-.04,0-.09,0-.13,0,.05,0,.11,0,.16h0c-.05,3.95-.08,7.91-.17,11.86v-.13c-.04,3.91-.15,7.8-.23,11.71v-.13c-.03,3.97-.18,7.95-.24,11.93,0-.04,0-.08,0-.12-.03,3.89-.14,7.78-.19,11.66,0-.04,0-.07,0-.11-.03,3.75-.12,7.51-.16,11.26v-.04.04-.04.04-.04c-.02,3.06-.04,6.12-.06,9.18v-.08c0,.07,0,.14,0,.21,0-.02,0-.05,0-.08,0,.01,0,.03,0,.04,0,0,0,0,0,0,.16,11.14,1.21,22.39.93,33.47Z"/>
    <path class="cls-5" d="M791.64,257.29s0,.05,0,.07c0-.02,0-.05,0-.07Z"/>
    <path class="cls-5" d="M791.66,255.32s0,.05,0,.07c0-.02,0-.05,0-.07Z"/>
    <path class="cls-5" d="M794.42,230.13s0-.04,0-.05c0,.06,0,.12,0,.17v-.12Z"/>
    <path class="cls-5" d="M794.42,230.01s0,.05,0,.07c0-.02,0-.05,0-.07Z"/>
    <path class="cls-5" d="M790.58,314.01c-.5-.09-1.02-.45-1.08-.98,0,0,0,0,0,0,0-5.79.35-11.58.48-17.37v.14c0-2.49.07-4.99.09-7.48v.13c0-2.72.04-5.45.06-8.17v.12c0-.23,0-.45,0-.68v.12-.14.12s0-.09,0-.14c0,.01,0,.03,0,.04.41-34.86-3.27-69.62-3.58-104.47-.45,7.6-.6,15.2-.76,22.81v-.04.04-.04.04-.04c-.27,26.9.66,53.8.8,80.7-.2,2.24.37,26.28-4.09,19.32,0,.04.02.09.02.14-.79-12.43-.89-24.93-1.56-37.38-.43,2.92,1.77,32.96-4.92,24.03-1.22-18.11-1.98-36.25-2.65-54.39-.07,3.51-.13,7.02-.21,10.53v-.11c-.27,16.56.47,33.11,2.79,49.52-.47-2.52-.83-5.22-1.29-7.79,0,0,0,0,0,0-.53-3.26-.94-6.53-1.46-9.79,0,0,0,0,0,0-2.29-20.23-2.23-40.62-1.88-60.95v.15c.13-4.08,0-8.23.92-12.23-.01.05-.02.11-.04.16,5.51-9.8,4.11,41.64,5.26,44.83,0,0,0-.02,0-.02,0,.01,0,.02,0,.03,0-.07,0-.14,0-.2,0,.01,0,.02,0,.04,0-.04,0-.09,0-.14,0,.04,0,.09,0,.13,0-.16,0-.32,0-.48,0,.03,0,.05,0,.08,0-.17,0-.34,0-.51,0,.05,0,.09,0,.13,0-.3,0-.61,0-.92v.19c0-.36,0-.71,0-1.06v.19c0-.44,0-.88.01-1.32,0,.03,0,.05,0,.08,0-.71.01-1.41.02-2.12v.18c0-.25,0-.5,0-.76v.19-1.2s.01.03,0,.04c0-.16,0-.32,0-.47,0,.01,0,.03,0,.04,0-.7.01-1.4.02-2.1v.18c0-.44,0-.87.01-1.31,0,.02,0,.05,0,.08,0-.34,0-.69.01-1.04,0,.06,0,.12,0,.18,0-.43,0-.87.01-1.3v.18c0-.23,0-.46,0-.69v.18-.22.18c.1-7.63.27-15.26.39-22.88,0,.01,0,.03,0,.04.09-4.29.23-8.59.31-12.88v.14c.83-3.63-.69-15.99,1.66-17.36,2.75,1.03.51,9.43,1.23,12.32.08,27.87,1.35,55.72,2.56,83.55-.1-16.82-.63-33.63-.41-50.45v.14c0-.05,0-.11,0-.16,0,.01,0,.02,0,.03h0s0,.02,0,.03c0-.08,0-.16,0-.24v.14-.23.14c0-.08,0-.16,0-.24,0,.02,0,.03,0,.05,0-.02,0-.05,0-.07,0,.02,0,.03,0,.05,0-.11,0-.22,0-.33v.14c0-.26,0-.52,0-.79v.14c.03-3.47.07-6.93.11-10.4,0,.04,0,.09,0,.13,0-.27,0-.53,0-.8v.13c0-.11,0-.22,0-.33v.13-.25.13c0-.08,0-.16,0-.23,0,.01,0,.02,0,.04,0-.04,0-.09,0-.13v.13-.24.13-.23.13-.15.13c.09-4.37.2-8.74.29-13.11v.11c.16-3.98.33-7.96.52-11.93v.1c-.33-3.39,2.49-28.54,3.32-12.84v-.06c.11,19.81,1.09,39.59,2.16,59.37-.01-1.55-.03-3.1,0-4.64v.05c.04-4.3.11-8.6.15-12.91v.03c0-.15,0-.3,0-.46v.03c.17-4.86.33-9.72.52-14.59v.02c-.01-1.69.36-15.52,2.27-11.48-.13-.18-.15-.55-.26-.79h0c-.02-.05-.05-.11-.07-.17h0c-.04-.08-.09-.15-.14-.23-.21.37-.44.73-.62,1.13h0c-.16.47-.27.97-.37,1.46h0c-.38,2-.45,4.05-.46,6.09h0c-.01,1.34-.01,2.68-.07,4.03h0s0,0,0,0h0c-.09,4.85-.16,9.7-.25,14.55,0-.01,0-.02,0-.03-.09,24.77,2.1,49.47,1.96,74.23,0-.04,0-.09,0-.13-.63,4.13,1.25,24.75-1.83,25.38Z"/>
    <path class="cls-5" d="M774.67,282.57s0,.01,0,.02c0,0,0-.01,0-.02Z"/>
    <path class="cls-5" d="M773.21,272.76v.03s0-.02,0-.03Z"/>
    <path class="cls-5" d="M777.49,244.73s0-.09,0-.13c0,.04,0,.09,0,.13,0,0,0,0,0,0Z"/>
    <path class="cls-5" d="M777.49,244.6s0,.04,0,.06c0-.02,0-.04,0-.06Z"/>
    <path class="cls-5" d="M777.49,244.2s0,.04,0,.06c0-.02,0-.04,0-.06Z"/>
    <path class="cls-5" d="M777.55,237.32s0,.09,0,.14c0-.05,0-.1,0-.14Z"/>
    <path class="cls-5" d="M783.35,223.71s0,.07,0,.11c0-.04,0-.07,0-.11Z"/>
    <path class="cls-5" d="M783.35,223.36s0,.06,0,.1c0-.03,0-.06,0-.1Z"/>
    <path class="cls-5" d="M783.48,211.05s0,.06,0,.09c0-.03,0-.06,0-.09Z"/>
    <g>
      <path class="cls-6" d="M134.2,149.15c-.16-1.55-2.18-2.62-3.71-2.49-.02,0-.05-.01-.07-.02,0-.07-.02-.13-.03-.2-1.47,0-2.93,0-4.37.01-.05.07-.09.15-.14.22-8.16.37-16.32,1.6-24.47.62-.03-.06-.06-.12-.08-.18-.25,0-.5,0-.75,0,.04.04.07.09.11.13-.04,0-.08,0-.12,0,0-.05,0-.09,0-.14-.37,0-.73,0-1.1,0-.05.22-.09.44-.13.67-.41.42-.54,1.03-.32,1.61-.11.58-.21,1.16-.3,1.73-.32.05-.63.08-.95.14-3.14,1.11-1.87,3.5.26,4.59-.49,4.01-.77,8.05-.85,12.08v-.14c0,.07,0,.14,0,.2,0-.02,0-.04,0-.05-.11,3.98.08,7.95.24,11.92-.44.62-.41,1.38.07,2.02.05,1.49.08,2.98.08,4.47,0,.55-.03,1.1-.04,1.66-1.87,1.17-1.94,2.99,1.59,3.26-.01.14-.02.27-.03.41-1.85.21-2.01,2.46-.24,2.98-.03,1.38-.53,3.06.47,4.2-1.06.39-2.12.8-3.2,1.11.08-.02.15-.04.23-.06-7.01,1.87.52,5.36,4.03,3.07-3.4,7.38.8,8.69,6.49,4.41,4.19,6.25,7.85-1.85,9.11-5.79.3-.2.61-.4.91-.6-.02.01-.04.03-.07.04.53-.35,1.07-.69,1.59-1.05.04,4.43-1.78,14.06,5.6,12.09-.04,2.17-.08,4.35-.16,6.52,1.94-9.87,3.04-19.98,4.06-30.09,4.93-1.43,3.13-30.43,4.81-35.55.29-.1.57-.23.82-.38-.18.66-.35,1.31-.45,1.93.04-.32.42-1.21.78-2.17.5-.41.77-.96.53-1.57.23-.86.25-1.53-.22-1.62ZM109.23,165.81c-.01-.19-.03-.38-.05-.57.21-.15.42-.31.63-.49-.27.31-.43.67-.48,1.04-.03,0-.07.01-.1.02ZM109.28,173.54c.53-.1,1.06-.21,1.59-.32-.35.72-.66,1.45-.97,2.18-.23.08-.47.16-.7.25.03-.7.06-1.41.08-2.11ZM102.08,158.77s-.02.09-.03.14c0-.05.01-.1.02-.15,0,0,0,0,.01.01ZM105.23,159.89c-.08.24-.16.48-.23.73-.19.13-.37.25-.54.38-.01-.41-.01-.82-.02-1.22.27.05.53.09.79.11ZM100.52,150.6s0,.05,0,.08c0-.03,0-.05,0-.08,0,0,0,0,0,0ZM100.52,150.6c.18.08.36.16.55.23-.19.02-.37.04-.56.06,0-.1,0-.19,0-.29ZM101.08,156.29c-.16.92.15,1.66.71,2.22-.43,1.44-.73,3.57-.94,5.75-.26,1.26-.44,2.2-.51,2.52-.02,1.03-.24,2.74-.4,4.54-.17.06-.31.13-.44.22.38-5.04.65-10.1.84-15.14.25-.01.5-.04.74-.11ZM99.49,187.23c-.63.14-1.19.36-1.67.61.23-1.71.44-3.44.63-5.16.33.17.71.32,1.16.42,0,.23,0,.46,0,.69,0-.02,0-.03,0-.05.03,1.17.05,2.33-.12,3.49ZM98.86,178.91c.17-1.75.33-3.51.47-5.26.12.14.26.27.43.37-.03,1.01,0,1.96.14,2.75-.05.65-.09,1.29-.12,1.94-.34.04-.64.11-.92.2ZM101.54,167.21c.35-2,.79-3.99,1.34-5.94.01.5.04.99.05,1.49-.39.8-.39,1.56-.1,2.18-.35,1.19-.68,2.38-1.29,3.18,0-.3,0-.61,0-.91ZM101.73,207.77c.08-1.3.59-2.51,1.02-3.72.09,1.08.93,1.96,1.99,2.21-.99.54-1.98,1.07-3.01,1.51ZM107.52,203.54c.03-1.08.21-2.14.38-3.2.15-.05.29-.1.44-.16-.27,1.12-.53,2.24-.81,3.36ZM109.67,194.82c-.25.1-.49.2-.74.3.19-.87.39-1.74.6-2.61.27-.08.54-.16.8-.24-.22.85-.44,1.7-.66,2.55ZM111.56,187.64c-.29.11-.57.22-.86.32.03-.11.06-.23.1-.34.28-.1.57-.2.85-.3-.03.11-.06.21-.08.32ZM109.32,169.43c0-.39-.01-.79-.02-1.18.13-.02.27-.04.4-.06,0,0-.01,0-.02,0,.25-.04.5-.07.75-.11-.01,0-.02,0-.04,0,.09-.01.18-.03.27-.04.64.38,1.33.44,2.01.27,0,.12-.02.23-.03.35-1.11.26-2.21.51-3.32.76ZM113.16,181.53c-.21.09-.43.18-.64.27.1-.29.19-.57.28-.86.05-.17.11-.33.16-.5.17-.05.35-.09.52-.14-.11.41-.21.82-.32,1.23ZM118.51,197.25c-.39.32-.79.63-1.2.93.14-.36.27-.72.4-1.08.27-.07.54-.14.81-.22,0,.12,0,.24-.01.37ZM134.04,150.18c.03-.08.05-.16.08-.24,0,.1-.02.2-.03.3-.02-.02-.03-.04-.05-.06Z"/>
      <path class="cls-6" d="M51.08,150.37s.07.01.11.01c.01,0,.03,0,.04,0-.05,0-.1-.01-.15-.02Z"/>
      <path class="cls-6" d="M59.58,154.8s0,0,0,0c-5.21-.28-10.44.16-15.66.01,1.86-.42,3.76-.67,5.65-.92-.02,0-.04,0-.06,0,.1-.01.21-.03.31-.04-.08.01-.15.02-.22.03,4.69.13,8.38-2.63,1.59-3.51-4.67-.23-9.87-1.65-14.35-.4,2.02-.42,4.28.71,6.35.99-2.5.46-8.7,1.52-8.43,4.63-.46.52-.87,1.12-1.24,1.8-2.72.84-5.97,2.76-2.8,5.07-.24,1.61,1.37,4.42,1.32,5.91,2.23,11.53,6.01,22.69,9.5,33.81-.57.07-1.16.28-1.56.71-5.3-8.16-5.35,10.21-6.05,13.15-1.82-1.87-6.13-1.64-2.5.98.76.5,1.52,1.01,2.27,1.51-.26,2.55-.42,5.11-.58,7.67-3.38.73-3.95,5.03-.28,5.8-.36,11.69-1.07,23.42-.2,35.11-2.11,1.22-2.72,4.24.21,4.76-.23,1.53-.48,3.07-.7,4.61-1.56,1.05-3.26,3.3-.74,4.37-.51,2.98-1.14,5.93-1.71,8.9-1.1.51-1.24,1.94-.47,2.79-.23,2.06-.74,4.52.64,6.28.88,1.04,2.51,1.56,3.88,1.25.45.56,1.2.96,1.96,1.07.08,4.04-.59,10.71,1.37,13.29-2.19,2.14-4.45,4.22-6.78,6.19-1.4,8.08,10.65.49,13.5-1.37-.59.56-1.17,1.12-1.76,1.68.04-.04.09-.08.13-.12-.27.26-.54.52-.81.78l.12-.12c-9.4,6.74-11.58,17.89-6.54,28.12.03-.23-.11-.57-.13-.86h0c-1.75-7.97-1.32-16.99,5.53-22.49h-.01c2.08-2,4.22-3.93,6.38-5.85-.02.04-.03.08-.05.12-2.1,5.14,6.27,6.03,6.69.74,1.06-3.14,8.14-43.7,1.05-38.05,0,0,0,0,0,0-.37.71-.47,1.49-.65,2.26-.36-3.01-.73-6.03-1.09-9.05,2-1.44,4.19-2.75,5.47-4.66-.96-2.24-3.84-.09-5.89.94-.03-.26-.05-.53-.08-.8,2.53-1.64,5.5-2.95,7.32-5.27.31-3.91-5.6-.99-7.62-.5.13-1.41.25-2.81.38-4.22.05-.07.1-.13.14-.2,2.69-.93,1.61-4.65,1.6-6.84,6.14-.99,2.63-31.02,3.03-37.21-.64-2.16.44-9.77-1.06-12.38.3-4.74.67-9.47.66-14.22.36-8.74-.02-17.56.91-26.26.08-2.21.79-5.65-1.21-7.07,2.14.07,8.09-1.01,3.28-2.93ZM49.64,229.36c.1.03.2.05.3.05.04.56.08,1.11.12,1.67-.06.01-.11.02-.17.03-.09-.58-.17-1.17-.25-1.75ZM49.66,225.6c-.35-1.08-.58-2.19-.77-3.3.16-.01.33-.03.49-.06.1,1.12.2,2.24.29,3.36ZM44.5,273.82s-.02.02-.03.02c.96-.58,1.94-1.12,2.9-1.69,0,.13,0,.26,0,.39-2.29,1.48-4.62,2.91-6.94,4.34.02-.14.04-.28.06-.42,1.32-.91,2.68-1.75,4.01-2.65ZM43.72,269.84c1.24-1.13,2.5-2.24,3.75-3.36-.01.5-.02,1-.03,1.5-1.27.56-2.51,1.18-3.71,1.86ZM48.87,266.65c0-.48,0-.97,0-1.45.07-.07.15-.14.22-.21-.07.55-.15,1.11-.22,1.66ZM43.9,225.3c.12,1.21.24,2.41.36,3.62-.07-.07-.14-.15-.22-.22-.15-1.17-.25-2.35-.35-3.53.07.04.13.09.2.13ZM43.48,221.13c.04.4.08.79.12,1.19-.04-.03-.09-.05-.13-.08-.02-.37-.03-.75-.04-1.12.02,0,.04.01.05.01ZM43.6,251.77c.14.73.28,1.46.41,2.19-1.08.74-2.15,1.52-3.17,2.35.43-1.75,1.39-3.36,2.76-4.55ZM44.9,258.4c.24-.24.47-.48.71-.72.71.26,1.65.19,2.15-.43.08.75-.06,1.51-.07,2.26-2.52,1.04-4.95,2.29-7.3,3.67,1.45-1.64,2.97-3.22,4.51-4.78ZM40.81,268.1c-.09.06-.18.12-.26.18.48-.31.95-.63,1.42-.95-.04.03-.09.06-.13.09l.24-.16c-.59.53-1.18,1.06-1.77,1.6-.01-.13-.03-.26-.04-.39.18-.12.36-.24.54-.36ZM47.01,278.3s0,.05-.01.08c-2.34,1.73-4.71,3.42-7.12,5.06,0-.44-.02-.88-.03-1.32,2.4-1.24,4.8-2.51,7.16-3.82ZM40.14,292.51c1.45-1.55,2.82-4.6-.17-5.28,0-.17,0-.34-.01-.52,2.12-1.83,4.3-3.58,6.48-5.33-.78,4.04-1.68,8.05-2.71,12.03-1.16.46-2.35.87-3.53,1.3-.02-.74-.04-1.47-.07-2.21ZM42.31,298.66c-.52,1.79-1.07,3.57-1.65,5.35-.08-1.52-.16-3.04-.25-4.56.63-.27,1.26-.53,1.9-.78ZM47.03,297.02c.44-.13.88-.25,1.32-.37.12,1.55.24,3.1.36,4.66-1.26,1.64-2.57,3.25-3.91,4.83.89-2.99,1.56-6.08,2.23-9.12ZM50.03,296.25c.12-.03.24-.06.36-.09,0,.14,0,.29,0,.43v-.25c-.02.94-.04,1.87-.06,2.81-.02.03-.04.05-.06.08-.08-1-.16-2-.25-2.99ZM50.43,289.44c-.27.21-.55.39-.82.59-.14-3.47-.06-6.92.57-10.37.1,3.26.2,6.52.25,9.78ZM54.31,157.93c-.15.14-.26.35-.32.56-.09-.18-.2-.34-.33-.49.22-.02.43-.05.65-.07ZM53.12,220.26c-.06,2.8-.12,5.59-.19,8.39-.05-.04-.1-.08-.15-.12-.35-2.77-.63-5.56-.89-8.34.42.11.83.13,1.23.08ZM38.55,163.95s-.01-.07-.02-.11c.42,5.12,1.11,10.56-.2,15.59-3.58-3.62-3.29-12.27-5.5-16.32,1.84.41,3.77.48,5.7.41,0,.14.02.28.02.43ZM41.42,184.62c-.53,3.12-.15,6.37-.25,9.54-.1-.28-.2-.55-.3-.83,0,0,0,.02,0,.03-.01-.04-.03-.08-.04-.12.01.03.02.05.03.08-1.31-4.01-2.52-8.06-3.59-12.15,4.93,2.6,3.49-8.28,3.64-10.97-.14-1.84-.1-4.47-.53-6.78,1.71-.12,3.42-.29,5.06-.37-.87,8.31-1.49,16.64-2.17,24.96-.39-2.48-.94-4.06-1.85-3.4ZM43.13,249.35c-1.33.86-2.51,1.96-3.45,3.24,0-1.89,0-3.78,0-5.67-.03-3.92-.06-7.84-.11-11.76,2.46,4.16,2.25,9.53,3.56,14.19ZM49.26,313.31c-2.48-.17-4.95.89-7.29,1.66,2.41-2.78,4.82-5.56,7.12-8.43.13,1.95.24,3.91.32,5.87-.05.3-.1.6-.15.9Z"/>
      <path class="cls-6" d="M49.57,153.89s.02,0,.03,0c0,0-.01,0-.02,0,0,0,0,0,0,0Z"/>
      <path class="cls-6" d="M31.42,217.03s0,0,0,0c0,0,0,0-.01,0,0,0,.01,0,.02.01Z"/>
      <path class="cls-6" d="M40.86,193.32s0,0,0,0c0,0,0,0,0-.01,0,0,0,0,0,0Z"/>
      <path class="cls-6" d="M46.51,320.85c.05-.11.09-.22.14-.34,0,0,0,0,0-.01-.05.12-.1.23-.15.35Z"/>
      <path class="cls-6" d="M781.64,224.42c0-.06,0-.12,0-.19,0,0,0-.02,0-.02v.21Z"/>
      <path class="cls-6" d="M780.39,230.94s0-.08,0-.12c0,.01,0,.02,0,.04,0,.03,0,.06,0,.09Z"/>
      <path class="cls-6" d="M636.7,126.42c-.12.12-.25.25-.38.37,1.29,0,2.57,0,3.86,0-1.91.81-3.83,1.58-5.77,2.32,2.02.03,4.03.05,6.05.03-2.32.76-4.9.41-7.32.67-1,.93-1.96,1.9-2.99,2.79.12.06.25.1.37.14-.1.7.19,1.43.64,1.96-.26.88-.12,1.86.4,2.64-4.08,1.27-8.75,1.56-12.35,3.88-.97.71-1.95,1.39-2.94,2.07,6.35-2.09,13.38-1.72,19.34-4.81,8.82-3.53,16.67-10.84,25.98-12,2.47-1.12,4.78-2.63,6.92-4.31-10.46.07-22.29.27-31.8,4.24,0,0,0,0,0,0Z"/>
      <path class="cls-6" d="M633.59,139.8c-.33.1-.65.2-.98.29.35-.03.67-.13.98-.29Z"/>
      <path class="cls-6" d="M771.13,154.97c-.49-4.1-5.4-4.99-5.26-.12-.02.16-.04.33-.06.49.54-.25,1.15-.25,1.73-.27.4-1.71,2.85-1.37,3.59-.1Z"/>
      <path class="cls-6" d="M772.32,155.09c-.37-.16-.8-.2-1.18-.11.02.04.04.07.07.11.37,0,.74,0,1.12,0Z"/>
      <path class="cls-6" d="M791.34,158.94s0,.05,0,.07c.01,0,.02-.02.03-.02,0-.02-.02-.03-.03-.05Z"/>
      <path class="cls-6" d="M792.23,160.23h0c-.36-.95-.64-1.31-.86-1.24.55,1.12,2.25,3.63.86,1.24Z"/>
      <path class="cls-6" d="M791.28,197.17c.96.08,2.16-.45,2.23-1.51,0,0,0,0,0,0,.19-8.49.46-16.99,1.05-25.46.91-1.91-2.13-3.65-2.98-1.64-.11-2.97-.29-5.95-.29-8.93,0,0,0,.02,0,.02,0-.21.02-.42.04-.63-1.12.59-.61,12.81-1.08,14.32-.29,5.22-1.28,10.26-1.31,15.34-.41-1.93-1.11-3.46-2.4-3.93h0c.45.06.89.25,1.24.54.13.11.24.23.34.36.14-9.87,3.46-23.25-1.84-31.84-2.12-1.85-6.07-1.61-6.75,1.53.61.17,1.17.58,1.43,1.15-3.26-.69-7.67.34-10.21,1.37-6.47-1.22-8.02,4.33-1.08,4.5-.04.19-.07.38-.1.56-6.06-.01-6.79,5.16-.57,5.1-.03.46-.04.93-.05,1.39-2.03-.06-2.03,2.3-.02,2.21.3,4.17-.58,11.44,4.92,12.27-.47,3.26-.89,6.52-1.07,9.81-7.71.2-7.96,7.87-5.41,9.51,0,0,0,0,0,0-.24-.33-.46-.67-.66-1.03h0c-.27-.54-.48-1.1-.59-1.7h0c-.07-.5-.13-1.01-.01-1.52,0,0,0,0,0,0,.08-.33.18-.63.3-.94,0,0,0,0,0,0,.33-.73.85-1.34,1.43-1.9,0,0,0,0,0,0,.37-.33.76-.63,1.17-.9.37-.23.74-.43,1.13-.62,0,0-.01,0-.02,0,.61-.24,1.23-.52,1.9-.5.19,0,.38,0,.56.03-.01,0-.02,0-.03,0,.06,0,.12.02.18.03-.84,10.47-.67,21.01,1.31,31.35-.28,7.52-4.07,16.47-.51,23.42,5.2,3.19,3.76-11.52,4.5-14.36,2.07.19,2.47-2.04,2.35-3.65,0,.03,0,.06,0,.09,0-.09,0-.18,0-.27v.06c.32-13-.7-26-.33-38.98.61,3.61,1.19,7.23,1.82,10.84-.02-.11-.04-.22-.06-.34.78,5.83-.26,11.79-.14,17.68,0,.11,0,.23,0,.35,0-.02,0-.04,0-.06,0,.6-.02,1.21-.02,1.81v-.2c0,.26,0,.52,0,.77,0-.01,0-.03,0-.04,0,.54-.01,1.07-.02,1.6.59,6.27.54,12.44.34,18.73.16,1.7,3.37,2.37,3.72.48.05-3.78.32-7.55.72-11.32.25-.17.46-.39.6-.66,1.68,8.42,9.19,7.81,6.96-1.37-.67-10.2-2.18-20.31-3.57-30.43-.34-.94-.52-2.28-.65-3.77.08.31.15.62.24.93.4.2.85.32,1.3.34ZM774.38,167.07c.62-.11,1.25-.22,1.88-.32-.63.35-1.29.67-1.96.94.03-.21.05-.41.08-.62ZM774.56,180.02c-.12.07-.23.14-.35.21-.42-1.75-.4-3.57-.39-5.36.04-1.27.06-2.55.15-3.83.92-.2,3.62-.37,1.38-.54.45-.12.9-.24,1.34-.39-.82,3.28-1.41,6.61-2.13,9.91ZM782.39,163.39h0c1.58.12,4.47-.86,2.74-2.76,0,0,0,0,0,0,1.74,1.89-1.15,2.88-2.74,2.76ZM785.37,170.9s-.06-.06-.09-.09c.03.03.06.06.09.09ZM781.25,156.54c1.08.08,2.3.42,2.72,1.51.9.3,1.69,1.33,1.34,2.25.36-.92-.44-1.95-1.34-2.25-.68-.76-1.63-1.24-2.72-1.51ZM782.43,163.43c.94.83.92,2.31.22,3.28.84.92,1.23,2.12,1.44,3.33-.21-1.21-.6-2.41-1.44-3.33.71-.98.72-2.45-.22-3.28ZM784.11,170.15c.35.14.72.33,1.04.57-.32-.24-.69-.43-1.04-.57h0ZM785.93,171.95c-.05-.36-.2-.66-.42-.9.22.25.38.55.42.9.16.17.28.37.3.62h0c-.02-.24-.14-.45-.3-.62ZM786.24,172.57h0c.15,3.65.21,7.3.28,10.95-.07-3.65-.13-7.3-.28-10.95Z"/>
      <path class="cls-6" d="M704.23,235.95c.36-.3.75-.73,1.24-.92,0-.46,0-.92,0-1.38-.59.67-1.12,1.4-1.23,2.3Z"/>
      <path class="cls-6" d="M706.26,208.6c-.88.73-1.11,2.09-.42,3.04.13.19.27.37.42.55,0-1.2,0-2.39,0-3.59Z"/>
      <path class="cls-6" d="M727.76,167.01c-.61-.75-1.55-1.27-2.54-1.47,1.18-.99,1.58-2.32-.21-3.86,3.44-.16,2.44-4.24-.4-4.53,2.65-4.52-6.1-3.53-8.63-3.6-.68-.3-1.99-.52-2.53.11-3.3.2-6.6.62-9.85,1.22-.58-.84-1.42-1.3-2.43-1.06,1.11-.27,2.22-.54,3.32-.83-3.35.31-7.46-.88-10.37,1.09,1.29-.02,2.58-.05,3.87-.1-1.24,1.05-.56,2.83-.75,4.24-1.08.04-1.23,1.03-.57,1.71-.98.99-.45,2.6.5,3.39-.03,2.37-.05,4.75-.08,7.12.16.06.32.11.49.15-.71,2.12,1.7,3.63,3.51,3.87-5.95.51-2.83,6.05,1.57,5.83-.57,0-1.13.01-1.7.02,0,0,0,.01,0,.02-2.25-.06-3.27,2.69-1.44,4.06-3.37.48-2.24,4.51.52,5.01.68.14,1.36.19,2.05.21-.12.67-.24,1.36-.35,2.06-.07.18-.1.38-.1.58-2.86,17.7-3.8,42.38.68,42.62,1.6.39,3.21-.9,2.68-2.57-.8-8.83.12-17.64.61-26.46.2.13.41.25.64.33,0-.63,0-1.25,0-1.88.23-.1.4-.27.58-.45,0,.85-.02,1.71-.05,2.57.38.15.76.27,1.15.38-.02.34-.03.69-.05,1.03-.4.11-.8.23-1.15.43-.02,1.41-.13,2.8-.22,4.21.34.32.71.58,1.1.82-.09,1.75-.18,3.5-.26,5.25-.05.22-.06.43-.03.64-.09,1.79-.17,3.59-.24,5.38-.37,2.16,1.9,3.64,3.89,3.62-.35.58-.85,1.05-1.33,1.53-1.2,1.13-2.5,2.16-3.63,3.35-.01.37-.03.74-.04,1.11,0,.21-.02.41-.02.62.05-.02.09-.04.14-.07-.02,0-.04.02-.05.02,3.52-1.62,13.49-4.03,8.84-9.18.33-.2.62-.45.89-.73.59-.33,1.16-.76,1.61-1.23-.07,2.4-.25,4.8-.38,7.2-.09,1.78,1.61,3.02,3.21,3.3,5.09.86,3.57-5.5,4.04-8.63,4.74-1.34,1.63-8.93,2.64-12.75.38-15.24.68-30.48.87-45.72ZM697.22,159.51c-.06.03-.11.06-.16.09-.11-.2-.25-.4-.18-.64.05-.07.12-.12.2-.15.05-.02.11-.03.16-.05v.75ZM707.17,189.57c-.36-.03-.72-.03-1.08,0,0-.01,0-.02,0-.04.36,0,.72.01,1.08.04ZM703.71,194.51c0,.11,0,.22,0,.33,0,0,0,0,0,0,0,.34.01.68.01,1.02h0s0,.07,0,.11c0,.41,0,.81.01,1.22-.09-.2-.11-.42-.12-.63v-.68s0,0,0,0h0c0-.72.02-1.43.02-2.15.03.26.04.53.05.79ZM707.33,167.13c.05-.17.1-.33.16-.49.03.54.04,1.09.05,1.62-.23-.32-.27-.76-.21-1.13ZM706.26,175c.02-1.21.04-2.31.05-3.41.38.13.75.24,1.15.3-.05.94-.12,1.88-.22,2.8-.37.02-.81.2-.99.54,0-.08,0-.16,0-.24ZM703.93,170.18c.09.09.19.19.29.27-.01.72-.02,1.45-.02,2.18-.09-.11-.18-.21-.29-.31,0-.71.01-1.43.02-2.14ZM703.52,207.49c.01-1.19.02-2.39.04-3.58.08.07.16.12.24.18,0,1.12.01,2.25.02,3.37-.1,0-.2.01-.29.03ZM705.7,200.89s0-.03,0-.05c.09-.01.19-.02.28-.04-.1.02-.19.06-.28.09ZM705.7,195.82c0-.15,0-.29.01-.44.89.11,1.82.11,2.71.2,0,.03,0,.06,0,.08-.9.09-1.81.13-2.72.15ZM719.96,214.73c-.61-10.49.03-20.94.26-31.42.09-2.38.19-4.75.35-7.12,0,1.16.03,2.32.02,3.48,0-.02,0-.03,0-.05,0,.3,0,.59-.01.89,0,0,0-.01,0-.02,0,.55,0,1.11-.02,1.66,0-.04,0-.07,0-.11,0,.46,0,.91-.02,1.37,0-.02,0-.04,0-.05,0,.43-.01.86-.02,1.29,0,0,0-.02,0-.03-.05,3.68-.14,7.35-.21,11.03-.05,1.99-.1,3.98-.13,5.98,0,0,0,0,.01,0-.1,4.37-.19,8.73-.26,13.1Z"/>
    </g>
    <path class="cls-7" d="M707.92,186.84c-1.22-.05-3.4.15-3.27-1.62,4.03-3.2,10.64-2.05,15.63-2.95,0,.11,0,.23,0,.34-4.39.8-8.92,1.28-13.15,2.77.83.03,1.66-.02,2.5-.01h-.14c3.6-.15,7.23-.25,10.75-1.1-.02.66-.03,1.31-.04,1.97-4.05.68-8.18.6-12.27.6Z"/>
    <path class="cls-7" d="M720.54,185.98c0-.45,0-.9.02-1.35,0,.01,0,.02,0,.03,0-.15,0-.31,0-.46,1.69-.54,3.95-1.02,4.86-2.68-1.61-.07-3.23.17-4.83.3,0-.44,0-.89.01-1.32,0,0,0,.01,0,.02,0-.3,0-.59.01-.89,0,.02,0,.03,0,.05.01-.99,0-1.97-.01-2.95.51-.18,1.02-.38,1.51-.59-.02,0-.05.02-.07.03.02,0,.04-.02.06-.03-.5.02-1,.05-1.5.08,0,0,0-.01,0-.02,0,0,0,.01,0,.02-2.83.15-5.66.24-8.5.28.06,0,.12,0,.18,0-.18,0-.35,0-.53,0,.13,0,.27,0,.41,0-.32,0-.64,0-.95.01.13,0,.27,0,.41,0-1.78.02-4.07.31-5.1-1.52.22-.17.5-.26.76-.27.1-.93.17-1.87.22-2.8-.4-.07-.78-.17-1.15-.3,0,.51-.01,1.02-.02,1.55-1.69.15-4.12-.48-4.41-2.43-1.58.09-3.34.57-4.79-.29.03-2.37.06-4.73.08-7.1,0,0,0,0,0,0,.23,0,.46-.01.69-.02,0-.02,0-.05,0-.07-.28.02-.56,0-.84-.06-.86-.81-1.24-2.3-.34-3.23-.66-.69-.51-1.67.57-1.71.02-.95.02-1.9.02-2.84,3.19,1.07,32.08-2.03,27.63,2.94.02.08.03.17.03.25.93.06,1.89.03,2.81.18.15,1.06.05,2.14.08,3.21-.68.25-1.4.43-2.11.59.7,0,1.41,0,2.11,0,.01,2.05-.05,4.09-.09,6.14-.21.13-.41.24-.63.35.21.05.42.1.63.16-.02,1.4-.03,2.79-.04,4.19-.44.14-.89.26-1.34.4,2.64,2.27-1.05,4.57-3.19,5.2,1.55.09,3.28.08,4.43,1.27-.02.97-.03,1.93-.05,2.9-1.81,1.87-4.5,2.54-6.98,3.02,0-.07,0-.14,0-.21ZM703.91,172.32c.1.1.19.2.29.31,0-.73.01-1.45.02-2.18-.1-.09-.2-.18-.29-.27,0,.71-.02,1.43-.02,2.14ZM707.33,167.13c-.06.38-.02.82.21,1.13,0-.54-.02-1.08-.05-1.62-.06.16-.11.32-.16.49ZM697.9,163.29c.53-.02,1.05-.03,1.58-.04-.13,0-.26,0-.39,0,1.68-.02,3.35-.05,5.03-.07-.13,0-.27,0-.4,0,2.54-.07,5.08-.38,7.6-.7-4.47.26-8.94.57-13.42.72,0,.02,0,.05,0,.07ZM697.07,158.8c-.08.04-.15.08-.2.15-.07.24.07.44.18.64.05-.04.11-.07.16-.09v-.75s-.1.03-.15.05Z"/>
    <path class="cls-7" d="M720.55,184.66s0,0,0,0c0,0,0,0,0,0Z"/>
    <path class="cls-7" d="M708.17,182.83c-.66-.04-1.33-.14-1.92-.47-.02-.62-.04-1.24-.05-1.87,0,.61-.01,1.22-.02,1.82-3.08-2.87,2.38-3.03,4.26-3.26-.01,0-.02,0-.03,0,2.76-.41,5.49-1.01,8.19-1.71-.02,0-.04.01-.06.02.08-.02.16-.04.24-.07-.05.01-.09.02-.14.04.62-.18,1.23-.37,1.84-.58-.35,1.67-.1,3.39-.19,5.09-4.04.35-8.06.98-12.12.99Z"/>
    <path class="cls-7" d="M720.57,182.25c1.25-.08,2.6-.26,3.79-.33-1.26.21-2.53.43-3.79.64,0-.1,0-.21,0-.31Z"/>
    <path class="cls-7" d="M718.64,177.34s-.03,0-.04.01c.01,0,.03,0,.04-.01Z"/>
    <path class="cls-7" d="M710.44,176.5s.06,0,.09,0c-.07,0-.13,0-.2,0,.04,0,.07,0,.11,0Z"/>
    <path class="cls-7" d="M710.74,176.5c-.07,0-.14,0-.21,0,.07,0,.14,0,.21,0Z"/>
    <path class="cls-7" d="M712.48,176.48c-.08,0-.15,0-.23,0,.08,0,.15,0,.23,0Z"/>
    <path class="cls-7" d="M706.28,173.63c0,.25,0,.51-.01.77-.06-.28-.05-.53.01-.77Z"/>
    <path class="cls-7" d="M720.27,198.84c.09-4.74.26-9.47.29-14.21,0,.01,0,.02,0,.03,0-.43,0-.86.02-1.29,0,.02,0,.04,0,.05,0-.46,0-.91.02-1.37,0,.04,0,.07,0,.11.01-.56.01-1.11.02-1.66,0,0,0,.01,0,.02,0-.3,0-.59.01-.89,0,.02,0,.03,0,.05.01-1.16-.01-2.32-.02-3.48-.65,7.46-.28,15.05-.91,22.55-1.38-.35-2.96-1.65-2.48-3.23.96-6.19,1.71-12.43,2.35-18.67-2.15,3.27-5.92,13.11-10.66,8.04-4.22-3.49-3.36-10.57-2.17-15.36-6.01-2.77-4.67-5.4.52-1.43.04-.09.08-.19.12-.28.04.16.09.32.19.45-.25-2.18,2.2-4.19,4.23-2.95,3.49,3.38.99,9.35,1.28,13.7,5.24-7.76,7.14-16.31,8.33-25.38,2.1.26,5.34.89,5.48,3.5,2.31,8.57.43,19.71.36,28.83,0-.05.02-.1.03-.14-.89,4.06-1.64,8.36-3.12,12.19.3-2.34.37-4.69.43-7.05-.93,2.66-.31,8.16-4.3,7.88ZM706.26,175c0,.08,0,.16,0,.24.18-.34.62-.53.99-.54.1-.93.17-1.87.22-2.8-.4-.07-.78-.17-1.15-.3-.01,1.1-.03,2.2-.05,3.41Z"/>
    <path class="cls-7" d="M720.55,184.66s0,0,0,0c0,0,0,0,0,0Z"/>
    <path class="cls-7" d="M792.37,191.61h0c-.54-1.52-1.27-2.97-2.19-4.3,0,0,0,0,0,0-.44-.6-.9-1.16-1.4-1.71.16-.91.33-1.82.5-2.74,3.12,3.46,4.55,8.16,4.24,12.78,0,0,0,0,0,0,0,.04,0,.07-.01.11-.31-1.4-.67-2.79-1.13-4.14Z"/>
    <path class="cls-7" d="M786.28,183.27l.15.13c-6.67-4.73-4.67-5.94,2.37-6.3-.03,1.01-.09,2.02-.18,3.02-.16.02-.32.05-.48.07.02,0,.04,0,.06-.01-.45.07-.91.11-1.36.15.55.55,1.11,1.1,1.65,1.67-.05,1.01-.16,2.02-.29,3.02-.62-.61-1.26-1.19-1.93-1.75Z"/>
    <path class="cls-7" d="M788.14,180.19c-.07.01-.13.02-.2.03.07,0,.13-.02.2-.03Z"/>
    <path class="cls-7" d="M789.94,178.73c.49-6.63.54-13.3,1.12-19.92.09.04.19.09.28.15-.02.22-.03.45-.04.68,0,0,0-.01,0-.02,0,2.98.17,5.95.29,8.93.14-.84,1.19-.99,1.89-.79,2.13.67.74,3.31.92,4.92-1.36.34-2.74.63-4.13.83,1.39.28,2.85.57,4,1.46-.07,1.16-.12,2.33-.18,3.49-1.27.86-2.82,1.18-4.3,1.46.05-.4.1-.8.15-1.2Z"/>
    <path class="cls-7" d="M775.14,177.18c.56-2.35.92-4.74,1.54-7.07-.44.14-.89.27-1.34.39,2.24.17-.46.34-1.38.54-.11,2.04-.19,4.09-.12,6.13-1.55,0-3.09-.05-4.64-.09-.21-1.81-.28-3.63-.29-5.46-2.01.09-2.01-2.27.02-2.21,0-.47.02-.93.05-1.39-6.23.06-5.49-5.11.57-5.1.03-.19.06-.38.1-.56-6.94-.18-5.38-5.72,1.09-4.5,5.51-1.26,11.92-.18,17.63.19.95,6.27.57,12.69.42,19.01-4.05-.04-8.1.12-12.16.12,0,0,0,0,.01,0-.01,0-.03,0-.04,0,.14,0,.28,0,.43,0-.63,0-1.26.01-1.9,0ZM774.9,166.98c-.17.03-.35.06-.52.09-.03.21-.05.41-.08.62.67-.27,1.32-.59,1.96-.94-.45.07-.91.15-1.36.23Z"/>
    <path class="cls-7" d="M792.89,161.47c-.21-.33-.44-.66-.66-1,.04,0,.09,0,.13,0,.16.34.45.7.53.99Z"/>
    <path class="cls-7" d="M791.36,158.98c.43.29.79.89.81,1.4-.3-.45-.58-.92-.81-1.4Z"/>
    <path class="cls-7" d="M125.52,206.7c-9.75,1.51-1.66-19.26-1.34-24.55-3.65,2.55-7.29,10.35-12.05,9.29-1.42-.52-2.16-2.25-1.25-3.54.23-.08.45-.17.68-.26.03-.11.05-.21.08-.32-.14.05-.29.1-.43.16.4-.51.92-.94,1.39-1.39-.02.02-.04.04-.05.05.15-.14.3-.29.45-.43-.08.08-.17.16-.25.24.31-.29.62-.59.93-.89-.04.04-.08.08-.12.12.53-.51,1.06-1.02,1.6-1.53,0,0-.01.01-.02.02.69-.66,1.38-1.33,2.08-1.99-.01.01-.02.02-.03.03.09-.09.18-.18.28-.26-.02.02-.04.04-.07.06.15-.14.3-.28.45-.43-.02.02-.04.03-.05.05,1.18-1.18,2.37-2.36,3.54-3.55-2.65,1.22-5.31,2.41-8.03,3.48.06-.25.13-.5.19-.76-.17.05-.34.09-.52.14-.09.28-.18.57-.27.85-3.22.73-7.37,4.29-10.25,1.29-2.82-3.91,4.34-5.65,6.65-7.52-.57.1-1.13.19-1.7.28.03,0,.07,0,.1-.01-2.38.77-7.07.09-6.27-3.29-.54-.11-1.08-.3-1.55-.6.09-.04.18-.07.27-.1.06-1.33.17-2.65.33-3.97.43-.05.84-.15,1.27-.23,0,.33,0,.66,0,.99.02-.06.04-.12.07-.17-.05-.37.31-.58.4-.92,2.09-.45,4.17-.99,6.23-1.57-.02,0-.04.01-.06.02.27-.08.53-.15.8-.23l-.33.09c.21-.06.41-.12.62-.18-.03.02-.05.04-.08.06.02.2.03.4.04.59.03,0,.05,0,.08-.02.05-.26.17-.5.31-.73.27-.08.53-.15.8-.23,0,0-.02,0-.03,0,.02,0,.05-.01.07-.02-.27.07-.55.14-.82.21.06-.09.12-.18.18-.27-2.31,1.14-5.13,1.38-7.66,1.98.22-.53.65-.97.79-1.52-.57-.77-.74-1.93-.04-2.67-.01-.43-.02-.85-.02-1.28-.51,1.84-.95,3.68-1.3,5.55-.42.06-.84.09-1.26.1.54-2.8.77-5.65,1.48-8.41-.49-.48-.84-1.13-.79-1.83.17-.03.34-.07.51-.1-.16-.01-.33-.03-.49-.06.01-.08.03-.16.05-.24-.22,0-.43.01-.65,0,0,.03,0,.07,0,.1-2.36-.38-3.25-3.8-.37-4.11,1.84-.14,3.7-.2,5.54-.36,9.31-.73,18.39-3.03,27.6-4.43.51.41.92.99,1.01,1.65.49.08.45.78.21,1.66.2.59.05,1.23-.55,1.62-.31.81-.62,1.55-.72,1.94.1-.57.25-1.17.42-1.77-.25.12-.5.23-.77.31-.47,2.73-.68,5.48-.81,8.25-.1.06-.19.11-.29.17.09,0,.19.02.28.03-.12,9.09-.98,18.11-2.9,26.99-.32.21-.72.32-1.13.33-.83,7.08-1.66,14.16-2.4,21.24,0-1.07-.02-2.15-.02-3.22ZM109.75,173.44c-.16.03-.32.06-.48.09-.02.7-.05,1.41-.08,2.11.23-.08.47-.16.7-.25.31-.74.62-1.47.97-2.18-.37.08-.74.15-1.11.22ZM110.42,168.09c-.38.05-.75.1-1.13.16,0,.39.02.79.02,1.18,1.11-.25,2.22-.5,3.32-.76,0-.11.02-.21.02-.32-.68.18-1.41.05-2.02-.3-.07,0-.14.02-.22.03ZM104.46,161.23c.2-.16.4-.3.6-.45.08-.3.17-.6.27-.89-.3-.02-.6-.05-.9-.1,0,.48.02.96.03,1.45ZM101.92,159.58c.08-.25.15-.51.23-.77-.04-.02-.07-.05-.1-.07-.05.28-.09.56-.13.84Z"/>
    <path class="cls-7" d="M129.76,187.04c0,.38-.11.69-.32.98.11-.32.22-.65.32-.98Z"/>
    <path class="cls-7" d="M113.8,184.93s-.09.08-.13.12c.04-.04.09-.08.13-.12Z"/>
    <path class="cls-7" d="M114.44,184.32c-.08.08-.17.16-.25.24.09-.08.17-.16.25-.24Z"/>
    <path class="cls-7" d="M115.13,183.66c-.08.08-.16.15-.24.23.08-.08.16-.15.24-.23Z"/>
    <path class="cls-7" d="M117.26,181.61s-.05.04-.07.07c.02-.02.05-.04.07-.07Z"/>
    <path class="cls-7" d="M117.38,181.5s-.08.07-.11.11c.04-.04.08-.07.11-.11Z"/>
    <path class="cls-7" d="M98.33,169.5c-.18-.9.51-1.76,1.35-2-.09,1.25-.18,2.5-.27,3.75-.56-.42-.98-1-1.08-1.75Z"/>
    <path class="cls-7" d="M98.98,166.92c-.6-.01-1.22-.19-1.77-.5.08-3.06.34-6.11.68-9.14.84-.17,1.69-.28,2.52-.46-.1,3.38-.43,6.75-.69,10.12-.25,0-.49,0-.74,0Z"/>
    <path class="cls-7" d="M108.59,165.35c-.11.03-.22.06-.33.09l.33-.09Z"/>
    <path class="cls-7" d="M109.26,165.16c-.05.02-.1.03-.16.04.05-.01.1-.03.16-.04Z"/>
    <path class="cls-7" d="M110.38,164.84s0,0,0,0c0,0-.01,0-.02,0,0,0,.01,0,.02,0Z"/>
    <path class="cls-7" d="M91.71,124.98c-28.75-.18-57.72-.15-86.29-2.63,234.77-7.11,469.98-1.12,704.89-3.35,38.4-.03,76.8-.07,115.2-.1,1.51,0,3.29,1.06,3.69,2.58.47,1.78-1.41,3.03-3.04,2.86-244.82.19-489.63.5-734.45.63Z"/>
    <path class="cls-7" d="M516.3,125.97c-17.63.65-34.88-4.72-52.51-3.51,24.67-1.16,49.45,4.67,74.13.84,66.62-1.17,133.18-8.47,199.79-6.5-73.52,6.45-147.69,5.96-221.41,9.17Z"/>
    <path class="cls-7" d="M540.23,120.3c-13.08-8.58,32.19-3.53,35.77-4.1,17.16-1.18,34.3-2.71,51.48-3.57-25.67-.6-51.34-1.11-77-1.86,55.69-1.77,111.66-2.85,167.37-.04,4.59,1.01,4.2,5.93-.93,5.44-57.88,6.46-118.08,2.06-176.68,4.13ZM631.54,116.72c8.74.05,17.46-.28,26.19-.64-14.23.05-28.47.15-42.69.67,5.5,0,11,0,16.5-.03Z"/>
    <path class="cls-15" d="M42.57,160.9c-1.95-.17-4.19-.74-5.31-2.48-8.92,2.3-15.44-3.78-3.66-7.28-1.79-.1-5.61-2.95-1.87-3.27,1.84-.23,3.02-.69,4.68-.77,5.59-1.02,20.37-3.73,22.73,3.07,11.28,6.44-10.28,6.03-13.8,7.32,4.6.71,9.34,1.14,13.93,1.47-5.46,1.23-11.07,2.22-16.69,1.95Z"/>
    <path class="cls-15" d="M59.49,425.29c-1.64-.05-3.6-1.22-3.75-2.98,0-8.34.12-16.68.19-25.01.22-26.99.43-53.98.84-80.95-.15-27.71.99-55.33.76-83.02.67-27.64-1.91-57.43,3.9-83.88h0s0,.02,0,.03c0,0,0,0,0,0,0,.04.01.08.02.11,0,0,0,0,0,0,.01.06.02.12.03.18,0,0,0,0,0,0,0,0,0,0,0,.01,0,0,0,0,0,0,0,0,0,0,0,.01,0,0,0,0,0,0,4.01,23.85,2.48,48.34,2.45,72.37-.74,27.13-.41,54.24-.55,81.33-.39,27.34-.2,54.68-.51,82.02-.09,10.66-.17,21.32-.25,31.98-.3,2.88,1.28,8.03-3.15,7.8Z"/>
    <path class="cls-15" d="M58.18,417.22c-.08-2.25-.21-4.5-.35-6.76-6.07-1.42-1.59-9.34-2.32-13.66-3.21.31-5.06-2.7-3.91-5.58.73-5.5,1.23-11.02,1.72-16.54-4.92-.81-3.09-4.87-2.71-8.33,1.25-7.7,2.38-15.42,3.42-23.15-13.82,6.44-4.23-14.52-3.09-20.34-10.63-.22,3.17-35.36,3.67-42.57-1,1.68-2.39,3.91-4.67,3.42-7.07-2.42.98-13.95,1.18-19.16-1.19,1.88-2.54,4.31-4.98,4.55-10.71-.23,2.92-21.41,3.33-27.38-1.71,3.76-9.35,6.12-9.09.19,3.61-10.16,8.75-19.72,11.77-30.11-9.99,5.8,1.18-21.85,1.26-25.64-.78.22-1.73,0-2.35-.53-1.19,1.81-1.97,6.75-4.83,5.67-.52-.3-.85-.85-.59-1.42,2.53-5.7,5.29-11.31,6.16-17.52-9.46,9.39-.44-13.13,2.72-15.1-3.2,4.64-4.83,10.12-5.55,15.64,5.49-4.96,4.68-13.35,8.34-19.52.7-1.18.8-3.77,2.72-3.18,2.36.95-.16,3.94-.24,5.7,6.38-2.41-1.88,23.8-1.76,27.59,6.42,1.11-.2,20.73-.8,25.54,6.61-.35,1.5,14.77,1.55,18.86,7.27-1.35,1.48,19.43,1.44,23.71,10.31-11.55-.49,30.24-.76,33.69,9.16-1.37.77,21.56.71,26.7,4.18-.2,2.57,4.67,2.34,7.25-.85,7.64-1.76,15.27-2.49,22.93,2.57,3.92.67,9.68,1.05,14.23-.11,7.58.92,15.16.79,22.77-.55,9.21,2.21,23.55-2.52,31.14-.38,2.28-.71,4.69-1.16,6.9Z"/>
    <path class="cls-15" d="M122.58,328.34c-5.64-.36-3.31-7-3.64-10.77.2-12.78.4-25.56.61-38.34.97-43.17.04-86.5,5.33-129.43,4.37,37.56,2.01,77.27,1.76,115.57-.27,17.31-.55,34.62-.82,51.93-.8,3.63,2.09,10.89-3.24,11.04Z"/>
    <path class="cls-15" d="M123.08,326.33c-1.47-4.86-1.86-10.03-2.63-15.04-7.91.06-2.13-12.35-3.02-17.26-4.64,2.14-6.98-2.21-4.95-6.23,1.69-6.42,3.03-12.94,3.77-19.54-.53,1.85-2.63,2.52-4.29,1.72-4.74-1.81,2.96-16.45,2.99-21.07-2.29,2.62-7.29.09-6.33-3.35,1.5-6.53,2.73-13.12,3.85-19.73-6.04.51-4.55-4.48-2.31-7.95,2.96-6.19,4.96-12.77,7.03-19.29-1.56,1.86-3.15,4.07-5.48,4.96-3.8.66-4.39-1.58-2.38-4.42,4.15-7.23,7.49-14.88,9.95-22.85.28-.88,1.33-4.17,1.14-1.29-.1-.27.03-.76-.1-1.07-2.31,7.92-4.54,15.93-7.59,23.65,3.25-3.64,5.39-8.38,8.74-11.82,6.92-1.84-1.1,13.31-.93,16.68,3.24,2.65-.54,7.94-.76,11.4,7.01-1.97,3.44,10.99,4.02,14.91,1.77,11.45-.49,23.76-.71,35.45,1.34,4.78-.05,10.18.32,15.13,1.7,1.19,1.19,3.48,1.38,5.27.73,13.93-3.26,27.84-1.72,41.73Z"/>
    <path class="cls-9" d="M218.09,128.08c-23.27-2.83-46.4-1.08-69.69-.11-38.2-.39-75.88-7.06-114.05-6.3-8.64.81-18.35-1.41-26.48.59,4.87-2.88,12.15-1.25,17.85-1.8,39.09-1.5,77.62,4.71,116.59,5.88,25.21-.27,50.19-3.13,75.35.38,21.93,1.21,43.64-2.04,65.37-4.32,28.74-3.02,57.23,4.14,85.89,4.62-21.01.61-41.73-3.12-62.58-4.48-29.64-1.24-58.58,7.17-88.25,5.56Z"/>
    <path class="cls-9" d="M529.45,129.59c-35.31-2.79-70.7-2.29-106.09-2.12,26.44-1.04,52.96-1.12,79.42-1.2,9.6.89,19.32,2.3,28.96,1.72,51.77-6.7,104.36-3.57,156.44-2.62,32.98-.37,66.21-7.52,99.09-2.13-38.68-2.29-77.2,3.85-115.86,2.65-47.35-1.18-94.8-.75-141.96,3.7Z"/>
    <path class="cls-9" d="M815.81,126.81c3.63-.85,7.49-.81,11.15-.61-3.7.2-7.52.18-11.15.61Z"/>
    <path class="cls-9" d="M73.08,150.53c-11.2-.39-22.3-1.54-33.54-1.39-8.7-1.26-16.84-4.92-25.8-4.49,8.05-1.25,15.63,1.04,23.3,3.11,13.69.57,27.23,1.88,40.94,1.93-.03,0-.05,0-.08,0,20.13-1.49,40.22-2.75,60.27.19-21.69-2.34-43.39-.21-65.09.65Z"/>
    <path class="cls-9" d="M190.18,149.85c21.27-.77,42.4-3.89,63.67-4.2,39.66-.19,79.2,2.81,118.86,1.42,32.75,4.95,65.04-8.32,97.55-2.82-30.74-3.36-60.83,8.67-91.7,5.13-27.71-.52-55.37.72-83.02-1.52-35.19-2.01-70.25,1.32-105.36,1.99Z"/>
    <path class="cls-9" d="M735.35,152.61c-36.67-.3-73.52-.36-110.1-3.55-41.16-1.11-82.31,1-123.43-1.11,57.02-.14,113.98-2.04,170.93,1.41,37.04,1.97,74.01-1.62,110.99,1.05-16.03.63-32.26,2.71-48.39,2.2Z"/>
    <path class="cls-9" d="M809.51,152.35c-3.29-.07-6.58-.17-9.86-.29,11.21-.39,22.7-.7,33.9-.92-7.97.92-16.04,1.46-24.04,1.21Z"/>
    <path class="cls-9" d="M61.52,225.7c-.45-24.58-2.96-49.52.28-73.96.32-.23.3.3.33.51-.08-.05-.08-.33-.18-.45,0,0-.02,0-.03.01,1.27,24.54.34,49.37-.4,73.89Z"/>
    <path class="cls-9" d="M29.27,253.28c-.36-13.52,3.09-26.91,1.34-40.41-3.63-21.03-3.59-42.25-1.62-63.47.26-1.19.25-3.51,1.86-3.47-3.13,2.37-.9,9.12-1.36,12.85.17,19.46,2.29,38.73,3.43,58.11.1,12.24-3.62,24.23-3.65,36.39Z"/>
    <path class="cls-9" d="M40.61,474.9c-2.68-.6-14.25-2.19-13.76-5.39-2.33-25.61,2.52-51.07,2.62-76.65.82,25.29,1.3,50.58,2.27,75.84,10.49,5.56,23.11-4.4,27.65,2.63-.5.22-.93,0-1.39-.06-5.13,3.09-11.45,4.23-17.39,3.63Z"/>
    <path class="cls-9" d="M64.08,470.99c-4.5-27.51-2.64-55.87-3.62-83.69,3.5,27.54,3.44,55.94,3.62,83.69Z"/>
    <path class="cls-9" d="M90.44,319.17c-2.44-5.53-2.66-67.32,3.21-66.67-2.01.04-1.73,3.31-1.87,4.72,1.14,17.57,2.33,35.17,3.73,52.71.91,2.22-2.51,13.49-5.07,9.24Z"/>
    <path class="cls-9" d="M118.27,327.04c-5.27-2.19-26.34-.53-26.69-6.51,1.62-22.48,1.42-45.07,1.7-67.58.63,22.8,2.39,45.52,1.04,68.32,8.94,2.85,18.75,2.15,27.42,6.35-1.18-.09-2.32-.36-3.48-.58Z"/>
    <path class="cls-9" d="M126.92,328.84c-3.99-23.27-3.39-47.66-1.91-71.02.12,23.6,2.49,47.42,1.91,71.02Z"/>
    <path class="cls-9" d="M700.91,297.62c-.06-13.07-3.17-25.85-3.59-38.89-.6-13.28.52-26.57.24-39.85,1.5-12.69-8.83-50.76.33-57.7-8.9,8.15,2.68,42.05,1.91,54.78.99,14.76-.42,29.55-.21,44.3.15,12.44,2.24,24.97,1.32,37.35Z"/>
    <path class="cls-9" d="M729.9,315.29c-8.03-16.1-.73-35.23-2.95-52.42-4.26-27.43,1.89-55.7-2.58-82.83.74-.83,1.63,2.02,2.24,2.55-.31-.24-.63-.76-.95-1.07,8.12,27.55,4.67,57.36,8.06,85.67.84,16.02-8.13,32.38-3.82,48.11Z"/>
    <path class="cls-9" d="M762.17,335.86c.88-32.43.35-64.82,3.86-97.11,1.08-25.39-2.94-52.91,1.67-77.29.13.07-.25-.06-.31,0-2.88,24.25,1.22,49.04.86,73.45-2.65,33.55-3.01,67.46-6.09,100.95Z"/>
    <path class="cls-9" d="M791.35,265.8c5.36-29.73,5.94-60.62.68-90.37.03-.01.05.04.02.03,6.62,29.56,7.88,61.08-.7,90.34Z"/>
    <path class="cls-9" d="M481.79,123c-39.18-4.27-78.78-2.59-118.11-2.93,69.46-4.41,138.75,2.15,208.26,1.11-30.06.38-60.08,2.3-90.15,1.82Z"/>
    <path class="cls-9" d="M714.7,128.67c-16.86-.93-33.82-3.49-50.73-2.4-12.74,1.54-24.66-4.1-37.1-4.36,5.08-1.47,10.58-.16,15.73.64,14.26,2.5,28.93,2.06,43.31,1.96,26.75,1.24,53.42-.27,80.14.23-17.06,1.18-34.18,4.26-51.35,3.93Z"/>
    <path class="cls-9" d="M645.81,11.48c-46.07-3.24-92.35.27-138.44-3.45-34.9-1.92-69.69,1.55-104.55.75,30.01-.67,60.1-3.86,90.14-3.51,32.69-.06,65.38,1.21,98.09.77,21.54-.47,42.95.18,64.45.74,15.82.41,32.7-4.17,47.98.57-19.11-2.04-38.27,6.43-57.67,4.14Z"/>
    <g>
      <polygon class="cls-2" points="299.75 40.29 257.02 83.48 574.58 83.48 535.01 40.29 299.75 40.29"/>
      <path class="cls-3" d="M257.02,89.87v-6.4h317.56l1.72,9.72c.51,2.91-1.72,5.59-4.69,5.59h-305.69c-4.91,0-8.9-3.99-8.9-8.9Z"/>
      <path class="cls-4" d="M341.69,81.01c.37-2.68.61-5.36.74-8.06h-10.21c.02,2.68.04,5.38-.02,8.06h9.49Z"/>
      <path class="cls-4" d="M514.12,81.01h36.38l-1.1-8.06h-35.7c.08,2.68.25,5.38.43,8.06Z"/>
      <path class="cls-4" d="M510.27,72.97h-11.74v8.06h12.17c-.18-2.68-.35-5.36-.43-8.06h0Z"/>
      <path class="cls-4" d="M495.11,72.97h-9.23c-.51,2.7-1.13,5.38-1.78,8.06h11.01v-8.06h0Z"/>
      <path class="cls-4" d="M482.46,72.97h-15.65v8.06h13.83c.68-2.68,1.31-5.36,1.82-8.06Z"/>
      <path class="cls-4" d="M463.39,81.01v-8.06h-17.17c.06,2.68.12,5.38,0,8.06h17.17Z"/>
      <path class="cls-4" d="M442.83,72.97h-80.94v8.06h80.97c.14-2.68.06-5.36,0-8.06h-.02Z"/>
      <path class="cls-4" d="M358.45,72.97h-12.62c-.12,2.7-.37,5.38-.72,8.06h13.34v-8.06Z"/>
      <path class="cls-4" d="M328.82,72.97h-10.72v8.06h10.74c.06-2.68.02-5.38,0-8.06h-.02Z"/>
      <path class="cls-4" d="M314.68,72.97h-9.99c-.35,2.72-.92,5.4-1.62,8.06h11.6v-8.06Z"/>
      <path class="cls-4" d="M301.28,72.97h-27.05l-6.79,8.06h32.14c.74-2.66,1.35-5.34,1.72-8.06h-.02Z"/>
      <path class="cls-4" d="M311.45,63.8h-29.3l-6.04,5.95,33.23.12c.88-1.98,1.64-3.99,2.13-6.08h-.02Z"/>
      <polygon class="cls-4" points="346.64 63.8 337.86 63.8 337.86 69.98 346.64 70.02 346.64 63.8"/>
      <path class="cls-4" d="M415.68,63.8h-15.18c0,2.13.04,4.28.08,6.4l15.08.06v-6.47h.02Z"/>
      <path class="cls-4" d="M516.7,70.61l29.85.1-2.35-6.92h-31.59c1.47,2.21,2.84,4.48,4.09,6.81h0Z"/>
      <path class="cls-4" d="M508.49,63.8h-12.67v6.75l16.98.06c-1.33-2.33-2.78-4.6-4.34-6.81h.02Z"/>
      <polygon class="cls-4" points="492.41 63.8 479.46 63.8 479.46 70.49 492.41 70.53 492.41 63.8"/>
      <path class="cls-4" d="M476.04,63.8h-10.95c.04,2.21.08,4.42.16,6.63l10.8.04v-6.67h-.02Z"/>
      <path class="cls-4" d="M461.68,63.8h-12.73v6.57l12.89.04c-.08-2.21-.12-4.42-.16-6.63v.02Z"/>
      <polygon class="cls-4" points="445.53 63.8 435.14 63.8 435.14 70.33 445.53 70.37 445.53 63.8"/>
      <polygon class="cls-4" points="431.74 63.8 419.1 63.8 419.1 70.29 431.74 70.33 431.74 63.8"/>
      <path class="cls-4" d="M397.08,63.8h-12.69c.14,2.11.29,4.24.41,6.34l12.38.04c-.04-2.13-.08-4.26-.08-6.38h-.02Z"/>
      <path class="cls-4" d="M380.98,63.8h-7.49v6.3h7.9c-.12-2.09-.27-4.19-.41-6.3Z"/>
      <polygon class="cls-4" points="370.09 63.8 363.22 63.8 363.22 70.08 370.09 70.1 370.09 63.8"/>
      <polygon class="cls-4" points="359.82 63.8 350.06 63.8 350.06 70.02 359.82 70.06 359.82 63.8"/>
      <path class="cls-4" d="M334.45,63.8h-6.92c-.04,2.05-.12,4.09-.23,6.14h7.14v-6.14Z"/>
      <path class="cls-4" d="M324.11,63.8h-9.21c-.45,2.11-1.17,4.11-2.01,6.1l10.99.04c.1-2.05.18-4.09.23-6.14Z"/>
      <path class="cls-4" d="M520.87,61.9h21.59l-2.48-6.32h-19.11v6.32Z"/>
      <path class="cls-4" d="M517.47,55.55h-11.62c.12,2.11.2,4.22.25,6.32h11.38v-6.32Z"/>
      <path class="cls-4" d="M502.46,55.55h-11.54c-.02,2.11-.06,4.22-.1,6.32h11.89c-.04-2.11-.12-4.22-.25-6.32Z"/>
      <path class="cls-4" d="M487.52,55.55h-19.36c.06,2.11.08,4.22.06,6.32h19.19c.04-2.11.06-4.22.1-6.32Z"/>
      <path class="cls-4" d="M464.75,55.55h-10.76c-.06,2.11-.14,4.22-.23,6.32h11.07c0-2.11,0-4.22-.06-6.32h-.02Z"/>
      <path class="cls-4" d="M450.61,55.55h-15.14v6.32h14.88c.1-2.11.18-4.22.25-6.32h.02Z"/>
      <rect class="cls-4" x="412.67" y="55.55" width="7.51" height="6.32"/>
      <rect class="cls-4" x="423.58" y="55.55" width="8.47" height="6.32"/>
      <path class="cls-4" d="M409.25,55.55h-13.59c.12,2.11.23,4.22.29,6.32h13.3v-6.32Z"/>
      <path class="cls-4" d="M392.27,55.55h-11.7v6.32h12.01c-.08-2.11-.16-4.22-.31-6.32Z"/>
      <rect class="cls-4" x="365.79" y="55.55" width="11.36" height="6.32"/>
      <rect class="cls-4" x="354.23" y="55.55" width="8.14" height="6.32"/>
      <rect class="cls-4" x="337.86" y="55.55" width="12.97" height="6.32"/>
      <rect class="cls-4" x="325.01" y="55.55" width="9.43" height="6.32"/>
      <path class="cls-4" d="M321.6,55.55h-12.95c-.8,2.07-1.41,4.17-1.72,6.32h14.65v-6.32h.02Z"/>
      <path class="cls-4" d="M305.02,55.55h-14.75l-7.18,6.32h20.4c.27-2.15.8-4.26,1.51-6.32h.02Z"/>
      <path class="cls-4" d="M509.19,53.81h30.79l-2.72-6.32h-29.81c.57,2.11,1.15,4.22,1.74,6.32Z"/>
      <path class="cls-4" d="M503.93,47.47h-7.06c.33,2.11.63,4.22.84,6.32h7.96c-.59-2.11-1.17-4.22-1.74-6.32Z"/>
      <path class="cls-4" d="M493.41,47.47h-9.8c.27,2.11.47,4.22.63,6.32h10.05c-.23-2.13-.51-4.24-.86-6.32h-.02Z"/>
      <path class="cls-4" d="M480.23,47.47h-10.09v6.32h10.72c-.14-2.11-.37-4.24-.63-6.32h0Z"/>
      <path class="cls-4" d="M466.73,47.47h-11.05c0,2.11,0,4.22.04,6.32h11.01v-6.32h0Z"/>
      <path class="cls-4" d="M452.26,47.47h-11.87c.08,2.11.18,4.22.33,6.32h11.58c-.04-2.11-.06-4.22-.04-6.32Z"/>
      <path class="cls-4" d="M436.98,47.47h-10.52c.04,2.11.1,4.22.2,6.32h10.66c-.14-2.11-.25-4.22-.33-6.32h-.02Z"/>
      <path class="cls-4" d="M423.05,47.47h-8.12v6.32h8.31c-.1-2.11-.16-4.22-.2-6.32h.02Z"/>
      <path class="cls-4" d="M411.5,47.47h-12.19c.1,2.11.18,4.22.23,6.32h11.97v-6.32Z"/>
      <path class="cls-4" d="M395.91,47.47h-6.12c0,2.11-.02,4.22-.08,6.32h6.45c-.04-2.11-.12-4.22-.23-6.32h-.02Z"/>
      <path class="cls-4" d="M375.43,47.47c.12,2.11.23,4.22.25,6.32h10.68c.06-2.11.08-4.22.08-6.32h-11.01,0Z"/>
      <path class="cls-4" d="M372.08,47.47h-10.09c.02,2.11.08,4.22.18,6.32h10.17c-.02-2.11-.12-4.22-.27-6.32Z"/>
      <path class="cls-4" d="M358.55,47.47h-5.61v6.32h5.79c-.1-2.11-.14-4.24-.16-6.32h-.02Z"/>
      <path class="cls-4" d="M349.53,47.47h-13.03c.16,2.11.35,4.22.53,6.32h12.5v-6.32Z"/>
      <path class="cls-4" d="M333.1,47.47h-2.23c-.29,2.11-.47,4.22-.63,6.32h3.4c-.18-2.11-.37-4.22-.53-6.32h0Z"/>
      <path class="cls-4" d="M327.35,47.47h-6.18v6.32h5.65c.14-2.07.29-4.19.53-6.32h0Z"/>
      <path class="cls-4" d="M317.75,47.47h-8.68c-.2.45-.41.88-.59,1.33-.72,1.62-1.45,3.29-2.09,5.01h11.36v-6.34Z"/>
      <path class="cls-4" d="M305.27,47.47h-9.51l-3.58,6.32h10.56c.72-2.15,1.62-4.24,2.56-6.32h-.02Z"/>
    </g>
  </g>
</svg>