<?xml version="1.0" encoding="UTF-8"?>
<svg id="Layer_1" xmlns="http://www.w3.org/2000/svg" version="1.1" viewBox="0 0 150 150">
  <!-- Generator: Adobe Illustrator 29.3.1, SVG Export Plug-In . SVG Version: 2.1.0 Build 151)  -->
  <defs>
    <style>
      .st0 {
        fill: #ddd3d3;
      }

      .st1 {
        fill: #7f7a7a;
      }
    </style>
  </defs>
  <path class="st0" d="M47.7,59.1c-1.8-1.1-3.7-2-5.7-2.8-2-.7-3.9-1.5-5.7-2.1s-3.3-1.4-4.4-2.2c-1.1-.8-1.7-1.8-1.7-2.9s.6-2.8,1.9-3.6,2.9-1.3,5-1.3,4.4.4,6,1.1c1.6.7,3.3,1.8,5.2,3.1l4.5-5.2c-1.8-1.8-3.9-3.3-6.2-4.5-1.7-.9-3.8-1.3-6.1-1.5v-10.2h-6.2v10.2c-1.8.2-3.4.6-4.9,1.2-2.4,1-4.3,2.4-5.7,4.3s-2,4.1-2,6.6.6,4.3,1.7,5.8c1.1,1.6,2.6,2.8,4.4,3.9,1.8,1.1,3.7,2,5.7,2.7,2,.7,3.9,1.5,5.7,2.2,1.8.7,3.2,1.5,4.4,2.4,1.1.9,1.7,2,1.7,3.4s-.6,2.8-1.9,3.7-3.1,1.4-5.6,1.4-5.1-.5-7.4-1.4-4.5-2.2-6.8-3.6l-4,6.1c1.4,1.2,3.1,2.2,5,3.2s3.9,1.7,6,2.2c1.3.3,2.6.5,3.8.7v11.3h6.2v-11.5c1.9-.3,3.8-.7,5.3-1.3,2.6-1.1,4.5-2.6,6-4.6s2.1-4.2,2.1-6.7-.6-4.3-1.7-5.9c-1.2-1.6-2.6-2.9-4.4-4h0Z"/>
  <rect class="st1" x="68.3" y="26.8" width="24.5" height="66.3"/>
</svg>