<?xml version="1.0" encoding="UTF-8"?>
<svg id="Layer_1" xmlns="http://www.w3.org/2000/svg" version="1.1" viewBox="0 0 150 150">
  <!-- Generator: Adobe Illustrator 29.3.1, SVG Export Plug-In . SVG Version: 2.1.0 Build 151)  -->
  <defs>
    <style>
      .st0 {
        fill: #0acf83;
      }

      .st1 {
        fill: #ff7262;
      }

      .st2 {
        fill: #1abcfe;
      }

      .st3 {
        fill: #f24e1e;
      }

      .st4 {
        fill: #a259ff;
      }
    </style>
  </defs>
  <path id="path0_fill" class="st0" d="M54,138.1c11.6,0,21-9.4,21-21v-21h-21c-11.6,0-21,9.4-21,21s9.4,21,21,21Z"/>
  <path id="path1_fill" class="st4" d="M32.9,75c0-11.6,9.4-21,21-21h21v42.1h-21c-11.6,0-21-9.4-21-21Z"/>
  <path id="path1_fill1" data-name="path1_fill" class="st3" d="M32.9,32.9c0-11.6,9.4-21,21-21h21v42.1h-21c-11.6,0-21-9.4-21-21Z"/>
  <path id="path2_fill" class="st1" d="M75,11.9h21c11.6,0,21,9.4,21,21s-9.4,21-21,21h-21V11.9Z"/>
  <path id="path3_fill" class="st2" d="M117.1,75c0,11.6-9.4,21-21,21s-21-9.4-21-21,9.4-21,21-21,21,9.4,21,21Z"/>
</svg>