<?xml version="1.0" encoding="UTF-8"?>
<svg id="Layer_2" data-name="Layer 2" xmlns="http://www.w3.org/2000/svg" viewBox="0 0 144.6 195.03">
  <defs>
    <style>
      .cls-1 {
        fill: #c2dd92;
      }

      .cls-2 {
        fill: #899e65;
      }

      .cls-3 {
        fill: #8c4130;
      }

      .cls-4 {
        fill: #a86947;
      }

      .cls-5 {
        fill: #58442a;
      }

      .cls-6 {
        fill: #335741;
      }

      .cls-7 {
        fill: #bd7650;
      }

      .cls-8 {
        fill: #a76847;
      }
    </style>
  </defs>
  <g id="LittlePlant">
    <path class="cls-8" d="M133.62,102.73c-.05.23-.17.43-.37.59-.12.09-.23.17-.35.24,0,.01-.01.01-.01.01-.04.05-.07.1-.12.15-.02.04-.06.08-.1.12h-.01c-.3.38-.67.68-1.06.92,0,0-.01.01-.02.01-.42.27-.89.45-1.38.59-.35.64-1.41.71-2.07.86-.94.16-1.89.27-2.85.33-1.5-.04-3.23.53-4.6-.17-.61.05-1.21.12-1.81.19.96-.23,1.91-.47,2.86-.7-.74-.02-1.49-.06-2.25-.09-.38-.12-.77-.22-1.16-.31-.24-.06-.47-.11-.71-.16-.17-.04-.34-.07-.51-.1-.14-.03-.29-.05-.44-.07h-.01c-.21-.04-.42-.08-.63-.11h-.02c-1.94-.25-3.86-.26-5.55,0-1.18.21-2.36.42-3.54.62-.34.06-.68.11-1.02.17-2.03.33-4.05.65-6.08.95h-.01s-.02,0-.03,0h-.04s-.04.01-.06.01c-.35.05-.7.11-1.05.16h-.01c-.37.05-.72.11-1.09.16-.54-.01-1.07-.01-1.6-.03-.69-.14-1.65.05-1.89.52-.22.03-.45.06-.67.09-11.6,1.54-23.24,2.53-34.95,2.99-3.82.16-7.64.26-11.47.3-3.38.71-8.24.01-12.51.27-1.35.09-2.64.27-3.81.62-2.17-.29-4.46-.6-6.69-.85-.15-.02-.29-.03-.43-.05-.35-.69-.74-1.35-1.19-1.96-2.18-.57-4.26-1.45-6.17-2.79-5.73-5-.04-8.55,5.23-7.96h.01c.68-.22,1.3-.37,1.54-.45,2.46-.66,4.96-1.13,7.5-1.44h0c1.29.06,2.59.15,3.88.26-3.65.52-7.32,1.15-10.9,2.09-.69.17-1.37.36-2.05.57.69-.04,1.39-.07,2.09-.1,3.03-.14,6.07-.25,9.11-.35h.02c2.11-.06,4.21-.12,6.32-.17-.07-.26-.14-.51-.22-.76-.1-.32-.21-.62-.33-.93-.1-.29-.22-.58-.34-.87-.03-.06-.05-.12-.08-.17-.1-.24-.21-.48-.32-.71-1.04-.71-2.07-1.43-3.08-2.19-1.63-1.21-3.19-2.49-4.64-3.9-1.24.31-2.48.64-3.71,1,11.89-4.26,29.73-6.97,49.67-6.97s37.69,2.7,49.58,6.94c-3.33-.68-6.69-1.24-9.87-2.41-.59-.22-1.19-.54-1.83-.4-.51.1-.92.54-.78,1.08.01.03.02.05.03.08.42.97,1.67,1.2,2.59,1.47-.21.03-.33.11-.26.33.04.03.02-.11.04-.16,0,0,0-.01.02-.02,3.65.24,7.01,2.07,10.51,3.29,1.88.66,3.79,1.13,5.81,1.1.14.11.29.21.43.31-.46-.1-.93-.1-1.37.1-.38.14-.46.57-.28.88.07-.23-.05-.43.32-.6.76-.24,1.47.33,2.03.77.17.15.33.3.49.46-.88-.1-1.73.23-2.11.82-1.49-.39-3.04-.55-4.56-.79-1.96-.73-3.97-1.17-6.05-1.44-.29-.04-.78-.13-1.35-.23.7.17,1.39.39,2.07.66.45,0,.89.04,1.33.08,3.23.54,6.15,2.21,9.14,3.45,1.51.43,3.61,2.4,1.84,3.79Z"/>
    <path class="cls-7" d="M144.6,101.83c-.01.39-.02.77-.03,1.16h.01s-.01.04-.01.06c-.01.6-.04,1.2-.07,1.81-.01.11-.02.23-.03.34-.01.08-.01.16-.02.24h0c-.02.23-.04.44-.05.66l-.02.27h-.01s-.01.02-.02.02c-.45.47-.79,1.07-1.17,1.61-1.24-.46-1.82,1.04-1.71,2.04-1.05,2.43-3.76,2.92-6.14,3.45-.63.13-2.91.21-1.6,1.18.16.03.32.04.48.04.91,0,1.84-.43,2.74-.54-.12.03-.23.07-.34.1,0,0,0,.02.01.02.93,0,1.75-.15,2.53-.43.03.05.07.09.12.13.19.18.49.3.78.3.15,0,.29-.03.42-.11.9-.59,1.78-1.24,2.57-1.98.22.15.53.2.78.12-.1,1.09-.21,2.17-.31,3.26-.09.98-.19,1.97-.3,2.95-.05.1-.11.21-.16.32-.25.49-.32,1.08-.43,1.62-.04.2-.08.41-.13.61-.17.48-.34.96-.52,1.44-.48.31-1.01.52-1.56.68.33-.44.62-.91.88-1.39-2.16,1.32-4.83,2.05-7.15,2.64-.41.1-.83.21-1.25.3-1.78.42-3.62.78-5.45.93.09.1.18.19.28.28-2.15.39-4.31.67-6.48.9,1.16-.49,2.31-1.07,3.61-.84-.26-.11-.73-.17-1.07-.19-2.65.6-5.34,1.05-8.03,1.45-.05.01-.09.01-.14.02-3.31.29-6.63.72-9.94,1.04-.21-.02-.42-.04-.63-.06-3.46-.34-7-.46-10.46-.26-1.28-.32-2.57-.59-3.87-.82-11.68-2.02-23.93-.37-35.54,1.38-1.4.23-2.82.25-4.22.4h-.05c-1.71-.03-3.42-.12-5.12-.25-.28-.05-.56-.09-.84-.14-3.96-.63-7.97-1.08-11.97-1.54-.89-.1-1.77-.21-2.65-.31-2.19,1.03-4.8,1.29-7.36,1.29-1.29,0-2.58-.06-3.79-.13-.45.07-1.02.1-1.68.07-.51-.02-1.07-.06-1.66-.13-.45-.06-.93-.13-1.42-.22l-.18-.21c-.44-.44-.93-.82-1.54-1-.48-.16-.97-.29-1.46-.42-.71-.16-1.41-.34-2.12-.53-1.17-.38-2.31-.86-3.49-1.21-.24-.07-.49-.14-.73-.2-.29-.22-.56-.45-.81-.68-.31-1.2-.62-2.41-.93-3.61,0-.02-.01-.03-.01-.05-.15-.63-.3-1.26-.45-1.89-.32-1.35-.63-2.71-.94-4.06.01-.03.02-.05.02-.08-.02-.03-.03-.05-.05-.07-.64-2.87-1.22-5.76-1.72-8.65.04-.22.08-.43.13-.65.46-.45.92-.9,1.38-1.36.65-.64,1.3-1.32,1.87-2.04.43-.54.86-1.08,1.28-1.64.1-.02.2-.04.31-.07.34-.35.71-.71,1.06-1.07,4.38-3.84,10.16-6.67,16.04-6.68,1.36-.47,2.73-.91,4.11-1.31,1.23-.36,2.47-.69,3.71-1,1.45,1.41,3.01,2.69,4.64,3.9,1.01.76,2.04,1.48,3.08,2.19.11.23.22.47.32.71.03.05.05.11.08.17.12.29.24.58.34.87.12.31.23.61.33.93.08.25.15.5.22.76-2.11.05-4.21.11-6.32.17h-.02c-3.04.1-6.08.21-9.11.35-.7.03-1.4.06-2.09.1.68-.21,1.36-.4,2.05-.57,3.58-.94,7.25-1.57,10.9-2.09-1.29-.11-2.59-.2-3.88-.26h0c-2.54.31-5.04.78-7.5,1.44-.24.08-.86.23-1.54.45h-.01c-5.27-.59-10.96,2.96-5.23,7.96,1.91,1.34,3.99,2.22,6.17,2.79.45.61.84,1.27,1.19,1.96.14.02.28.03.43.05,2.23.25,4.52.56,6.69.85,1.17-.35,2.46-.53,3.81-.62,4.27-.26,9.13.44,12.51-.27,3.83-.04,7.65-.14,11.47-.3,11.71-.46,23.35-1.45,34.95-2.99.22-.03.45-.06.67-.09.24-.47,1.2-.66,1.89-.52.53.02,1.06.02,1.6.03.37-.05.72-.11,1.09-.16h.01c.35-.05.7-.11,1.05-.16.02,0,.04,0,.06-.01h.04s.02,0,.03,0h.01c2.03-.3,4.05-.62,6.08-.95.34-.06.68-.11,1.02-.17,1.18-.2,2.36-.41,3.54-.62,1.69-.26,3.61-.25,5.55,0h.02c.21.03.42.07.63.11h.01c.15.02.3.04.44.07.17.03.34.06.51.1.24.05.47.1.71.16.39.09.78.19,1.16.31.76.03,1.51.07,2.25.09-.95.23-1.9.47-2.86.7.6-.07,1.2-.14,1.81-.19,1.37.7,3.1.13,4.6.17.96-.06,1.91-.17,2.85-.33.66-.15,1.72-.22,2.07-.86.49-.14.96-.32,1.38-.59.01,0,.02-.01.02-.01.39-.24.76-.54,1.06-.92h.01s.08-.08.1-.12c.05-.05.08-.1.12-.15,0,0,.01,0,.01-.01.12-.07.23-.15.35-.24.2-.16.32-.36.37-.59,1.77-1.39-.33-3.36-1.84-3.79-2.99-1.24-5.91-2.91-9.14-3.45-.44-.04-.88-.08-1.33-.08-.68-.27-1.37-.49-2.07-.66.57.1,1.06.19,1.35.23,2.08.27,4.09.71,6.05,1.44,1.52.24,3.07.4,4.56.79.38-.59,1.23-.92,2.11-.82-.16-.16-.32-.31-.49-.46-.56-.44-1.27-1.01-2.03-.77-.37.17-.25.37-.32.6-.18-.31-.1-.74.28-.88.44-.2.91-.2,1.37-.1-.14-.1-.29-.2-.43-.31-2.02.03-3.93-.44-5.81-1.1-3.5-1.22-6.86-3.05-10.51-3.29-.01.01-.01.02-.02.02-.02.05,0,.19-.04.16-.07-.22.05-.3.26-.33-.92-.27-2.17-.5-2.59-1.47-.01-.03-.02-.05-.03-.08-.14-.54.27-.98.78-1.08.64-.14,1.24.18,1.83.4,3.18,1.17,6.54,1.73,9.87,2.41,1.54.32,3.09.67,4.6,1.12,3.09.35,5.35,2.84,7.59,4.73.34.23.69.47,1.04.73,2.46.88,4.97,2.44,5.94,4.85v.29Z"/>
    <path class="cls-3" d="M117.82,192.86c-.95.24-1.9.47-2.86.67-2.04.4-4.07.95-6.13,1.12-2.82.12-5.57-.73-8.39-.59-4.41-.29-8.74.65-13.14.69-7.81.02-15.59.18-23.38.27-4.18.1-8.33-.47-12.42-1.22-.1-.02-.2-.04-.31-.06-.94-.17-1.88-.36-2.82-.55.01.02.03.04.03.05.02.01.03.04,0,.03-.3-.2.32-.22.44-.24.39-.02.77-.02,1.16,0h.01s.01-.01.02,0c.41,0,.81,0,1.21.03h0s.01.01.01.01c.01-.01.02,0,.02,0h.07s.04,0,.05.01c2.95.17,5.85.74,8.81.69h.04c5.25,0,10.49-.02,15.73-.11.01,0,.03,0,.04-.01,4.25-.06,8.51-.18,12.76-.36,2.08-.17,4.14-.44,6.19-.66.01.01.02,0,.03,0,2.35-.25,4.71-.44,7.12-.34.8-.03,1.6.06,2.39.18.01-.01.02-.01.03,0,1.16.17,2.32.41,3.5.43,1.79-.08,3.53-.62,5.34-.51,1.47.01,3.05.16,4.45.48Z"/>
    <path class="cls-5" d="M45.52,104.8c1.49.76,2.81,1.95,3.67,3.36-.68-2.66-2.67-3.88-4.82-4.95-.24-.12-.47-.24-.71-.35-.56-.27-1.11-.54-1.65-.84-.38-.2-.75-.42-1.1-.66-.33-.21-.64-.44-.94-.7.92-.48.49-1.48-.43-1.54-2.68.08-5.19,1.34-7.8,1.93-.81.18-1.64.3-2.48.3-.05-.07-.1-.13-.15-.19-.69-.75-1.41-.42-1.51.11-.16.86,1.33,2.23,7.31.29-.93.51-1.89.96-2.86,1.35-2.71,1.09-5.57,1.8-8.39,2.56-.94.26-.13,1.3.55,1.09,4.12-.98,8.24-1.95,12.43-2.58.12.33.27.66.45.98-1,.53-2.01,1.01-3.07,1.45-.5.16-1.45.49-.93,1.16.22.27.61.4.95.33,1.59-.43,3.14-.98,4.78-1.21,1.1.62,2.39.65,3.61.38,1.17.85,2.53,1.63,3.99,1.82,2.99,0,.32-3.33-.9-4.09ZM35.94,102.61c.1-.05.19-.09.3-.14.01.03.01.06.02.09-.07.01-.13.02-.2.03-.02,0-.07.01-.12.02ZM38.07,101.6c.07-.04.14-.07.21-.1.41.31.81.64,1.21.96,0,0,0,.02,0,.03-.09-.02-.18-.04-.26-.05-.36-.05-.71-.06-1.06-.05-.04-.26-.07-.53-.09-.79ZM38.6,104.03c-.04-.09-.08-.17-.11-.26.14-.01.27-.01.41-.02.01.01.02.01.03.01-.11.09-.22.18-.33.27ZM39.8,105.06c.16-.11.3-.23.45-.35.06.09.12.19.19.28-.21.02-.43.05-.64.07ZM43.47,106.37c.41-.93-.78-1.47-1.55-1.46-.29-.35-.51-.68-.75-1.14,1.47,1.18,3.26,2.07,4.41,3.59-.74-.22-1.46-.56-2.11-.99Z"/>
    <path class="cls-7" d="M94.29,148.06s0-.01.02-.01c.5-.32,1.21-.58,2.02-.65.09-.15.18-.3.28-.44-.98.07-1.97.11-2.97.11-.46,0-.92-.01-1.38-.03-.17,0-.33-.01-.5-.03-.47-.01-.94-.05-1.41-.09h-.03c-.36-.03-.72-.07-1.08-.11,1.2-1.2,2.46-2.34,3.77-3.41-1.5.4-3.12.91-4.77,1.29-2.08.48-4.19.76-6.12.38-1.19-.23-2.31-.72-3.31-1.56-.52-.01-1.04-.01-1.55.01-.25,0-.51.02-.76.04-1.98.13-4.16.42-6.17.36h-.08c-1.42-.05-2.76-.28-3.87-.85-.06-.04-.13-.08-.19-.12-.83-.46-1.52-1.14-2.02-2.11-.06-.1-.11-.19-.16-.29-.15-.33-.28-.69-.38-1.08h-.01c-.03-.06-.04-.12-.05-.18-1.28.01-2.94-.27-4.8-.72-.03,0-.06-.01-.08-.02-2.8-.68-6.03-1.76-9.05-2.9-.07-.02-.14-.05-.22-.08-1.33-.51-2.61-1.02-3.8-1.51t-.02,0s-.02-.01-.03,0c0,0-.01-.01-.02,0-.19-.03-.38-.05-.57-.07-.27-.03-.54-.05-.8-.07-.29-.03-.58-.05-.86-.06-.36-.02-.73-.03-1.09-.03-.63-.02-1.27-.01-1.9.03-.31.01-.61.03-.92.06-.21.02-.42.04-.63.07-.26.02-.53.06-.79.1.25-.28.47-.57.69-.88h0c.12-.17.22-.33.32-.5.01,0,.01-.01.02-.01v-.02s.01-.02.02-.03c-.2-.2-.4-.38-.62-.56-.08-.07-.16-.14-.24-.2-.1-.09-.2-.16-.31-.24-.03-.02-.06-.04-.09-.06-.12-.1-.24-.19-.37-.26-.1-.08-.2-.14-.3-.2-.17-.11-.34-.21-.51-.31-.17-.1-.34-.2-.52-.29-.07-.04-.14-.07-.21-.1-.43-.22-.88-.41-1.33-.59-.05-.01-.09-.03-.14-.05-.28-.1-.57-.2-.87-.28-.12-.04-.24-.07-.36-.1-.25-.07-.51-.14-.78-.19-.08-.02-.15-.04-.23-.05-.31-.06-.63-.12-.95-.16-.95-.14-1.92-.19-2.88-.14-.21,0-.42.01-.63.04-.2.01-.4.03-.6.06-.62.06-1.23.17-1.82.31-.3.07-.61.16-.91.25-.37.11-.73.24-1.09.38h-.01c-.12.01-.25.03-.38.04s-.26.02-.39.04c-.03,0-.06.01-.09.01-.18.02-.37.04-.55.06-.59.07-1.18.14-1.75.22.01.04.02.07.02.11.06.25.11.5.16.75.06.32.1.64.14.96-.36-.55-.64-1.14-.82-1.74-.1.02-.2.04-.29.05-.34.06-.69.13-1.01.2-.02-.06-.04-.11-.05-.17-.26.08-.52.16-.77.25-.08.03-.16.05-.24.08-.11-.69-.13-1.38-.01-2.07-.33.25-.57.56-.75.91-.05.09-.09.18-.12.27-.09.2-.15.41-.2.62-.02.09-.04.17-.05.26-.01-.1-.03-.19-.06-.29-.01-.08-.03-.16-.06-.23-.02-.06-.03-.11-.05-.16-.01-.02-.02-.05-.03-.07-.05-.12-.11-.24-.18-.36,0,.18-.04.41.01.57h-.02c0,2.18.2,4.38.66,6.52.07.02.15.03.22.04.5,3.53.86,7.2,1.72,10.61,4.83,14.28,6.53,39.8,20.93,46.67-.02-.16-.03-.31-.05-.47-.12-1.23-.29-2.45-.48-3.66.04.03.08.06.12.08.04.02.08.04.12.07.14.09.27.18.41.26.94.57,1.89.95,2.83,1.2.01-.01.02,0,.02,0,.56-.03,1.12,0,1.69.04.66.04,1.33.1,1.99.1h.01c.48,0,.96-.04,1.43-.13.2-.05.4-.1.6-.15-.03-.02-.05-.05-.07-.07-.11-.11-.2-.22-.27-.33-.07-.1-.13-.19-.17-.29-.27-.56-.18-1.09.13-1.4.1-.1.21-.18.33-.23.44-.17,1.04-.08,1.68.44.11-.01.21-.02.32-.03-.4-.14-.78-.31-1.13-.51-.12-.06-.24-.14-.35-.21-.11-.08-.22-.16-.33-.24-.1-.08-.2-.16-.28-.25-.1-.08-.18-.17-.26-.26,0,0,0-.01,0-.01-.16-.19-.3-.39-.41-.62.84.62,1.72,1.19,2.61,1.69-.43-.81-.81-1.64-1.15-2.48.35.4.75.8,1.21,1.19-.06-.18-.12-.35-.17-.54.23.36.48.7.75,1h.01c.37.43.77.8,1.21,1.13.41.03.8.01,1.18-.06.49-.07.95-.21,1.4-.39.51-.21,1.02-.46,1.53-.74.06-.09.12-.19.17-.29.09-.17.17-.35.23-.55.03-.07.05-.15.06-.23.02-.08.04-.16.05-.24.01-.05.02-.1.02-.15.02-.11.03-.22.04-.34-.61-.22-1-.5-1.2-.79,0-.01-.01-.02-.02-.03-.36-.56-.08-1.18.54-1.63.27-.21.62-.39,1-.51h0s0-.07,0-.1c.04.01.09.02.13.03.15.03.29.06.44.09.9.18,1.82.34,2.73.5,1.1.18,2.21.34,3.33.49.28-.18.57-.35.86-.52-.14-.08-.27-.17-.4-.27-.2-.15-.39-.31-.57-.49-.12-.12-.23-.24-.33-.37,0,0,0-.01,0-.01-.09-.12-.2-.27-.29-.41h0c-.25-.4-.4-.77-.46-1.14-.06-.28-.07-.55-.02-.81.01-.05.01-.11.03-.16.02-.13.06-.26.12-.4-1.21.32-2.63.31-4.01.03h-.02s-.03,0-.05-.01c-1.62-.34-3.19-1.06-4.29-2.08t0-.01c-.82-.76-1.38-1.68-1.51-2.74-.01-.02-.01-.03-.01-.05-.11-.9.09-1.9.7-2.98-.02-.02-.03-.04-.05-.07-.01-.02-.03-.04-.04-.06-.13-.15-.24-.3-.33-.45-.42-.59-.68-1.15-.83-1.66-.04-.13-.07-.25-.09-.37-.02-.11-.04-.21-.05-.31-.02-.21-.03-.41-.01-.61.02-.19.05-.37.1-.54.23-.88.84-1.61,1.64-2.22.14-.11.28-.2.42-.3.14-.1.3-.19.45-.28.12-.07.24-.14.37-.2.48-.26.98-.49,1.5-.69.02,0,.04-.01.06-.02.3-.13.6-.24.9-.33.32-.12.65-.22.96-.32-.33.02-.65.05-.98.06-.03-.38-.07-.77-.11-1.16.34-.08.67-.15,1.01-.22.49-.11.97-.21,1.46-.32.02,0,.03-.01.05-.01,1.53-.39,3.04-.87,4.54-1.42,2.43-.88,4.81-1.93,7.16-3.04,1.69-.78,3.38-1.6,5.05-2.4.09-.1.18-.19.27-.28.17-.17.35-.32.54-.46.09-.07.19-.14.28-.2.2-.14.41-.26.62-.37.11-.06.21-.11.32-.15.15-.07.3-.13.46-.19.02-.01.03-.01.05-.02.16-.05.32-.1.49-.15h.02c.08-.03.17-.05.25-.06.16-.04.32-.08.49-.1.21-.04.43-.06.64-.08h.03c.23-.02.46-.03.69-.03.43,0,.86.03,1.29.09.42.05.84.14,1.26.25.41.1.82.24,1.21.39h.01c.39.15.77.33,1.13.52.61-.19,1.22-.37,1.83-.54.33-.1.66-.19.99-.27.42-.12.84-.24,1.27-.34,0,0,.02-.01.03-.01,1.09-.28,2.18-.53,3.28-.75.09-.14.17-.27.27-.41.11-.19.24-.38.38-.57.02-.03.04-.07.07-.11.19-.29.37-.58.54-.89h0c.05-.14.11-.27.17-.4.04-.11.09-.22.14-.33-.69.07-1.14,0-1.4-.14-.01.01-.02.01-.02,0-.02-.01-.04-.03-.06-.05-.05-.04-.1-.09-.14-.15-.19-.33.11-.82.74-1.22Z"/>
    <path class="cls-4" d="M119.11,140.04c-.96.16-1.91.13-2.49-.57-.03-.03-.06-.06-.08-.09h-.01c-.08-.11-.15-.22-.21-.34-.66.06-1.32.13-1.98.22-.46.07-.92.14-1.38.21-.24.03-.49.07-.73.11h-.01c-2.5.38-5.01.77-7.54.61-.1,0-.21-.01-.31-.02-.46-.01-1.04-.31-1.31-.7-.23-.32-.26-.69.14-1,.02-.03.05-.04.07-.06.39-.12.79-.19,1.2-.24.66-.06,1.34-.06,2.02-.04.05,0,.1,0,.15.01h.23c.8.02,1.61.05,2.39-.03-.2-.02-.43-.08-.63-.18-.18-.1-.35-.22-.46-.37-.1-.14-.16-.29-.14-.46,0-.09.03-.18.07-.28.09-.09.18-.17.28-.24.28-.22.59-.39.92-.53.95-.4,2.06-.54,3.03-.8.11-.03.22-.06.33-.09.01-.04.02-.08.04-.12.2-.6,1.02-.7,1.76-.8h.01s.02,0,.04-.01c-.54-.06-1.08-.13-1.62-.19-.17-.02-.33-.04-.49-.06-.15-.01-.29-.03-.43-.05-.02.01-.03.01-.05.01h-.01c-.08.01-.15.03-.23.03-.49.08-.98.14-1.47.19-.37.05-.74.08-1.11.11h-.02s-.01,0-.02,0h-.01s0,0-.02,0h-.01s-.01,0-.02,0t-.02,0s-.01,0-.02,0c-.03,0-.05,0-.08,0-.93.09-1.85.16-2.78.2-.69.03-1.38.05-2.07.05-.82.01-1.65.01-2.48,0-1.95-.04-3.88-.15-5.84-.31h-.01c-.45-.03-.88-.07-1.34-.12h-.05c-.28-.02-.57-.05-.85-.08-1.04-.09-2.09-.2-3.13-.32-.04,0-.07-.01-.11-.02h-.01c-.13.05-.25.09-.38.14-.03.01-.06.02-.09.02-.51.18-1.02.35-1.54.52-.59.01-1.17.03-1.76.05-.01.01-.02.01-.03,0-.17.01-.33.01-.49.01-6.97.24-13.94.91-20.9,1.27-.08,0-.16.01-.24.01-1.16.01-2.31.04-3.45.04-1.37-.01-2.75,0-4.12-.02-1.48-.08-2.95-.17-4.43-.24-.38-.04-.76-.09-1.14-.14-.59-.2-1.17-.41-1.74-.67.01,0,.02-.01.03-.01-.34-.1-.65-.25-.93-.44-.19.09-.37.19-.54.29-.03-.01-.07-.02-.1-.03-.07,0-.13-.02-.2-.02-.21-.05-.41-.09-.62-.12-.05-.01-.09-.02-.14-.02-.46-.08-.92-.15-1.38-.21.92.43,1.84.83,2.76,1.21h.01c.21.09.42.17.63.26.08.03.15.06.22.08,3.23,1.3,6.35,2.29,9.05,2.9.02.01.05.02.08.02,1.76.4,3.34.64,4.64.69.05.01.1.02.16.03.01.06.02.12.05.18.07.37.21.73.39,1.08.05.1.1.19.16.29.09.16.19.32.3.47.46.64,1.04,1.2,1.72,1.64.06.04.13.08.19.12.62.38,1.31.64,2.02.75.14.03.29.04.43.05.47.04.95.05,1.42.05h.08c2.05,0,4.11-.25,6.17-.36.25-.02.51-.03.76-.04.51-.02,1.03-.02,1.55-.01.69.68,1.53,1.19,2.52,1.45.26.04.53.08.79.11.73.08,1.46.1,2.19.08,1.31-.03,2.62-.19,3.93-.46,1.59-.31,3.17-.77,4.77-1.29-1.31,1.07-2.57,2.21-3.77,3.41.36.04.72.08,1.08.11h.03c.47.04.94.08,1.41.09.17.02.33.03.5.03.46.02.92.03,1.38.03,1,0,1.99-.04,2.97-.11-.1.14-.19.29-.28.44,1.18-.29,2.38-.52,2.87-.72.63-.19,1.25-.39,1.88-.58,1.34-.41,2.68-.82,4.02-1.23,2.29-.7,4.58-1.4,6.86-2.12,1.43-.45,2.85-.92,4.27-1.4.99-.33,1.98-.66,2.96-1.02.73-.25,1.46-.51,2.18-.78-.65.11-1.46.36-2.26.49ZM130.79,149.8c-.12.31-.31.59-.55.83,0,0-.02,0-.03-.01-.17-.3-.29-.64-.34-.97-.07.58.02,1.26-.22,1.73-.07-.07-.13-.15-.17-.23-.25-.35-.4-.8-.4-1.2,0-.3.08-.57.24-.76-.09-.24-.17-.48-.24-.73-.01,0-.01,0-.01,0-.26.38-.51.77-.74,1.18-.01.01-.02.02-.02.03-.13.22-.25.45-.36.68-.15.31-.28.63-.39.95-.01,0-.01-.01-.02-.01-.17-.3-.25-.64-.24-.98-.04.05-.08.1-.12.15-.15.11-.31.18-.48.23-.07.02-.14.03-.21.03-.16.03-.32.03-.48,0-.02,0-.04-.01-.05-.01-.42-.07-.81-.29-1.06-.59-.37.2-.75.39-1.14.55-.12.05-.24.1-.36.15-.05.02-.11.04-.16.06-.35.13-.71.26-1.07.36-.04.02-.09.03-.13.04-.08.02-.15.04-.22.06-.25.07-.49.14-.74.19-.07.02-.14.04-.21.05-.17.04-.34.08-.51.11-.09.02-.18.04-.27.05-.23.05-.47.09-.7.12-.05.01-.11.02-.16.03-.03.01-.07.01-.1.01-.02.01-.05.01-.07.01-.43.07-.86.13-1.28.17-.55.07-1.09.12-1.62.16-.29.02-.57.04-.85.06-.08.01-.15.01-.23.02.08-.03.16-.05.24-.08.33-.11.66-.22.99-.33.54-.18,1.07-.37,1.6-.56-.49.09-.97.17-1.46.25-.24.04-.47.09-.71.12h0c-.13.03-.27.05-.4.08-1.42.24-2.85.49-4.26.77-1.69.33-3.37.7-5.02,1.16-.17.04-.33.09-.5.14-1.07.3-2.13.65-3.17,1.04,1.17-.65,2.37-1.22,3.6-1.72.38-.17.77-.32,1.16-.47,1.33-.51,2.69-.95,4.06-1.33,1.31-.38,2.64-.71,3.97-1,.08-.03.15-.06.23-.08.6-.22,1.21-.44,1.82-.66.28-.1.56-.2.85-.3-.27.06-.54.12-.81.19-.61.14-1.22.28-1.84.42-1.42.34-2.84.66-4.17.91-.74.14-1.45.26-2.11.34-1.44.17-2.64.19-3.42-.07-.56-.18-.91-.49-.98-.98-.02-.51.33-.77.77-.91.48-.15,1.07-.17,1.42-.24,1.51-.19,3.03-.39,4.54-.57.4-.05.8-.1,1.2-.14.95-.11,1.91-.21,2.86-.29.27-.03.55-.06.82-.08-.1-.24-.13-.49-.07-.73-.23.03-.46.05-.69.08-.82.1-1.63.2-2.43.33-.55.08-1.1.17-1.64.3-.28.05-.56.12-.84.19.28-.13.56-.25.85-.36.65-.25,1.31-.46,1.98-.64.7-.19,1.41-.35,2.13-.5.42-.09.84-.18,1.26-.26-.33,0-.76.03-1.24.05-.52.02-1.08.04-1.62.01-.28-.01-.55-.04-.81-.08-.53.1-1.06.19-1.6.27-2.09.35-4.19.65-6.28,1.01-.89.16-1.79.32-2.68.5-.53.1-1.05.21-1.57.31-1.66.32-3.31.65-4.97,1.01-.27.05-.61.14-.96.19-.08.25-.19.49-.31.72h0c-.04.09-.08.17-.11.25-.02.04-.03.07-.05.11-.13.18-.26.36-.38.54-.03.04-.05.08-.07.11-.14.19-.27.38-.38.57-.1.14-.18.27-.27.41-1.1.22-2.19.47-3.28.75-.01,0-.02.01-.03.01-.43.11-.85.22-1.27.34-.33.08-.66.17-.99.27-.61.17-1.22.35-1.83.54-.36-.19-.74-.37-1.13-.52h-.01c-.39-.15-.8-.29-1.21-.39-.42-.11-.84-.2-1.26-.25-.43-.06-.86-.09-1.29-.09-.23,0-.46.01-.69.03h-.03c-.21.02-.43.04-.64.08-.17.02-.33.06-.49.1-.08.01-.17.03-.25.06h-.02c-.17.05-.33.1-.49.15-.02.01-.03.01-.05.02-.16.06-.31.12-.46.19-.11.04-.21.09-.32.15-.21.11-.42.23-.62.37-.09.06-.19.13-.28.2-.19.14-.37.29-.54.46-.09.09-.18.18-.27.28-1.22.71-2.49,1.32-3.79,1.88-.05.02-.1.04-.15.06-.37.16-.74.31-1.11.46-.23.1-.47.19-.7.29-1.13.46-2.25.9-3.36,1.39-.17.07-.34.14-.51.22-.86.37-1.74.74-2.59,1.14-.53.24-1.04.5-1.55.77-1,.22-1.99.43-2.99.65-.02,0-.03.01-.05.01-.82.21-1.64.39-2.47.54.04.39.08.78.11,1.16.33-.01.65-.04.98-.06-.32.1-.64.21-.96.32-.3.1-.6.22-.9.33-.02.01-.04.02-.06.02-.28.12-.55.23-.82.36-.23.1-.46.21-.68.33-.13.06-.25.13-.37.2-.15.09-.31.18-.45.28-.14.1-.28.19-.42.3-.1.06-.19.13-.28.21-.69.57-1.18,1.23-1.36,2.01-.05.17-.08.35-.1.54-.03.2-.02.4.01.61.01.1.03.2.05.31.02.12.05.24.09.37.16.51.43,1.06.83,1.66.1.15.21.3.33.45.01.02.03.04.04.06.02.03.03.05.05.07-.2.27-.36.56-.49.87-.27.66-.36,1.39-.21,2.11,0,.02,0,.03.01.05.01.08.03.17.06.25.01.03.02.07.03.1.37.98.85,1.77,1.42,2.39t0,.01c.27.31.57.57.88.8.04.03.08.06.13.09.64.45,1.35.76,2.12.97.37.1.76.17,1.16.22.02.01.03.01.05.01h.02c.97.14,2.02.14,3.07.05.31-.01.63-.04.94-.08-.03.08-.06.16-.08.25-.02.05-.03.1-.04.15-.02.05-.02.11-.03.16-.05.26-.04.53.02.81.06.37.21.74.46,1.13h0c.09.15.2.3.29.42,0,0,0,.01,0,.01.1.13.21.25.33.37.18.18.37.34.57.49.13.1.26.19.4.27-.29.17-.58.34-.86.52-1.12-.15-2.23-.31-3.33-.49-.91-.16-1.83-.32-2.73-.5-.15-.03-.29-.06-.44-.09-.04-.01-.09-.02-.13-.03,0,.03,0,.06,0,.09h0c-.33.17-.67.33-1,.52-.05.02-.09.04-.14.07-.69.59-.76,1.11-.4,1.56.01.01.02.02.02.03.25.29.66.55,1.2.79-.01.12-.02.23-.04.34,0,.04,0,.09,0,.13t-.01.02c-.01.08-.03.16-.05.24-.01.08-.03.16-.06.23-.06.2-.14.38-.23.55-.05.1-.11.2-.17.29-.33.16-.67.32-1,.48-.18.08-.35.17-.53.26-.26.13-.53.25-.79.38h-.01c-.2,0-.4,0-.6.01-.23.01-.47.02-.7.03-.16,0-.32.01-.48.03-.44-.33-.84-.7-1.21-1.13h-.01c-.27-.3-.52-.64-.75-1,.05.19.11.36.17.54-.46-.39-.86-.79-1.21-1.19.34.84.72,1.67,1.15,2.48-.89-.5-1.77-1.07-2.61-1.69.05.11.11.22.17.33.07.1.15.2.24.29,0,0,0,.01,0,.01.08.09.16.18.26.26.08.09.18.17.28.25.11.08.22.16.33.24.11.07.23.15.35.21.35.2.73.37,1.13.51-.11.01-.21.02-.32.03-.64-.52-1.24-.61-1.68-.44-.12.05-.23.13-.33.23-.31.31-.4.84-.13,1.4.05.1.1.19.17.29.07.11.16.22.27.33.02.02.04.05.07.07-.2.05-.4.1-.6.15-.3.06-.59.12-.89.16h-.03l-.51-.03h-.01c-.66-.05-1.32-.08-1.99-.1-.41-.02-.83-.03-1.24-.04h-.45s-.01-.01-.02,0c-.94-.25-1.89-.63-2.83-1.2-.14-.08-.27-.17-.41-.26-.04-.03-.08-.05-.12-.07-.04-.02-.08-.05-.12-.08.19,1.21.36,2.43.48,3.66.27.22.54.43.82.64.77.14,1.54.26,2.32.38.38-.07.73-.13,1.11-.2,0,0,.01.01.02,0,.36-.05.73-.11,1.1-.17.06-.01.12-.02.18-.03.14-.02.27-.04.41-.06.37-.05.75-.1,1.12-.15.3-.04.6-.08.89-.11,1.32-.15,2.66-.15,4-.1,0-.02.01-.03.01-.05.01-.04.01-.09.02-.13.02-.17.03-.36.03-.55h.01s.01-.01.02,0t.02,0s.02-.01.03,0t.02,0s.04,0,.05.01c2.95.17,5.85.74,8.81.69h.04c.27-.03.55-.05.82-.07.12-.01.24-.02.35-.03.17-.02.34-.03.5-.04.13-.02.26-.03.38-.03.05-.01.1-.01.15-.01.11-.02.21-.03.31-.03.65-.06,1.3-.11,1.95-.16.13-.01.25-.02.38-.03.06-.01.11-.01.17-.01h.01s.01-.01.02-.01h.02c.09-.01.17-.01.26-.02h.07s.06-.01.09-.01c.1-.01.2-.01.31-.02.03,0,.06-.01.09-.01h.04s.02,0,.03,0c.02,0,.06-.01.09-.02.01,0,.01.01.01.01,0,0,.02-.01.02-.01t.01.01h.01s.01-.01.01-.01c0,.01.01.01.01.01h0s.01,0,.02-.01h.01s.01,0,.01,0h.22s.1-.01.1-.01c.03-.01.05-.01.07-.01s.05,0,.08-.01h.01l.19-.19c.21,0,.42,0,.62,0h.01c.38,0,.75-.01,1.12-.02.01.03.03.06.05.09h.01c.16-.01.33-.02.49-.03h.19c.08-.01.17-.02.25-.02.06,0,.12-.01.17-.01.04,0,.08,0,.12,0,.29-.01.58-.02.86-.04.1,0,.19-.01.29-.01.06,0,.11,0,.16,0,.75-.03,1.49-.06,2.23-.08.66-.02,1.32-.02,1.99-.03h.24c.47,0,.91-.01,1.38-.01h.89c.92.01,1.83.01,2.75.02h.99c.95.01,1.89.02,2.84.02h.19s0,.01.01,0h.37c.52,0,1.05,0,1.58-.01h.36s.03,0,.04-.01c.01.01.02,0,.03,0,.02.01.03,0,.04,0,.02.01.03,0,.05,0,.03.01.05,0,.07,0h.31c.65-.01,1.29-.03,1.94-.05.51-.01,1.02-.03,1.52-.05.34-.01.67-.02,1-.03h.09c.13-.01.25-.01.38-.02h.1s.01,0,.01-.01c.19-.01.37-.01.56-.02h.05c.38-.01.77-.03,1.15-.05h.13c.09,0,.17-.01.26-.01.01.01.02,0,.03,0,2.35-.25,4.71-.44,7.12-.34.8-.03,1.6.06,2.39.18.01-.01.02-.01.03,0,.17-.01.33-.01.5-.01h.05c.07,0,.13-.01.2-.01.05.01.09,0,.14,0h.33c.22-.01.44-.01.66-.01h.17s.03-.01.04,0c.03-.01.05-.01.07-.01h.08l1.53-.02h.01c.6-.01,1.2-.02,1.8-.03l1.56-.02h.48s.06-.01.06-.01h.02c.2-.04.41-.06.62-.09.15-.02.29-.04.44-.06.6-.08,1.21-.15,1.81-.25.02-.01.04-.01.06-.01.2-.02.39-.05.59-.08.06,0,.12-.01.18-.02h.01s.06,0,.1-.01c.03,0,.06-.01.1-.02h.03s.11-.01.11-.01c.12-.02.24-.03.35-.05.11-.01.22-.03.33-.04.31-.05.62-.09.93-.14.07-.01.13-.02.2-.03.15-.03.3-.05.44-.09.14-.02.28-.05.42-.08.09-.01.18-.03.27-.05.11-.02.21-.04.32-.06,0,0,0,0,0-.01.11-.2.22-.4.36-.67h.01s.03-.06.03-.06c.04-.06.07-.13.1-.19,0-.01.01-.01.01-.02h0s.01-.03.02-.04c0-.01.01-.01.01-.02h.01s0-.03.02-.04c.01-.03.02-.05.04-.07v-.02s.01-.02.01-.02t0-.02h.01c.04-.08.08-.16.12-.23h0s.03-.05.03-.06h.01s0,0,0-.02h.01s.01-.02.01-.03.01-.01.01-.02l.03-.06s.03-.06.05-.09c.21-.37.42-.74.64-1.11.16-.27.32-.53.47-.8.04-.06.07-.13.11-.19t.01-.01s.01,0,.01-.01.01-.03.02-.04c.02-.04.04-.07.06-.11h0s.01-.02.02-.03h0c.06-.13.13-.25.21-.37.01-.03.03-.06.05-.09.03-.05.06-.11.09-.16,0-.03.03-.05.04-.07h0s0-.01.01-.01h0s.01-.01.01-.01c0-.01,0-.02,0-.02h0s.01,0,.01,0c.04-.08.09-.17.14-.25.01-.03.03-.06.05-.09.02-.04.04-.07.06-.11.02-.04.05-.09.07-.13l.28-.51c.06-.12.12-.22.17-.31.04-.09.09-.17.13-.25.01-.02.02-.04.03-.06l.02-.02h0s.01-.04.02-.05c.01,0,.01-.01.01-.01,0-.01,0-.02,0-.02.02-.04.05-.09.07-.14.02-.05.04-.09.06-.12.02-.04.04-.07.05-.1.02-.04.04-.07.06-.1,0-.02,0-.03.02-.05.18-.43.35-.85.52-1.28h.01c.17-.44.33-.87.5-1.3,0-.01.01-.01.01-.02.02-.05.04-.11.07-.16.01-.05.03-.1.05-.14.02-.06.04-.12.07-.17,0-.01,0-.02,0-.02,0-.01.01-.02.01-.02,0,0,0-.01.01-.01h0v-.02s.01-.02.01-.03c.01-.02.02-.04.02-.05,0-.03.03-.06.04-.09.02-.05.04-.09.06-.13.01-.03.02-.06.03-.09.02-.04.03-.08.05-.12.06-.3.11-.6.17-.9.08-.41.15-.82.23-1.23h0s.01-.02.01-.02h0s0-.04.01-.06c0-.04.01-.07.02-.11,0-.02,0-.04.01-.06v-.02s0-.01,0-.02v-.04s.01-.06.02-.09c.01-.06.02-.13.04-.19,0-.03.01-.07.02-.1.05-.29.11-.58.16-.86.07-.37.14-.75.21-1.13.05-.27.1-.53.15-.8.02-.1.04-.21.06-.31h0c.12-.63.23-1.26.35-1.88.04-.2.08-.39.11-.59.05-.26.1-.52.15-.78.16-.82.31-1.64.47-2.46.12-.59.23-1.19.34-1.78l.18-.93c.02-.1.04-.2.06-.3v-.02c.04-.21.08-.41.12-.62.01-.05.02-.09.03-.14.01-.06.03-.13.04-.19.01-.02.01-.03.01-.05,0-.01.01-.02.01-.03.02-.08.03-.17.05-.25.04-.23.08-.45.13-.68.03-.18.07-.35.1-.53.25-1.25.5-2.5.75-3.74.03-.16.06-.32.1-.48.15-.72.29-1.44.44-2.16.06-.28.12-.56.17-.84.03-.13.06-.26.08-.39.01-.03.02-.07.02-.1,0-.02.01-.03.01-.05s.01-.03.01-.05c.01-.03.01-.06.02-.09.01-.02.01-.03.01-.05.07-.3.13-.6.19-.9.02-.08.04-.17.05-.25.02-.07.04-.14.05-.21.07-.33.14-.67.21-1,.03-.13.05-.26.08-.39.03-.15.07-.31.1-.46.02-.11.05-.22.07-.33,0-.03,0-.06.02-.09.01-.03.01-.06.02-.09h0s.01-.02.01-.02v-.03s0-.01.01-.02v-.04c.05-.24.11-.48.16-.72h0s0-.01.01-.02v-.02h0v-.02s0-.01.01-.01h0s0-.04.01-.05c0-.03,0-.06.02-.09.01-.06.03-.13.04-.19h0s0-.02.01-.03v-.03s0-.03,0-.04.01-.01.01-.02c0-.02,0-.04.01-.06,0-.02.01-.03.01-.05.03-.12.05-.25.08-.37h0c-.08-.02-.16-.05-.25-.08Z"/>
    <path class="cls-3" d="M134.14,124.45c-.41.1-.83.21-1.25.3-1.78.42-3.62.78-5.45.93.09.1.18.19.28.28-2.15.39-4.31.67-6.48.9,1.16-.49,2.31-1.07,3.61-.84-.26-.11-.73-.17-1.07-.19-2.65.6-5.34,1.05-8.03,1.45-.05.01-.09.01-.14.02-3.31.29-6.63.72-9.94,1.04-.21-.02-.42-.04-.63-.06-3.46-.34-7-.46-10.46-.26-1.28-.32-2.57-.59-3.87-.82-11.68-2.02-23.93-.37-35.54,1.38-1.4.23-2.82.25-4.22.4h-.05c-1.71-.03-3.42-.12-5.12-.25-.28-.05-.56-.09-.84-.14-3.96-.63-7.97-1.08-11.97-1.54-.89-.1-1.77-.21-2.65-.31-2.19,1.03-4.8,1.29-7.36,1.29-1.29,0-2.58-.06-3.79-.13-.45.07-1.02.1-1.68.07-.51-.02-1.07-.06-1.66-.13-.01.06-.01.12-.02.18,0,.25-.01.5-.03.74-.02.3-.04.6-.04.89.07.12.13.23.18.36,0,.02.02.05.03.07.02.05.03.1.05.16.03.07.05.15.06.23.03.1.05.19.06.29.01-.09.03-.17.05-.26.05-.21.11-.42.2-.62.03-.09.07-.18.12-.27.18-.35.42-.66.75-.91-.12.69-.1,1.38.01,2.07.08-.03.16-.05.24-.08.25-.09.51-.17.77-.25.01.06.03.11.05.17.32-.07.67-.14,1.01-.2.09-.01.19-.03.29-.05.18.6.46,1.19.82,1.74-.04-.32-.08-.64-.14-.96-.05-.25-.1-.5-.16-.75,0-.04-.01-.07-.02-.11.57-.08,1.16-.15,1.75-.22.13-.02.27-.03.39-.05.03,0,.05,0,.08-.01h.08s.06-.01.09-.01c.13-.02.26-.03.39-.04s.26-.03.38-.04h.01c.36-.14.72-.27,1.09-.38.3-.09.61-.18.91-.25.59-.14,1.2-.25,1.82-.31.2-.03.4-.05.6-.06.21-.03.42-.04.63-.04.96-.05,1.93,0,2.88.14.32.04.64.1.95.16.08.01.15.03.23.05.27.05.53.11.78.19.12.03.24.06.36.1.3.08.59.18.87.28.05.02.09.04.14.05.46.17.9.36,1.33.59.07.03.14.06.21.1.18.09.35.19.52.29.17.1.34.2.51.31.1.06.2.12.3.2.13.07.25.16.37.26.03.02.06.04.09.06.11.08.21.15.31.24.08.06.16.13.24.2.22.18.42.36.62.56-.01.01-.01.02-.02.03v.02s-.01.01-.02.01c-.1.17-.2.33-.32.49h0c-.22.32-.44.61-.69.89.26-.04.53-.08.79-.1.21-.03.42-.05.63-.07.31-.03.61-.05.92-.06.63-.04,1.27-.05,1.9-.03.36,0,.73.01,1.09.03.28.01.57.03.86.06.27.01.54.03.8.07.19.02.38.04.57.07.01-.01.02,0,.02,0,.01-.01.02-.01.03,0t.02,0c.13.01.25.02.38.04h.02c.46.06.92.13,1.38.21.05,0,.09.01.14.02.21.03.41.07.62.12.07,0,.13.01.2.02.03.01.07.02.1.03.17-.1.35-.2.54-.29.28.19.59.34.93.44,0,0-.02.01-.03.01.57.26,1.15.47,1.74.67.38.05.76.1,1.14.14,1.48.07,2.95.16,4.43.24,1.37.02,2.75,0,4.12.02,1.14,0,2.29-.03,3.45-.04.08,0,.16-.01.24-.01,6.96-.36,13.93-1.03,20.9-1.27.16,0,.32,0,.49-.01.01.01.02.01.03,0,.59-.02,1.17-.04,1.76-.05.52-.17,1.03-.34,1.54-.52.03,0,.06-.01.09-.02.13-.05.25-.09.38-.14h.01s.07.02.11.02c1.04.12,2.09.23,3.13.32.28.03.57.06.85.08h.05c.46.05.89.09,1.34.12h.01c1.96.16,3.89.27,5.84.31.83.02,1.66.02,2.48,0,.69,0,1.38-.02,2.07-.05.93-.04,1.85-.11,2.78-.2.03,0,.05,0,.08,0t.02,0s0,0,.02,0t.02,0h.01s.01,0,.02,0h.01s.01,0,.02,0h.02c.37-.03.74-.06,1.11-.11.49-.05.98-.11,1.47-.19.08,0,.15-.02.23-.03h.01s.03,0,.05-.01c.14.02.28.04.43.05.16.02.32.04.49.06.54.06,1.08.13,1.62.19-.02.01-.03.01-.04.01h-.01c-.74.1-1.56.2-1.76.8-.02.04-.03.08-.04.12-.11.03-.22.06-.33.09-.97.26-2.08.4-3.03.8-.33.14-.64.31-.92.53-.1.07-.19.15-.28.24-.04.1-.07.19-.07.28-.02.17.04.32.14.46.11.15.28.27.46.37.2.1.43.16.63.18-.78.08-1.59.05-2.39.03h-.23s-.1-.01-.15-.01c-.68-.02-1.36-.02-2.02.04-.41.05-.81.12-1.2.24-.02.02-.05.03-.07.06-.4.31-.37.68-.14,1,.27.39.85.69,1.31.7.1.01.21.02.31.02,2.53.16,5.04-.23,7.54-.61h.01c.24-.04.49-.08.73-.11.46-.07.92-.14,1.38-.21.66-.09,1.32-.16,1.98-.22.06.12.13.23.21.33h0s.01.01.01.01c.02.03.05.06.08.09.58.7,1.53.73,2.49.57.8-.13,1.61-.38,2.26-.49-.72.27-1.45.53-2.18.78-.98.36-1.97.69-2.96,1.02-1.42.48-2.84.95-4.27,1.4-2.28.72-4.57,1.42-6.86,2.12-1.34.41-2.68.82-4.02,1.23-.63.19-1.25.39-1.88.58-.49.2-1.69.43-2.87.72-.74.19-1.47.4-2.02.65-.01,0-.01.01-.02.01-.63.4-.93.89-.74,1.22.04.06.09.11.14.15.02.02.04.04.06.05,0,.01.01.01.02,0,.26.14.71.21,1.4.14.35-.05.69-.14.96-.19,1.66-.36,3.31-.69,4.97-1.01.52-.1,1.04-.21,1.57-.31.89-.18,1.79-.34,2.68-.5,2.09-.36,4.19-.66,6.28-1.01.54-.08,1.07-.17,1.6-.27.26.04.53.07.81.08.54.03,1.1.01,1.62-.01.48-.02.91-.05,1.24-.05-.42.08-.84.17-1.26.26-.72.15-1.43.31-2.13.5-.67.18-1.33.39-1.98.64-.29.11-.57.23-.85.36.28-.07.56-.14.84-.19.54-.13,1.09-.22,1.64-.3.8-.13,1.61-.23,2.43-.33.23-.03.46-.05.69-.08-.06.24-.03.49.07.73-.27.02-.55.05-.82.08-.95.08-1.91.18-2.86.29-.4.04-.8.09-1.2.14-1.51.18-3.03.38-4.54.57-.35.07-.94.09-1.42.24-.44.14-.79.4-.77.91.07.49.42.8.98.98.78.26,1.98.24,3.42.07.66-.08,1.37-.2,2.11-.34,1.33-.25,2.75-.57,4.17-.91.62-.14,1.23-.28,1.84-.42.27-.07.54-.13.81-.19-.29.1-.57.2-.85.3-.61.22-1.22.44-1.82.66-.08.02-.15.05-.23.08-1.33.29-2.66.62-3.97,1-1.37.38-2.73.82-4.06,1.33-.39.15-.78.3-1.16.47-1.23.5-2.43,1.07-3.6,1.72,1.04-.39,2.1-.74,3.17-1.04.17-.05.33-.1.5-.14,1.65-.46,3.33-.83,5.02-1.16,1.41-.28,2.84-.53,4.26-.77.13-.03.27-.05.4-.07h0c.24-.04.47-.09.71-.13.49-.08.97-.16,1.46-.25-.53.19-1.06.38-1.6.56-.33.11-.66.22-.99.33-.08.03-.16.05-.24.08.08-.01.15-.01.23-.02.28-.02.56-.04.85-.06.53-.04,1.07-.09,1.62-.16.42-.04.85-.1,1.28-.17.02,0,.05,0,.07-.01.03,0,.07,0,.1-.01.05-.01.11-.02.16-.03.23-.03.47-.07.7-.12.09-.01.18-.03.27-.05.17-.03.34-.07.51-.11.07-.01.14-.03.21-.05.25-.05.49-.12.74-.19.07-.02.14-.04.22-.06.04-.01.09-.02.13-.04.36-.1.72-.23,1.07-.36.05-.02.11-.04.16-.06.12-.05.24-.1.36-.15.39-.16.77-.35,1.14-.55.25.3.64.52,1.06.59.01,0,.03.01.05.01.16.03.32.03.48,0,.07,0,.14-.01.21-.03.17-.05.33-.12.48-.23.04-.05.08-.1.12-.15,0,.34.07.68.24.98,0,0,0,.01.02.01.11-.32.24-.64.39-.95.11-.23.23-.46.36-.68,0-.01.01-.02.02-.03.23-.41.48-.8.74-1.18,0,0,0,0,.01,0,.07.25.15.49.24.73-.16.19-.24.46-.24.76,0,.4.15.85.4,1.2.04.08.1.16.17.23.24-.47.15-1.15.22-1.73.05.33.17.67.34.97.01.01.02.01.03.01.24-.24.43-.52.55-.83.09.03.17.06.25.07,0-.01,0-.02,0-.03h0v-.03h.01v-.03s0,0,.01-.02h0s.01-.07.02-.1c0-.02.01-.04.01-.06h0v-.02h0v-.03h.01s0-.01,0-.02v-.02h.01v-.02s0-.03.01-.04c0-.03.01-.05.02-.08,0-.02,0-.03.01-.05h0c.03-.15.06-.3.1-.44,0-.03.01-.05.02-.08,0-.03,0-.05.02-.07-.01-.01-.01-.02,0-.02h0s.01-.02.01-.02c-.01-.01,0-.02,0-.02,0-.01,0-.02.01-.03-.01-.01-.01-.02,0-.02,0-.03.01-.06.02-.09,0,0,0,0,0,0v-.02h0v-.02h.01v-.03s0-.03.01-.04c0-.03.01-.06.02-.08h0s.01-.02.01-.02h0s.01-.08.02-.11h0c.02-.09.03-.17.05-.24,0-.04.02-.08.03-.12.01-.03.02-.05.02-.08,0-.02.01-.03.01-.04h0v-.02h0s0-.01,0-.01c.01-.05.02-.09.03-.13.01-.04.02-.08.03-.12h0v-.03s0-.01.01-.01v-.02h0s.01-.03.01-.04c.01-.04.02-.07.02-.1.01-.01.01-.02.01-.03s0-.02.01-.02v-.02s0-.05.02-.07c0-.02.01-.04.01-.06.01-.04.02-.08.03-.12,0-.01,0-.02,0-.03h0s.01-.04.01-.05.01-.02.01-.02v-.02s.01-.04.01-.05c.01-.03.02-.06.02-.08,0-.03,0-.05.02-.07,0-.02.01-.03.01-.04h0v-.02h0v-.02s.02-.06.03-.08c0-.05.02-.09.03-.13v-.02h.01v-.02s.01-.06.02-.08h0s0-.02.01-.02v-.02h0s0-.02,0-.02v-.02s.01-.06.02-.08h0c.03-.1.05-.2.07-.29h0c.01-.06.02-.1.03-.14h.01s.01-.07.02-.1c0,0,0-.01.01-.01h0v-.03h0s.01-.01.01-.01h0v-.03s0-.01,0-.01h0c.01-.07.03-.13.04-.18h0s.01-.01.01-.01h0v-.02c.03-.12.06-.25.09-.37h0s.01-.02.01-.03c.04-.14.07-.28.11-.42.02-.08.04-.16.06-.24v-.02c.03-.09.06-.2.08-.29.02-.07.04-.15.06-.22l.18-.69c.11-.4.21-.79.32-1.18.07-.26.14-.52.21-.78.02-.18.04-.36.06-.53.01-.09.01-.18.01-.27v-.02c.02-.09.03-.19.05-.28.05-.44.11-.88.18-1.32.08-.47.16-.92.27-1.38,0-.04,0-.08,0-.12.07-.53.15-1.05.22-1.57.08-.6.16-1.2.24-1.8.12-.85.24-1.7.38-2.54.02-.13.04-.26.06-.4s.05-.3.09-.45h0c-.05-.2-.08-.39-.11-.58,0-.05,0-.1,0-.15-.03-.33-.02-.66.02-.98.29-.2.51-.46.63-.83.08-.27.06-.52.01-.77,2-.65,3.76-2.03,5.02-3.77.33-.44.62-.91.88-1.39-2.16,1.32-4.83,2.05-7.15,2.64ZM132.89,129.36c-.16.14-.32.29-.46.44-.52-.01-1.03-.03-1.54-.05.67-.17,1.34-.36,2-.59.03-.01.05-.02.08-.03.07-.01.14-.02.21-.03-.1.09-.19.17-.29.26Z"/>
    <path class="cls-3" d="M141.08,114.35c-3.39.25-6.72.81-10.09,1.2-5.07.27-10.17-.25-15.23-.28-9.51,1.18-19.17.67-28.66,1.99.43.06.98-.04,1.46-.02,9.49.26,19.01-.09,28.45-1.04,4.82.14,9.65.4,14.47.03,3.55-.54,7.11-1.15,10.63-1.85.04,0,.16-.02.21-.02-.35-.1-.83-.02-1.24,0Z"/>
    <path class="cls-2" d="M79.74,54.89c-1.68-9.26,10.75-33.36,20.83-32.68-5.35,1.6-6.59,9.45-9.5,13.82-3.36,6.51-7.35,12.78-11.33,18.87Z"/>
    <path class="cls-2" d="M79.27,65.65c-4.42-4.84-5.63-22.92,3.68-21.82-3.4,1.54-1.18,6.85-1.52,9.89.32,4.17-1.48,8.3-1.54,12.32-.01,0-.53-.27-.62-.39Z"/>
    <path class="cls-2" d="M79.73,67.04c-3.11-4.68-3.92-12.46.68-16.2,1.75,5.29,3.1,11.36-.68,16.2Z"/>
    <path class="cls-3" d="M144.35,106.39c-.45.47-.79,1.07-1.17,1.61-1.24-.46-1.82,1.04-1.71,2.04-1.05,2.43-3.76,2.92-6.14,3.45-.63.13-2.91.21-1.6,1.18.16.03.32.04.48.04.91,0,1.84-.43,2.74-.54-.12.03-.23.07-.34.1,0,0,0,.02.01.02.93,0,1.75-.15,2.53-.43.03.05.07.09.12.13.19.18.49.3.78.3.15,0,.29-.03.42-.11.9-.59,1.78-1.24,2.57-1.98.22.15.53.2.78.12.09-.92.18-1.83.26-2.74.03-.33.06-.65.09-.97,0-.07.02-.14.02-.21.05-.58.11-1.16.16-1.73h0c0-.08.02-.16.02-.23v-.06s-.01.01-.02.01Z"/>
    <path class="cls-2" d="M75.82,106.73c-7.64-7.93,2.72-16.32,3.92-24.68,3.93-11.25,13.72-38.74,28.28-22.52,10.94,16.67-10.53,63.2-32.21,47.19Z"/>
    <path class="cls-2" d="M73.4,80.35c-19.44-5.97-33.54-28.97-30.16-49.03,2.57-6.9,12.69-4.38,15.3,1.26,5.16,9.21,12.33,18.48,12.09,29.51,1.91,4.46,13.67,18.19,2.77,18.26ZM70.52,70.88c-.09-.5-.17-1-.26-1.5,0,0,0,.01,0,.02,0,0,0-.02,0-.02-.01-.08-.03-.15-.04-.23,0,.05.01.1.02.15-.02-.11-.04-.21-.06-.32-.06.45-.12.89-.19,1.33.17.19.34.38.52.57ZM63.99,62.03c-.4-.95-.82-1.89-1.27-2.82-.62-1.12-1.28-2.2-1.98-3.26.51,1.05,1.03,2.1,1.58,3.14.54.99,1.1,1.98,1.67,2.95Z"/>
    <path class="cls-2" d="M43.35,94.19c-11.99-1.75-35.74-15.25-28.3-29.69,6-6.17,14.1-.48,18.67,4.45,6.19,4.7,13.12,9.58,16.27,16.94,3.08,1.52,6.41,1.55,9.73,1.84,1.8.3,4.36,1.94,3.16,4.09-5.26,3.94-13.26,3.24-19.53,2.37Z"/>
    <path class="cls-2" d="M80.64,58.08c-5.61-1.57-3.24-7.29-.92-10.75-4.25-18.33,6.65-36.34,21.53-46.38,2.97-1.46,6.49-1.18,9.34.46,9.26,5.53-.16,16.51-3.35,23.17-4.09,5.53-20.16,37.44-26.61,33.5Z"/>
    <path class="cls-1" d="M69.05,99.3c-17.53-2.83-15.76-24.79-12.04-37.82,1.24-5.68,6.18-9.89,6.56-15.65,1.42-7.35,2.19-16.58,9.21-20.91,4.23-2.4,10.52-.19,12.55,4.13,1.04,2.2.24,4.5-.31,6.73-.43,2.08-.49,4.18-.64,6.29.03,10.31,1.19,20.57,1.28,30.88.03,12.14.5,29.18-16.61,26.34Z"/>
    <g>
      <path class="cls-6" d="M75.59,72.54c.27-3.68.19-7.37.02-11.05.07-4.71-1.54-9.93.18-14.36-2.98,3.49-2.69,8.74-3.8,13.03-.44,2.14-.82,4.3-1.13,6.47-1.48-2.14-3.41-4-5.44-5.49,1.05,3.16,3.13,5.7,5.07,8.34-.31,2.66-.5,5.32-.55,7.99-.63-.25-1.28-.43-1.91-.51-1.96-.64-1.65,1.39-1.05,2.54.68,1.37,1.75,2.31,3.03,2.9.17,3.42.6,6.84,1.35,10.21,1.78-6.51,3.74-13.23,4.22-20.06Z"/>
      <path class="cls-6" d="M91.89,79c-.63-.67-1.57-1.19-2.52-1.23-.13-.93-.37-1.85-.76-2.78-2.11,2.76-2.62,6.66-1.73,10.1-2.67,3.83-4.11,7.38-2.3,9.04,2.54.46,4.55-.36,6.22-1.95,0,.14.03.29.07.44.8,2.9,7.23,2.84,6.75-.74-.11-.63-1.67-2.28-3.57-2.17-.45,0-.95.08-1.42.24,3.63-5.41,5.39-14.5,8.14-18.66-1.7.79-5.39,3.93-8.89,7.69Z"/>
      <path class="cls-6" d="M75.5,75.53c1.44-.2,2.87-.73,4.11-1.52,1.46-.91,2.54-2.73,2.59-4.48-3.27,0-7.18,2.3-6.69,6Z"/>
      <path class="cls-6" d="M88.03,39.46c2.08-2.73,4.31-5.45,6.37-8.28,1.95.19,4.02-.1,4.9-2.02-.75-.6-1.72-.98-2.72-1.14.07-.11.15-.22.22-.33,2.69-3.93,4.33-8.44,5.22-13.1-2.31,1.52-4.36,3.62-6.21,5.71-3.37,3.94-6.57,8.28-8.26,13.23-.81,2.55-1.33,5.17-1.81,7.79-.14.79-.53,1.49-1.05,2.09,1.54-.79,2.35-2.57,3.35-3.96Z"/>
      <path class="cls-6" d="M51.18,39.94c-.33-.27-1.15-.58-1.2,0,.21.55.54,2.23.61.75,1.21,2.46,2.08,5.08,3.41,7.48.94,1.88,2.07,3.69,3.24,5.43.67-5.17-2.05-10.42-6.05-13.66Z"/>
      <path class="cls-6" d="M31.5,78.15c-1.1-.72-4.73-.65-3.26,1.43.7-2.03,2.37,1.41,3.03,2.15,1.55,2.07,3.91,3.83,6.43,4.44-.19-3.61-2.96-6.65-6.2-8.02Z"/>
    </g>
    <path class="cls-1" d="M56.4,109.63c-8.04-3.7-17.63-9.21-17.5-19.27-.05-.09-.08-.19-.1-.31-.04-.24.12-.38.32-.46,1.31-2.7,5.27-2.64,7.62-1.36,2.92,1.81,4.12,5.21,5.59,8.16,4.87,3,13.47,3.88,16.32,9.02,1.72,3.57-2.03,6.58-5.41,6.42-2.38,0-4.74-1.17-6.84-2.2Z"/>
  </g>
</svg>