<?xml version="1.0" encoding="UTF-8"?>
<svg id="Layer_2" data-name="Layer 2" xmlns="http://www.w3.org/2000/svg" viewBox="0 0 680.37 586.77">
  <defs>
    <style>
      .cls-1 {
        fill: #ddf6ed;
      }

      .cls-2 {
        fill: #6a7d75;
      }

      .cls-3 {
        fill: #fff;
      }

      .cls-4 {
        fill: #a8cbbf;
      }

      .cls-5 {
        fill: #c6e0d7;
      }
    </style>
  </defs>
  <g id="Window">
    <path class="cls-3" d="M646.37,525.1c-2.95-8-1.46-16.53-2.21-24.84-1.06-8.32-1.3-16.69-.2-25.02.93-12.64.85-25.36.71-38.02.03-1.02.06-2.04.09-3.06-.3.09-.62.14-.93.17.09-.56.19-1.13.24-1.7.2-1.74.14-3.52.13-5.26.12-2.63.52-5.23.66-7.86.14-6.14.21-12.27.46-18.4-.05-15.42-.79-30.84-.06-46.25-.24-10.21-1.21-20.38-2.25-30.54.49-4.49.46-9.02-.68-13.02.06-.13.11-.27.18-.4.44-.84.91-1.54,1.55-2.19-.73-6.03-1.14-12.11-1.23-18.21-.5-14.48-1.99-28.88-1.71-43.38.28-.31.55-.65.78-1.05,1.16-2.4.68-4.66-.67-6.46.22-16.06,1.64-32.15.44-48.16-.4-6.54-2.66-12.75-3.46-19.19-.34-9-.36-18-.68-27.01-.07-2.52-.19-5.03-.34-7.54,2.07-2.99,3.7-6.12,4.96-9.37,0-.05-.01-.09-.02-.14-.28-1.75-.6-3.49-.61-5.27-.02-1.83.08-3.66.19-5.48.11-1.74.16-3.48.35-5.21.18-1.64.5-3.27.64-4.91.09-4.14.07-8.3.12-12.45.02-2.2.06-4.39.15-6.59.09-2.26.38-4.52.6-6.77,0,.07-.02.13-.02.2.16-1.68.34-3.34.55-5.01-.16-1.7-.31-3.39-.45-5.05-.07-2.97-.15-5.94-.24-8.9.06,0,.12.02.18.02.54,0,1.07-.15,1.5-.48-.03-1.17-.09-2.34-.2-3.5-.17-1.38-.38-2.75-.53-4.13-.16-1.58-.27-3.14-.27-4.73,0-3.06,0-6.12,0-9.18,0-2.66,0-5.32-.07-7.98,0,0,0-.02.01-.03,0-.37-.02-.73-.03-1.1-.09-2.99-.45-5.96-.5-8.95-.05-2.83-.02-5.66.11-8.48-.03-.05-.06-.1-.09-.15-.17.02-.35.02-.53.02-.37,0-.74-.04-1.11-.1-.27-.04-.54-.09-.82-.14-.79-.09-1.57-.14-2.36-.15-.23,0-.46,0-.69,0-.95,0-1.9,0-2.86-.07-.71-.05-1.43-.15-2.13-.27-.61-.1-1.2-.31-1.79-.5-.16-.04-.32-.07-.48-.1-.43-.05-.87-.09-1.3-.12-.04,0-.08-.01-.12-.02-.06,0-.13,0-.19-.01-.21,0-.41.01-.62.02-2.62.11-5.2.6-7.83.52-1.61-.05-3.23-.23-4.79-.67-.63-.18-1.22-.38-1.82-.62,0,0,0,0,0,.01-7.2-1.39-14.56-1.15-21.85-.62-14.14-.82-28.18-3.16-42.24-4.87-16.85-2.2-33.92-1.55-50.82-3.1-16.08-1.27-32.17-3.59-48.32-3.2-27.94.05-55.63,3.92-83.57,3.51-9.43.29-18.84-.23-28.25-.56-20.86.34-41.67,2.25-62.55,1.47-22.13-.31-44.26.77-66.38,1.86-25.88,1.27-51.76,2.53-77.62,1.57-12.98-.55-26-1.55-38.99-.83-10.65,1-21.3,1.66-32.02,1.48-1.6,0-3.21-.02-4.84-.03-10.89-.1-22.25-.2-32.01,4.96-.24.15-.48.37-.65.62-.15-.14-.28-.29-.44-.42-.6,1.75-1.35,3.46-2.03,5.18-.28.4-.45.91-.55,1.47-.17.47-.34.95-.49,1.43-.05.13-.1.26-.15.39-.19-.43-.42-.75-.71-.83.02,1.02,0,2.04-.07,3.06-.62,2.03-1,4.08-.74,6.11-.81,4.92-1.98,9.86-2.23,14.8-1.23,16.34-.16,32.72.68,49.04.23,36.25,3.45,72.21,2.99,108.49.04,6.17,1.25,12.24,1.53,18.39-.26,4.54-1.43,8.97-1.71,13.52-.84,10.93-.44,21.92-1.06,32.85-.79,9.66-2.92,19.23-2.56,28.96,1.03,7.3,3.08,14.45,5.2,21.55.08,7.26.24,14.52.33,21.78.13,10.7.19,21.41.59,32.11.39,10.5.31,21,.2,31.5-.11,10.39-.07,20.77.11,31.16.17,9.57.53,19.15.4,28.73-.14,5.73-.36,11.47-.72,17.2-.29,4.64-.6,9.29-.73,13.94-.12,4.36.08,8.7.2,13.05.06,2.07.04,4.16.21,6.23.1,1.29.17,2.66.41,3.95,0,.87.03,1.73.07,2.6.03.73.01,1.49.11,2.22.15,1.07.27,2.13.74,3.12.14.29.29.57.45.85.52,1.39,1.66,2.64,2.75,3.47.29.22.59.42.91.6-.03.14-.03.3.01.46.18.69.89,1.12,1.55,1.25,1.24.28,2.47.58,3.71.82.54.65.97,1.18,1.1,1.43.14-.41.21-.81.23-1.21.45.06.91.12,1.36.15,3,.3,5.94-.05,8.87-.63,26.3,3.7,52.86,1.3,79.72,2.5,20.75.56,41.43.66,62.15-.66,42.13.75,84.25,0,126.33,1.83,8.79.59,17.39-1.62,26.16-1.67,9.08.05,18.13,2.14,27.21.92,6.78-1.29,13.54-2.74,20.33-3.95,4.65.58,9.31,1.02,14,1.13,7.63,1.13,15.17,2.87,22.93,2.63,11.7.31,23-2.41,34.62-3.69,8.54,1.35,16.97,3.65,25.63,4.01,23.16,1.14,45.97-5.19,69.09-3.89,11.38.31,22.67,1.62,34.06,1.79,12.77,1.49,26.4,2.3,38.55-2.64.11-.04.23-.08.34-.12.75.11,1.5.2,2.23.26,0,0-.07,0-.07,0,1.29.11,3.16.22,4.9,0,.02,0,.05,0,.07.01,2.29,0,4.13-.29,5.58-.78.77.19,1.57.29,2.35.29,3.35,0,6.36-1.8,5.67-5.78ZM124.42,519.48c-14.24-.08-28.13,3.35-42.21,4.88-3.16.22-6.32.44-9.48.68-.7.02-1.4.05-2.11.05-9.51.94-19.2,1.46-28.69.13-.41-.13-.77-.21-1.13-.29.06-1.64.09-3.28.11-4.93.24-1.39.33-2.81.4-4.2.14-2.57.09-5.16.14-7.74.08-3.3.2-6.61.1-9.91-.14-4.75-.5-9.5-.86-14.24-.36-4.79-.61-9.59-.82-14.39-.44-9.79-.26-19.58-.14-29.38.13-10.41.11-20.81-.11-31.21-.23-10.41-.52-20.82-.34-31.23v-.1c0-.08,0-.15,0-.23.17-7.47.27-15.12.29-22.78.02-7.56.02-15.13.05-22.69.04-10.66.05-21.32-.25-31.98-.3-10.74-.68-21.47-.51-32.22,0-.17.01-.53.02-.9.11-5.43.29-10.86.22-16.29,0-.24-.01-.49-.02-.73,3.58-.47,7.14-1.22,10.77-1.37,11.31-.71,22.63.15,33.95.1,15.7-.25,31.4-1.14,47.1-.27,12.39.39,24.78.07,37.18.03,5.13-.08,10.23-.62,15.3-1.38,10-1.31,20.1-1.67,30.17-1.81,39.21.88,78.24-4.03,117.46-2.53.34,0,.69.03,1.03.04,0,.43,0,.86,0,1.3-.02,5.31.02,10.62.03,15.94.02,10.54.26,21.09.59,31.62.34,10.8.69,21.59,1.2,32.38.25,5.32.77,10.62,1.54,15.88.76,5.16,1.85,10.25,2.79,15.37.79,5.07,1.67,10.13,2.2,15.23.51,4.88.62,9.75.64,14.64-.18,10.92-.61,21.84-.92,32.76-.3,10.78-.09,21.59.16,32.37.23,9.82,1.02,19.52,2.67,29.2.54,3.17,1.11,6.99,1.82,10.79.63,3.89,1.12,7.8,1.84,11.67.44,2.77.84,5.54,1.28,8.31.23,1.42.46,2.85.67,4.27.13.86.2,1.76.36,2.62,0,.07.02.13.03.2-12.39.06-24.77.35-37.16,1.18-17-.27-33.99.18-50.97.73-14.63-.48-29.25-1.15-43.9-.86-10.7.23-21.39.66-32.09.89-3.53.24-7.05.57-10.57.91-16.6-.09-33.19.03-49.83-.52ZM627.41,172.67c3,19.04,1.04,38.12,1.07,57.3-.11,1.79-.18,3.58-.24,5.37-2.32-.33-4.68-.41-6.92.37-1.6.71-3.38.82-5.11.92-12.04-.47-24.09-.19-36.09.97-17.85.96-35.75.35-53.62.64-19.71.11-39.42,1.21-59.13.36-31.73-2.29-63.54-1.2-95.32-1.8-5.25-.25-10.51-.54-15.76-.82-.41-5.35-.7-10.7-.71-16.08.12-7.21.29-14.42.32-21.63.04-10.44-1.01-20.91-2.04-31.29-1.06-10.61-2.35-21.19-3.39-31.8-1.05-10.72-1.64-21.47-2.96-32.16-1.32-10.72-3.08-21.38-4.55-32.08-1.48-10.8-2.89-21.6-3.98-32.44-.44-4.38-1.12-8.73-1.88-13.07,4.11-.66,8.2-1.46,12.3-2.27,10.94.51,21.88.9,32.85.81,5.93,1.02,12.02,1.01,18.13.69,10.04.38,20.09.59,30.15.35,18.49-.41,36.98.29,55.46.44,28.68-3.72,57.33-1.26,86.25-.95,11.16-.22,22.38-.93,33.53-.1,1.43.3,2.93.64,4.47.95,3.59,3.26,10.88,3.03,15.24,4.21,2.17.13,3.94-.12,5.33-.63.08.77.06,1.57.08,2.31-.48,8.7-1.06,17.39-1.29,26.11-.19,4.6-.64,9.23.09,13.81.29,2.08.75,4.12,1.27,6.14-.04,1.56-.08,3.11-.12,4.67-.02.2-.05.4-.07.6-2.4,13.5-3.95,23.87-2.35,34.67-.84,18.46-1.05,36.97-1.01,55.44ZM38.5,235.68c-.61-10.31-1.26-20.61-2.03-30.91-.39-5.23-.84-10.46-1.21-15.69-.35-4.95-.55-9.91-.78-14.87-.47-10.41-.52-20.84-.72-31.26-.2-10.65-.34-21.3-.36-31.95-.02-10.41.1-20.81.16-31.21.06-10.32-.15-20.63-.45-30.94-.16-5.29-.37-10.58-.61-15.87,0,0,0,0,0,0,5.7-7.11,12.45-7.1,21.76-7.07,1.79,0,3.68,0,5.68-.04,11.96-1.61,24.03-1.54,36.07-2.08,16.8.61,33.52-.87,50.29-1.44,3.38-.28,7.09.16,10.83.6,3.44.4,6.9.81,10.16.65,11.52-.14,23.04-.64,34.55-.14,24.7-.4,49.42-.52,74.14-.74,13.34,2.42,26.77,4.28,40.34,4.06,5.13.31,10.19.03,15.2-.57-.34,4.59-.54,9.17-.58,13.79h0c0,.15,0,.3,0,.44-.08,5.1-.18,10.49-.37,15.87-.2,5.5-.5,11-.72,16.5-.2,5.04-.68,10.05-.9,15.09-.24,5.52-.51,11.03-.63,16.55-.24,10.57.16,21.13.1,31.7-.1,8.96-.36,17.92-.41,26.88,0,.35,0,.98-.01,1.6-.08,10.36-.18,21.12.86,31.74,1.02,10.41,2.48,20.79,2.99,31.25.12,2.46.18,4.93.2,7.39-5.94-.12-11.88-.12-17.83.12-25.71.29-51.38,2.35-77.09,2.62-13.74.03-29.16-.13-43.28.58-6.43.29-12.8,1-19.19,1.75-6.05.68-12.17.59-18.25.83-23.44.98-46.92.11-70.36,1.45-9.2.15-18.42,0-27.59.75-6.49.61-13.1,1.22-19.46,2.71-.12-3.38-.3-6.76-.49-10.14ZM628.57,516.52c-5.92-.93-11.9-1.12-17.87-.86-8.93,0-17.81-1.51-26.74-.72-18.22,1.31-36.44,1.32-54.69,1.78-22.48,1.78-45.06,2.73-67.61,2.83-18.5.33-36.84-2.76-55.33-2.06-13.52.04-27.04-.19-40.56-.3.02-.56.04-1.13.08-1.68.12-1.86.26-3.72.36-5.59.23-4.2.64-8.38.84-12.58.22-4.57.71-9.12,1.01-13.69.15-2.29.36-4.57.48-6.86.13-2.49.16-4.99.18-7.49.05-11.21-.91-22.39-1.88-33.55-.89-10.25-2.12-20.45-3.35-30.66-1.27-10.5-2.86-21.01-2.97-31.61.07-4.37.36-8.74.64-13.11.28-4.43.84-8.82,1.26-13.24,1.04-10.88.35-21.87-.25-32.75-.58-10.5-1.18-20.99-1.93-31.48-.77-10.75-1.65-21.48-2.64-32.21-.2-2.22-.41-4.44-.62-6.67,4.21.29,8.42.57,12.64.78,25.49.93,51.01-.19,76.48,1.41,55.88,5.02,112.09,1.91,168.07,4.19,3.06.15,6.17.3,9.22-.09,1.59-.07,3.18-.49,4.77-.77.29,17.38,1.62,34.76.19,52.18-2.04,25.59.67,51.39-3,76.85-1.25,23.12,1.57,46.29,1.9,69.43.53,18.78-1.64,37.8,1.62,56.52.25,4.12.52,8.04,1.24,11.96-.51-.01-1.02-.01-1.55.02ZM641.74,37.86c-.02.19-.05.38-.07.58-.05-.39-.1-.78-.16-1.17.04-.06.09-.12.13-.18.03.26.07.51.1.78Z"/>
    <path class="cls-1" d="M671.85,570.18c-1.61-.02-3.23-.09-4.84-.12-11.77-.25-23.55-.32-35.32-.41-13.44-.11-26.88-.16-40.31-.21-13.67-.06-27.33-.23-41-.18-27.77.09-55.53-.82-83.3-1.17-13.92-.18-27.84-.21-41.77-.17-13.78.04-27.56.09-41.34-.07-14.24-.17-28.48-.39-42.71-.57-13.8-.18-27.59-.23-41.39-.23-13.96,0-27.91-.04-41.87-.11-13.82-.08-27.63-.24-41.45-.29-13.91-.05-27.82-.04-41.72-.12-13.53-.08-27.06-.31-40.59-.39-6.87-.04-13.75,0-20.45.07-6.12.07-12.23.14-18.34.12-5.95-.02-11.91-.04-17.87-.04-5.89,0-11.79.06-17.69.02-6.08-.05-12.17-.27-18.25-.24-5.66.09-11.31.33-16.96.35-5.4.02-10.8,0-16.2-.02-1.6,0-3.16-.04-4.66-.7-1.23-.54-2.41-1.42-3.13-2.57-.68-1.1-.84-2.3-.51-3.54.27-1,1.06-1.86,1.74-2.61.54-.59,1.12-1.16,1.67-1.74,4.1-4.25,8.11-8.57,12.39-12.64.98-.93,1.97-1.84,2.95-2.77,1.22-1.17,2.4-2.37,3.5-3.65,1.76-2.06,5.16-1.78,7.3-.54.99.57,1.88,1.41,2.36,2.47,1.73,0,3.46,0,5.19,0,6.3,0,12.59.01,18.89.02,12.3.02,24.61-.02,36.91-.05,12.62-.04,25.25-.18,37.87-.22,13.34-.05,26.68-.03,40.02-.06,26.99-.07,53.98-.02,80.97.02,13.29.02,26.59.09,39.88.22,13.52.13,27.04.3,40.55.32,13.37.02,26.74-.09,40.12-.17,13-.07,26-.02,39-.11,11.83-.08,23.66-.16,35.5-.17,2.91,0,5.83,0,8.74,0,8.74,0,17.48,0,25.72-.08,10.86-.12,21.71-.39,32.39-.5.77,0,1.53-.02,2.1-.02,15.46-.16,30.92-.08,46.38,0,9.46.05,18.91.09,28.38.09,11.51,0,23.02-.02,34.53.06,3.9.03,7.8.03,11.7.04,1.07,0,2.13,0,3.2,0,.61,0,1.21,0,1.81,0,1.12,0,2.32-.1,3.41.12.8.16,1.57.34,2.32.67.62.27,1.18.64,1.72,1.03.82.6,1.52,1.4,2.21,2.14,1.21,1.3,2.41,2.62,3.61,3.93,2.74,3,5.5,5.99,8.27,8.98,2.02,2.09,4.27,3.95,6.43,5.9,1.62,1.47,3.21,2.96,4.81,4.45.62.58,1.11,1.19,1.39,2.01.23.7.08,1.28-.2,1.93-.34.78-1.34,1.2-2.09,1.39-.51.13-1.04.15-1.57.15-.13,0-.26,0-.39,0ZM531.78,563.02c14.04.12,28.09.43,42.13.56,26.36.24,52.72.7,79.08.79,3.89.01,7.78.03,11.66.01-.19-.16-.38-.32-.57-.48-2.52-2.12-5.04-4.25-7.25-6.7-3.9-4.32-7.79-8.64-11.41-12.5-.27-.29-.54-.57-.83-.84-1.29-.05-2.59,0-3.88,0-1.08,0-2.16,0-3.24,0-3.97,0-7.93-.01-11.9,0-11.52.05-23.04,0-34.56-.05-9.32-.04-18.64-.02-27.96,0-15.57.03-31.13.06-46.7-.15-13.29-.18-26.57-.59-39.87-.69-13.21-.11-26.42-.1-39.63-.2-13.22-.1-26.45-.27-39.67-.34-13.42-.07-26.84-.14-40.26-.25-17.27-.14-34.53-.23-51.74-.06-.36,0-.73,0-1.04,0-26.52.27-53.04.19-79.56.14-27.23-.05-54.46-.22-81.68-.32-12.56-.04-25.12-.16-37.69-.29-12.48-.12-24.97-.18-37.45-.24-8.55-.04-17.11-.05-25.66-.07-3.38,0-6.76-.02-10.13-.04-.1.15-.21.29-.34.43-.27.27-.56.53-.85.79-.72.71-1.4,1.46-2.07,2.21-1.92,2.14-3.74,4.36-5.67,6.49-1.89,2.08-3.84,4.11-5.79,6.13,1.21.02,2.42.03,3.63.05,5.68.09,11.35.32,17.03.57,4.52.2,9.05.18,13.57.16,2.04,0,4.07-.02,6.1,0,6.36.04,12.72.2,19.08.32,6.48.12,12.97.18,19.46.28,6.73.1,13.46.32,20.2.48,13.75.34,27.5.4,41.26.48,27.21.16,54.41.68,81.62.91,14.2.12,28.4.25,42.61.48,13.74.21,27.48.47,41.22.6,28.17.25,56.34.06,84.52.51,13.7.22,27.39.6,41.09.74,14.22.14,28.44.13,42.66.1,9.33-.02,18.66-.08,27.99-.08,4.17,0,8.34.01,12.51.05Z"/>
    <path class="cls-1" d="M653,564.37c-26.36-.09-52.72-.55-79.08-.79-10.35-.09-20.7-.29-31.04-.43,16.72-.19,33.46-.08,50.18-.5.07-.06.14-.11.22-.16-13.89-.54-27.81,0-41.71-.07-10.75.78-21.51.61-32.28.56-81.2.18-162.39-1.14-243.58-1.96,4.25-1.13,8.79-.68,13.15-1.14,10.71-.58,21.41-1.11,32.12-1.54,23.43-.81,46.89-1.64,70.26-3.66-.16-.88-.03-1.78.41-2.56.09-.17.2-.33.31-.47-.54-1.19-.66-2.52-.22-3.69-58.5,1.27-117,3.57-175.51,3.65.24,0,.48,0,.72-.01-1.49.02-2.98.04-4.47.05.37,0,.73,0,1.1-.01-11.91.34-23.85-.98-35.74-.02-6.55,1.02-13.26,2.78-19.88,1.29-6.42,2.22-12.84,4.43-19.24,6.69-6.91-.06-13.83-.15-20.74-.31-.03-.05-.06-.09-.09-.14-.23-.39-.43-.8-.57-1.23-.98.43-1.95.85-2.93,1.28-6.09-.16-12.18-.34-18.27-.44-6.49-.1-12.97-.16-19.46-.28-12.91-.43-25.84-.13-38.75-.47-6.88-.31-13.76-.56-20.65-.63,5.17-5.11,9.65-10.87,14.72-16.05,43.27.03,86.53.55,129.8.71,0,.54-.1,1.04-.27,1.53,3.07-.05,6.04-.9,9.04-1.49,18.01.08,36.03.17,54.05.2,26.52.05,53.04.13,79.56-.14,113.47-.3,226.98,2.29,340.46,1.72,6.41,6.49,12.58,14.68,20.05,20.52-3.89.02-7.78,0-11.66-.01Z"/>
    <path class="cls-1" d="M410.92,555.94c-2.39-.53-4.88-1.79-5.92-4.16-.29-.67-.47-1.36-.45-2.06-2.32.03-4.65.24-6.97.05-2.28-.2-5.19-2.12-4-4.73.75-1.74,2.68-2.35,4.44-2.59,22.05.16,44.1.43,66.15.46-1.5.88-3.25,1.18-4.92,1.59-.27.07-.54.13-.8.2.03.96-.81,1.81-1.67,2.1-1.81.74-3.86.57-5.42,1.81-3.27,1.88-6.91,3.03-10.5,4.13-9.61,2.83-19.94,4.33-29.94,3.21Z"/>
    <path class="cls-1" d="M410.61,562.27c1.54-3.71,3.13-7.37,5-10.92.79-3.03,1.82-6.03,3.44-8.73,5.94.06,11.87.12,17.81.16,1.39.01,2.79.02,4.18.03.11,1-.5,1.97-.57,2.95.41,5.75-.71,11.53-2.25,17.05-9.21-.16-18.41-.38-27.62-.54Z"/>
    <path class="cls-1" d="M323.02,561.7c-13.74-.12-27.48-.38-41.22-.6-14.2-.22-28.4-.35-42.61-.48-27.21-.23-54.41-.75-81.62-.91-13.76-.08-27.51-.14-41.26-.48-3.11-.08-6.22-.16-9.33-.25.16-.6.39-1.2.71-1.77,2.05-3.72,6.26-4.94,10.23-5.08-.42,0-.83.01-1.25.02,8.57-.5,17.18-.71,25.76-1.05,10.86-.43,21.71-.76,32.57-1.21,4.57-.19,9.15-.39,13.72-.57,2.25-.09,4.5-.12,6.75-.25,2.3-.12,4.6-.28,6.91-.33-.09,0-.19,0-.28,0,.14,0,.28,0,.42,0-.15,0-.29,0-.44,0-.04,0-.09,0-.13,0,.88-.02,1.76-.05,2.64-.06-.28,0-.56,0-.84.01,4.87-.1,9.73-.32,14.59-.49,2.63-.09,5.27-.06,7.9-.03,1.66.02,3.33.05,4.99.04,5.29-.16,10.59-.45,15.88-.76,4.06-.24,8.18-.39,12.25-.79.23-.03.46-.07.69-.1,1.19-.17,2.33-.34,3.47-.35,2.74-.09,5.61,1.05,7.06,3.45,0,0,0,.01.01.02.44.73.68,1.53.73,2.3,9.67-1.24,19.34-2.48,29.01-3.78.34-.05.68-.1,1.01-.14,8.69-1.24,17.38-2.46,26.08-3.67.49-.08.99-.17,1.48-.2,2.09-.15,4.53.88,5.41,2.89.58,1.31.14,2.64-.84,3.46,6.15-.69,12.3-1.37,18.44-2.05,9.56-1.05,19.12-2.12,28.68-3.17,4.58-.5,9.16-1.01,13.74-1.52,2.39-.27,4.77-.53,7.16-.8,1.26-.14,2.53-.29,3.79-.43.25-.03.51-.06.76-.09,1.11,0,2.23.02,3.34.03.28.07.56.17.83.3,1.09.52,2.13,1.33,2.45,2.56.19.73.04,1.44-.35,2,1.12-.06,2.24-.12,3.36-.17,7.01-.35,14.02-.66,21.04-.88,3.7-.12,7.4-.21,11.11-.32,1.77-.05,3.54-.09,5.32-.14.82-.02,1.64-.04,2.47-.06,1.12-.03,2.31-.14,3.41.07,1.19.23,2.4.9,2.91,2.05.44.99.1,2.26-.94,2.74-1.12.52-2.41.58-3.64.74-1.41.18-2.82.36-4.23.54-1.13.14-2.25.29-3.38.43-.53.6-1.3,1.02-2.12,1.21-1.16.27-2.37.38-3.55.54-1.48.2-2.97.41-4.46.61-2.42.34-4.84.67-7.25,1.01-5.39.75-10.77,1.48-16.15,2.23-9.5,1.32-19,2.67-28.5,3.99-21.57-.16-43.14-.09-64.7-.29Z"/>
    <path class="cls-1" d="M201.81,548.77c-.17,0-.35,0-.52,0,.17,0,.35,0,.52,0Z"/>
    <path class="cls-1" d="M202.06,548.77s.01,0,.02,0c-.09,0-.18,0-.27,0,.08,0,.17,0,.25,0Z"/>
    <path class="cls-1" d="M203.74,548.73c-.23,0-.46,0-.68.01.23,0,.46,0,.68-.01Z"/>
    <path class="cls-1" d="M187.71,549.25c-1.59-.11-3.19-.32-4.73-.75-.87-.24-1.71-.55-2.57-.81-.35-.07-.7-.13-1.05-.18-3.15-.28-6.3-.38-9.45-.52-1.58-.07-3.16-.18-4.74-.29-.9-.06-1.8-.14-2.7-.23-1.44-.14-2.93-.3-4.25-.91-.22-.09-.43-.2-.63-.32-.88-.51-1.68-1.26-2.09-2.2-.13-.3-.23-.66-.27-1.02,23.12.1,46.25.23,69.37.27,23.01.04,46.02.11,69.02-.05-1.31.06-2.63.11-3.95.16-5.25.2-10.5.2-15.74.43-5.39.24-10.76.58-16.14.98-5.58.42-11.17.73-16.75,1.19-10.61.88-21.18,2.13-31.78,3.1-2.29.21-4.57.43-6.86.66-2.31.23-4.65.55-6.98.6-.99.02-1.97.04-2.96.04-1.59,0-3.17-.04-4.76-.15Z"/>
    <path class="cls-1" d="M545.51,549.04c-9.05-.08-18.09-.5-27.13-.91-4.66-.21-9.29-.66-13.94-1.14-4.24-.43-8.49-.47-12.75-.49-4.65.06-9.3.16-13.95.24-4.74.07-9.49.04-14.23.09-7.54.14-15.13.56-22.64-.35-3.64-.44-7.29-.88-10.92-1.37-3.92-.53-7.84-1.14-11.75-1.76-2.42-.25-4.82-.44-7.26-.58-2.7-.16-5.43-.15-8.14-.21-1.16-.03-2.31-.05-3.47-.08,12.51.08,25.02.24,37.53.33,13.21.1,26.42.09,39.63.2,13.29.1,26.58.51,39.87.69,15.57.21,31.13.18,46.7.15,9.32-.02,18.64-.04,27.96,0,1.71,0,3.42.01,5.13.02-6.3.64-12.59,1.46-18.87,2.18-10.29,1.19-20.57,3.02-30.95,3.02-.28,0-.55,0-.82,0Z"/>
    <path class="cls-1" d="M634.65,545.07c-2.69-.44-5.39-.83-8.09-1.21,2.79-.16,5.58.02,8.09,1.21Z"/>
    <path class="cls-1" d="M658,564.39c-.68-.82-1.33-1.66-1.97-2.52-4.99.87-10.01,1.6-15.01,2.43-34.67-.32-69.34-.74-104.01-1.23-.09-.19-.17-.39-.22-.6-.06-.24-.09-.47-.08-.7-4.85-.04-9.68.11-14.53.17-9.69.05-19.34-.99-29.02-1.29.05,0,.1,0,.16,0-1.76.02-3.51.04-5.27.05.02,0,.05,0,.07,0-1.23,0-2.54.08-3.71.04,3.11-.68,6.23-1.4,9.38-1.82,7.79-1.09,15.68-1,23.51-1.6,16.83-1.66,33.26-2.49,50.14-4.31,4.91-.27,9.66,1.2,14.51,1.75,9.84,1.14,19.79,1.59,29.54,3.35,12.61-1.19,25.03-3.6,37.53-5.6-2.31-2.13-4.8-4.05-6.88-6.45-.59-.68-1.11-1.41-1.57-2.18h.18c1.29,0,2.59-.05,3.88,0,6.41,6.49,12.58,14.67,20.05,20.52-1.3,0-2.59,0-3.89,0-.92,0-1.85,0-2.77,0Z"/>
    <path class="cls-1" d="M20.88,557.44c-1.21-.02-2.42-.04-3.63-.05,4.63-4.19,9.51-8.17,14.06-12.47-.48.1-.97.21-1.45.33-.78.23-1.53.49-2.27.79.37-.42.74-.85,1.12-1.27.42-.46.84-.92,1.27-1.38,1-.07,2.01-.08,3.02-.04.34-.35.68-.69,1.01-1.05-1.13.13-2.26.29-3.39.43.44-.46,1-.84,1.35-1.38,3.38.02,6.75.04,10.13.04.35,0,.7,0,1.05,0-.83,2.97-3.37,5.15-5.4,7.36-3.2,3.21-6.71,6.04-10.24,8.86-2.21-.07-4.42-.13-6.64-.16Z"/>
    <g>
      <path class="cls-5" d="M328.73,242.99c-.2-.08-.39-.16-.57-.26-3.2-1.51-6.76-1.51-10.29-1.4-1.41-.02-2.82,0-4.22.09-.25,0-.49,0-.74-.01-6.02.13-12.03.42-18.04.75-2.16-.33-4.33-.63-6.51-.78-8.19-.47-16.34.61-24.52.69-3.91.1-7.92.02-11.85.34-.04,0-.09,0-.14,0-3.5-.15-21.3.66-33.47,1.75-11.29-1.16-22.73-.57-33.98.96-6.06-.1-12.12-.49-18.18-.17-14.49,1.15-29.23.18-43.62,2.07-3.69.04-7.37.22-11.05.46-2.02-.26-4.06-.46-6.08-.64-10.61-.84-21.29-1.37-31.93-.93-4.62.27-9.25.78-13.84,1.5-4.12.25-8.23.67-12.29,1.26-.74,0-1.48.06-2.22.15,0-.01.01-.03,0-.04-.11.02-.19.05-.27.08-.66.09-1.32.19-1.98.34-1.54-1.65-4.45-2.71-7-.96-.28.24-.48.5-.61.76.18-.03.38-.04.6-.03.49.04.99.23,1.32.61.2.24.38.5.49.78.06.15.1.3.1.47,0,.2,0,.38-.02.56,0,0,0,0,0,0,0,0,0,0,0,0,.05.09.08.19.12.28,0,.02.02.05.03.07,0,0,0,.01,0,.02.1.32.12.67.06,1.02,0,.04,0,.08-.02.12-.06.26-.16.49-.28.7,0,0,0,.02-.01.02-.04.08-.09.16-.14.23-.06.08-.11.17-.17.24-.05.06-.1.12-.16.18-.19.21-.4.42-.63.62,0,0,0,0-.01.01,0,0,0,0,0,0-.16.14-.31.29-.46.44.21-.91.43-1.81.96-2.59.19-.29.35-.66.23-1.01-.44.39-1.06.51-1.62.76-.07-.76-.14-1.53-.22-2.29-.27.99-.5,1.98-.71,2.98-2.53,2.58-2.14,6.95-2.31,10.33.42-.61.8-1.26,1.17-1.92-.51,7.23,0,14.6.51,21.9-.21,4.37-.27,8.74.14,13.11.4,4.05.96,8.07,1.51,12.1.46-3.19.92-6.42,1.39-9.65-.15,2.18-.27,4.36-.36,6.54-.07-.23-.13-.46-.21-.69.42,8.41-1.7,17.11-1.93,25.62-.54,9.82-.59,19.66-.13,29.47-.03.06-.06.11-.08.17-.57,2.14.05,4.4.18,6.57.14,1.99.45,3.96.77,5.93.3,3.25.66,6.49,1.07,9.73.03,8.43.18,16.87-.18,25.3,0,1.17-.1,2.33-.23,3.49-3.6,11.91-1.87,26.32-1.36,38.39.31,4.83.38,9.73.62,14.6-1.25,5.78-1.41,11.81-1.84,17.68-.9,12.37.19,24.95,3.12,37.04-.37.24-.71.55-.99.98,0,1.19.78,1.91,1.81,2.36.04.11.08.21.13.32.1.38.2.76.31,1.13.09-.09.18-.19.27-.28,0,0,0,0,0,0,.24-.24.47-.49.71-.73,0,0,.01,0,.02,0,.64-.65,1.28-1.3,1.9-1.97,0,0,.01-.02.02-.03,0,0,0,0,0,0h0s0,0,0,0c.34-.4.67-.81.99-1.21,0,0,0,0,0,0,.05-.07.11-.13.16-.2,0,0,0,0,0,0,.04-.05.08-.1.12-.15.04-.05.08-.09.11-.14,0,0,0,0,0,0,.07-.08.14-.17.21-.25,0,0,0,0,0-.01.29-.37.58-.73.87-1.11.19-.27.37-.55.55-.82-.34-.14-.68-.26-1.02-.37,2.47-14.86.05-30.13-3-45.03-.09-1.06-.18-2.12-.27-3.18,1.15-7.17,2.46-13.43,3.44-19.54,0,.04.01.08.02.11,0,0,.03.02.03,0,0-.1-.01-.2-.02-.3,1.59-9.98,2.27-19.59-.07-32.16.03-.35.05-.7.07-1.04,1.14-10.3,2.27-20.61,2.16-30.99-.2-16.08-.52-32.18-1.62-48.23-.27-4.04-.58-8.09-1.09-12.11-.18-1.3-.33-2.73-1.02-3.88-.09-.16-.23-.24-.4-.25-.02,0-.01.02,0,.02,1.16,1.01.66,3.45.82,4.95-.07,3.5-.18,7.04-.3,10.58-.04.96-.07,1.91-.11,2.87-.09-3.94-.29-7.84-.64-11.68.47-13.16.7-26.49.3-39.69-.19-3.88-.49-7.78-.84-11.67.53-6.36.52-12.75-1.26-18.85.07-.48.16-.96.24-1.44.75.32,1.71.59,2.81.83.77.07,1.53.1,2.3.1,4.07,0,8.07-.95,12.02-2.16,3.72-.06,7.44-.19,11.15-.3,2.14-.14,4.26-.35,6.37-.59,9.84-.32,19.68-1.26,29.48-2.32,6.13-.06,12.26-.15,18.39.16,5.41-.05,10.83-.05,16.24-.29,14.07.49,28.23-.46,42.29.15,10.27-.15,20.41-1.96,30.6-3.55,1.62.16,3.75.31,6.47.46,7.87.26,15.69-.45,23.47-1.5,4.87.92,9.66-.05,14.66.13,8.97.23,17.93.47,26.85-.7,4.49-.48,9.05-.38,13.59-.4,3.75.39,7.62.54,11.39.57,1.36.04,2.72,0,4.08-.05,4.33-.03,8.66-.43,12.96-1,1.04-.08,2.07-.2,3.11-.32,1.05.05,2.11-.1,3.07-.54-.03-.01-.05-.02-.08-.03.68-.11,1.36-.21,2.03-.32-1.24-.09-2.48-.18-3.72-.29Z"/>
      <path class="cls-5" d="M41.06,520.42c-.09.09-.17.18-.26.28,0,0,0,0,0,0,.09-.09.18-.19.26-.28Z"/>
      <path class="cls-5" d="M25.17,534.55c.37,1.75,3.57,2.2,4.1.62,1.53,1.05,3.41,1.54,5.21,1.26-.06-.07-.13-.14-.2-.21.22.05.44.1.66.15.71.13,1.42.23,2.13.32,2.75.73,5.62.88,8.46.87,3.78.07,7.55.2,11.34.25,14.6-.14,29.14-1.83,43.72-2.41,6.37.07,12.74.36,19.11.21,13.79.13,26.93-.05,40.86-.06,7.39.22,14.75,1.07,22.14,1.45,5.83.4,11.62,1.16,17.46,1.32,4.47.13,8.85-.02,13.28-.02-2.63.42-6.01,1.5-7.55,3.38,0,.02.03,0,.03-.01t0,0c8.9-1.7,11.45-2.86,11.02-3.34.61.01,1.22.03,1.83.05,8.59.48,17.18,1.1,25.8,1.07,5.94.1,12.01-.15,17.86-.7-.54-.04-1.08-.09-1.62-.14,6.41-.4,12.82-.94,19.24-1.22,17.6.05,35.54,1.18,53.14-.6,4.34-.37,8.69-.73,13.03-1.09,3.45.11,6.91.21,10.36.28,10.45-.12,20.48-3.12,30.97-3.4.55-.04,1.09-.06,1.64-.09,1.56.51,3.12,1.03,4.71,1.45,19.38,1.76,38.89,2.22,58.32,3.48,14.77.57,29.44-1.24,44.16-1.83,20.46.89,40.6-.56,61.14-1.48,10.3-.51,20.32,2.16,30.57,2.11,12.12.08,24.73-.15,36.92-.48,5.33.37,11.7-.57,16.03-4.41-6.3-2-13.11-.51-19.64-.32-18.18,1.26-36.3-.95-54.27-2.98-9.32-.17-18.44,2.12-27.74,2.09-14.38.38-28.72-.55-43.08-.86-29.82,2.73-59.59.35-89.46.65-8.55-1.11-17.18-2.26-25.81-1.74-7.11.25-14.12,1.54-21.17,2.34-10.56,1-21.21.73-31.79,1.46-1.42.09-2.86.18-4.29.28-2.58-.2-5.17-.41-7.75-.62-22.01-2.61-43.94.91-65.93,1.46-11.24.3-22.8-1.12-33.84,1.48.65.14,1.31.29,1.96.43-5.69-.2-11.38-.13-17.07-.44-7.26-.38-14.44-1.64-21.7-2.11-12.1-1.12-24.2-1.8-36.35-1.7-15-.31-30.01-.72-45.02-.72-14.96.95-29.87,2.86-44.86,3.47-3.31-.3-6.66-.49-9.95-.73-2.66-.26-5.45-.06-8.01-.91-1.2-.79-2.76-1.66-4.2-.94-.71.68-.55,1.42.02,2.1-.68-.41-1.44-.6-2.31-.38-.25.1-.39.26-.48.43-.19-.94-.83-1.86-1.67-2.4-1.29.33-1.53,1.52-1.2,2.67-.24.28-.37.67-.29,1.19ZM32.93,534.64c-.15-.17-.31-.34-.47-.51.29.18.59.35.9.5-.14,0-.29,0-.43,0Z"/>
      <path class="cls-5" d="M356.64,535.98s-.03,0-.05,0c-.15,0-.29,0-.44,0,.16,0,.33,0,.49,0Z"/>
      <path class="cls-5" d="M359.31,247.42c3.18.14,6.39.02,9.58-.25,5.35.42,10.72.64,16.09.72,8.95.3,17.88.92,26.84.99,10.81,1.17,21.68.89,32.53,1.04,12.23.85,24.41,2.24,36.69,1.96,4.58.13,9.17-.19,13.75-.14,4.72-.04,9.48.13,14.15-.72.8-.16,1.59-.33,2.39-.5,8.69,1.79,17.74,1.43,26.58,1.19,8.17.04,16.32.63,24.49.77,7.22.06,14.46.19,21.67-.25,4.01-.41,7.96-1.2,11.88-2.1,2.14.56,4.37.99,6.57,1.16,7.41.06,15.27.33,22.39-1.89,2.74-1.69,1.7-1.22-.65-1.11-7.3-1.33-14.67-2.43-21.91-.43-9.99-2.05-20.33-2.43-30.53-2.45-12.43-.16-24.87.47-37.27,1.41-2.95.2-5.91.51-8.86.83-10.62-2.08-21.26-1.16-32.02-1.78-5.14-.24-10.29-.4-15.43-.69-5.34-.12-10.69.19-16.01-.28-6.27-.51-12.43-1.46-18.71-2.07-5.93-.38-11.86-.06-17.79-.11-10.16-.17-20.32-.67-30.48-.24-8.8.41-17.61.72-26.42.73-2.84.1-5.69.42-8.51.9-1.1-1.59-3.98-2.08-4.68.09-.57.31-.94.71-1.17,1.16-.07.02-.14.03-.21.05.06,0,.12.02.17.03-.73,1.58.28,3.81,1.21,5.48-.09.45-.16.9-.22,1.34.07,9.24,1.56,18.46,1.36,27.73.43,15.98-.48,31.86.24,47.87-.28,13.11-1.01,26.67.31,39.82.35,5.23-.2,10.43-.61,15.64-.52,13.68-.29,27.34-.45,41.04.64,10.14,1.15,20.3,1.39,30.46.48,5.74,1.29,11.44,1.82,17.17.35,2.73.57,5.47,1.11,8.17.92,6.42.18,12.97,1.85,19.29.44,5.51.2,11.58,4,16.07.72-1.65,1.61-3.31,2.25-5.05.37,1.42.81,2.83,1.37,4.22-.02,0-.04-.02-.04-.02h0s.09.25.16.25c1.68-3.45,1.24-7.92.92-11.73-.54-5.41-.98-10.83-1.57-16.23-.46-4.42-1.04-8.82-1.71-13.21.95-5.01,1.5-10.1.98-15.24-.21-7.98.21-16-1.22-23.89.3-9.23-2.89-17.86-4.93-26.71.04-5.24.08-10.49.04-15.73-.11-7.41,1.39-15.44.8-22.95-.88-8.66-1.52-17.34-1.69-26.05-.32-7.5.17-15.04-.5-22.52-.26-11.98-.31-23.98-.22-35.97.34-9.14-.13-18.28-1.09-27.37-.02-2.92-.64-5.78-1.79-8.45.24-.43.49-.85.76-1.24.12-.06.24-.12.36-.19Z"/>
      <path class="cls-5" d="M335.52,39.65c1.07,9.38,2.55,18.72,4.52,27.96.06-2.65-.08-5.47-.13-8.18.09.06.2.1.31.15.18,6,.69,11.98,1.97,17.83-.17,13.68-.33,27.46-.24,41.14-.04,13.79-.52,27.58,1.37,41.27.75,12.32.86,24.68,2.45,36.93,1.22,4.88,1.16,9.85,1.36,14.83.56,2.66.87,5.32,1.11,8.03.69,4.31-.74,9.17,2.2,12.87.44.64.94,1.28,1.78,1.3.05,0,.1.04.14.03.02-.04.03-.08.04-.12.06.42.13.84.2,1.26.28.83,1.32,1.29,2.14.98.77-.26,1.17-1.3.72-1.96.26-.53.23-1.16-.18-1.69-.08-.14-.13-.3-.2-.44.09.07.2.12.3.09.05,0,.37-.14.25-.16,0,0-.01,0-.02,0h0c-.09,0-.2.03-.28-.02-.28-2.48.46-5.11.4-7.65-.02-4.23-.65-8.43-.96-12.65,0-.02,0-.04,0-.06,2.82-5.36,3.08-11.75,2.28-17.69-1.38-10.82-1.31-21.73-2.21-32.59-1.79-16.25-1.98-32.55-1.97-48.88-.07-5.36-.86-10.68-.99-16.04.05-5.4-.64-10.74-1.06-16.11-.7-10.65-.48-21.35-.58-32.03.19-4.52.03-9.15-.11-13.67,0-1.33-.26-2.77-.77-4.12-.08-.22-.18-.43-.28-.65.69-.45,1.32-1.09,1.88-2.05,4.39-1.53,9.37-.93,14.07-1,6.02.08,12.04.09,18.04.73,6.06.71,12.16.51,18.23.98,3.61.59,7.23,1.09,10.9.99,6.13.17,12.24-.47,18.36-.75,12.43-.17,24.98-1.1,37.41.36,8.46.68,16.94.12,25.41.29,5.21-.24,10.39-.85,15.63-.45,4.61.33,9.18-.35,13.77-.66,5.33-.22,10.68-.38,16.01-.02,8.69.58,17.43.35,26.11,1.11,8.93.5,17.89-.11,26.82.36,8.19-.35,16.18,1.81,24.34,1.9,2.66-.02,5.26-.5,7.92-.49.67-.1,1.38-.19,2.07-.35.97.12,2.06-.29,2.52-1.07.28-.21.55-.45.78-.75-.19-.14-.39-.26-.58-.39,0-.05-.01-.1-.03-.15-.79-2.31-3.61-2.87-5.75-3.2-12.16-1.49-24.78-2.22-37.02-.59-.46.04-.93.08-1.4.12-3.02-.08-6.04-.15-9.06-.14-8.91-.02-17.34-1.11-26.58-1.19-12.03-.43-24.09-.93-36.08.58-5.98.02-12.02-.35-17.93.73-4.78.33-9.58.09-14.37.31-6.78.17-13.53-.35-20.28-.92-8.53-.31-17.06.39-25.59.55-8.87.17-17.72,1.21-26.6.6-2.64-.12-5.21-.84-7.83-1.12-7.01-.47-14.05-.52-21.05-1.15-4.51-.34-9.03-.17-13.54-.11-5.03.27-10.34-.14-15.23,1.19-1.09-.39-3.1-.77-5.91-1.04-3.35.07-3.24,1.24-2.03,2.45-.02.02-.06.02-.07.05-.04.08-.06.18-.1.26-.31-.75-.75-1.39-1.53-1.64-.28-.06-.71.06-.82.36-.23-.31-.5-.59-.87-.79-1.2-.74-3.79-.68-3.95,1.14-.17,2.25-.85,4.45-.38,6.71.52,2.75.64,5.53.78,8.31ZM343.09,28.05c-.04-.12-.08-.24-.12-.37.16,0,.33,0,.49,0-.03.26-.03.51,0,.76-.1.07-.19.13-.29.2-.03-.2-.06-.4-.09-.6ZM343.64,32.5c-.04-.49-.08-.98-.14-1.47.19-.04.37-.07.56-.1-.14.52-.29,1.05-.42,1.57ZM347.03,25.7c-.15.01-.3.03-.45.04,0-.13,0-.25,0-.37.26,0,.5-.01.74-.02-.1.12-.2.23-.29.36ZM342.91,26.35c.03-.21.07-.42.1-.63.18.15.38.29.58.43-.2.06-.43.12-.67.19Z"/>
      <path class="cls-5" d="M31.65,34.3c-.22,1.13-.28,2.28-.13,3.43-.33,2.03.73,4.38,3.03,4.38,2.88.21,2.42-3.18,2.66-5.11.53-1.21,1.39-2.28,2.23-3.36,1.92-.13,3.97-.03,5.66-.3,3.7-.41,7.37-1.06,11.02-1.77,2.73-.31,5.46-.77,8.19-1.26,8.56.06,17.11-.62,25.67-.77,1.05-.11,2.1-.2,3.16-.29.51.08,1.02.15,1.54.24,5.26.06,10.51-.34,15.75-.92,4.14-.02,8.27.03,12.41.07,1.15.03,2.3,0,3.44-.05,8.98.67,17.84,1.18,26.8-.18,3.86.11,7.73.21,11.59.33,2.97.28,5.98.55,8.94.78,6.72.59,13.44.5,20.16.24,1.08.04,2.16.09,3.24.14,1.96.36,3.83,1.08,5.78,1.48,3.4.61,6.86.37,10.27,0,8.87-1.12,17.82-1.01,26.75-1.37,1.22-.17,2.45-.32,3.68-.46,5.97-.09,11.91-.71,17.87-1.19,2.66-.08,5.33-.13,8-.16,4.03-.01,8.08-.05,12.11.02,1.89.1,3.78.21,5.67.3-.18-.05-.36-.09-.53-.14,2.02.1,4.04.24,6.06.45,4.87,1.2,9.96.28,14.9.21,1.09-.06,2.2-.16,3.28-.34,3.21.17,6.43.24,9.66.12,3.52-.2,7.28.52,10.67-.6,3.29-2.92-3.3-5.34-5.55-3.54-.75.03-1.51.05-2.26.08-5.27-1.91-10.82-2.82-16.47-2.78-4.88-.06-9.76,0-14.64.17-.37-.07-.75-.12-1.12-.2-4.65-.06-9.3-.04-13.95.06-17.89-.42-35.85.43-53.73.11-6.24-.18-12.38.2-18.49.85-1.33.04-2.66.1-3.99.17-8.32-2.56-17.28-3.04-25.94-3.03-6.43-.24-12.78.29-18.98,2.02-1.25.17-2.5.3-3.75.4-2.44-.1-4.89-.13-7.34-.07-1.84-.05-3.69-.04-5.53,0-6.47-1.78-13.45-.96-20.39.03-1.06-.05-2.12-.08-3.18-.15-13.02-.41-26.07.71-39.05,1.37-1.31.23-2.61.48-3.91.73-8.07.24-16.16.15-24.16-1.4-3.19-.44-6.11,1.13-8.42,3.15-1.93-.85-4.17.3-5.31,1.94-.25.24-.48.49-.71.75-2.84.57-5.18,3.39-3.37,6.49.2-.4.44-.75.71-1.07ZM41.08,26.64c.91.14,1.83.26,2.74.37-.68.15-1.36.32-2.03.49-.17-.33-.42-.62-.71-.86Z"/>
      <path class="cls-5" d="M26.65,530.68s0,0,.01,0c0,0,0,0,0,0,0,0,0,0-.01,0Z"/>
      <path class="cls-5" d="M675.67,569c-2.37,2.11-5.75.83-8.66,1.05-36.47-.6-72.95-.59-109.42-.8-.07,0-.13,0-.2-.01-.81,0-1.61,0-2.41,0-.01,0-.03,0-.04,0-85.02-.93-170.05-1.71-255.08-2.2-55.08.05-110.2-.72-165.29-.79-.76-.04-1.51-.09-2.27-.13-6.23-.02-12.45.02-18.52.08-3,.03-6.01.07-9.01.09-3.11.01-6.22.01-9.33.03-.08,0-.16,0-.24,0-5.87-.02-11.75-.04-17.63-.03-1.14,0-2.29,0-3.43.01-7-.01-14-.04-21-.1-3.83-.07-7.66-.15-11.49-.13,0,0-.02,0-.02,0-.02,0-.04,0-.07,0-2.89.05-5.78.13-8.66.21-4.53.08-9.07.12-13.6.14-3.58,0-7.16-.01-10.74-.02-.03,0-.06,0-.09,0-.03,0-.06,0-.09,0-.05,0-.1,0-.16,0,0,0,0,0,0,0-1.86,0-3.7-.16-5.34-1.17-.25.7-.19,1.51.37,2.37-.1.34-.03.77.32,1.31.87,1.63.72,4.09,2.54,5.03.48-.46.81-1.03,1.03-1.64.29.71.68,1.38,1.21,2,.93,1.1,2.04,2,3.27,2.73.31.19.64.35.97.5,1,.67,2.05,1.22,3.25,1.59,2.12.65,4.21.61,6.38.28,1.44-.22,2.83-.65,4.23-1.07.59-.15,1.18-.28,1.78-.38,2.48-.3,4.95-.65,7.42-1.02,2.82-.37,5.66-.61,8.49-.91,3.37-.36,6.73-.79,10.08-1.28,15.75,1.46,31.55,3.54,47.39,2.99,15.51-.51,31.02-.2,46.49.82,10.45.51,20.86-.34,31.21-1.72,1.45.11,2.9.24,4.35.4,12.85,1.8,25.79,3.06,38.78,3.27,8.79,0,17.6-.3,26.31-1.5.81,0,1.61-.01,2.42-.01,2.96,0,5.91.2,8.86.31,6.2.23,12.47-.11,18.65-.57,3.03-.23,6.05-.41,9.08-.66,3.04-.25,6.08-.49,9.13-.61,1.03-.04,2.06-.07,3.08-.1.1,0,.2,0,.3,0,2.21-.06,4.42-.11,6.64-.18,2.84-.09,5.67-.21,8.5-.25,3.67.02,7.33.08,11,.07,3.74-.01,7.47-.1,11.21-.15,4.45-.07,8.91-.18,13.36-.3,4.51.04,9.01,0,13.51-.11.97.02,1.94.04,2.91.05,2.72.01,5.44-.03,8.16-.07,5.95-.07,11.91-.08,17.86-.08,12.85,0,25.7,0,38.55-.07,2.93-.01,5.88-.09,8.8,0,3.1.1,6.2.25,9.29.38,6.38.27,12.74.27,19.12.19,5.66.02,11.33.02,16.98.21,5.98.2,11.95.44,17.93.49,2.07.02,4.14,0,6.21,0,3.46-.02,6.91-.03,10.36.07,5.6.17,11.18.66,16.77,1,6.23.38,12.46.76,18.71.87,3.43.06,6.85.1,10.28.13,2.14.02,4.3.08,6.46.08,1.26,0,2.51-.02,3.76-.08,6.38-.3,12.73-1.26,18.91-2.91,2.37-.63,4.7-1.38,7-2.19,1.51.21,3.02.4,4.53.55-.13-.01-.26-.03-.39-.04,6.61.86,13.19,1.85,19.79,2.72,3.08.47,6.09,1.35,9.17,1.79,4,.79,7.94-.32,11.92-.28,5.47.93,11.07,1.34,16.49-.16,1.57-.13,3.14-.12,4.7-.26,5.07-.16,9.4-4.78,6.91-9.8Z"/>
    </g>
    <path class="cls-4" d="M30.44,537.04c-.37-2.47,3.74-2.17,4.16-.17.37,2.47-3.74,2.17-4.16.17Z"/>
    <path class="cls-4" d="M26.76,538.01c-.77-.19-1.73-.46-2.21-1.13.56-.64,1.45-.88,2.27-.98,3.45-.02,6.9.1,10.35.18,5.95.19,12.01.45,17.88.95-9.4.62-18.87,1.28-28.29.98Z"/>
    <path class="cls-4" d="M44.04,537.68c-2.03-.16-4.17-.28-6.13-.52,5.65-.04,11.2-.88,16.75-1.84,4.97-.7,9.96-1.1,14.96-1.45,15.96-.85,31.96.12,47.88,1.24.01,0,.02.02,0,.02-12.99.5-25.84.57-38.8.91-11.56.32-23.12,1.45-34.67,1.64Z"/>
    <path class="cls-4" d="M103.64,538.23c-11.98.76-23.78-2.06-35.61-2.7,5.52-2.04,11.58-1.77,17.37-1.62,11.7.21,23.42.23,35.1-.36,12.23-.72,24.48,1.09,36.5,2.64-17.84.16-35.55,2.09-53.36,2.04Z"/>
    <path class="cls-4" d="M166.93,540c-4.64.17-9.26-.59-13.84-1.11-7.76-.76-15.69-1.24-23.16-3.43,6.83.5,13.64.18,20.48.2,5.84.1,11.62,1.16,17.48.95,19.98-.11,39.96-2.18,59.95-.89,3.68.22,7.46.49,11.07.89-13.8,1.61-27.68,2.3-41.56,2.61-10.15.19-20.26,1.01-30.41.79Z"/>
    <path class="cls-4" d="M290.72,537.83c4.96-.5,9.58-2.2,14.46-3.23,11.1-1.45,22.33-2.18,33.54-2.21,8.54-.23,17.03.75,25.57.61,9.96.34,19.83-1.47,29.78-1.48,11.17.42,22.36.58,33.54,1.09,5.38.44,10.75.44,16.14.22,2.5.02,5.1,0,7.55.1-2.96.5-5.91,1.02-8.85,1.62-5.33,1.32-10.8,1.69-16.26,1.89-6.93.33-13.87.59-20.8.06-6.84-.68-13.71-.82-20.55-.09-17.7,2.28-35.47.16-53.22.23-8.36.23-16.71.79-25.07,1.25-5.29.39-10.56,1.1-15.82-.07Z"/>
    <path class="cls-4" d="M473.08,541.86c-8.99-.25-17.78-2.27-26.6-3.05-8.7-.67-17.37-.87-25.85-2.4-3.27-.48-6.63-.82-9.84-1.37,3.25-.54,6.52-1,9.82-1.17,9.43-.13,18.95-.3,28.3,1.01,8.8.82,17.44,3.04,26.3,2.95,4.36.08,8.66-1.18,12.91-1.77,3.92-.56,7.87-.81,11.82-1.02,3.86-.33,7.66.26,11.44.92,4.08.43,8.19.5,12.3.45,7.21-.64,14.3-2.42,21.58-2.51,3.87-.3,7.7.21,11.52.76,6.23.59,12.51.68,18.76.68,13.39.08,26.78.11,40.17-.13,2.21.03,4.37-.32,6.54-.61,6.75.03,13.66.29,20.27,1.46-3.09.85-6.21,1.7-9.36,2.32-4.46.73-8.97.91-13.43,1.66-16.72-.03-33.47.07-50.19-.27-2.96-.13-5.91-.27-8.87-.5-4.47-.28-8.85-1.41-13.34-1.26-4.24.11-8.44.46-12.65.96-4.84.93-9.71,1.61-14.64,1.35-6.18.3-12.14-1.6-18.27-1.59-5.17.21-10.36.55-15.42,1.62-4.34,1.08-8.79,1.72-13.28,1.51Z"/>
    <path class="cls-4" d="M641.12,536.01c-.51-3.41,5.16-2.98,5.73-.23.51,3.41-5.16,2.98-5.73.23Z"/>
    <path class="cls-4" d="M636.32,535.77c-5.63-1.85,1.81-6.73,5.9-2.45,3.28,3.65-4.04,4.03-6.06,2.44,0,0,.16,0,.16.01Z"/>
    <path class="cls-4" d="M645.97,537.12c-6.43-2.14-3.34-7.91,2.17-4.59,3.35,2.15,1.73,5.99-2.17,4.59Z"/>
    <path class="cls-4" d="M514.32,572.7c-11.01-.37-22.04-.27-33.05-.65-1.23-.21-2.46-.65-3.55-1.27.48-.45,1.16-.83,1.77-1.12,3.94-1.15,8.31-.37,12.36-.66,7.9.11,15.74-.95,23.64-1.06,7.91-.59,15.84-.89,23.77-.76,11.19-.16,22.5-.75,33.57,1.23,2.95.65,5.75,1.87,8.75,2.38-1.09.21-2.35.29-3.51.38-2.04.06-4.38-.13-6.37.25-5.35.84-10.76,1.16-16.18,1.13-8.14.04-17.1-.33-25.06-.18-5.38.07-10.75.62-16.14.34Z"/>
    <path class="cls-4" d="M592.39,570.85c-.38-2.54,3.84-2.22,4.27-.17.38,2.54-3.84,2.22-4.27.17Z"/>
    <path class="cls-4" d="M668.35,571.67c-7.3-.53-14.78.92-21.88-1.39,1.64-.65,3.57-.95,5.36-1.09,4.69-.12,9.46.1,14.11.8,2.37.45,4.79,1.15,7.05,1.79-1.55.06-3.1,0-4.64-.1Z"/>
    <path class="cls-4" d="M678.41,575.92c-1.44-1.28-2.56-5.34.5-4.99,2.47.84,1.49,4.21-.5,4.99Z"/>
    <path class="cls-4" d="M244.46,579.09c8.34-2.88,17.38-1.95,26.08-1.95,12.03-.57,24.07-.07,36.11.04,6.18,0,12.37-.46,18.54-.03-6.98.83-13.98,2.39-21.05,2.96-7.93.68-15.97.58-23.91.62-11.91.33-24.12,1.65-35.76-1.64Z"/>
    <path class="cls-4" d="M323.96,573.09c-8.68-.62-17.42-.21-26.09-1.05-11.57-1.15-23.18-1.61-34.8-1.86-8.11-.18-16.21-.42-24.31-.77-7.3-.04-14.59.56-21.86-.49,3.59-.45,7.42-.57,10.91-1.15,5.76-1.08,11.61-.98,17.44-.63,5.76.25,11.53.2,17.29.27,12.59-.18,25.17-.85,37.76-.35,19.49.22,39.22-.7,58.43,3.17-11.38,2.28-23.11,3.47-34.77,2.86Z"/>
    <path class="cls-4" d="M47.75,576.15c-2.65-.16-5.25-.71-7.85-1.25,4.41-1,9.2-1.08,13.73-.57,1.57.18,3.21.44,4.68.9-3.53.46-6.99,1.18-10.56.92Z"/>
    <path class="cls-4" d="M116.29,580.17c-4.18-.13-8.29-1.06-12.48-.84-5.34.02-10.7.45-16.03-.1-8.04-1.42-15.87-1.92-24.02-1.29-8.82.07-17.64-.56-26.47-.54-4.78-.19-9.76.25-14.37-1.24,3.02-.24,6.04-1.15,9.01-1.87,8.46-2.16,17.3-1.94,25.96-1.76,4.49.19,8.97.1,13.46.12,5.76.08,11.42,1.41,17.09,2.3,5.98.58,12.01.28,18,.57,11.11,1.6,22.05,2.2,33.25,2.46-7.65,1.5-15.52,3.09-23.41,2.19Z"/>
    <path class="cls-4" d="M164.24,579.2c-5.35-.28-10.28-.98-15.5-1.73,7.6-1.1,15.46-.86,23.14-1.39,5.02-.02,10.15.52,15.07,1.16-4.08.55-8.19.88-12.29,1.25-3.48.36-6.92,1.05-10.43.7Z"/>
    <path class="cls-4" d="M213.08,579.49c-1.85-.45-3.72-.95-5.43-1.76,3.2-2.16,7.11-2.19,10.81-1.81,4.23.44,8.38,1.2,12.45,2.41-5.74,1.32-11.93,2.42-17.84,1.16Z"/>
    <g>
      <path class="cls-2" d="M59.05,576.27c-1.8.01-3.76.16-5.61.21-1.87.07-3.74.14-5.61.2,1.26-.21,2.51-.43,3.77-.66,11.85.41,23.72.13,35.56-.5,11.91-.7,23.98-1.12,35.82-1.53-21.39-.99-42.78-.2-64.16.56.86-.18,1.72-.37,2.58-.55-2.35.21-4.72.44-7.1.69-6.25.16-12.57.22-18.76.39,4.28-.26,8.56-.66,12.83-1.13,1.01-.1,2.01-.21,3.02-.34,8.33-.96,16.64-2.05,24.95-2.61-21.8-2.17-44.01-2.29-65.56,2.37.65-.35-.72-.07-1,.02-.42.81,1.73.88,2.32,1.08,7.45,1.03,14.91,1.08,22.37.67,3.43.21,6.86.41,10.3.58-.53.06-1.07.12-1.6.18-5.14.37-21.86,2.83-25.29-.3,1.33,1.52,3.59,1.76,5.58,2.02-1.03.06-2.07.13-3.1.2,2.42.12,5.01.12,7.49.17.21,0,.43,0,.64.01.41.01.83.04,1.24.04,1.35.05,2.7.06,4.05.03,8.46.02,16.91-.52,25.27-1.8Z"/>
      <path class="cls-2" d="M523.75,579.19c-2.8.04-16.19.73-25.13,1.5-2.73-.34-5.5-.62-8.23-.88-41.27-2.19-82.61-4.51-123.95-3.59-40.55,2.02-81.05-1.93-121.55-2.64-10.67.15-21.62.08-31.92,3.02,2.23.5,4.46,1.01,6.7,1.52-2.84-.12-5.69-.25-8.53-.4-16.66-1-33.35-.93-50.03-.46-37.72.83-75.4,1.06-113.12,1.93,11.32,1.4,22.9,2.53,34.41,2.55,16.9.52,33.8-.07,50.7-.47,14.28-.22,28.45-.35,42.77-.72,15.88-.39,31.81.13,47.7.26,2.86,0,5.73-.03,8.59-.06,6.8,1.25,13.68,2.09,20.65,1.92,40.56-.65,80.89-1.38,121.52-2.4,24.37-.58,48.69.64,73.01,1.93,15.68.17,31.34-1.05,47.02-1.12-3.53.39-5.19.78-2.97,1.07,25.48,2.27,51.17,3.69,76.74,4.58,18.27.23,36.27-.78,54.61-.45-32.9-2.43-66.03-5.19-98.99-7.1Z"/>
      <path class="cls-2" d="M359.15,297.89c4.49-16.36.02-33.15-.31-49.53-5.51,13.9-.62,33.8.31,49.53Z"/>
      <path class="cls-2" d="M358.96,248.04s-.09.05-.13.08c0,.08,0,.16,0,.24.04-.1.08-.21.12-.31Z"/>
      <path class="cls-2" d="M356.41,222.33c1.39-18.1-1.48-36.23-3.62-54.2-1.88,18.03.58,36.38,3.62,54.2Z"/>
      <path class="cls-2" d="M352.8,69.69c-1.19-13.24-9.89-28.32-4.51-41.04-9.72,9.74,5.79,71.03,5.59,89.42,1.74-15.99,2.1-32.47-1.08-48.37Z"/>
    </g>
  </g>
</svg>